<svg width="32" height="32" viewBox="0 0 32 32" fill="none" xmlns="http://www.w3.org/2000/svg">
<path d="M0 10C0 4.47715 4.47715 0 10 0H22C27.5228 0 32 4.47715 32 10V22C32 27.5228 27.5228 32 22 32H10C4.47715 32 0 27.5228 0 22V10Z" fill="url(#paint0_radial_209_47028)"/>
<path d="M14.9832 12.8066C15.3744 12.1309 16.0057 12.1309 16.3969 12.8066L18.833 17.0832C19.2242 17.7589 18.9042 18.3101 18.1217 18.3101H13.2139C12.4404 18.3101 12.1203 17.7589 12.5026 17.0832L14.9832 12.8066ZM10.2709 4.57344C10.6621 3.89772 11.2845 3.89772 11.6757 4.57344L12.2181 5.55146L13.4984 7.8009C13.8096 8.44106 13.8096 9.1968 13.4984 9.83696L9.204 17.2788C8.8128 17.8834 8.16375 18.2657 7.44357 18.3101H3.87825C3.09584 18.3101 2.77576 17.7678 3.16696 17.0832L10.2709 4.57344Z" fill="#E64343"/>
<path d="M22.6263 18.5369V16.5411H27.1101V13.5H14.9004V16.5411H19.3848V18.5353C15.7403 18.7057 13 19.4404 13 20.3206C13 21.2007 15.7416 21.9354 19.3848 22.1069V28.5H22.6273V22.1064C26.2652 21.9354 29 21.2013 29 20.3219C29 19.4426 26.2652 18.7084 22.6273 18.5375L22.6263 18.5369ZM22.6273 21.5648V21.5632C22.5358 21.5691 22.0658 21.5979 21.0192 21.5979C20.1825 21.5979 19.5939 21.5737 19.3864 21.5627V21.5654C16.1666 21.4202 13.7632 20.8495 13.7632 20.1665C13.7632 19.4836 16.1668 18.9137 19.3864 18.7682V20.9968C19.5973 21.0115 20.2004 21.0478 21.033 21.0478C22.0329 21.0478 22.5356 21.0054 22.6278 20.9968V18.7682C25.8413 18.914 28.2392 19.4852 28.2392 20.1657C28.2392 20.8462 25.8403 21.4178 22.6278 21.5635" fill="#53AE94"/>
<path d="M10 1H22V-1H10V1ZM31 10V22H33V10H31ZM22 31H10V33H22V31ZM1 22V10H-1V22H1ZM10 31C5.02944 31 1 26.9706 1 22H-1C-1 28.0751 3.92487 33 10 33V31ZM31 22C31 26.9706 26.9706 31 22 31V33C28.0751 33 33 28.0751 33 22H31ZM22 1C26.9706 1 31 5.02944 31 10H33C33 3.92487 28.0751 -1 22 -1V1ZM10 -1C3.92487 -1 -1 3.92487 -1 10H1C1 5.02944 5.02944 1 10 1V-1Z" fill="white" fill-opacity="0.2"/>
<defs>
<radialGradient id="paint0_radial_209_47028" cx="0" cy="0" r="1" gradientUnits="userSpaceOnUse" gradientTransform="translate(16 16) rotate(90) scale(16)">
<stop stop-color="#676379"/>
<stop offset="1" stop-color="#1F1D2C"/>
</radialGradient>
</defs>
</svg>
