<svg width="32" height="32" viewBox="0 0 32 32" fill="none" xmlns="http://www.w3.org/2000/svg">
<path d="M0 10C0 4.47715 4.47715 0 10 0H22C27.5228 0 32 4.47715 32 10V22C32 27.5228 27.5228 32 22 32H10C4.47715 32 0 27.5228 0 22V10Z" fill="black"/>
<path d="M6.58343 6.39149C5.8637 7.14722 5.26991 7.78299 5.26391 7.79498C5.25792 7.81297 5.90568 8.44874 6.70339 9.20447C7.5011 9.96619 8.19684 10.6319 8.24483 10.6739L8.33479 10.7579L8.17285 11.0278C6.75137 13.3789 6.45748 16.2099 7.35115 18.813C7.51909 19.3048 7.80699 19.9346 8.0529 20.3484C8.17285 20.5523 8.22683 20.6843 8.21484 20.7083C8.20284 20.7323 7.47711 21.5 6.60143 22.4176C5.72575 23.3293 5.01201 24.091 5.00001 24.103C4.99401 24.121 7.44712 26.4902 7.68103 26.6821L7.771 26.7601L9.1565 25.3146C9.91822 24.5169 10.632 23.7672 10.7399 23.6532L10.9438 23.4493L11.1358 23.5692C12.1134 24.193 13.259 24.6248 14.5245 24.8528C15.1603 24.9667 16.3719 24.9967 17.0496 24.9127C18.3571 24.7628 19.6527 24.325 20.7143 23.6832L20.9902 23.5152L21.2841 23.8031C21.9258 24.4269 24.325 26.7061 24.349 26.7181C24.3729 26.7301 27.006 23.9771 27 23.9411C26.994 23.9231 25.1886 22.1897 24.0851 21.1521L23.7192 20.8042L23.8871 20.5283C25.2966 18.1832 25.5905 15.3402 24.6788 12.7192C24.5469 12.3353 24.145 11.4716 23.9111 11.0758L23.7972 10.8779L25.3386 9.26445C26.1843 8.38277 26.874 7.64504 26.868 7.62704C26.844 7.56706 24.145 5.01799 24.109 5.01799C24.0851 5.01799 23.4073 5.70774 22.5976 6.55943C21.7879 7.40512 21.1161 8.10087 21.0981 8.10687C21.0861 8.11287 21.0082 8.07688 20.9362 8.0229C20.7323 7.88495 20.2165 7.60305 19.9286 7.4711C19.0529 7.06925 18.2372 6.82334 17.2895 6.68539C16.7977 6.61341 15.3222 6.60142 14.8664 6.66739C13.7748 6.82334 12.8811 7.09324 11.9695 7.54907C11.7056 7.67502 11.3997 7.84296 11.2797 7.91494L11.0638 8.04689L10.8179 7.80698C10.6859 7.67502 10.0862 7.11123 9.49237 6.54144C8.89859 5.97764 8.29281 5.40185 8.14886 5.25791L7.88496 5L6.58343 6.39149ZM16.6538 10.3021C17.6074 10.416 18.4591 10.7399 19.2448 11.2917C19.6467 11.5736 20.2465 12.1734 20.5283 12.5752C22.1298 14.8424 21.8239 17.9253 19.8086 19.8146C18.0872 21.422 15.5981 21.7819 13.5049 20.7143C11.9935 19.9406 10.9258 18.5251 10.584 16.8277C10.476 16.2879 10.476 15.2803 10.584 14.7464C10.6859 14.2186 10.8239 13.8408 11.0818 13.313C12.1134 11.2377 14.3506 10.0262 16.6538 10.3021Z" fill="white"/>
<path d="M10 1H22V-1H10V1ZM31 10V22H33V10H31ZM22 31H10V33H22V31ZM1 22V10H-1V22H1ZM10 31C5.02944 31 1 26.9706 1 22H-1C-1 28.0751 3.92487 33 10 33V31ZM31 22C31 26.9706 26.9706 31 22 31V33C28.0751 33 33 28.0751 33 22H31ZM22 1C26.9706 1 31 5.02944 31 10H33C33 3.92487 28.0751 -1 22 -1V1ZM10 -1C3.92487 -1 -1 3.92487 -1 10H1C1 5.02944 5.02944 1 10 1V-1Z" fill="white" fill-opacity="0.2"/>
</svg>
