<svg width="32" height="32" viewBox="0 0 32 32" fill="none" xmlns="http://www.w3.org/2000/svg">
<path d="M0 10C0 4.47715 4.47715 0 10 0H22C27.5228 0 32 4.47715 32 10V22C32 27.5228 27.5228 32 22 32H10C4.47715 32 0 27.5228 0 22V10Z" fill="url(#paint0_radial_3_10252)"/>
<path fill-rule="evenodd" clip-rule="evenodd" d="M7.63626 7H15.2227C19.8375 7 23.3355 9.47274 24.6368 13.0708H27V15.2455H25.1344C25.1712 15.5941 25.1896 15.9445 25.1894 16.2951V16.3485C25.1896 16.7427 25.1663 17.1367 25.1197 17.5282H27V19.7029H24.5918C23.2561 23.2509 19.7853 25.7 15.2227 25.7H7.63626V19.7029H5V17.5282H7.63626V15.2455H5V13.0708H7.63626V7ZM9.75717 19.7029V23.7494H15.2227C18.5956 23.7494 21.1015 22.1288 22.2679 19.7029H9.75717ZM22.9177 17.5282H9.75717V15.2455H22.9211C22.9704 15.6111 22.995 15.9796 22.9947 16.3485V16.4019C22.9951 16.7786 22.9693 17.155 22.9177 17.5282ZM15.2227 8.94768C18.6107 8.94768 21.1245 10.611 22.284 13.0709H9.75717V8.94768H15.2227Z" fill="white"/>
<path d="M10 1H22V-1H10V1ZM31 10V22H33V10H31ZM22 31H10V33H22V31ZM1 22V10H-1V22H1ZM10 31C5.02944 31 1 26.9706 1 22H-1C-1 28.0751 3.92487 33 10 33V31ZM31 22C31 26.9706 26.9706 31 22 31V33C28.0751 33 33 28.0751 33 22H31ZM22 1C26.9706 1 31 5.02944 31 10H33C33 3.92487 28.0751 -1 22 -1V1ZM10 -1C3.92487 -1 -1 3.92487 -1 10H1C1 5.02944 5.02944 1 10 1V-1Z" fill="white" fill-opacity="0.2"/>
<defs>
<radialGradient id="paint0_radial_3_10252" cx="0" cy="0" r="1" gradientUnits="userSpaceOnUse" gradientTransform="translate(16 16) rotate(90) scale(16)">
<stop stop-color="#FFDD93"/>
<stop offset="1" stop-color="#F6BF48"/>
</radialGradient>
</defs>
</svg>
