<svg width="32" height="32" viewBox="0 0 32 32" fill="none" xmlns="http://www.w3.org/2000/svg">
<path d="M0 10C0 4.47715 4.47715 0 10 0H22C27.5228 0 32 4.47715 32 10V22C32 27.5228 27.5228 32 22 32H10C4.47715 32 0 27.5228 0 22V10Z" fill="url(#paint0_radial_207_11911)"/>
<path fill-rule="evenodd" clip-rule="evenodd" d="M10.2797 9.54774L13.3196 7.8593V11.2362L10.2797 9.54774ZM13.3196 16.7839L9.26644 19.0352L5.2133 16.7839V12.8442L9.26644 15.0955L13.3196 12.8442V16.7839ZM5.2133 7.8593L8.25315 9.54774L5.2133 11.2362V7.8593ZM9.77308 10.3518L12.8129 12.0402L9.77308 13.7286V10.3518ZM8.7598 13.7286L5.71994 12.0402L8.7598 10.3518V13.7286ZM12.8129 7.05528L9.26644 8.98492L5.71994 7.05528L9.26644 5.04523L12.8129 7.05528ZM4.20001 6.73367V17.2663L9.26644 20L14.3329 17.2663V6.73367L9.26644 4L4.20001 6.73367Z" fill="#13B5EC"/>
<path d="M14.6667 18.6667H16V17.3334H14.6667V18.6667Z" fill="#FED955"/>
<path d="M14.6667 21.3333H16V20H14.6667V21.3333Z" fill="#FED955"/>
<path d="M14.6667 20H16V18.6667H14.6667V20Z" fill="#FED955"/>
<path d="M14.6667 22.6667H16V21.3334H14.6667V22.6667Z" fill="#FED955"/>
<path d="M20 16H21.3333V14.6667H20V16Z" fill="#FED955"/>
<path d="M20 24L21.3333 24L21.3333 25.3333L20 25.3333L20 24Z" fill="#FED955"/>
<path d="M21.3333 16H22.6667V14.6667H21.3333V16Z" fill="#FED955"/>
<path d="M22.6667 16H24V14.6667H22.6667V16Z" fill="#9695F8"/>
<path d="M17.3333 16L16 16L16 14.6667L17.3333 14.6667L17.3333 16Z" fill="#9695F8"/>
<path d="M25.3333 24L24 24L24 22.6667L25.3333 22.6667L25.3333 24Z" fill="#9695F8"/>
<path d="M14.6667 24H16V22.6667H14.6667V24Z" fill="#9695F8"/>
<path d="M21.3333 14.6667H22.6667V13.3334H21.3333V14.6667Z" fill="#9695F8"/>
<path d="M21.3333 13.3333H22.6667V12H21.3333V13.3333Z" fill="#5552FD"/>
<path d="M21.3333 28H22.6667V26.6667H21.3333V28Z" fill="#5552FD"/>
<path d="M21.3333 26.6667H22.6667V25.3334H21.3333V26.6667Z" fill="#9695F8"/>
<path d="M18.6667 14.6667H20V13.3334H18.6667V14.6667Z" fill="#9695F8"/>
<path d="M18.6667 13.3333H20V12H18.6667V13.3333Z" fill="#5552FD"/>
<path d="M18.6667 28H20V26.6667H18.6667V28Z" fill="#5552FD"/>
<path d="M18.6667 26.6667H20V25.3334H18.6667V26.6667Z" fill="#9695F8"/>
<path d="M20 14.6667H21.3333V13.3334H20V14.6667Z" fill="#9695F8"/>
<path d="M20 13.3333H21.3333V12H20V13.3333Z" fill="#5552FD"/>
<path d="M20 28H21.3333V26.6667H20V28Z" fill="#5552FD"/>
<path d="M20 26.6667H21.3333V25.3334H20V26.6667Z" fill="#9695F8"/>
<path d="M17.3333 14.6667H18.6667V13.3334H17.3333V14.6667Z" fill="#9695F8"/>
<path d="M17.3333 13.3333H18.6667V12H17.3333V13.3333Z" fill="#5552FD"/>
<path d="M17.3333 28H18.6667V26.6667H17.3333V28Z" fill="#5552FD"/>
<path d="M17.3333 26.6667H18.6667V25.3334H17.3333V26.6667Z" fill="#9695F8"/>
<path d="M24 17.3333H25.3333V16H24V17.3333Z" fill="#9695F8"/>
<path d="M16 17.3333L14.6667 17.3333L14.6667 16L16 16L16 17.3333Z" fill="#9695F8"/>
<path d="M24 25.3333L22.6667 25.3333L22.6667 24L24 24L24 25.3333Z" fill="#9695F8"/>
<path d="M16 25.3333H17.3333V24H16V25.3333Z" fill="#9695F8"/>
<path d="M25.3333 18.6667H26.6667V17.3334H25.3333V18.6667Z" fill="#9695F8"/>
<path d="M13.3333 18.6667H14.6667V17.3334H13.3333V18.6667Z" fill="#9695F8"/>
<path d="M12 18.6667H13.3333V17.3334H12V18.6667Z" fill="#5552FD"/>
<path d="M13.3333 17.3333H14.6667V16H13.3333V17.3333Z" fill="#5552FD"/>
<path d="M26.6666 17.3333L25.3333 17.3333L25.3333 16L26.6666 16L26.6666 17.3333Z" fill="#5552FD"/>
<path d="M22.6667 26.6667H24V25.3334H22.6667V26.6667Z" fill="#5552FD"/>
<path d="M13.3333 22.6667V24H14.6667V22.6667H13.3333Z" fill="#5552FD"/>
<path d="M14.6667 16H16V14.6667H14.6667V16Z" fill="#5552FD"/>
<path d="M25.3333 16L24 16L24 14.6667L25.3333 14.6667L25.3333 16Z" fill="#5552FD"/>
<path d="M24 25.3333H25.3333V24H24V25.3333Z" fill="#5552FD"/>
<path d="M14.6667 24V25.3333H16V24H14.6667Z" fill="#5552FD"/>
<path d="M16 14.6667H17.3333V13.3334H16V14.6667Z" fill="#5552FD"/>
<path d="M24 14.6667L22.6667 14.6667L22.6667 13.3334L24 13.3334L24 14.6667Z" fill="#5552FD"/>
<path d="M25.3333 24H26.6667V22.6667H25.3333V24Z" fill="#5552FD"/>
<path d="M16 25.3334V26.6667H17.3333V25.3334H16Z" fill="#5552FD"/>
<path d="M26.6667 18.6667H28V17.3334H26.6667V18.6667Z" fill="#5552FD"/>
<path d="M25.3333 20H26.6667V18.6667H25.3333V20Z" fill="#9695F8"/>
<path d="M13.3333 20H14.6667V18.6667H13.3333V20Z" fill="#9695F8"/>
<path d="M12 20H13.3333V18.6667H12V20Z" fill="#5552FD"/>
<path d="M26.6667 20H28V18.6667H26.6667V20Z" fill="#5552FD"/>
<path d="M25.3333 21.3333H26.6667V20H25.3333V21.3333Z" fill="#9695F8"/>
<path d="M13.3333 21.3333H14.6667V20H13.3333V21.3333Z" fill="#9695F8"/>
<path d="M12 21.3333H13.3333V20H12V21.3333Z" fill="#5552FD"/>
<path d="M26.6667 21.3333H28V20H26.6667V21.3333Z" fill="#5552FD"/>
<path d="M25.3333 22.6667H26.6667V21.3334H25.3333V22.6667Z" fill="#9695F8"/>
<path d="M13.3333 22.6667H14.6667V21.3334H13.3333V22.6667Z" fill="#9695F8"/>
<path d="M12 22.6667H13.3333V21.3334H12V22.6667Z" fill="#5552FD"/>
<path d="M26.6667 22.6667H28V21.3334H26.6667V22.6667Z" fill="#5552FD"/>
<path d="M21.3333 24L22.6667 24L22.6667 25.3333L21.3333 25.3333L21.3333 24Z" fill="#FED955"/>
<path d="M20 18.6667H21.3333V17.3334H20V18.6667Z" fill="#FED955"/>
<path d="M20 21.3333H21.3333V20H20V21.3333Z" fill="#FED955"/>
<path d="M20 22.6667H21.3333V21.3334H20V22.6667Z" fill="#FED955"/>
<path d="M20 17.3333H21.3333V16H20V17.3333Z" fill="#FED955"/>
<path d="M20 22.6667L21.3333 22.6667L21.3333 24L20 24L20 22.6667Z" fill="#FED955"/>
<path d="M17.3333 21.3333H18.6667V20H17.3333V21.3333Z" fill="#FED955"/>
<path d="M17.3333 20H18.6667V18.6667H17.3333V20Z" fill="#FED955"/>
<path d="M17.3333 22.6667H18.6667V21.3334H17.3333V22.6667Z" fill="#FED955"/>
<path d="M17.3333 17.3333H18.6667V16H17.3333V17.3333Z" fill="#FED955"/>
<path d="M17.3333 22.6667L18.6667 22.6667L18.6667 24L17.3333 24L17.3333 22.6667Z" fill="#FED955"/>
<path d="M21.3333 21.3333H22.6667V20H21.3333V21.3333Z" fill="#FED955"/>
<path d="M21.3333 20H22.6667V18.6667H21.3333V20Z" fill="#FED955"/>
<path d="M21.3333 22.6667H22.6667V21.3334H21.3333V22.6667Z" fill="#FED955"/>
<path d="M21.3333 17.3333H22.6667V16H21.3333V17.3333Z" fill="#FED955"/>
<path d="M21.3333 22.6667L22.6667 22.6667L22.6667 24L21.3333 24L21.3333 22.6667Z" fill="#FED955"/>
<path d="M18.6667 16H20V14.6667H18.6667V16Z" fill="#FED955"/>
<path d="M18.6667 24L20 24L20 25.3333L18.6667 25.3333L18.6667 24Z" fill="#FED955"/>
<path d="M17.3333 16H18.6667V14.6667H17.3333V16Z" fill="#FED955"/>
<path d="M17.3333 24L18.6667 24L18.6667 25.3333L17.3333 25.3333L17.3333 24Z" fill="#FED955"/>
<path d="M18.6667 18.6667H20V17.3334H18.6667V18.6667Z" fill="#FED955"/>
<path d="M18.6667 21.3333H20V20H18.6667V21.3333Z" fill="#FED955"/>
<path d="M17.3333 18.6667H18.6667V17.3334H17.3333V18.6667Z" fill="#5552FD"/>
<path d="M20 20H21.3333V18.6667H20V20Z" fill="#5552FD"/>
<path d="M22.6667 18.6667H24V17.3334H22.6667V18.6667Z" fill="#5552FD"/>
<path d="M22.6667 21.3333H24V20H22.6667V21.3333Z" fill="#5552FD"/>
<path d="M22.6667 20H24V18.6667H22.6667V20Z" fill="#5552FD"/>
<path d="M22.6667 22.6667H24V21.3334H22.6667V22.6667Z" fill="#5552FD"/>
<path d="M22.6667 17.3333H24V16H22.6667V17.3333Z" fill="#5552FD"/>
<path d="M22.6667 22.6667L24 22.6667L24 24L22.6667 24L22.6667 22.6667Z" fill="#5552FD"/>
<path d="M16 18.6667H17.3333V17.3334H16V18.6667Z" fill="#5552FD"/>
<path d="M16 21.3333H17.3333V20H16V21.3333Z" fill="#5552FD"/>
<path d="M16 20H17.3333V18.6667H16V20Z" fill="#5552FD"/>
<path d="M16 22.6667H17.3333V21.3334H16V22.6667Z" fill="#5552FD"/>
<path d="M16 17.3333H17.3333V16H16V17.3333Z" fill="#5552FD"/>
<path d="M16 22.6667L17.3333 22.6667L17.3333 24L16 24L16 22.6667Z" fill="#5552FD"/>
<path d="M21.3333 18.6667H22.6667V17.3334H21.3333V18.6667Z" fill="#5552FD"/>
<path d="M18.6667 20H20V18.6667H18.6667V20Z" fill="#5552FD"/>
<path d="M18.6667 22.6667H20V21.3334H18.6667V22.6667Z" fill="#FED955"/>
<path d="M18.6667 17.3333H20V16H18.6667V17.3333Z" fill="#FED955"/>
<path d="M18.6667 22.6667L20 22.6667L20 24L18.6667 24L18.6667 22.6667Z" fill="#FED955"/>
<path d="M24 18.6667H25.3333V17.3334H24V18.6667Z" fill="#FED955"/>
<path d="M24 21.3333H25.3333V20H24V21.3333Z" fill="#FED955"/>
<path d="M24 20H25.3333V18.6667H24V20Z" fill="#FED955"/>
<path d="M24 22.6667H25.3333V21.3334H24V22.6667Z" fill="#FED955"/>
<path d="M10 1H22V-1H10V1ZM31 10V22H33V10H31ZM22 31H10V33H22V31ZM1 22V10H-1V22H1ZM10 31C5.02944 31 1 26.9706 1 22H-1C-1 28.0751 3.92487 33 10 33V31ZM31 22C31 26.9706 26.9706 31 22 31V33C28.0751 33 33 28.0751 33 22H31ZM22 1C26.9706 1 31 5.02944 31 10H33C33 3.92487 28.0751 -1 22 -1V1ZM10 -1C3.92487 -1 -1 3.92487 -1 10H1C1 5.02944 5.02944 1 10 1V-1Z" fill="white" fill-opacity="0.2"/>
<defs>
<radialGradient id="paint0_radial_207_11911" cx="0" cy="0" r="1" gradientUnits="userSpaceOnUse" gradientTransform="translate(16 16) rotate(90) scale(16)">
<stop stop-color="#636979"/>
<stop offset="1" stop-color="#313056"/>
</radialGradient>
</defs>
</svg>
