<svg width="32" height="32" viewBox="0 0 32 32" fill="none" xmlns="http://www.w3.org/2000/svg">
<path d="M0 10C0 4.47715 4.47715 0 10 0H22C27.5228 0 32 4.47715 32 10V22C32 27.5228 27.5228 32 22 32H10C4.47715 32 0 27.5228 0 22V10Z" fill="url(#paint0_radial_3_10726)"/>
<g clip-path="url(#clip0_3_10726)">
<path d="M14.1734 9.46124C13.9133 9.42409 13.901 9.4117 14.0248 9.39932C14.2601 9.36217 14.805 9.41171 15.1889 9.49839C16.0805 9.70892 16.8855 10.2538 17.74 11.2074L17.9629 11.4674L18.2849 11.4179C19.6595 11.195 21.0712 11.3684 22.2477 11.9133C22.5697 12.0619 23.0774 12.3591 23.1393 12.4334C23.1641 12.4581 23.2013 12.6191 23.226 12.7801C23.3127 13.3622 23.2756 13.7956 23.0898 14.13C22.9907 14.3157 22.9907 14.3653 23.0527 14.5263C23.1022 14.6501 23.2508 14.7368 23.387 14.7368C23.6842 14.7368 23.9938 14.2662 24.1424 13.6099L24.2044 13.3498L24.3158 13.4736C24.9474 14.1795 25.4428 15.1578 25.5171 15.8513L25.5418 16.0371L25.4304 15.8761C25.2446 15.5913 25.0712 15.4055 24.8359 15.2445C24.4149 14.9597 23.9691 14.873 22.7926 14.8111C21.7276 14.7492 21.1208 14.6625 20.5263 14.4643C19.5109 14.13 18.9907 13.6965 17.7895 12.099C17.257 11.3931 16.9226 11.0092 16.5883 10.6872C15.8576 9.98137 15.127 9.60985 14.1734 9.46124Z" fill="white"/>
<path d="M23.3993 11.0341C23.4241 10.5635 23.486 10.2539 23.6222 9.96906C23.6717 9.8576 23.7213 9.75853 23.7337 9.75853C23.746 9.75853 23.7213 9.84522 23.6841 9.94429C23.5851 10.2167 23.5727 10.6006 23.6346 11.0341C23.7213 11.5913 23.7584 11.6657 24.3529 12.2725C24.6253 12.5573 24.9473 12.9164 25.0711 13.065L25.2817 13.3375L25.0711 13.1393C24.8111 12.8917 24.2166 12.4211 24.0804 12.3592C23.9937 12.3096 23.9813 12.3096 23.9194 12.3715C23.8699 12.4211 23.8575 12.4954 23.8575 12.8545C23.8451 13.4118 23.7708 13.7585 23.5851 14.1177C23.486 14.3034 23.4736 14.2663 23.5603 14.0557C23.6222 13.8948 23.6346 13.8205 23.6346 13.2879C23.6346 12.2105 23.5108 11.9505 22.7553 11.517C22.5696 11.4056 22.2476 11.2446 22.0618 11.1579C21.8637 11.0712 21.7151 10.9969 21.7275 10.9969C21.7522 10.9722 22.4829 11.1827 22.7677 11.3065C23.2012 11.4799 23.2755 11.4923 23.325 11.4799C23.3621 11.4427 23.3869 11.3437 23.3993 11.0341Z" fill="white"/>
<path d="M14.6811 12.8792C14.161 12.1609 13.8266 11.0463 13.9009 10.2166L13.9257 9.95656L14.0495 9.98133C14.2724 10.0185 14.6563 10.1671 14.8421 10.2785C15.3375 10.5758 15.5604 10.9844 15.7709 11.9999C15.8328 12.2971 15.9195 12.6439 15.9567 12.7553C16.0186 12.9411 16.2539 13.3745 16.452 13.647C16.5882 13.8451 16.5016 13.9442 16.192 13.9194C15.7214 13.8699 15.0898 13.4364 14.6811 12.8792Z" fill="white"/>
<path d="M22.7678 18.2663C20.3158 17.2755 19.4489 16.4211 19.4489 14.9721C19.4489 14.7616 19.4613 14.5882 19.4613 14.5882C19.4737 14.5882 19.5604 14.6625 19.6718 14.7492C20.1672 15.1455 20.7245 15.3189 22.2724 15.5418C23.1765 15.678 23.6966 15.7771 24.1672 15.9381C25.6656 16.4334 26.5944 17.4489 26.8173 18.8235C26.8793 19.2198 26.8421 19.9752 26.743 20.3715C26.6563 20.6811 26.4087 21.2508 26.3468 21.2632C26.3344 21.2632 26.3096 21.2012 26.3096 21.1022C26.2848 20.5821 26.0248 20.0867 25.5913 19.7028C25.0712 19.257 24.4025 18.9226 22.7678 18.2663Z" fill="white"/>
<path d="M21.034 18.6749C21.0092 18.4891 20.9473 18.2538 20.9102 18.1548L20.8482 17.969L20.9597 18.1052C21.1207 18.291 21.2445 18.5139 21.356 18.8235C21.4427 19.0588 21.4427 19.1331 21.4427 19.517C21.4427 19.8885 21.4303 19.9752 21.356 20.1857C21.2321 20.5201 21.0835 20.7554 20.8359 21.0154C20.39 21.4736 19.808 21.7213 18.9783 21.8328C18.8297 21.8452 18.4086 21.8823 18.0371 21.9071C17.1083 21.9566 16.4891 22.0557 15.9318 22.2538C15.8575 22.2786 15.7832 22.3034 15.7709 22.291C15.7461 22.2662 16.13 22.0433 16.4396 21.8947C16.873 21.6842 17.3188 21.5727 18.2972 21.3993C18.7801 21.325 19.2755 21.226 19.3993 21.1764C20.6253 20.7925 21.2321 19.839 21.034 18.6749Z" fill="white"/>
<path d="M22.161 20.6688C21.8391 19.963 21.7648 19.2942 21.9381 18.6627C21.9629 18.6007 21.9877 18.5388 22.0124 18.5388C22.0372 18.5388 22.1115 18.576 22.1858 18.6255C22.3344 18.7246 22.644 18.898 23.4366 19.3314C24.4397 19.8763 25.0093 20.2973 25.4056 20.7803C25.7524 21.2014 25.9629 21.6843 26.062 22.2788C26.1239 22.6131 26.0867 23.4181 26.0001 23.7524C25.7276 24.8051 25.1084 25.6472 24.2044 26.1301C24.0682 26.2044 23.9567 26.254 23.9443 26.254C23.9319 26.254 23.9815 26.1301 24.0558 25.9815C24.353 25.35 24.3901 24.7431 24.1672 24.062C24.031 23.641 23.7462 23.1332 23.1765 22.2788C22.4954 21.288 22.3344 21.028 22.161 20.6688Z" fill="white"/>
<path d="M12.9349 24.4583C13.8513 23.6905 14.9783 23.1456 16.0185 22.9723C16.4643 22.8979 17.2074 22.9227 17.616 23.0342C18.2724 23.2075 18.8668 23.5791 19.1764 24.0373C19.4736 24.4831 19.6099 24.867 19.7461 25.7215C19.7956 26.0558 19.8575 26.4026 19.8699 26.4769C19.969 26.9227 20.1671 27.2695 20.4148 27.4552C20.7987 27.7401 21.4674 27.7524 22.1238 27.5048C22.2352 27.4676 22.3343 27.4305 22.3343 27.4428C22.3591 27.4676 22.0247 27.6905 21.8018 27.802C21.4922 27.963 21.2445 28.0125 20.9102 28.0125C20.3157 28.0125 19.808 27.7029 19.3993 27.0837C19.3126 26.9599 19.1393 26.6007 18.9907 26.2664C18.5572 25.2633 18.3343 24.9661 17.8266 24.6317C17.3807 24.3469 16.8111 24.2849 16.3777 24.4955C15.808 24.7679 15.6594 25.4986 16.0557 25.9444C16.2167 26.1301 16.5139 26.2788 16.7616 26.3159C17.2198 26.3778 17.616 26.0187 17.616 25.5605C17.616 25.2633 17.5046 25.0899 17.2074 24.9537C16.8111 24.7803 16.3777 24.9784 16.39 25.3623C16.39 25.5233 16.4643 25.6224 16.6253 25.6967C16.7244 25.7462 16.7244 25.7462 16.6501 25.7339C16.291 25.6596 16.2043 25.2137 16.4891 24.9289C16.8359 24.5822 17.5665 24.7308 17.8142 25.2137C17.9133 25.4119 17.9256 25.8082 17.839 26.0558C17.6284 26.6007 17.034 26.8856 16.4272 26.7246C16.0185 26.6131 15.8451 26.5017 15.3498 25.9939C14.4829 25.1023 14.1486 24.9289 12.9102 24.7431L12.6749 24.706L12.9349 24.4583Z" fill="white"/>
<path fill-rule="evenodd" clip-rule="evenodd" d="M6.42118 4.53251C9.30663 8.03715 13.7524 13.4861 13.9754 13.7833C14.1611 14.031 14.0868 14.2663 13.7772 14.4396C13.6038 14.5387 13.2447 14.6378 13.0713 14.6378C12.8732 14.6378 12.6379 14.5387 12.4769 14.3777C12.3654 14.2663 11.8825 13.5604 10.7927 11.8638C9.96297 10.5635 9.25709 9.48607 9.24471 9.47368C9.19517 9.44892 9.19517 9.44892 10.706 12.1486C11.6596 13.8452 11.9692 14.452 11.9692 14.5263C11.9692 14.6873 11.9196 14.774 11.7215 14.9969C11.3871 15.3684 11.2385 15.7895 11.1271 16.6687C11.0032 17.6471 10.6689 18.3406 9.71529 19.517C9.15802 20.2105 9.07133 20.3344 8.93511 20.6192C8.76173 20.9659 8.7122 21.1641 8.68743 21.6099C8.66266 22.0805 8.7122 22.3777 8.84842 22.8235C8.97226 23.2198 9.10848 23.4799 9.44285 23.9876C9.72768 24.4334 9.90105 24.7678 9.90105 24.8916C9.90105 24.9907 9.92582 24.9907 10.3716 24.8916C11.4367 24.644 12.3159 24.2229 12.7989 23.7028C13.0961 23.3808 13.1704 23.2074 13.1704 22.7616C13.1704 22.4768 13.158 22.4149 13.0837 22.2415C12.9599 21.969 12.7246 21.7461 12.2168 21.3994C11.5481 20.9412 11.2633 20.5697 11.189 20.0743C11.1271 19.6533 11.2014 19.3684 11.5729 18.5882C11.9568 17.7833 12.0559 17.4489 12.1178 16.6316C12.1549 16.1115 12.2168 15.9009 12.3655 15.7399C12.5264 15.5666 12.6627 15.5046 13.0466 15.4551C13.6781 15.3684 14.0868 15.2074 14.4088 14.8978C14.6936 14.6378 14.8175 14.3777 14.8298 13.9938L14.8422 13.709L14.6812 13.5356C14.0992 12.8669 6.03728 4 6.00012 4C5.98774 4 6.18588 4.23529 6.42118 4.53251ZM10.223 22.1424C10.3593 21.9071 10.285 21.6099 10.062 21.4613C9.85152 21.3251 9.52954 21.387 9.52954 21.5728C9.52954 21.6223 9.5543 21.6718 9.62861 21.6966C9.74006 21.7585 9.75245 21.8204 9.66576 21.9567C9.57907 22.0929 9.57907 22.2167 9.69053 22.3034C9.8639 22.4396 10.0992 22.3653 10.223 22.1424Z" fill="white"/>
<path fill-rule="evenodd" clip-rule="evenodd" d="M15.2383 15.6285C14.9411 15.7152 14.6563 16.0372 14.5696 16.3592C14.5201 16.5573 14.5449 16.9165 14.6315 17.0279C14.7678 17.2013 14.8916 17.2508 15.2383 17.2508C15.9195 17.2508 16.5015 16.9536 16.5634 16.5945C16.6253 16.2973 16.3653 15.8886 16.0061 15.7028C15.8204 15.6038 15.4365 15.5666 15.2383 15.6285ZM16.0309 16.2477C16.13 16.0991 16.0928 15.9381 15.9071 15.8267C15.5727 15.6162 15.065 15.7895 15.065 16.1115C15.065 16.2725 15.325 16.4459 15.5727 16.4459C15.7337 16.4459 15.9566 16.3468 16.0309 16.2477Z" fill="white"/>
</g>
<path d="M10 1H22V-1H10V1ZM31 10V22H33V10H31ZM22 31H10V33H22V31ZM1 22V10H-1V22H1ZM10 31C5.02944 31 1 26.9706 1 22H-1C-1 28.0751 3.92487 33 10 33V31ZM31 22C31 26.9706 26.9706 31 22 31V33C28.0751 33 33 28.0751 33 22H31ZM22 1C26.9706 1 31 5.02944 31 10H33C33 3.92487 28.0751 -1 22 -1V1ZM10 -1C3.92487 -1 -1 3.92487 -1 10H1C1 5.02944 5.02944 1 10 1V-1Z" fill="white" fill-opacity="0.2"/>
<defs>
<radialGradient id="paint0_radial_3_10726" cx="0" cy="0" r="1" gradientUnits="userSpaceOnUse" gradientTransform="translate(16 16) rotate(90) scale(16)">
<stop stop-color="#FF8FC5"/>
<stop offset="1" stop-color="#FF007A"/>
</radialGradient>
<clipPath id="clip0_3_10726">
<rect width="20.8421" height="24" fill="white" transform="translate(6 4)"/>
</clipPath>
</defs>
</svg>
