<svg width="32" height="32" viewBox="0 0 32 32" fill="none" xmlns="http://www.w3.org/2000/svg">
<path d="M0 10C0 4.47715 4.47715 0 10 0H22C27.5228 0 32 4.47715 32 10V22C32 27.5228 27.5228 32 22 32H10C4.47715 32 0 27.5228 0 22V10Z" fill="url(#paint0_radial_210_59453)"/>
<path d="M6.66667 10.6667H8V9.33336H6.66667V10.6667Z" fill="#FED955"/>
<path d="M6.66667 13.3333H8V12H6.66667V13.3333Z" fill="#FED955"/>
<path d="M6.66667 12H8V10.6667H6.66667V12Z" fill="#FED955"/>
<path d="M6.66667 14.6667H8V13.3334H6.66667V14.6667Z" fill="#FED955"/>
<path d="M12 8H13.3333V6.66667H12V8Z" fill="#FED955"/>
<path d="M12 16L13.3333 16L13.3333 17.3333L12 17.3333L12 16Z" fill="#FED955"/>
<path d="M13.3333 8H14.6666V6.66667H13.3333V8Z" fill="#FED955"/>
<path d="M14.6667 8H16V6.66667H14.6667V8Z" fill="#9695F8"/>
<path d="M9.33333 8L8 8L8 6.66667L9.33333 6.66667L9.33333 8Z" fill="#9695F8"/>
<path d="M17.3333 16L16 16L16 14.6667L17.3333 14.6667L17.3333 16Z" fill="#9695F8"/>
<path d="M6.66667 16H8V14.6667H6.66667V16Z" fill="#9695F8"/>
<path d="M13.3333 6.66669H14.6666V5.33336H13.3333V6.66669Z" fill="#9695F8"/>
<path d="M13.3333 5.33331H14.6666V3.99998H13.3333V5.33331Z" fill="#5552FD"/>
<path d="M13.3333 20H14.6666V18.6667H13.3333V20Z" fill="#5552FD"/>
<path d="M13.3333 18.6667H14.6666V17.3334H13.3333V18.6667Z" fill="#9695F8"/>
<path d="M10.6667 6.66669H12V5.33336H10.6667V6.66669Z" fill="#9695F8"/>
<path d="M10.6667 5.33331H12V3.99998H10.6667V5.33331Z" fill="#5552FD"/>
<path d="M10.6667 20H12V18.6667H10.6667V20Z" fill="#5552FD"/>
<path d="M10.6667 18.6667H12V17.3334H10.6667V18.6667Z" fill="#9695F8"/>
<path d="M12 6.66669H13.3333V5.33336H12V6.66669Z" fill="#9695F8"/>
<path d="M12 5.33331H13.3333V3.99998H12V5.33331Z" fill="#5552FD"/>
<path d="M12 20H13.3333V18.6667H12V20Z" fill="#5552FD"/>
<path d="M12 18.6667H13.3333V17.3334H12V18.6667Z" fill="#9695F8"/>
<path d="M9.33336 6.66669H10.6667V5.33336H9.33336V6.66669Z" fill="#9695F8"/>
<path d="M9.33336 5.33331H10.6667V3.99998H9.33336V5.33331Z" fill="#5552FD"/>
<path d="M9.33336 20H10.6667V18.6667H9.33336V20Z" fill="#5552FD"/>
<path d="M9.33336 18.6667H10.6667V17.3334H9.33336V18.6667Z" fill="#9695F8"/>
<path d="M16 9.33331H17.3333V7.99998H16V9.33331Z" fill="#9695F8"/>
<path d="M8.00002 9.33331L6.66669 9.33331L6.66669 7.99998L8.00002 7.99998L8.00002 9.33331Z" fill="#9695F8"/>
<path d="M16 17.3333L14.6666 17.3333L14.6666 16L16 16L16 17.3333Z" fill="#9695F8"/>
<path d="M7.99998 17.3333H9.33331V16H7.99998V17.3333Z" fill="#9695F8"/>
<path d="M17.3333 10.6667H18.6666V9.33336H17.3333V10.6667Z" fill="#9695F8"/>
<path d="M5.33335 10.6667H6.66669V9.33336H5.33335V10.6667Z" fill="#9695F8"/>
<path d="M3.99998 10.6667H5.33331V9.33336H3.99998V10.6667Z" fill="#5552FD"/>
<path d="M5.33335 9.33331H6.66669V7.99998H5.33335V9.33331Z" fill="#5552FD"/>
<path d="M18.6666 9.33331L17.3333 9.33331L17.3333 7.99998L18.6666 7.99998L18.6666 9.33331Z" fill="#5552FD"/>
<path d="M14.6667 18.6667H16V17.3334H14.6667V18.6667Z" fill="#5552FD"/>
<path d="M5.33331 14.6667V16H6.66664V14.6667H5.33331Z" fill="#5552FD"/>
<path d="M6.66667 8H8V6.66667H6.66667V8Z" fill="#5552FD"/>
<path d="M17.3333 8L16 8L16 6.66667L17.3333 6.66667L17.3333 8Z" fill="#5552FD"/>
<path d="M16 17.3333H17.3333V16H16V17.3333Z" fill="#5552FD"/>
<path d="M6.66669 16V17.3333H8.00002V16H6.66669Z" fill="#5552FD"/>
<path d="M7.99998 6.66669H9.33331V5.33336H7.99998V6.66669Z" fill="#5552FD"/>
<path d="M16 6.66669L14.6666 6.66669L14.6666 5.33336L16 5.33335L16 6.66669Z" fill="#5552FD"/>
<path d="M17.3333 16H18.6666V14.6667H17.3333V16Z" fill="#5552FD"/>
<path d="M8 17.3334V18.6667H9.33333V17.3334H8Z" fill="#5552FD"/>
<path d="M18.6667 10.6667H20V9.33336H18.6667V10.6667Z" fill="#5552FD"/>
<path d="M17.3333 12H18.6666V10.6667H17.3333V12Z" fill="#9695F8"/>
<path d="M5.33335 12H6.66669V10.6667H5.33335V12Z" fill="#9695F8"/>
<path d="M3.99998 12H5.33331V10.6667H3.99998V12Z" fill="#5552FD"/>
<path d="M18.6667 12H20V10.6667H18.6667V12Z" fill="#5552FD"/>
<path d="M17.3333 13.3333H18.6666V12H17.3333V13.3333Z" fill="#9695F8"/>
<path d="M5.33335 13.3333H6.66669V12H5.33335V13.3333Z" fill="#9695F8"/>
<path d="M3.99998 13.3333H5.33331V12H3.99998V13.3333Z" fill="#5552FD"/>
<path d="M18.6667 13.3333H20V12H18.6667V13.3333Z" fill="#5552FD"/>
<path d="M17.3333 14.6667H18.6666V13.3334H17.3333V14.6667Z" fill="#9695F8"/>
<path d="M5.33335 14.6667H6.66669V13.3334H5.33335V14.6667Z" fill="#9695F8"/>
<path d="M3.99998 14.6667H5.33331V13.3334H3.99998V14.6667Z" fill="#5552FD"/>
<path d="M18.6667 14.6667H20V13.3334H18.6667V14.6667Z" fill="#5552FD"/>
<path d="M13.3333 16L14.6666 16L14.6666 17.3333L13.3333 17.3333L13.3333 16Z" fill="#FED955"/>
<path d="M12 10.6667H13.3333V9.33336H12V10.6667Z" fill="#FED955"/>
<path d="M12 13.3333H13.3333V12H12V13.3333Z" fill="#FED955"/>
<path d="M12 14.6667H13.3333V13.3334H12V14.6667Z" fill="#FED955"/>
<path d="M12 9.33331H13.3333V7.99998H12V9.33331Z" fill="#FED955"/>
<path d="M12 14.6667L13.3333 14.6667L13.3333 16L12 16L12 14.6667Z" fill="#FED955"/>
<path d="M9.33336 13.3333H10.6667V12H9.33336V13.3333Z" fill="#FED955"/>
<path d="M9.33336 12H10.6667V10.6667H9.33336V12Z" fill="#FED955"/>
<path d="M9.33336 14.6667H10.6667V13.3334H9.33336V14.6667Z" fill="#FED955"/>
<path d="M9.33336 9.33331H10.6667V7.99998H9.33336V9.33331Z" fill="#FED955"/>
<path d="M9.33336 14.6667L10.6667 14.6667L10.6667 16L9.33336 16L9.33336 14.6667Z" fill="#FED955"/>
<path d="M13.3333 13.3333H14.6666V12H13.3333V13.3333Z" fill="#FED955"/>
<path d="M13.3333 12H14.6666V10.6667H13.3333V12Z" fill="#FED955"/>
<path d="M13.3333 14.6667H14.6666V13.3334H13.3333V14.6667Z" fill="#FED955"/>
<path d="M13.3333 9.33331H14.6666V7.99998H13.3333V9.33331Z" fill="#FED955"/>
<path d="M13.3333 14.6667L14.6666 14.6667L14.6666 16L13.3333 16L13.3333 14.6667Z" fill="#FED955"/>
<path d="M10.6667 8H12V6.66667H10.6667V8Z" fill="#FED955"/>
<path d="M10.6667 16L12 16L12 17.3333L10.6667 17.3333L10.6667 16Z" fill="#FED955"/>
<path d="M9.33336 8H10.6667V6.66667H9.33336V8Z" fill="#FED955"/>
<path d="M9.33336 16L10.6667 16L10.6667 17.3333L9.33336 17.3333L9.33336 16Z" fill="#FED955"/>
<path d="M10.6667 10.6667H12V9.33336H10.6667V10.6667Z" fill="#FED955"/>
<path d="M10.6667 13.3333H12V12H10.6667V13.3333Z" fill="#FED955"/>
<path d="M9.33336 10.6667H10.6667V9.33336H9.33336V10.6667Z" fill="#5552FD"/>
<path d="M12 12H13.3333V10.6667H12V12Z" fill="#5552FD"/>
<path d="M14.6667 10.6667H16V9.33336H14.6667V10.6667Z" fill="#5552FD"/>
<path d="M14.6667 13.3333H16V12H14.6667V13.3333Z" fill="#5552FD"/>
<path d="M14.6667 12H16V10.6667H14.6667V12Z" fill="#5552FD"/>
<path d="M14.6667 14.6667H16V13.3334H14.6667V14.6667Z" fill="#5552FD"/>
<path d="M14.6667 9.33331H16V7.99998H14.6667V9.33331Z" fill="#5552FD"/>
<path d="M14.6667 14.6667L16 14.6667L16 16L14.6667 16L14.6667 14.6667Z" fill="#5552FD"/>
<path d="M7.99998 10.6667H9.33331V9.33336H7.99998V10.6667Z" fill="#5552FD"/>
<path d="M7.99998 13.3333H9.33331V12H7.99998V13.3333Z" fill="#5552FD"/>
<path d="M7.99998 12H9.33331V10.6667H7.99998V12Z" fill="#5552FD"/>
<path d="M7.99998 14.6667H9.33331V13.3334H7.99998V14.6667Z" fill="#5552FD"/>
<path d="M7.99998 9.33331H9.33331V7.99998H7.99998V9.33331Z" fill="#5552FD"/>
<path d="M7.99998 14.6667L9.33331 14.6667L9.33331 16L7.99998 16L7.99998 14.6667Z" fill="#5552FD"/>
<path d="M13.3333 10.6667H14.6666V9.33336H13.3333V10.6667Z" fill="#5552FD"/>
<path d="M10.6667 12H12V10.6667H10.6667V12Z" fill="#5552FD"/>
<path d="M10.6667 14.6667H12V13.3334H10.6667V14.6667Z" fill="#FED955"/>
<path d="M10.6667 9.33331H12V7.99998H10.6667V9.33331Z" fill="#FED955"/>
<path d="M10.6667 14.6667L12 14.6667L12 16L10.6667 16L10.6667 14.6667Z" fill="#FED955"/>
<path d="M16 10.6667H17.3333V9.33336H16V10.6667Z" fill="#FED955"/>
<path d="M16 13.3333H17.3333V12H16V13.3333Z" fill="#FED955"/>
<path d="M16 12H17.3333V10.6667H16V12Z" fill="#FED955"/>
<path d="M16 14.6667H17.3333V13.3334H16V14.6667Z" fill="#FED955"/>
<path fill-rule="evenodd" clip-rule="evenodd" d="M19.9989 23.2474L15 20.2941L19.9989 12V23.2474ZM19.9992 23.2474V12L24.9961 20.2941L19.9992 23.2474Z" fill="#4B485B"/>
<path opacity="0.7" d="M19.9989 18.0206L15 20.294L19.9989 23.2474L24.9957 20.294L19.9989 18.0206Z" fill="white"/>
<path opacity="0.5" d="M15 20.2941L19.9989 23.2474V12L15 20.2941Z" fill="white"/>
<path opacity="0.8" d="M19.9992 12V23.2474L24.9961 20.2941L19.9992 12Z" fill="white"/>
<path opacity="0.5" d="M15 21.2413L19.9989 28.2837V24.1947L15 21.2413Z" fill="white"/>
<path opacity="0.8" d="M19.9992 24.1947V28.2837L25 21.2413L19.9992 24.1947Z" fill="white"/>
<path d="M10 1H22V-1H10V1ZM31 10V22H33V10H31ZM22 31H10V33H22V31ZM1 22V10H-1V22H1ZM10 31C5.02944 31 1 26.9706 1 22H-1C-1 28.0751 3.92487 33 10 33V31ZM31 22C31 26.9706 26.9706 31 22 31V33C28.0751 33 33 28.0751 33 22H31ZM22 1C26.9706 1 31 5.02944 31 10H33C33 3.92487 28.0751 -1 22 -1V1ZM10 -1C3.92487 -1 -1 3.92487 -1 10H1C1 5.02944 5.02944 1 10 1V-1Z" fill="white" fill-opacity="0.2"/>
<defs>
<radialGradient id="paint0_radial_210_59453" cx="0" cy="0" r="1" gradientUnits="userSpaceOnUse" gradientTransform="translate(16 16) rotate(90) scale(16)">
<stop stop-color="#676379"/>
<stop offset="1" stop-color="#1F1D2C"/>
</radialGradient>
</defs>
</svg>
