<svg width="32" height="32" viewBox="0 0 32 32" fill="none" xmlns="http://www.w3.org/2000/svg">
<path d="M0 10C0 4.47715 4.47715 0 10 0H22C27.5228 0 32 4.47715 32 10V22C32 27.5228 27.5228 32 22 32H10C4.47715 32 0 27.5228 0 22V10Z" fill="url(#paint0_radial_106_2015)"/>
<path fill-rule="evenodd" clip-rule="evenodd" d="M8.50419 10.3593C8.50419 10.3593 6.79164 8.99054 6.67387 12.3711C6.55609 14.9908 6.55927 20.0775 7.77206 22.4808C8.28455 23.3848 8.96893 23.1079 10.2422 22.2071C11.3499 21.389 15.3576 17.6965 17.0542 16.0763C18.7508 14.456 22.1918 9.80862 22.908 12.9663C23.1913 14.2937 23.5415 15.4205 23.2741 18.365C23.1913 19.2722 22.803 19.9597 21.0332 18.731C19.6962 17.8716 18.4261 16.9485 18.4261 16.9485C18.4261 16.9485 18.181 16.5092 17.6017 17.2222C17.1465 17.792 16.9173 17.9321 17.6463 18.365C18.3784 18.7979 22.0804 21.3508 23.5001 21.7487C24.6715 22.0893 25.34 22.0829 25.375 19.7815C25.3686 17.9543 25.2636 12.7244 24.5983 10.4962C24.0954 9.10832 23.3569 8.47805 21.7621 10.0378C20.1673 11.5976 15.1379 16.4742 12.3877 18.6833C10.5637 20.0521 9.78382 21.2871 9.09626 19.0048C8.61242 17.2763 7.98533 11.8968 9.96527 12.9218C11.2035 13.5138 11.8211 13.5106 11.3372 13.8831C10.8534 14.2523 9.46232 15.5288 9.46232 15.5288C9.46232 15.5288 9.0326 15.8757 9.23314 16.627C9.43368 17.1522 9.43368 17.4132 10.5128 16.3978C11.5919 15.3823 12.3877 14.6152 12.3877 14.6152C12.3877 14.6152 12.5595 14.3446 13.072 14.8444C13.5845 15.3441 13.6673 15.4842 13.6673 15.4842C13.6673 15.4842 13.8042 15.8566 14.3517 15.2105C14.9024 14.5643 15.2557 14.1696 14.2148 13.5648C13.1771 12.9536 8.50419 10.3593 8.50419 10.3593Z" fill="white"/>
<path d="M10 1H22V-1H10V1ZM31 10V22H33V10H31ZM22 31H10V33H22V31ZM1 22V10H-1V22H1ZM10 31C5.02944 31 1 26.9706 1 22H-1C-1 28.0751 3.92487 33 10 33V31ZM31 22C31 26.9706 26.9706 31 22 31V33C28.0751 33 33 28.0751 33 22H31ZM22 1C26.9706 1 31 5.02944 31 10H33C33 3.92487 28.0751 -1 22 -1V1ZM10 -1C3.92487 -1 -1 3.92487 -1 10H1C1 5.02944 5.02944 1 10 1V-1Z" fill="white" fill-opacity="0.2"/>
<defs>
<radialGradient id="paint0_radial_106_2015" cx="0" cy="0" r="1" gradientUnits="userSpaceOnUse" gradientTransform="translate(16 16) rotate(90) scale(16)">
<stop offset="0.238274" stop-color="#0055D5"/>
</radialGradient>
</defs>
</svg>
