<svg width="32" height="32" viewBox="0 0 32 32" fill="none" xmlns="http://www.w3.org/2000/svg">
<path d="M0 10C0 4.47715 4.47715 0 10 0H22C27.5228 0 32 4.47715 32 10V22C32 27.5228 27.5228 32 22 32H10C4.47715 32 0 27.5228 0 22V10Z" fill="url(#paint0_radial_207_11357)"/>
<path d="M14.9832 12.8066C15.3744 12.1309 16.0057 12.1309 16.3969 12.8066L18.833 17.0832C19.2242 17.7589 18.9042 18.3101 18.1217 18.3101H13.2139C12.4404 18.3101 12.1203 17.7589 12.5026 17.0832L14.9832 12.8066ZM10.2709 4.57344C10.6621 3.89772 11.2845 3.89772 11.6757 4.57344L12.2181 5.55146L13.4984 7.8009C13.8096 8.44106 13.8096 9.1968 13.4984 9.83696L9.204 17.2788C8.8128 17.8834 8.16375 18.2657 7.44357 18.3101H3.87825C3.09584 18.3101 2.77576 17.7678 3.16696 17.0832L10.2709 4.57344Z" fill="#E64343"/>
<path d="M15.6667 19.6667H17V18.3334H15.6667V19.6667Z" fill="#FED955"/>
<path d="M15.6667 22.3333H17V21H15.6667V22.3333Z" fill="#FED955"/>
<path d="M15.6667 21H17V19.6667H15.6667V21Z" fill="#FED955"/>
<path d="M15.6667 23.6667H17V22.3334H15.6667V23.6667Z" fill="#FED955"/>
<path d="M21 17H22.3333V15.6667H21V17Z" fill="#FED955"/>
<path d="M21 25L22.3333 25L22.3333 26.3333L21 26.3333L21 25Z" fill="#FED955"/>
<path d="M22.3333 17H23.6666V15.6667H22.3333V17Z" fill="#FED955"/>
<path d="M23.6667 17H25V15.6667H23.6667V17Z" fill="#9695F8"/>
<path d="M18.3333 17L17 17L17 15.6667L18.3333 15.6667L18.3333 17Z" fill="#9695F8"/>
<path d="M26.3333 25L25 25L25 23.6667L26.3333 23.6667L26.3333 25Z" fill="#9695F8"/>
<path d="M15.6667 25H17V23.6667H15.6667V25Z" fill="#9695F8"/>
<path d="M22.3333 15.6667H23.6666V14.3334H22.3333V15.6667Z" fill="#9695F8"/>
<path d="M22.3333 14.3333H23.6666V13H22.3333V14.3333Z" fill="#5552FD"/>
<path d="M22.3333 29H23.6666V27.6667H22.3333V29Z" fill="#5552FD"/>
<path d="M22.3333 27.6667H23.6666V26.3334H22.3333V27.6667Z" fill="#9695F8"/>
<path d="M19.6667 15.6667H21V14.3334H19.6667V15.6667Z" fill="#9695F8"/>
<path d="M19.6667 14.3333H21V13H19.6667V14.3333Z" fill="#5552FD"/>
<path d="M19.6667 29H21V27.6667H19.6667V29Z" fill="#5552FD"/>
<path d="M19.6667 27.6667H21V26.3334H19.6667V27.6667Z" fill="#9695F8"/>
<path d="M21 15.6667H22.3333V14.3334H21V15.6667Z" fill="#9695F8"/>
<path d="M21 14.3333H22.3333V13H21V14.3333Z" fill="#5552FD"/>
<path d="M21 29H22.3333V27.6667H21V29Z" fill="#5552FD"/>
<path d="M21 27.6667H22.3333V26.3334H21V27.6667Z" fill="#9695F8"/>
<path d="M18.3334 15.6667H19.6667V14.3334H18.3334V15.6667Z" fill="#9695F8"/>
<path d="M18.3334 14.3333H19.6667V13H18.3334V14.3333Z" fill="#5552FD"/>
<path d="M18.3334 29H19.6667V27.6667H18.3334V29Z" fill="#5552FD"/>
<path d="M18.3334 27.6667H19.6667V26.3334H18.3334V27.6667Z" fill="#9695F8"/>
<path d="M25 18.3333H26.3333V17H25V18.3333Z" fill="#9695F8"/>
<path d="M17 18.3333L15.6667 18.3333L15.6667 17L17 17L17 18.3333Z" fill="#9695F8"/>
<path d="M25 26.3333L23.6666 26.3333L23.6666 25L25 25L25 26.3333Z" fill="#9695F8"/>
<path d="M17 26.3333H18.3333V25H17V26.3333Z" fill="#9695F8"/>
<path d="M26.3333 19.6667H27.6666V18.3334H26.3333V19.6667Z" fill="#9695F8"/>
<path d="M14.3334 19.6667H15.6667V18.3334H14.3334V19.6667Z" fill="#9695F8"/>
<path d="M13 19.6667H14.3333V18.3334H13V19.6667Z" fill="#5552FD"/>
<path d="M14.3334 18.3333H15.6667V17H14.3334V18.3333Z" fill="#5552FD"/>
<path d="M27.6666 18.3333L26.3333 18.3333L26.3333 17L27.6666 17L27.6666 18.3333Z" fill="#5552FD"/>
<path d="M23.6667 27.6667H25V26.3334H23.6667V27.6667Z" fill="#5552FD"/>
<path d="M14.3333 23.6667V25H15.6666V23.6667H14.3333Z" fill="#5552FD"/>
<path d="M15.6667 17H17V15.6667H15.6667V17Z" fill="#5552FD"/>
<path d="M26.3333 17L25 17L25 15.6667L26.3333 15.6667L26.3333 17Z" fill="#5552FD"/>
<path d="M25 26.3333H26.3333V25H25V26.3333Z" fill="#5552FD"/>
<path d="M15.6667 25V26.3333H17V25H15.6667Z" fill="#5552FD"/>
<path d="M17 15.6667H18.3333V14.3334H17V15.6667Z" fill="#5552FD"/>
<path d="M25 15.6667L23.6666 15.6667L23.6666 14.3334L25 14.3334L25 15.6667Z" fill="#5552FD"/>
<path d="M26.3333 25H27.6666V23.6667H26.3333V25Z" fill="#5552FD"/>
<path d="M17 26.3334V27.6667H18.3333V26.3334H17Z" fill="#5552FD"/>
<path d="M27.6667 19.6667H29V18.3334H27.6667V19.6667Z" fill="#5552FD"/>
<path d="M26.3333 21H27.6666V19.6667H26.3333V21Z" fill="#9695F8"/>
<path d="M14.3334 21H15.6667V19.6667H14.3334V21Z" fill="#9695F8"/>
<path d="M13 21H14.3333V19.6667H13V21Z" fill="#5552FD"/>
<path d="M27.6667 21H29V19.6667H27.6667V21Z" fill="#5552FD"/>
<path d="M26.3333 22.3333H27.6666V21H26.3333V22.3333Z" fill="#9695F8"/>
<path d="M14.3334 22.3333H15.6667V21H14.3334V22.3333Z" fill="#9695F8"/>
<path d="M13 22.3333H14.3333V21H13V22.3333Z" fill="#5552FD"/>
<path d="M27.6667 22.3333H29V21H27.6667V22.3333Z" fill="#5552FD"/>
<path d="M26.3333 23.6667H27.6666V22.3334H26.3333V23.6667Z" fill="#9695F8"/>
<path d="M14.3334 23.6667H15.6667V22.3334H14.3334V23.6667Z" fill="#9695F8"/>
<path d="M13 23.6667H14.3333V22.3334H13V23.6667Z" fill="#5552FD"/>
<path d="M27.6667 23.6667H29V22.3334H27.6667V23.6667Z" fill="#5552FD"/>
<path d="M22.3333 25L23.6666 25L23.6666 26.3333L22.3333 26.3333L22.3333 25Z" fill="#FED955"/>
<path d="M21 19.6667H22.3333V18.3334H21V19.6667Z" fill="#FED955"/>
<path d="M21 22.3333H22.3333V21H21V22.3333Z" fill="#FED955"/>
<path d="M21 23.6667H22.3333V22.3334H21V23.6667Z" fill="#FED955"/>
<path d="M21 18.3333H22.3333V17H21V18.3333Z" fill="#FED955"/>
<path d="M21 23.6667L22.3333 23.6667L22.3333 25L21 25L21 23.6667Z" fill="#FED955"/>
<path d="M18.3334 22.3333H19.6667V21H18.3334V22.3333Z" fill="#FED955"/>
<path d="M18.3334 21H19.6667V19.6667H18.3334V21Z" fill="#FED955"/>
<path d="M18.3334 23.6667H19.6667V22.3334H18.3334V23.6667Z" fill="#FED955"/>
<path d="M18.3334 18.3333H19.6667V17H18.3334V18.3333Z" fill="#FED955"/>
<path d="M18.3334 23.6667L19.6667 23.6667L19.6667 25L18.3334 25L18.3334 23.6667Z" fill="#FED955"/>
<path d="M22.3333 22.3333H23.6666V21H22.3333V22.3333Z" fill="#FED955"/>
<path d="M22.3333 21H23.6666V19.6667H22.3333V21Z" fill="#FED955"/>
<path d="M22.3333 23.6667H23.6666V22.3334H22.3333V23.6667Z" fill="#FED955"/>
<path d="M22.3333 18.3333H23.6666V17H22.3333V18.3333Z" fill="#FED955"/>
<path d="M22.3333 23.6667L23.6666 23.6667L23.6666 25L22.3333 25L22.3333 23.6667Z" fill="#FED955"/>
<path d="M19.6667 17H21V15.6667H19.6667V17Z" fill="#FED955"/>
<path d="M19.6667 25L21 25L21 26.3333L19.6667 26.3333L19.6667 25Z" fill="#FED955"/>
<path d="M18.3334 17H19.6667V15.6667H18.3334V17Z" fill="#FED955"/>
<path d="M18.3334 25L19.6667 25L19.6667 26.3333L18.3334 26.3333L18.3334 25Z" fill="#FED955"/>
<path d="M19.6667 19.6667H21V18.3334H19.6667V19.6667Z" fill="#FED955"/>
<path d="M19.6667 22.3333H21V21H19.6667V22.3333Z" fill="#FED955"/>
<path d="M18.3334 19.6667H19.6667V18.3334H18.3334V19.6667Z" fill="#5552FD"/>
<path d="M21 21H22.3333V19.6667H21V21Z" fill="#5552FD"/>
<path d="M23.6667 19.6667H25V18.3334H23.6667V19.6667Z" fill="#5552FD"/>
<path d="M23.6667 22.3333H25V21H23.6667V22.3333Z" fill="#5552FD"/>
<path d="M23.6667 21H25V19.6667H23.6667V21Z" fill="#5552FD"/>
<path d="M23.6667 23.6667H25V22.3334H23.6667V23.6667Z" fill="#5552FD"/>
<path d="M23.6667 18.3333H25V17H23.6667V18.3333Z" fill="#5552FD"/>
<path d="M23.6667 23.6667L25 23.6667L25 25L23.6667 25L23.6667 23.6667Z" fill="#5552FD"/>
<path d="M17 19.6667H18.3333V18.3334H17V19.6667Z" fill="#5552FD"/>
<path d="M17 22.3333H18.3333V21H17V22.3333Z" fill="#5552FD"/>
<path d="M17 21H18.3333V19.6667H17V21Z" fill="#5552FD"/>
<path d="M17 23.6667H18.3333V22.3334H17V23.6667Z" fill="#5552FD"/>
<path d="M17 18.3333H18.3333V17H17V18.3333Z" fill="#5552FD"/>
<path d="M17 23.6667L18.3333 23.6667L18.3333 25L17 25L17 23.6667Z" fill="#5552FD"/>
<path d="M22.3333 19.6667H23.6666V18.3334H22.3333V19.6667Z" fill="#5552FD"/>
<path d="M19.6667 21H21V19.6667H19.6667V21Z" fill="#5552FD"/>
<path d="M19.6667 23.6667H21V22.3334H19.6667V23.6667Z" fill="#FED955"/>
<path d="M19.6667 18.3333H21V17H19.6667V18.3333Z" fill="#FED955"/>
<path d="M19.6667 23.6667L21 23.6667L21 25L19.6667 25L19.6667 23.6667Z" fill="#FED955"/>
<path d="M25 19.6667H26.3333V18.3334H25V19.6667Z" fill="#FED955"/>
<path d="M25 22.3333H26.3333V21H25V22.3333Z" fill="#FED955"/>
<path d="M25 21H26.3333V19.6667H25V21Z" fill="#FED955"/>
<path d="M25 23.6667H26.3333V22.3334H25V23.6667Z" fill="#FED955"/>
<path d="M10 1H22V-1H10V1ZM31 10V22H33V10H31ZM22 31H10V33H22V31ZM1 22V10H-1V22H1ZM10 31C5.02944 31 1 26.9706 1 22H-1C-1 28.0751 3.92487 33 10 33V31ZM31 22C31 26.9706 26.9706 31 22 31V33C28.0751 33 33 28.0751 33 22H31ZM22 1C26.9706 1 31 5.02944 31 10H33C33 3.92487 28.0751 -1 22 -1V1ZM10 -1C3.92487 -1 -1 3.92487 -1 10H1C1 5.02944 5.02944 1 10 1V-1Z" fill="white" fill-opacity="0.2"/>
<defs>
<radialGradient id="paint0_radial_207_11357" cx="0" cy="0" r="1" gradientUnits="userSpaceOnUse" gradientTransform="translate(16 16) rotate(90) scale(16)">
<stop stop-color="#676379"/>
<stop offset="1" stop-color="#1D1132"/>
</radialGradient>
</defs>
</svg>
