<svg width="32" height="32" viewBox="0 0 32 32" fill="none" xmlns="http://www.w3.org/2000/svg">
<path d="M0 10C0 4.47715 4.47715 0 10 0H22C27.5228 0 32 4.47715 32 10V22C32 27.5228 27.5228 32 22 32H10C4.47715 32 0 27.5228 0 22V10Z" fill="url(#paint0_radial_3_10241)"/>
<path fill-rule="evenodd" clip-rule="evenodd" d="M17.3348 12.6281L21.3147 10.3065V14.9497L17.3348 12.6281ZM21.3147 22.5779L16.0082 25.6734L10.7016 22.5779V17.1608L15.5043 19.9624C15.8157 20.144 16.2007 20.144 16.512 19.9624L18.6614 18.7085L21.3147 17.1608V22.5779ZM10.7016 10.3065L14.6815 12.6281L10.7016 14.9497V10.3065ZM16.6715 13.7337L20.6514 16.0553L16.6715 18.3769V13.7337ZM15.3449 18.3769L11.365 16.0553L15.3449 13.7337V18.3769ZM20.6514 9.20101L16.0082 11.8543L11.365 9.20101L16.0082 6.43719L20.6514 9.20101ZM9.88199 8.4715C9.56866 8.64906 9.375 8.98138 9.375 9.34152V22.6585C9.375 23.0186 9.56866 23.3509 9.88199 23.5285L15.5152 26.7206C15.821 26.8939 16.1953 26.8939 16.5012 26.7206L22.1343 23.5285C22.4477 23.3509 22.6413 23.0186 22.6413 22.6585V9.34152C22.6413 8.98138 22.4477 8.64906 22.1343 8.4715L16.5012 5.27937C16.1954 5.10607 15.821 5.10607 15.5152 5.27937L9.88199 8.4715Z" fill="white"/>
<path d="M22.4375 7.0625C23.0104 7.17708 24.1562 7.81875 24.1562 9.46875" stroke="#2E69F6"/>
<path d="M9.71875 24.5938C9.14583 24.4792 8 23.8375 8 22.1875" stroke="#2E69F6"/>
<path d="M10 1H22V-1H10V1ZM31 10V22H33V10H31ZM22 31H10V33H22V31ZM1 22V10H-1V22H1ZM10 31C5.02944 31 1 26.9706 1 22H-1C-1 28.0751 3.92487 33 10 33V31ZM31 22C31 26.9706 26.9706 31 22 31V33C28.0751 33 33 28.0751 33 22H31ZM22 1C26.9706 1 31 5.02944 31 10H33C33 3.92487 28.0751 -1 22 -1V1ZM10 -1C3.92487 -1 -1 3.92487 -1 10H1C1 5.02944 5.02944 1 10 1V-1Z" fill="white" fill-opacity="0.2"/>
<defs>
<radialGradient id="paint0_radial_3_10241" cx="0" cy="0" r="1" gradientUnits="userSpaceOnUse" gradientTransform="translate(16 16) rotate(90) scale(16)">
<stop stop-color="#7FA4FB"/>
<stop offset="1" stop-color="#2E69F6"/>
</radialGradient>
</defs>
</svg>
