<svg width="32" height="32" viewBox="0 0 32 32" fill="none" xmlns="http://www.w3.org/2000/svg">
<path d="M0 10C0 4.47715 4.47715 0 10 0H22C27.5228 0 32 4.47715 32 10V22C32 27.5228 27.5228 32 22 32H10C4.47715 32 0 27.5228 0 22V10Z" fill="url(#paint0_radial_3_10280)"/>
<path fill-rule="evenodd" clip-rule="evenodd" d="M13.2535 5.10189C13.0537 4.95315 12.7778 4.96872 12.5955 5.13903C12.4133 5.30934 12.3761 5.5865 12.5068 5.79983L14.8462 9.61802L15.0471 13.8356C15.0568 14.0397 15.183 14.2195 15.3703 14.2961L17.9172 15.3369L20.822 19.7459L19.616 26.3814C19.5801 26.5795 19.6594 26.7808 19.8202 26.8994C19.9809 27.0181 20.1947 27.0329 20.37 26.9377L22.1322 25.9806C22.2489 25.9172 22.3371 25.811 22.3787 25.6838L24.4649 19.3115C24.505 19.1889 24.499 19.0556 24.4479 18.9372L21.4547 12.0011C21.4003 11.8751 21.2992 11.7758 21.173 11.7246L18.8665 10.7885L17.7236 8.49992C17.687 8.42656 17.6338 8.36295 17.5683 8.31424L13.2535 5.10189Z" fill="#21B3D3"/>
<path fill-rule="evenodd" clip-rule="evenodd" d="M15.758 13.3247C15.5514 13.2402 15.3145 13.2991 15.17 13.4708L11.1788 18.2141L8.36666 18.034C8.12326 18.0184 7.90212 18.1769 7.83581 18.4144L7.0195 21.3383C6.98785 21.4516 6.99489 21.5725 7.03949 21.6813L9.08675 26.6768C9.16692 26.8725 9.35562 27 9.56491 27H20.1252C20.3749 27 20.5891 26.8195 20.6343 26.5709L21.8782 19.7267C21.9025 19.5928 21.8744 19.4546 21.7998 19.3414L18.69 14.6212C18.6323 14.5335 18.5497 14.4655 18.4531 14.426L15.758 13.3247Z" fill="#3FDCFF"/>
<path fill-rule="evenodd" clip-rule="evenodd" d="M13.3867 5.2478C13.3116 5.12515 13.1898 5.03931 13.0501 5.01053C12.9103 4.98175 12.765 5.01257 12.6485 5.09572L11.6378 5.81686C11.5469 5.88175 11.479 5.97455 11.4443 6.08152L10.0324 10.4321L7.42657 13.9693C7.3476 14.0765 7.31213 14.2102 7.32743 14.343L7.81981 18.6174C7.84879 18.869 8.05149 19.0635 8.30128 19.0795L11.3722 19.2762C11.535 19.2866 11.6932 19.2187 11.799 19.093L15.9583 14.1499C16.0436 14.0486 16.0876 13.9181 16.0812 13.7851L15.8739 9.43209C15.8697 9.34322 15.8432 9.2569 15.7968 9.18128L13.3867 5.2478Z" fill="#67E3FF"/>
<path d="M10 1H22V-1H10V1ZM31 10V22H33V10H31ZM22 31H10V33H22V31ZM1 22V10H-1V22H1ZM10 31C5.02944 31 1 26.9706 1 22H-1C-1 28.0751 3.92487 33 10 33V31ZM31 22C31 26.9706 26.9706 31 22 31V33C28.0751 33 33 28.0751 33 22H31ZM22 1C26.9706 1 31 5.02944 31 10H33C33 3.92487 28.0751 -1 22 -1V1ZM10 -1C3.92487 -1 -1 3.92487 -1 10H1C1 5.02944 5.02944 1 10 1V-1Z" fill="white" fill-opacity="0.2"/>
<defs>
<radialGradient id="paint0_radial_3_10280" cx="0" cy="0" r="1" gradientUnits="userSpaceOnUse" gradientTransform="translate(16 16) rotate(90) scale(16)">
<stop stop-color="#D1F7FF"/>
<stop offset="1" stop-color="#82E8FF"/>
</radialGradient>
</defs>
</svg>
