<svg width="32" height="32" viewBox="0 0 32 32" fill="none" xmlns="http://www.w3.org/2000/svg">
<path d="M0 10C0 4.47715 4.47715 0 10 0H22C27.5228 0 32 4.47715 32 10V22C32 27.5228 27.5228 32 22 32H10C4.47715 32 0 27.5228 0 22V10Z" fill="url(#paint0_radial_130_8560)"/>
<g clip-path="url(#clip0_130_8560)">
<path d="M25.1335 26.9608C25.0958 26.9608 25.0596 26.9458 25.0329 26.9193C25.0062 26.8927 24.9913 26.8566 24.9913 26.8191V26.3943H24.5643C24.5266 26.3943 24.4904 26.3794 24.4637 26.3528C24.437 26.3263 24.422 26.2903 24.422 26.2527V25.8279H23.9951C23.9574 25.8279 23.9212 25.813 23.8945 25.7864C23.8678 25.7599 23.8528 25.7239 23.8528 25.6863V25.5447H23.4259C23.3882 25.5447 23.352 25.5298 23.3253 25.5032C23.2986 25.4767 23.2836 25.4407 23.2836 25.4031V25.2615H23.1413C23.1036 25.2615 23.0674 25.2466 23.0407 25.22C23.014 25.1934 22.999 25.1574 22.999 25.1198V24.9783H22.8567C22.819 24.9783 22.7827 24.9633 22.7561 24.9368C22.7294 24.9102 22.7144 24.8742 22.7144 24.8366V24.6951H22.5721C22.5344 24.6951 22.4981 24.6801 22.4714 24.6536C22.4448 24.627 22.4298 24.591 22.4298 24.5534V24.1286H22.2875C22.2498 24.1286 22.2135 24.1137 22.1868 24.0871C22.1602 24.0606 22.1452 24.0246 22.1452 23.987V23.5622H21.7183C21.6805 23.5622 21.6443 23.5473 21.6176 23.5207C21.591 23.4942 21.576 23.4582 21.576 23.4206V22.9958H21.1491C21.1113 22.9958 21.0751 22.9809 21.0485 22.9543C21.0218 22.9277 21.0068 22.8917 21.0068 22.8542V22.4293H20.5799C20.5421 22.4293 20.5059 22.4144 20.4793 22.3879C20.4526 22.3613 20.4375 22.3253 20.4375 22.2878V21.8629H18.0184C17.9807 21.8629 17.9445 21.848 17.9178 21.8214C17.8911 21.7949 17.8761 21.7589 17.8761 21.7214V21.5797H17.7338C17.6961 21.5797 17.6599 21.5648 17.6332 21.5382C17.6065 21.5117 17.5915 21.4757 17.5915 21.4381V21.2965H17.4492C17.4114 21.2965 17.3753 21.2816 17.3486 21.255C17.3219 21.2285 17.3069 21.1925 17.3069 21.1549V21.0133H17.1646C17.1268 21.0133 17.0907 20.9984 17.064 20.9718C17.0373 20.9452 17.0223 20.9092 17.0223 20.8717V18.4644H16.5954C16.5576 18.4644 16.5215 18.4495 16.4948 18.423C16.4681 18.3964 16.4531 18.3604 16.4531 18.3228V17.898H16.0262C15.9884 17.898 15.9523 17.8831 15.9256 17.8565C15.8989 17.83 15.8839 17.794 15.8839 17.7564V17.3316H15.457C15.4192 17.3316 15.383 17.3167 15.3564 17.2901C15.3297 17.2635 15.3147 17.2275 15.3147 17.1899V16.7652H14.3185C14.2808 16.7652 14.2446 16.7502 14.2179 16.7237C14.1912 16.6971 14.1763 16.6611 14.1763 16.6235V15.6323H12.0417C12.004 15.6323 11.9678 15.6174 11.9411 15.5908C11.9144 15.5643 11.8994 15.5283 11.8994 15.4907V15.3491H11.7571C11.7194 15.3491 11.6832 15.3342 11.6565 15.3076C11.6298 15.2811 11.6148 15.2451 11.6148 15.2075V15.0659H11.4725C11.4348 15.0659 11.3986 15.051 11.3719 15.0244C11.3452 14.9978 11.3302 14.9618 11.3302 14.9243V14.7827H11.1879C11.1502 14.7827 11.114 14.7677 11.0873 14.7412C11.0606 14.7146 11.0456 14.6786 11.0456 14.6411V13.3666H10.9033C10.8656 13.3666 10.8294 13.3517 10.8027 13.3251C10.776 13.2986 10.761 13.2626 10.761 13.225V12.9673L10.4764 13.2533C10.449 13.2788 10.4129 13.293 10.3753 13.293C10.3378 13.293 10.3017 13.2788 10.2743 13.2533L9.97263 12.9532L9.67095 13.2533C9.6441 13.2788 9.60843 13.293 9.57134 13.293C9.53333 13.2934 9.49665 13.2792 9.46888 13.2533L9.1672 12.9532L8.86552 13.2533C8.83867 13.2788 8.80299 13.293 8.7659 13.293C8.72801 13.2928 8.69153 13.2787 8.66345 13.2533L8.36177 12.9532L8.06008 13.2533C8.03311 13.2786 7.99749 13.2926 7.96047 13.2926C7.92346 13.2926 7.88783 13.2786 7.86086 13.2533L7.55918 12.9532L7.25465 13.2533C7.24175 13.2665 7.22622 13.2768 7.20906 13.2836C7.19191 13.2905 7.1735 13.2937 7.15504 13.293C7.13659 13.2936 7.11821 13.2904 7.10107 13.2835C7.08394 13.2767 7.0684 13.2664 7.05543 13.2533L5.04327 11.251C5.02953 11.2379 5.01866 11.222 5.01132 11.2045C5.00397 11.1869 5.00032 11.1681 5.00058 11.1491C5.00024 11.1305 5.00388 11.112 5.01124 11.095C5.01859 11.0779 5.02951 11.0625 5.04327 11.05L5.34495 10.7492L5.04327 10.449C5.02953 10.4358 5.01866 10.4199 5.01132 10.4024C5.00397 10.3849 5.00032 10.366 5.00058 10.347C5.00024 10.3284 5.00388 10.31 5.01124 10.2929C5.01859 10.2758 5.02951 10.2605 5.04327 10.2479L5.34495 9.94771L5.04327 9.6475C5.02957 9.63488 5.01869 9.61953 5.01134 9.60246C5.00398 9.58538 5.00032 9.56695 5.00058 9.54838C5.00027 9.52938 5.0039 9.51051 5.01124 9.49297C5.01859 9.47543 5.02949 9.45959 5.04327 9.44642L5.34495 9.14622L5.04327 8.84601C5.02957 8.83339 5.01869 8.81804 5.01134 8.80097C5.00398 8.78389 5.00032 8.76547 5.00058 8.74689C5.00055 8.72793 5.00431 8.70915 5.01163 8.69165C5.01896 8.67415 5.02972 8.65826 5.04327 8.64493L5.34495 8.34473L5.04327 8.04453C5.03016 8.03232 5.01959 8.01766 5.01218 8.00138C5.00477 7.98511 5.00065 7.96753 5.00007 7.94967C4.99949 7.93181 5.00245 7.91401 5.00879 7.89729C5.01513 7.88057 5.02472 7.86526 5.03701 7.85223C5.03895 7.85011 5.04105 7.84812 5.04327 7.84628L5.34495 7.54608L5.04327 7.24361C5.03016 7.2314 5.01959 7.21674 5.01218 7.20046C5.00477 7.18419 5.00065 7.16661 5.00007 7.14875C4.99949 7.13089 5.00245 7.11309 5.00879 7.09637C5.01513 7.07965 5.02472 7.06434 5.03701 7.05131C5.03895 7.04919 5.04105 7.0472 5.04327 7.04536L7.05543 5.04306C7.06821 5.02951 7.08363 5.01869 7.10076 5.01129C7.11789 5.00389 7.13636 5.00005 7.15504 5.00002C7.17371 4.99975 7.19223 5.0034 7.20939 5.01072C7.22655 5.01804 7.24197 5.02886 7.25465 5.0425L7.55918 5.3427L7.86086 5.0425C7.8731 5.02946 7.88782 5.01895 7.90415 5.01158C7.92049 5.00421 7.93811 5.00011 7.95604 4.99954C7.97397 4.99896 7.99183 5.0019 8.00861 5.00821C8.02539 5.01451 8.04075 5.02404 8.05382 5.03627C8.05581 5.03825 8.0581 5.04023 8.06008 5.0425L8.36177 5.3427L8.66345 5.0425C8.67685 5.02901 8.6928 5.01831 8.71039 5.01102C8.72798 5.00372 8.74685 4.99998 8.7659 5.00002C8.78454 5.00003 8.80296 5.0038 8.82009 5.0111C8.8372 5.0184 8.85266 5.02908 8.86552 5.0425L9.1672 5.3427L9.46831 5.04306C9.48171 5.02958 9.49767 5.01888 9.51525 5.01158C9.53284 5.00429 9.55171 5.00055 9.57077 5.00058C9.6083 5.00111 9.6441 5.01638 9.67038 5.04306L9.97206 5.34327L10.2737 5.04306C10.2867 5.02975 10.3021 5.01914 10.3192 5.01184C10.3364 5.00455 10.3547 5.00072 10.3734 5.00058C10.3924 5.00061 10.4113 5.00438 10.4288 5.01167C10.4464 5.01896 10.4624 5.02963 10.4758 5.04306L10.7775 5.34327L11.0792 5.04306C11.0921 5.02975 11.1076 5.01914 11.1247 5.01184C11.1418 5.00455 11.1602 5.00072 11.1788 5.00058C11.1978 5.00061 11.2167 5.00438 11.2343 5.01167C11.2519 5.01896 11.2678 5.02963 11.2812 5.04306L13.2934 7.04536C13.3188 7.0722 13.3329 7.10765 13.3329 7.14449C13.3329 7.18132 13.3188 7.21677 13.2934 7.24361L12.9917 7.54664L13.2934 7.84685C13.3188 7.87369 13.3329 7.90913 13.3329 7.94597C13.3329 7.98281 13.3188 8.01826 13.2934 8.04509L12.9917 8.3453L13.2934 8.6455C13.3189 8.67345 13.333 8.70976 13.3332 8.74746C13.3332 8.78437 13.319 8.81987 13.2934 8.84658L12.9917 9.14679L13.2934 9.44699C13.3194 9.47462 13.3336 9.51113 13.3332 9.54895C13.3332 9.58585 13.319 9.62135 13.2934 9.64807L12.9917 9.94827L13.2934 10.2485C13.3192 10.2751 13.3335 10.3107 13.3332 10.3476C13.3335 10.3854 13.3192 10.4219 13.2934 10.4496L12.9923 10.7492L13.0606 10.8172H13.1801C13.2179 10.8172 13.254 10.8321 13.2807 10.8586C13.3074 10.8852 13.3225 10.9212 13.3225 10.9588V11.0919C13.3244 11.0943 13.3254 11.0973 13.3253 11.1004H13.7493C13.7871 11.1004 13.8232 11.1153 13.8499 11.1418C13.8766 11.1684 13.8917 11.2044 13.8917 11.242V11.95H14.3185C14.3563 11.95 14.3925 11.9649 14.4192 11.9915C14.4458 12.018 14.4609 12.0541 14.4609 12.0916V13.0829H14.8878C14.9255 13.0829 14.9617 13.0977 14.9884 13.1243C15.0151 13.1508 15.0301 13.1869 15.0301 13.2244V13.6493H15.457C15.4947 13.6493 15.5309 13.6642 15.5576 13.6907C15.5843 13.7173 15.5993 13.7533 15.5993 13.7909V13.9324H18.0184C18.0562 13.9324 18.0923 13.9474 18.119 13.9739C18.1457 14.0005 18.1607 14.0366 18.1607 14.0741V14.2157H18.303C18.3408 14.2157 18.377 14.2306 18.4036 14.2571C18.4303 14.2837 18.4453 14.3198 18.4453 14.3573V14.4989H18.5876C18.6253 14.4989 18.6616 14.5138 18.6883 14.5404C18.7149 14.5669 18.7299 14.603 18.7299 14.6405V14.7821H18.8722C18.9099 14.7821 18.9462 14.797 18.9729 14.8236C18.9996 14.8501 19.0145 14.8862 19.0145 14.9237V17.6142H19.4415C19.4792 17.6142 19.5154 17.6291 19.5421 17.6557C19.5688 17.6823 19.5837 17.7183 19.5837 17.7559V18.1806H20.0107C20.0484 18.1806 20.0846 18.1956 20.1113 18.2221C20.138 18.2487 20.1529 18.2847 20.1529 18.3222V18.7471H20.5799C20.6176 18.7471 20.6538 18.762 20.6805 18.7886C20.7072 18.8151 20.7222 18.8511 20.7222 18.8886V19.3135H21.1491C21.1868 19.3135 21.223 19.3284 21.2497 19.355C21.2764 19.3815 21.2914 19.4175 21.2914 19.4551V19.8799H21.7183C21.756 19.8799 21.7922 19.8948 21.8189 19.9214C21.8456 19.948 21.8606 19.984 21.8606 20.0215V20.1631H23.4259C23.4636 20.1631 23.4999 20.1781 23.5266 20.2046C23.5533 20.2312 23.5682 20.2672 23.5682 20.3047V20.4463H23.7105C23.7483 20.4463 23.7845 20.4613 23.8112 20.4878C23.8379 20.5144 23.8528 20.5504 23.8528 20.5879V20.7296H23.9951C24.0329 20.7296 24.0691 20.7445 24.0958 20.771C24.1224 20.7976 24.1374 20.8336 24.1374 20.8711V22.712H24.5643C24.6021 22.712 24.6383 22.7269 24.665 22.7535C24.6916 22.78 24.7066 22.8161 24.7066 22.8536V23.2784H25.1335C25.1713 23.2784 25.2075 23.2933 25.2341 23.3199C25.2608 23.3464 25.2759 23.3825 25.2759 23.42V23.8448H25.7027C25.7405 23.8448 25.7767 23.8598 25.8033 23.8863C25.83 23.9129 25.8451 23.9489 25.8451 23.9865V24.4113H26.2719C26.3097 24.4113 26.3459 24.4262 26.3726 24.4527C26.3993 24.4793 26.4143 24.5153 26.4143 24.5529V24.9777H26.8412C26.8789 24.9777 26.9151 24.9926 26.9418 25.0192C26.9685 25.0457 26.9835 25.0817 26.9835 25.1193V26.8185C26.9835 26.8561 26.9685 26.8921 26.9418 26.9187C26.9151 26.9452 26.8789 26.9602 26.8412 26.9602L25.1335 26.9608Z" fill="white"/>
<path d="M26.272 25.1199V24.5535H25.7028V23.9871H25.1336V23.4206H24.5644V22.8542H23.9952V20.8717H23.7105V20.5885H23.4259V20.3053H21.7183V20.0221H21.1491V19.4557H20.5799V18.8893H20.0107V18.3229H19.4414V17.7564H19.2992V14.9243C19.2992 14.8868 19.2841 14.8507 19.2575 14.8242C19.2308 14.7976 19.1946 14.7827 19.1568 14.7827H18.5876V14.6411H18.303V14.3579H18.0184V14.0747H15.457V13.7915H14.8878V13.225H14.3186V12.0922H13.7494V11.2426H13.1802V11.1633L13.1915 11.1491L13.1802 11.1378V10.9594H13.0009L12.7903 10.7498L13.1915 10.3476L12.7903 9.9483L13.1915 9.54897L12.7903 9.14682L13.1915 8.74749L12.7903 8.34533L13.1915 7.946L12.7903 7.54667L13.1915 7.14451L11.1794 5.14165L10.7775 5.54154L10.3739 5.14165L9.97266 5.54097L9.57136 5.14165L9.16722 5.54097L8.76593 5.14165L8.36179 5.54097L7.95992 5.14165L7.55863 5.54097L7.15506 5.14165L5.14233 7.14451L5.54363 7.54667L5.14233 7.94543L5.54363 8.34476L5.14233 8.74749L5.54363 9.14682L5.14233 9.54897L5.54363 9.9483L5.14233 10.3476L5.5442 10.7492L5.14233 11.1491L7.15449 13.1514L7.55863 12.7521L7.95992 13.1514L8.36122 12.7521L8.76536 13.1514L9.16665 12.7521L9.57079 13.1514L9.97208 12.7521L10.3734 13.1514L10.7775 12.7521L10.9027 12.8767V13.225H11.1873V14.6411H11.472V14.9243H11.7566V15.2075H12.0412V15.4907H14.318V16.6236H15.4564V17.19H16.0257V17.7564H16.5949V18.3229H17.1641V20.8717H17.4487V21.1549H17.7333V21.4381H18.0179V21.7214H20.5793V22.2878H21.1485V22.8542H21.7177V23.4206H22.2869V23.9871H22.5715V24.5535H22.8561V24.8367H23.1407V25.1199H23.4254V25.4031H23.9946V25.6863H24.5638V26.2528H25.133V26.8192H26.8406V25.1199H26.272Z" fill="white"/>
<path d="M13.1801 10.9594H12.6108V13.7915H13.1801V10.9594Z" fill="#5552FD"/>
<path d="M13.7493 12.0922H12.6108V14.3579H13.7493V12.0922Z" fill="#5552FD"/>
<path d="M14.3185 12.6586H12.0417V13.7915H14.3185V12.6586Z" fill="#5552FD"/>
<path d="M13.7493 12.6586H10.9032V13.225H13.7493V12.6586Z" fill="#5552FD"/>
<path d="M26.8412 25.6863H26.272V26.8192H26.8412V25.6863Z" fill="#5552FD"/>
<path d="M26.2719 26.2528H25.7027V26.8192H26.2719V26.2528Z" fill="#5552FD"/>
<path d="M15.5708 14.4995H14.5747V15.6041H15.5708V14.4995Z" fill="#5552FD"/>
<path d="M17.1642 16.0572V17.19H16.0258V16.6236H14.3182V14.9243H13.749V13.7915H14.8874V14.358H16.595V16.0572H17.1642Z" fill="#5552FD"/>
<path d="M16.5954 15.4907H15.457V16.6236H16.5954V15.4907Z" fill="#5552FD"/>
<path d="M17.7337 16.6235H16.5953V17.7564H17.7337V16.6235Z" fill="#5552FD"/>
<path d="M18.303 17.19H17.1646V18.3229H18.303V17.19Z" fill="#5552FD"/>
<path d="M18.8723 17.7564H17.7338V18.8893H18.8723V17.7564Z" fill="#5552FD"/>
<path d="M19.4414 18.3228H18.3029V19.4556H19.4414V18.3228Z" fill="#5552FD"/>
<path d="M20.0107 18.8893H18.8723V20.0221H20.0107V18.8893Z" fill="#5552FD"/>
<path d="M20.5798 19.4556H19.4415V20.5885H20.5798V19.4556Z" fill="#5552FD"/>
<path d="M21.149 20.0221H20.0106V21.155H21.149V20.0221Z" fill="#5552FD"/>
<path d="M21.7182 20.5885H20.5797V21.7214H21.7182V20.5885Z" fill="#5552FD"/>
<path d="M22.2875 21.1549H21.1491V22.2878H22.2875V21.1549Z" fill="#5552FD"/>
<path d="M22.8567 21.7214H21.7182V22.8542H22.8567V21.7214Z" fill="#5552FD"/>
<path d="M23.426 22.2878H22.2876V23.4206H23.426V22.2878Z" fill="#5552FD"/>
<path d="M23.9952 22.8541H22.8568V23.987H23.9952V22.8541Z" fill="#5552FD"/>
<path d="M24.5643 23.4206H23.4259V24.5534H24.5643V23.4206Z" fill="#5552FD"/>
<path d="M26.2717 25.1196V26.2525H24.5641V25.686H23.9949V23.9868H25.1333V24.5532H25.7024V25.1196H25.1333V25.686H25.7024V25.1196H26.2717Z" fill="#5552FD"/>
<path d="M25.7024 25.1199H25.1331V25.6863H25.7024V25.1199Z" fill="#5552FD"/>
<path d="M25.7024 25.1199H25.1331V25.6863H25.7024V25.1199Z" fill="#5552FD"/>
<path d="M12.788 10.749L10.7755 12.7516L11.0877 13.0622L13.1001 11.0596L12.788 10.749Z" fill="#5552FD"/>
<path d="M5.54571 10.749L5.14322 11.1495L7.15568 13.1522L7.55817 12.7516L5.54571 10.749Z" fill="#5552FD"/>
<path d="M7.9595 12.3513L7.55701 12.7518L7.9595 13.1524L8.36199 12.7518L7.9595 12.3513Z" fill="#5552FD"/>
<path d="M8.76516 12.3512L8.36267 12.7517L8.76516 13.1522L9.16765 12.7517L8.76516 12.3512Z" fill="#5552FD"/>
<path d="M9.57101 12.3507L9.16852 12.7512L9.57101 13.1517L9.9735 12.7512L9.57101 12.3507Z" fill="#5552FD"/>
<path d="M10.3747 12.3525L9.9722 12.753L10.3747 13.1536L10.7772 12.753L10.3747 12.3525Z" fill="#5552FD"/>
<path d="M12.7881 9.94593L12.3856 10.3465L12.7881 10.747L13.1906 10.3465L12.7881 9.94593Z" fill="#5552FD"/>
<path d="M12.7899 9.14893L12.3874 9.54946L12.7899 9.94998L13.1924 9.54946L12.7899 9.14893Z" fill="#5552FD"/>
<path d="M12.7896 8.3471L12.387 8.74763L12.7896 9.14816L13.192 8.74763L12.7896 8.3471Z" fill="#5552FD"/>
<path d="M12.7894 7.54537L12.3869 7.94589L12.7894 8.34642L13.1919 7.94589L12.7894 7.54537Z" fill="#5552FD"/>
<path d="M11.178 5.14115L10.7755 5.54167L12.788 7.54427L13.1905 7.14375L11.178 5.14115Z" fill="#5552FD"/>
<path d="M10.374 5.14115L9.9715 5.54167L10.374 5.94218L10.7765 5.54167L10.374 5.14115Z" fill="#5552FD"/>
<path d="M9.57028 5.13936L9.16779 5.53988L9.57028 5.9404L9.97277 5.53988L9.57028 5.13936Z" fill="#5552FD"/>
<path d="M8.76461 5.13972L8.36212 5.54024L8.76461 5.94076L9.16711 5.54024L8.76461 5.13972Z" fill="#5552FD"/>
<path d="M7.95877 5.13989L7.55627 5.54041L7.95877 5.94093L8.36126 5.54041L7.95877 5.13989Z" fill="#5552FD"/>
<path d="M7.1555 5.14146L5.14304 7.14406L5.54553 7.54459L7.55799 5.54198L7.1555 5.14146Z" fill="#5552FD"/>
<path d="M5.54538 7.54626L5.14288 7.94678L5.54538 8.34731L5.94787 7.94678L5.54538 7.54626Z" fill="#5552FD"/>
<path d="M5.54553 8.348L5.14304 8.74853L5.54553 9.14904L5.94802 8.74853L5.54553 8.348Z" fill="#5552FD"/>
<path d="M5.54589 9.14983L5.1434 9.55035L5.54589 9.95087L5.94838 9.55035L5.54589 9.14983Z" fill="#5552FD"/>
<path d="M5.54413 9.94684L5.14163 10.3474L5.54413 10.7479L5.94662 10.3474L5.54413 9.94684Z" fill="#5552FD"/>
<path d="M8.76357 5.94257L8.36228 6.3419L6.34983 8.34505L5.54553 7.54441L7.55826 5.54211L7.95984 5.94144L8.36113 5.54211L8.76357 5.94257Z" fill="#9695F8"/>
<path d="M11.9857 9.94801L9.97326 11.9503L9.56941 11.5484L9.16812 11.1494L9.16697 11.1483L6.34995 8.34503L8.3624 6.34189L9.16812 7.14366V7.14394L11.1794 9.14567L11.1806 9.14652L11.5819 9.54585L11.5833 9.54726L11.9851 9.94716L11.9857 9.94801Z" fill="#9695F8"/>
<path d="M5.94775 7.94423L5.54391 8.34582L5.94627 8.74649L6.35011 8.3449L5.94775 7.94423Z" fill="#9695F8"/>
<path d="M12.7904 7.54441L11.1804 9.14654L11.1793 9.14569L9.16797 7.14396L10.778 5.54211L12.7904 7.54441Z" fill="#9695F8"/>
<path d="M9.16804 7.14364L8.36517 6.3447L9.17004 5.54378L9.57047 5.94225L9.97205 5.54265L10.3745 5.9431L9.16804 7.14364Z" fill="#9695F8"/>
<path d="M8.76751 6.74549L6.75506 8.74807L5.94991 9.54928L5.54749 9.14881L6.35263 8.34761L8.36508 6.34474L8.76751 6.74549Z" fill="#9695F8"/>
<path d="M9.16793 7.1437V7.14399L7.15548 9.14657L5.94705 10.3491L5.54462 9.94834L5.9479 9.54731L6.75305 8.74639L8.7655 6.74324L9.16793 7.1437Z" fill="#9695F8"/>
<path d="M12.7904 10.749L10.778 12.7513L10.375 12.3505L9.97226 12.7513L9.57039 12.3511L9.16738 12.7524L8.76495 12.3517L9.57067 11.5502L9.97311 11.9504L11.9855 9.94804L12.7904 10.749Z" fill="#9695F8"/>
<path d="M9.56929 11.5484L8.36142 12.7506L7.96012 12.3513L7.55827 12.7512L5.54553 10.7489L7.15555 9.14649L9.16685 11.1482L9.16799 11.1494L9.56929 11.5484Z" fill="#9695F8"/>
<path d="M11.1805 9.14655L9.16806 11.1494L9.16692 11.1483L7.15561 9.14655L9.16806 7.14397L11.1794 9.1457L11.1805 9.14655Z" fill="#9695F8"/>
<path d="M12.7888 8.34501L9.56933 11.5484L9.16804 11.1494L9.1669 11.1482L12.3864 7.94455L12.3875 7.9454L12.7888 8.34501Z" fill="#9695F8"/>
<path d="M12.3875 8.74706L9.5708 11.5499L9.97329 11.9504L12.7899 9.14759L12.3875 8.74706Z" fill="#9695F8"/>
<path d="M12.7898 9.94743L12.3875 10.3476L11.9856 9.94799L9.97314 11.9503L9.97256 11.95L11.985 9.94714L12.3872 9.54669L12.388 9.54725L12.7898 9.94743Z" fill="#9695F8"/>
<path d="M6.35156 8.34773L5.94907 8.74825L9.16901 11.9524L9.57151 11.5519L6.35156 8.34773Z" fill="#5552FD"/>
<path d="M9.16745 6.34478L8.76495 6.7453L11.5824 9.54894L11.9849 9.14842L9.16745 6.34478Z" fill="#5552FD"/>
<path d="M9.16959 7.14732L8.76709 7.54784L9.16959 7.94836L9.57208 7.54784L9.16959 7.14732Z" fill="#5552FD"/>
<path d="M7.5588 8.7449L7.15631 9.14542L7.5588 9.54593L7.9613 9.14542L7.5588 8.7449Z" fill="#5552FD"/>
<path d="M9.16838 7.94645L7.96091 9.14801L8.3634 9.54852L9.57087 8.34696L9.16838 7.94645Z" fill="#5552FD"/>
<path d="M11.5838 10.3493L11.5818 10.3518L11.5801 10.3501L11.5824 10.3482L11.5838 10.3493Z" fill="#FED955"/>
<path d="M11.9847 10.7484L10.7774 11.95L10.375 11.5496L10.3761 11.5485H10.3758L10.3747 11.5493L10.375 11.5496L9.97366 11.9492L7.55878 9.54587L7.96121 9.14541L8.36335 9.54559L9.56752 8.34733L9.1668 7.94856L9.56923 7.54811L11.9841 9.95086L11.5837 10.3493L11.5823 10.3482L11.58 10.3502L11.5817 10.3519L11.5837 10.3493L11.9847 10.7484Z" fill="#FED955"/>
<path d="M10.3761 11.5476L10.3748 11.5488L10.375 11.549L10.3763 11.5478L10.3761 11.5476Z" fill="#FED955"/>
<path d="M6.75439 9.54726L6.3519 9.94778L8.36436 11.9504L8.76685 11.5499L6.75439 9.54726Z" fill="#FED955"/>
<path d="M9.97329 6.34549L9.5708 6.74601L11.5833 8.74861L11.9858 8.3481L9.97329 6.34549Z" fill="#FED955"/>
<path d="M6.75082 10.3473L6.34833 10.7478L7.5558 11.9494L7.95829 11.5489L6.75082 10.3473Z" fill="#FED955"/>
<path d="M10.3761 11.5483L10.3748 11.5495L10.375 11.5497L10.3763 11.5485L10.3761 11.5483Z" fill="#FED955"/>
<path d="M11.5838 10.3493L11.5818 10.3518L11.5801 10.3501L11.5824 10.3482L11.5838 10.3493Z" fill="#FED955"/>
<path d="M10.7779 6.34361L10.3754 6.74414L11.5829 7.94569L11.9854 7.54518L10.7779 6.34361Z" fill="#FED955"/>
<path d="M8.76534 7.545L9.1672 7.94461L7.95962 9.14627L7.55804 8.74638L7.15561 9.14656L6.35046 8.34564L6.7529 7.9449L6.35217 7.54585L7.53954 6.3643L7.94026 6.76362L8.36291 6.34278L9.16805 7.14398L8.76534 7.545Z" fill="#FED955"/>
<path d="M8.76479 5.94154L8.3623 6.34206L8.76479 6.74258L9.16729 6.34206L8.76479 5.94154Z" fill="#5552FD"/>
<path d="M13.7494 13.2251H13.1802V13.7915H13.7494V13.2251Z" fill="#9695F8"/>
<path d="M14.3185 13.7915H13.7493V14.3579H14.3185V13.7915Z" fill="#9695F8"/>
<path d="M17.1645 16.6235H16.5953V17.1899H17.1645V16.6235Z" fill="#9695F8"/>
<path d="M17.7339 17.19H17.1646V17.7564H17.7339V17.19Z" fill="#9695F8"/>
<path d="M18.303 17.7564H17.7338V18.3229H18.303V17.7564Z" fill="#9695F8"/>
<path d="M18.8722 18.3228H18.3029V18.8893H18.8722V18.3228Z" fill="#9695F8"/>
<path d="M20.0107 19.4556H19.4415V20.0221H20.0107V19.4556Z" fill="#9695F8"/>
<path d="M20.5797 20.0221H20.0106V20.5885H20.5797V20.0221Z" fill="#9695F8"/>
<path d="M22.2874 21.7214H21.7182V22.2878H22.2874V21.7214Z" fill="#9695F8"/>
<path d="M22.8568 22.2878H22.2876V22.8541H22.8568V22.2878Z" fill="#9695F8"/>
<path d="M23.9951 23.4206H23.4259V23.987H23.9951V23.4206Z" fill="#9695F8"/>
<path d="M24.5642 23.9871H23.995V24.5535H24.5642V23.9871Z" fill="#9695F8"/>
<path d="M25.7028 25.1199H25.1335V25.6863H25.7028V25.1199Z" fill="#9695F8"/>
<path d="M26.2719 25.6863H25.7027V26.2527H26.2719V25.6863Z" fill="#9695F8"/>
<path d="M16.0262 14.9243H14.8878V16.0572H16.0262V14.9243Z" fill="#FED955"/>
<path d="M15.7416 15.1509H15.1723V15.7173H15.7416V15.1509Z" fill="#FFF2BB"/>
<path d="M15.7416 14.6411H15.1723V14.9243H15.7416V14.6411Z" fill="#C7BA82"/>
<path d="M16.3107 15.1509H16.0261V15.7173H16.3107V15.1509Z" fill="#CABE84"/>
<path d="M15.7416 16.0572H15.1723V16.3404H15.7416V16.0572Z" fill="#C7BA82"/>
<path d="M14.8878 15.1509H14.6031V15.7173H14.8878V15.1509Z" fill="#CABE84"/>
<path d="M13.1801 12.6586H12.6108V13.225H13.1801V12.6586Z" fill="#9695F8"/>
<path d="M12.6109 11.5258H11.4725V12.6586H12.6109V11.5258Z" fill="#9695F8"/>
<path d="M12.3263 12.6586H12.0417V13.225H12.3263V12.6586Z" fill="#FED955"/>
<path d="M21.7183 20.0221H21.1491V20.5885H21.7183V20.0221Z" fill="#5552FD"/>
<path d="M23.4259 20.3054H21.7182V20.5885H23.4259V20.3054Z" fill="#FCA956"/>
<path d="M12.6109 12.3754H12.0417V12.9418H12.6109V12.3754Z" fill="#FED955"/>
<path d="M19.7261 18.606H19.4415V18.8892H19.7261V18.606Z" fill="#FCA956"/>
<path d="M18.8722 19.4556H18.3029V20.0221H18.8722V19.4556Z" fill="#5552FD"/>
<path d="M23.4259 20.5885H22.5721V21.7214H23.4259V20.5885Z" fill="#FED955"/>
<path d="M22.8568 21.1549H22.2876V21.7213H22.8568V21.1549Z" fill="#5552FD"/>
<path d="M14.3185 15.2075H13.7493V15.4907H14.3185V15.2075Z" fill="#4B4BDD"/>
<path d="M13.7493 11.2426H12.8955V11.5258H13.7493V11.2426Z" fill="#E09251"/>
<path d="M12.0416 12.6586H11.757V12.9418H12.0416V12.6586Z" fill="#FED955"/>
<path d="M21.149 19.4556H20.5797V20.0221H21.149V19.4556Z" fill="#5552FD"/>
<path d="M20.5797 18.8893H20.0106V19.4557H20.5797V18.8893Z" fill="#5552FD"/>
<path d="M20.0107 18.3228H19.4415V18.8893H20.0107V18.3228Z" fill="#5552FD"/>
<path d="M19.4415 17.7564H18.8723V18.3229H19.4415V17.7564Z" fill="#5552FD"/>
<path d="M22.2874 20.5885H21.7182V21.155H22.2874V20.5885Z" fill="#5552FD"/>
<path d="M23.426 21.7214H22.8568V22.2878H23.426V21.7214Z" fill="#5552FD"/>
<path d="M23.9951 22.2878H23.4259V22.8541H23.9951V22.2878Z" fill="#5552FD"/>
<path d="M24.5642 22.8541H23.995V23.4206H24.5642V22.8541Z" fill="#5552FD"/>
<path d="M25.7028 23.9871H25.1335V24.5535H25.7028V23.9871Z" fill="#5552FD"/>
<path d="M25.1335 23.4206H24.5644V23.987H25.1335V23.4206Z" fill="#5552FD"/>
<path d="M26.2719 24.5533H25.7027V25.1198H26.2719V24.5533Z" fill="#5552FD"/>
<path d="M26.8412 25.1199H26.272V25.6863H26.8412V25.1199Z" fill="#5552FD"/>
<path d="M23.9951 24.5533H23.4259V25.1198H23.9951V24.5533Z" fill="#5552FD"/>
<path d="M25.7028 26.2528H25.1335V26.8192H25.7028V26.2528Z" fill="#5552FD"/>
<path d="M20.5797 21.1549H20.0106V21.7213H20.5797V21.1549Z" fill="#5552FD"/>
<path d="M20.0107 20.5885H19.4415V21.155H20.0107V20.5885Z" fill="#5552FD"/>
<path d="M21.149 21.7214H20.5797V22.2878H21.149V21.7214Z" fill="#5552FD"/>
<path d="M21.7183 22.2878H21.1491V22.8541H21.7183V22.2878Z" fill="#5552FD"/>
<path d="M22.8568 23.4206H22.2876V23.987H22.8568V23.4206Z" fill="#5552FD"/>
<path d="M19.4415 20.0221H18.8723V20.5885H19.4415V20.0221Z" fill="#5552FD"/>
<path d="M18.8722 17.19H18.3029V17.7564H18.8722V17.19Z" fill="#5552FD"/>
<path d="M18.303 18.8893H17.7338V19.4557H18.303V18.8893Z" fill="#5552FD"/>
<path d="M17.7339 18.3228H17.1646V18.8893H17.7339V18.3228Z" fill="#5552FD"/>
<path d="M17.1645 17.7564H16.5953V18.3229H17.1645V17.7564Z" fill="#5552FD"/>
<path d="M16.5953 17.19H16.0261V17.7564H16.5953V17.19Z" fill="#5552FD"/>
<path d="M16.0262 16.6235H15.457V17.1899H16.0262V16.6235Z" fill="#5552FD"/>
<path d="M17.7339 16.0572H17.1646V16.6236H17.7339V16.0572Z" fill="#5552FD"/>
<path d="M17.1645 15.4907H16.5953V16.0572H17.1645V15.4907Z" fill="#5552FD"/>
<path d="M18.303 16.6235H17.7338V17.1899H18.303V16.6235Z" fill="#5552FD"/>
<path d="M14.3185 14.9243H13.7493V15.4907H14.3185V14.9243Z" fill="#5552FD"/>
<path d="M13.7494 14.3579H13.1802V14.9243H13.7494V14.3579Z" fill="#5552FD"/>
<path d="M15.457 13.7915H14.8878V14.3579H15.457V13.7915Z" fill="#5552FD"/>
<path d="M14.8878 13.2251H14.3185V13.7915H14.8878V13.2251Z" fill="#5552FD"/>
<path d="M12.6109 13.7915H12.0417V14.3579H12.6109V13.7915Z" fill="#5552FD"/>
<path d="M12.0417 13.2251H11.4725V13.7915H12.0417V13.2251Z" fill="#5552FD"/>
<path d="M13.7494 11.5258H13.1802V12.0922H13.7494V11.5258Z" fill="#5552FD"/>
<path d="M14.3185 12.0922H13.7493V12.9418H14.3185V12.0922Z" fill="#5552FD"/>
<path d="M23.426 23.9871H22.8568V24.5535H23.426V23.9871Z" fill="#5552FD"/>
<path d="M22.2874 22.8541H21.7182V23.4206H22.2874V22.8541Z" fill="#5552FD"/>
<path d="M20.0107 20.5885H19.4415V21.155H20.0107V20.5885Z" fill="#4B4BDD"/>
<path d="M20.5797 21.1549H20.0106V21.7213H20.5797V21.1549Z" fill="#4B4BDD"/>
<path d="M21.149 21.7214H20.5797V22.2878H21.149V21.7214Z" fill="#4B4BDD"/>
<path d="M19.4415 20.0221H18.8723V20.5885H19.4415V20.0221Z" fill="#4B4BDD"/>
<path d="M18.8722 19.7389H18.3029V20.0221H18.8722V19.7389Z" fill="#4B4BDD"/>
<path d="M18.303 19.1725H17.7338V19.4556H18.303V19.1725Z" fill="#4B4BDD"/>
<path d="M21.7183 22.2878H21.1491V22.8541H21.7183V22.2878Z" fill="#4B4BDD"/>
<path d="M22.2874 22.8541H21.7182V23.4206H22.2874V22.8541Z" fill="#4B4BDD"/>
<path d="M22.8568 23.4206H22.2876V23.987H22.8568V23.4206Z" fill="#4B4BDD"/>
<path d="M23.426 23.9871H22.8568V24.5535H23.426V23.9871Z" fill="#4B4BDD"/>
<path d="M23.9951 24.8366H23.4259V25.1199H23.9951V24.8366Z" fill="#4B4BDD"/>
<path d="M24.5642 25.403H23.995V25.6863H24.5642V25.403Z" fill="#4B4BDD"/>
<path d="M25.1335 25.9695H24.5644V26.2527H25.1335V25.9695Z" fill="#4B4BDD"/>
<path d="M26.8412 26.2528H25.1335V26.8192H26.8412V26.2528Z" fill="#4B4BDD"/>
<path d="M17.1645 17.7564H16.5953V18.3229H17.1645V17.7564Z" fill="#4B4BDD"/>
<path d="M17.7339 18.606H17.1646V18.8892H17.7339V18.606Z" fill="#4B4BDD"/>
<path d="M16.5953 17.19H16.0261V17.7564H16.5953V17.19Z" fill="#4B4BDD"/>
<path d="M16.0262 16.6235H15.457V17.1899H16.0262V16.6235Z" fill="#4B4BDD"/>
<path d="M13.7494 14.6411H13.1802V14.9243H13.7494V14.6411Z" fill="#4B4BDD"/>
<path d="M14.3185 14.9243H13.7493V15.4907H14.3185V14.9243Z" fill="#4B4BDD"/>
<path d="M13.1802 13.7915H12.3264V14.3579H13.1802V13.7915Z" fill="#4B4BDD"/>
<path d="M12.0417 13.5082H11.4725V13.7915H12.0417V13.5082Z" fill="#4B4BDD"/>
<path d="M18.0184 14.0747H15.457V14.3579H18.0184V14.0747Z" fill="#FCA956"/>
<path d="M18.8723 14.9243H18.5876V20.5885H18.8723V14.9243Z" fill="#E2BC52"/>
<path d="M19.1569 14.9243H18.8723V20.5885H19.1569V14.9243Z" fill="#FCA956"/>
<path d="M11.4725 12.9418H11.1879V14.6411H11.4725V12.9418Z" fill="#FCA956"/>
<path d="M19.4412 20.5883V21.4379H18.0181V21.1547H17.4489V15.2075H16.5951V14.3579H18.1035V14.6411H18.5873V20.5883H19.4412Z" fill="#FED955"/>
<path d="M18.303 14.3579H18.0184V14.6411H18.303V14.3579Z" fill="#FCA956"/>
<path d="M20.0107 21.4381H18.0184V21.7213H20.0107V21.4381Z" fill="#E09251"/>
<path d="M18.0184 21.1549H17.7338V21.4381H18.0184V21.1549Z" fill="#E09251"/>
<path d="M18.5876 14.9243H18.0184V15.4907H18.5876V14.9243Z" fill="#FFF2BB"/>
<path d="M18.0184 15.4907H17.7338V15.7739H18.0184V15.4907Z" fill="#FFF2BB"/>
<path d="M17.7337 15.7739H17.4491V16.0572H17.7337V15.7739Z" fill="#FFF2BB"/>
<path d="M18.303 15.7739H18.0184V16.0572H18.303V15.7739Z" fill="#FFF2BB"/>
<path d="M17.7337 15.2075H17.4491V15.4907H17.7337V15.2075Z" fill="#FFF2BB"/>
<path d="M17.4492 15.2075H17.1646V20.8717H17.4492V15.2075Z" fill="#FCA956"/>
<path d="M18.5876 14.6411H18.3029V14.9243H18.5876V14.6411Z" fill="#FCA956"/>
<path d="M13.4647 11.5258H12.8955V12.0922H13.4647V11.5258Z" fill="#FED955"/>
<path d="M20.0107 21.1549H19.4415V21.4381H20.0107V21.1549Z" fill="#FED955"/>
<path d="M17.4491 15.2075H16.5953V15.4907H17.4491V15.2075Z" fill="#FCA956"/>
<path d="M23.7105 20.5885H23.4259V20.8718H23.7105V20.5885Z" fill="#FCA956"/>
<path d="M22.8567 21.4381H22.5721V24.5534H22.8567V21.4381Z" fill="#FCA956"/>
<path d="M23.4258 24.8366H23.1412V25.1199H23.4258V24.8366Z" fill="#E09251"/>
<path d="M13.749 14.3579V15.2075H11.7568V14.6411H11.4722V12.9418H12.326V14.3579H13.749Z" fill="#FED955"/>
<path d="M13.7493 15.2075H12.0417V15.4907H13.7493V15.2075Z" fill="#E09251"/>
<path d="M11.7571 14.6411H11.4725V14.9243H11.7571V14.6411Z" fill="#E09251"/>
<path d="M17.7337 20.8717H17.4491V21.1549H17.7337V20.8717Z" fill="#E09251"/>
<path d="M23.9952 20.8717H23.7106V21.1549H23.9952V20.8717Z" fill="#FCA956"/>
<path d="M12.0416 14.9243H11.757V15.2075H12.0416V14.9243Z" fill="#E09251"/>
<path d="M23.9952 21.1549H23.7106V24.5534H23.9952V21.1549Z" fill="#FCA956"/>
<path d="M23.4258 24.2703H23.1412V24.5534H23.4258V24.2703Z" fill="#E09251"/>
<path d="M12.8956 12.0922H12.3264V12.6586H12.8956V12.0922Z" fill="#FED955"/>
<path d="M13.1801 11.809H12.6108V12.3754H13.1801V11.809Z" fill="#FED955"/>
<path d="M12.8951 11.2422V11.8087H12.6105V12.0919H12.3259V12.0907H12.0413V11.8075H12.3259V11.5254H12.6105V11.2422H12.8951Z" fill="#FCA956"/>
<path d="M12.326 12.0919V12.3754H12.0414V12.6586H11.7568V12.9418H11.4722V12.3754H11.7579V12.0919H12.326Z" fill="#FCA956"/>
<path d="M23.1414 24.5533H22.8568V24.8366H23.1414V24.5533Z" fill="#E09251"/>
<path d="M23.9949 24.27V25.1196H23.1411V24.5532H22.8564V22.2876H22.5718V21.1547H22.2872V20.5883H23.4257V20.8715H23.7103V24.27H23.9949Z" fill="#FED955"/>
<path d="M23.9951 25.1199H23.4259V25.4031H23.9951V25.1199Z" fill="#FCA956"/>
<path d="M13.749 11.5255V12.3755H13.4644V12.6586H13.1798V12.9418H12.8952V13.225H12.6106V13.5082H12.326V12.9418H12.6106V12.6586H12.8952V12.3755H13.1798V12.0919H13.4644V11.5255H13.749Z" fill="#FCA956"/>
<path d="M20.0107 21.1549H18.0184V21.4381H20.0107V21.1549Z" fill="#E2BC52"/>
<path d="M13.7493 14.9243H12.0417V15.2075H13.7493V14.9243Z" fill="#E2BC52"/>
<path d="M12.611 12.3754H12.3264V12.6586H12.611V12.3754Z" fill="#FFF2BB"/>
<path d="M12.8954 12.0922H12.6108V12.3754H12.8954V12.0922Z" fill="#FFF2BB"/>
<path d="M12.3263 12.6586H12.0417V12.9418H12.3263V12.6586Z" fill="#FFF2BB"/>
<path d="M17.7337 18.3228H17.4491V18.6061H17.7337V18.3228Z" fill="#FFF2BB"/>
<path d="M18.303 17.7564H18.0184V18.0397H18.303V17.7564Z" fill="#FFF2BB"/>
<path d="M18.0184 18.0397H17.7338V18.3229H18.0184V18.0397Z" fill="#FFF2BB"/>
<path d="M18.5876 17.4732H18.3029V17.7564H18.5876V17.4732Z" fill="#FFF2BB"/>
<path d="M17.7337 18.8893H17.4491V19.1725H17.7337V18.8893Z" fill="#FFF2BB"/>
<path d="M18.303 18.3228H18.0184V18.6061H18.303V18.3228Z" fill="#FFF2BB"/>
<path d="M18.0184 18.606H17.7338V18.8892H18.0184V18.606Z" fill="#FFF2BB"/>
<path d="M18.5876 18.0397H18.3029V18.3229H18.5876V18.0397Z" fill="#FFF2BB"/>
<path d="M20.0107 18.3228H19.4415V18.8893H20.0107V18.3228Z" fill="#9695F8"/>
<path d="M20.5797 18.8893H20.0106V19.4557H20.5797V18.8893Z" fill="#9695F8"/>
<path d="M21.7183 20.0221H21.1491V20.5885H21.7183V20.0221Z" fill="#9695F8"/>
<path d="M22.2874 20.5885H21.7182V21.155H22.2874V20.5885Z" fill="#9695F8"/>
<path d="M22.5722 21.1549H22.2876V21.7213H22.5722V21.1549Z" fill="#9695F8"/>
<path d="M25.7028 23.9871H25.1335V24.5535H25.7028V23.9871Z" fill="#9695F8"/>
<path d="M26.2719 24.5533H25.7027V25.1198H26.2719V24.5533Z" fill="#9695F8"/>
<path d="M26.8412 25.1199H26.272V25.6863H26.8412V25.1199Z" fill="#9695F8"/>
<path d="M21.149 19.4556H20.5797V20.0221H21.149V19.4556Z" fill="#9695F8"/>
<path d="M19.4414 17.7564H19.1568V18.3229H19.4414V17.7564Z" fill="#9695F8"/>
<path d="M25.1335 23.4206H24.5644V23.987H25.1335V23.4206Z" fill="#9695F8"/>
<path d="M15.7416 16.0572H15.1723V16.3404H15.7416V16.0572Z" fill="#C7BA82"/>
<path d="M17.1645 15.4907H16.5953V16.0572H17.1645V15.4907Z" fill="#9695F8"/>
<path d="M15.457 13.7915H14.8878V14.3579H15.457V13.7915Z" fill="#9695F8"/>
<path d="M14.8878 13.2251H14.3185V13.7915H14.8878V13.2251Z" fill="#9695F8"/>
<path d="M23.1414 21.7214H22.8568V22.0045H23.1414V21.7214Z" fill="#FFF2BB"/>
<path d="M23.7105 21.1549H23.4259V21.4381H23.7105V21.1549Z" fill="#FFF2BB"/>
<path d="M23.4258 21.4381H23.1412V21.7213H23.4258V21.4381Z" fill="#FFF2BB"/>
<path d="M23.7105 21.7214H23.4259V22.0045H23.7105V21.7214Z" fill="#FFF2BB"/>
<path d="M23.4258 22.0046H23.1412V22.2879H23.4258V22.0046Z" fill="#FFF2BB"/>
<path d="M23.1414 22.2878H22.8568V22.5709H23.1414V22.2878Z" fill="#FFF2BB"/>
<path d="M23.4258 24.8366H23.1412V25.1199H23.4258V24.8366Z" fill="#E09251"/>
<path d="M7.61826 15.2265H6.93521V15.9062H7.61826V15.2265Z" fill="#FED955"/>
<path d="M7.61826 18.625H6.93521V19.3047H7.61826V18.625Z" fill="#FED955"/>
<path d="M9.66748 17.2655V16.5858H8.98443V17.2655H9.66748Z" fill="#FED955"/>
<path d="M6.25217 17.2655V16.5858H5.56911V17.2655H6.25217Z" fill="#FED955"/>
<path d="M7.61826 16.5858H6.93521V17.2655H7.61826V16.5858Z" fill="#FED955"/>
<path d="M7.61826 17.2656H6.93521V17.9453H7.61826V17.2656Z" fill="#FED955"/>
<path d="M6.93522 15.9061H6.25217V16.5858H6.93522V15.9061Z" fill="#FED955"/>
<path d="M6.93522 17.9452H6.25217V18.6249H6.93522V17.9452Z" fill="#FED955"/>
<path d="M8.98448 15.9061H8.30142V16.5858H8.98448V15.9061Z" fill="#FED955"/>
<path d="M8.98448 17.9452H8.30142V18.6249H8.98448V17.9452Z" fill="#FED955"/>
<path d="M7.61826 15.9061H6.93521V16.5858H7.61826V15.9061Z" fill="#E09251"/>
<path d="M7.61826 17.9452H6.93521V18.6249H7.61826V17.9452Z" fill="#E09251"/>
<path d="M6.93521 17.2655V16.5858H6.25216V17.2655H6.93521Z" fill="#E09251"/>
<path d="M8.98447 17.2655V16.5858H8.30141V17.2655H8.98447Z" fill="#E09251"/>
<path d="M8.30128 15.2265H7.61823V15.9062H8.30128V15.2265Z" fill="#FED955"/>
<path d="M8.30128 18.625H7.61823V19.3047H8.30128V18.625Z" fill="#FED955"/>
<path d="M9.66748 17.9453V17.2656H8.98443V17.9453H9.66748Z" fill="#FED955"/>
<path d="M6.2522 17.9453V17.2656H5.56914V17.9453H6.2522Z" fill="#FED955"/>
<path d="M8.30128 16.5858H7.61823V17.2655H8.30128V16.5858Z" fill="#FED955"/>
<path d="M8.30128 17.2656H7.61823V17.9453H8.30128V17.2656Z" fill="#FED955"/>
<path d="M8.30128 15.9061H7.61823V16.5858H8.30128V15.9061Z" fill="#E09251"/>
<path d="M8.30128 17.9452H7.61823V18.6249H8.30128V17.9452Z" fill="#E09251"/>
<path d="M6.93521 17.9453V17.2656H6.25216V17.9453H6.93521Z" fill="#E09251"/>
<path d="M8.98447 17.9453V17.2656H8.30141V17.9453H8.98447Z" fill="#E09251"/>
<path d="M14.0788 21.5987H13.3957V22.2784H14.0788V21.5987Z" fill="#FED955"/>
<path d="M14.0788 24.9971H13.3957V25.6768H14.0788V24.9971Z" fill="#FED955"/>
<path d="M16.1281 23.6377V22.9579H15.445V23.6377H16.1281Z" fill="#FED955"/>
<path d="M12.7127 23.6377V22.9579H12.0296V23.6377H12.7127Z" fill="#FED955"/>
<path d="M14.0788 22.9579H13.3957V23.6377H14.0788V22.9579Z" fill="#FED955"/>
<path d="M14.0788 23.6378H13.3957V24.3175H14.0788V23.6378Z" fill="#FED955"/>
<path d="M13.3957 22.2783H12.7127V22.958H13.3957V22.2783Z" fill="#FED955"/>
<path d="M13.3957 24.3174H12.7127V24.9971H13.3957V24.3174Z" fill="#FED955"/>
<path d="M15.445 22.2783H14.762V22.958H15.445V22.2783Z" fill="#FED955"/>
<path d="M15.445 24.3174H14.762V24.9971H15.445V24.3174Z" fill="#FED955"/>
<path d="M14.0788 22.2783H13.3957V22.958H14.0788V22.2783Z" fill="#E09251"/>
<path d="M14.0788 24.3174H13.3957V24.9971H14.0788V24.3174Z" fill="#E09251"/>
<path d="M13.3957 23.6377V22.9579H12.7127V23.6377H13.3957Z" fill="#E09251"/>
<path d="M15.445 23.6377V22.9579H14.762V23.6377H15.445Z" fill="#E09251"/>
<path d="M14.7618 21.5987H14.0787V22.2784H14.7618V21.5987Z" fill="#FED955"/>
<path d="M14.7618 24.9971H14.0787V25.6768H14.7618V24.9971Z" fill="#FED955"/>
<path d="M16.1281 24.3175V23.6378H15.445V24.3175H16.1281Z" fill="#FED955"/>
<path d="M12.7127 24.3175V23.6378H12.0296V24.3175H12.7127Z" fill="#FED955"/>
<path d="M14.7618 22.9579H14.0787V23.6377H14.7618V22.9579Z" fill="#FED955"/>
<path d="M14.7618 23.6378H14.0787V24.3175H14.7618V23.6378Z" fill="#FED955"/>
<path d="M14.7618 22.2783H14.0787V22.958H14.7618V22.2783Z" fill="#E09251"/>
<path d="M14.7618 24.3174H14.0787V24.9971H14.7618V24.3174Z" fill="#E09251"/>
<path d="M13.3957 24.3175V23.6378H12.7127V24.3175H13.3957Z" fill="#E09251"/>
<path d="M15.445 24.3175V23.6378H14.762V24.3175H15.445Z" fill="#E09251"/>
<path d="M18.8034 6.985H18.1204V7.66471H18.8034V6.985Z" fill="#FED955"/>
<path d="M18.8034 10.3835H18.1204V11.0632H18.8034V10.3835Z" fill="#FED955"/>
<path d="M20.8526 9.0241V8.34439H20.1695V9.0241H20.8526Z" fill="#FED955"/>
<path d="M17.4373 9.0241V8.34439H16.7543V9.0241H17.4373Z" fill="#FED955"/>
<path d="M18.8034 8.3444H18.1204V9.02411H18.8034V8.3444Z" fill="#FED955"/>
<path d="M18.8034 9.02404H18.1204V9.70375H18.8034V9.02404Z" fill="#FED955"/>
<path d="M18.1204 7.66466H17.4373V8.34436H18.1204V7.66466Z" fill="#FED955"/>
<path d="M18.1204 9.70378H17.4373V10.3835H18.1204V9.70378Z" fill="#FED955"/>
<path d="M20.1696 7.66466H19.4866V8.34436H20.1696V7.66466Z" fill="#FED955"/>
<path d="M20.1696 9.70378H19.4866V10.3835H20.1696V9.70378Z" fill="#FED955"/>
<path d="M18.8034 7.66466H18.1204V8.34436H18.8034V7.66466Z" fill="#E09251"/>
<path d="M18.8034 9.70378H18.1204V10.3835H18.8034V9.70378Z" fill="#E09251"/>
<path d="M18.1204 9.0241V8.34439H17.4373V9.0241H18.1204Z" fill="#E09251"/>
<path d="M20.1696 9.02411V8.3444H19.4865V9.02411H20.1696Z" fill="#E09251"/>
<path d="M19.4866 6.985H18.8035V7.66471H19.4866V6.985Z" fill="#FED955"/>
<path d="M19.4866 10.3835H18.8035V11.0632H19.4866V10.3835Z" fill="#FED955"/>
<path d="M20.8526 9.70375V9.02404H20.1695V9.70375H20.8526Z" fill="#FED955"/>
<path d="M17.4373 9.70375V9.02404H16.7543V9.70375H17.4373Z" fill="#FED955"/>
<path d="M19.4866 8.3444H18.8035V9.02411H19.4866V8.3444Z" fill="#FED955"/>
<path d="M19.4866 9.02404H18.8035V9.70375H19.4866V9.02404Z" fill="#FED955"/>
<path d="M19.4866 7.66466H18.8035V8.34436H19.4866V7.66466Z" fill="#E09251"/>
<path d="M19.4866 9.70378H18.8035V10.3835H19.4866V9.70378Z" fill="#E09251"/>
<path d="M18.1204 9.70375V9.02404H17.4373V9.70375H18.1204Z" fill="#E09251"/>
<path d="M20.1696 9.70375V9.02404H19.4865V9.70375H20.1696Z" fill="#E09251"/>
</g>
<path d="M10 1H22V-1H10V1ZM31 10V22H33V10H31ZM22 31H10V33H22V31ZM1 22V10H-1V22H1ZM10 31C5.02944 31 1 26.9706 1 22H-1C-1 28.0751 3.92487 33 10 33V31ZM31 22C31 26.9706 26.9706 31 22 31V33C28.0751 33 33 28.0751 33 22H31ZM22 1C26.9706 1 31 5.02944 31 10H33C33 3.92487 28.0751 -1 22 -1V1ZM10 -1C3.92487 -1 -1 3.92487 -1 10H1C1 5.02944 5.02944 1 10 1V-1Z" fill="white" fill-opacity="0.2"/>
<defs>
<radialGradient id="paint0_radial_130_8560" cx="0" cy="0" r="1" gradientUnits="userSpaceOnUse" gradientTransform="translate(16 16) rotate(90) scale(16)">
<stop stop-color="#786EBC"/>
<stop offset="1" stop-color="#180845"/>
</radialGradient>
<clipPath id="clip0_130_8560">
<rect width="22" height="22" fill="white" transform="translate(5 5)"/>
</clipPath>
</defs>
</svg>
