<svg width="32" height="32" viewBox="0 0 32 32" fill="none" xmlns="http://www.w3.org/2000/svg">
<path d="M0 10C0 4.47715 4.47715 0 10 0H22C27.5228 0 32 4.47715 32 10V22C32 27.5228 27.5228 32 22 32H10C4.47715 32 0 27.5228 0 22V10Z" fill="#161523"/>
<path d="M20.1255 7L7.5625 24.9986H11.4196L24.0479 7H20.1255Z" fill="white"/>
<path d="M11.8214 7L15.5179 12.3036L13.5893 15.1964L7.88394 7H11.8214Z" fill="url(#paint0_linear_3_10584)"/>
<path d="M20.5 25L16.4018 19.1339L18.3304 16.3214L24.3572 25H20.5Z" fill="url(#paint1_linear_3_10584)"/>
<path d="M10 1H22V-1H10V1ZM31 10V22H33V10H31ZM22 31H10V33H22V31ZM1 22V10H-1V22H1ZM10 31C5.02944 31 1 26.9706 1 22H-1C-1 28.0751 3.92487 33 10 33V31ZM31 22C31 26.9706 26.9706 31 22 31V33C28.0751 33 33 28.0751 33 22H31ZM22 1C26.9706 1 31 5.02944 31 10H33C33 3.92487 28.0751 -1 22 -1V1ZM10 -1C3.92487 -1 -1 3.92487 -1 10H1C1 5.02944 5.02944 1 10 1V-1Z" fill="white" fill-opacity="0.2"/>
<defs>
<linearGradient id="paint0_linear_3_10584" x1="10.9375" y1="8.125" x2="16.229" y2="14.5131" gradientUnits="userSpaceOnUse">
<stop stop-color="white"/>
<stop offset="1" stop-color="white" stop-opacity="0.55"/>
</linearGradient>
<linearGradient id="paint1_linear_3_10584" x1="21.3839" y1="23.6339" x2="14.8826" y2="14.8694" gradientUnits="userSpaceOnUse">
<stop stop-color="#6966FF"/>
<stop offset="1" stop-color="#6966FF" stop-opacity="0.36"/>
</linearGradient>
</defs>
</svg>
