<svg width="32" height="32" viewBox="0 0 32 32" fill="none" xmlns="http://www.w3.org/2000/svg">
<path d="M0 10C0 4.47715 4.47715 0 10 0H22C27.5228 0 32 4.47715 32 10V22C32 27.5228 27.5228 32 22 32H10C4.47715 32 0 27.5228 0 22V10Z" fill="url(#paint0_radial_112_19643)"/>
<path fill-rule="evenodd" clip-rule="evenodd" d="M8.7931 6.35299L4.64327 15.2792C4.60975 15.3479 4.62316 15.4303 4.67679 15.4783L15.8793 26.4782C15.9464 26.54 16.0469 26.54 16.114 26.4782L27.3232 15.4783C27.3768 15.4234 27.3902 15.3479 27.3567 15.2792L23.2069 6.35299C23.1801 6.29119 23.1197 6.24999 23.0527 6.24999H8.9473C8.88026 6.24999 8.81992 6.29119 8.7931 6.35299Z" fill="white"/>
<path fill-rule="evenodd" clip-rule="evenodd" d="M17.4414 16.1924C17.361 16.1993 16.9453 16.2268 16.0202 16.2268C15.2827 16.2268 14.7598 16.2062 14.5788 16.1924C11.7296 16.062 9.60436 15.5539 9.60436 14.9496C9.60436 14.3385 11.7296 13.8304 14.5788 13.7068V15.6912C14.7665 15.7049 15.2961 15.7393 16.0336 15.7393C16.9185 15.7393 17.361 15.6981 17.4414 15.6912V13.7068C20.284 13.8373 22.4092 14.3454 22.4092 14.9496C22.4092 15.5539 20.284 16.062 17.4414 16.1924ZM17.4414 13.5008V11.7225H21.4103V9.01712H10.61V11.7225H14.5788V13.5008C11.3541 13.6519 8.92725 14.3042 8.92725 15.0938C8.92725 15.8834 11.3541 16.5289 14.5788 16.6868V22.3721H17.4481V16.6799C20.6661 16.5289 23.0863 15.8766 23.0863 15.0938C23.0863 14.3111 20.6661 13.6519 17.4414 13.5008Z" fill="#8C93AF"/>
<path d="M10 1H22V-1H10V1ZM31 10V22H33V10H31ZM22 31H10V33H22V31ZM1 22V10H-1V22H1ZM10 31C5.02944 31 1 26.9706 1 22H-1C-1 28.0751 3.92487 33 10 33V31ZM31 22C31 26.9706 26.9706 31 22 31V33C28.0751 33 33 28.0751 33 22H31ZM22 1C26.9706 1 31 5.02944 31 10H33C33 3.92487 28.0751 -1 22 -1V1ZM10 -1C3.92487 -1 -1 3.92487 -1 10H1C1 5.02944 5.02944 1 10 1V-1Z" fill="white" fill-opacity="0.2"/>
<defs>
<radialGradient id="paint0_radial_112_19643" cx="0" cy="0" r="1" gradientUnits="userSpaceOnUse" gradientTransform="translate(16 16) rotate(90) scale(16)">
<stop stop-color="#EBEFFF"/>
<stop offset="1" stop-color="#858A9E"/>
</radialGradient>
</defs>
</svg>
