<svg width="32" height="32" viewBox="0 0 32 32" fill="none" xmlns="http://www.w3.org/2000/svg">
<path d="M0 10C0 4.47715 4.47715 0 10 0H22C27.5228 0 32 4.47715 32 10V22C32 27.5228 27.5228 32 22 32H10C4.47715 32 0 27.5228 0 22V10Z" fill="url(#paint0_radial_23_1888)"/>
<path fill-rule="evenodd" clip-rule="evenodd" d="M5.82243 13.8165H23.3987C23.619 13.8165 23.8279 13.9038 23.9799 14.0596L26.7604 16.8591C27.2733 17.3758 26.9086 18.257 26.1793 18.257H8.60303C8.38271 18.257 8.17378 18.1697 8.02184 18.0139L5.24124 15.2143C4.72463 14.6977 5.0931 13.8165 5.82243 13.8165ZM5.24124 10.1052L8.02184 7.30561C8.17758 7.14987 8.3865 7.0625 8.60303 7.0625H26.1755C26.9048 7.0625 27.2733 7.94378 26.7566 8.46039L23.9799 11.26C23.8241 11.4157 23.6152 11.5031 23.3987 11.5031H5.82243C5.0931 11.5031 4.72463 10.6218 5.24124 10.1052ZM26.7566 21.9683L23.976 24.7679C23.8203 24.9236 23.6114 25.011 23.3949 25.011H5.82243C5.0931 25.011 4.72463 24.1297 5.24124 23.6131L8.02184 20.8135C8.17758 20.6578 8.3865 20.5704 8.60303 20.5704H26.1755C26.9048 20.5704 27.2733 21.4517 26.7566 21.9683Z" fill="url(#paint1_linear_23_1888)"/>
<path d="M10 1H22V-1H10V1ZM31 10V22H33V10H31ZM22 31H10V33H22V31ZM1 22V10H-1V22H1ZM10 31C5.02944 31 1 26.9706 1 22H-1C-1 28.0751 3.92487 33 10 33V31ZM31 22C31 26.9706 26.9706 31 22 31V33C28.0751 33 33 28.0751 33 22H31ZM22 1C26.9706 1 31 5.02944 31 10H33C33 3.92487 28.0751 -1 22 -1V1ZM10 -1C3.92487 -1 -1 3.92487 -1 10H1C1 5.02944 5.02944 1 10 1V-1Z" fill="white" fill-opacity="0.2"/>
<defs>
<radialGradient id="paint0_radial_23_1888" cx="0" cy="0" r="1" gradientUnits="userSpaceOnUse" gradientTransform="translate(16 16) rotate(90) scale(16)">
<stop stop-color="#676379"/>
<stop offset="1" stop-color="#1F1D2C"/>
</radialGradient>
<linearGradient id="paint1_linear_23_1888" x1="6.25243" y1="25.7833" x2="25.7455" y2="6.29023" gradientUnits="userSpaceOnUse">
<stop stop-color="#CB4EE8"/>
<stop offset="1" stop-color="#10F4B1"/>
</linearGradient>
</defs>
</svg>
