<svg width="32" height="32" viewBox="0 0 32 32" fill="none" xmlns="http://www.w3.org/2000/svg">
<path d="M0 10C0 4.47715 4.47715 0 10 0H22C27.5228 0 32 4.47715 32 10V22C32 27.5228 27.5228 32 22 32H10C4.47715 32 0 27.5228 0 22V10Z" fill="url(#paint0_linear_26_1880)"/>
<path d="M24.5121 13.8443C24.8579 11.5327 23.0977 10.2899 20.6908 9.46093L21.4715 6.32948L19.5652 5.85444L18.8051 8.90339C18.3039 8.77859 17.7892 8.66078 17.2777 8.54404L18.0432 5.47504L16.138 5L15.3566 8.13039C14.9418 8.03591 14.5345 7.94249 14.1393 7.84431L14.1415 7.83455L11.5125 7.17819L11.0054 9.21408C11.0054 9.21408 12.4199 9.53823 12.3899 9.55827C13.1621 9.75094 13.3015 10.2618 13.2782 10.6669L12.3888 14.2342C12.442 14.2478 12.5109 14.2673 12.587 14.2978C12.5235 14.2821 12.4556 14.2647 12.3856 14.2478L11.1389 19.2452C11.0444 19.4798 10.805 19.8316 10.2653 19.6981C10.2843 19.7257 8.87968 19.3522 8.87968 19.3522L7.93332 21.534L10.4141 22.1524C10.8756 22.268 11.3279 22.389 11.7732 22.5031L10.9843 25.6704L12.8885 26.1455L13.6697 23.0119C14.1899 23.153 14.6949 23.2833 15.189 23.406L14.4104 26.525L16.3167 27L17.1055 23.8386C20.3562 24.4538 22.8007 24.2056 23.8296 21.2659C24.6586 18.8988 23.7883 17.5334 22.0779 16.6429C23.3236 16.3558 24.2618 15.5366 24.5121 13.8443ZM20.1565 19.9514C19.5674 22.3185 15.5815 21.0389 14.2892 20.718L15.3361 16.522C16.6283 16.8444 20.7722 17.4829 20.1565 19.9514ZM20.7461 13.8101C20.2086 15.9633 16.8911 14.8693 15.8151 14.6011L16.7641 10.7954C17.8402 11.0636 21.3059 11.5641 20.7461 13.8101Z" fill="white"/>
<path d="M10 1H22V-1H10V1ZM31 10V22H33V10H31ZM22 31H10V33H22V31ZM1 22V10H-1V22H1ZM10 31C5.02944 31 1 26.9706 1 22H-1C-1 28.0751 3.92487 33 10 33V31ZM31 22C31 26.9706 26.9706 31 22 31V33C28.0751 33 33 28.0751 33 22H31ZM22 1C26.9706 1 31 5.02944 31 10H33C33 3.92487 28.0751 -1 22 -1V1ZM10 -1C3.92487 -1 -1 3.92487 -1 10H1C1 5.02944 5.02944 1 10 1V-1Z" fill="white" fill-opacity="0.2"/>
<defs>
<linearGradient id="paint0_linear_26_1880" x1="16" y1="0.000859507" x2="16" y2="0.50086" gradientUnits="userSpaceOnUse">
<stop stop-color="#F9AA4B"/>
<stop offset="1" stop-color="#F7931A"/>
</linearGradient>
</defs>
</svg>
