<svg width="79" height="16" viewBox="0 0 79 16" fill="none" xmlns="http://www.w3.org/2000/svg">
<path d="M77.8128 4.48344L74.8481 2.30113H63.8787L63.165 4.48344H68.9516L65.8443 13.9041H68.238L71.3344 4.48344H77.8128Z" fill="black"/>
<path d="M36.8781 2.30113L33.9023 4.48344H45.1245L45.8492 2.30113H36.8781Z" fill="black"/>
<path d="M33.9022 4.48346L30.7949 13.9041H33.1886L35.8349 5.87711L33.9022 4.48346Z" fill="black"/>
<path d="M45.8489 2.30113L42.6096 12.1215L43.7407 12.0351L39.096 8.56716H35.6479L42.5327 13.9041H44.4103L47.7814 3.69478L45.8489 2.30113Z" fill="black"/>
<path d="M16.729 7.99457L19.5509 6.62255L20.5172 3.69478L18.5847 2.30113H5.67172L2.68506 4.48344H17.8599L17.0584 6.94664H10.9752L10.3823 8.72923H16.4655L14.7635 13.9041L17.6074 12.5105L18.6286 9.40984L16.718 8.027L16.729 7.99457Z" fill="black"/>
<path d="M6.97831 11.6786L8.73515 6.29843L6.78066 4.86156L3.85986 13.9041H14.7634L15.4881 11.6786H6.97831Z" fill="black"/>
<path d="M24.1846 3.50033L22.2521 2.10667L19.1227 11.5814L18.8481 12.4132L20.9015 13.9041H29.5761L30.3116 11.6786H21.4834L24.1846 3.50033Z" fill="black"/>
<path d="M50.4609 7.00068L50.8451 5.86631L48.9235 4.48346L47.8256 7.78934L49.7362 9.16137V9.17219H58.3009L57.4774 11.6786H46.5738L45.8491 13.9041H56.7416L59.5964 12.5105L61.0021 8.25388L59.2341 6.97906L50.4609 7.00068Z" fill="black"/>
<path d="M51.888 2.30113L48.9233 4.48344H61.9791L62.7038 2.30113H51.888Z" fill="black"/>
</svg>
