<svg width="50" height="44" viewBox="0 0 50 44" fill="none" xmlns="http://www.w3.org/2000/svg">
<rect width="50" height="44" rx="12" fill="white" fill-opacity="0.06"/>
<path fill-rule="evenodd" clip-rule="evenodd" d="M19.1775 25.1881C19.0967 25.1083 19.0326 25.0134 18.9888 24.909C18.945 24.8046 18.9225 24.6927 18.9225 24.5797C18.9225 24.4666 18.945 24.3547 18.9888 24.2503C19.0326 24.1459 19.0967 24.0511 19.1775 23.9712L24.3859 18.815C24.4665 18.735 24.5623 18.6715 24.6678 18.6281C24.7732 18.5848 24.8863 18.5625 25.0005 18.5625C25.1146 18.5625 25.2277 18.5848 25.3332 18.6281C25.4386 18.6715 25.5344 18.735 25.615 18.815L30.8234 23.9712C30.9864 24.1326 31.0779 24.3515 31.0779 24.5797C31.0779 24.8079 30.9864 25.0267 30.8234 25.1881C30.6604 25.3495 30.4393 25.4401 30.2088 25.4401C29.9783 25.4401 29.7572 25.3495 29.5942 25.1881L25.0005 20.6386L20.4067 25.1881C20.3261 25.2681 20.2303 25.3316 20.1248 25.375C20.0194 25.4183 19.9063 25.4406 19.7921 25.4406C19.6779 25.4406 19.5649 25.4183 19.4594 25.375C19.354 25.3316 19.2582 25.2681 19.1775 25.1881Z" fill="white"/>
<path fill-rule="evenodd" clip-rule="evenodd" d="M25 18.5625C25.2302 18.5625 25.451 18.653 25.6138 18.8142C25.7766 18.9754 25.868 19.194 25.868 19.4219V30.5938C25.868 30.8217 25.7766 31.0403 25.6138 31.2014C25.451 31.3626 25.2302 31.4531 25 31.4531C24.7698 31.4531 24.549 31.3626 24.3862 31.2014C24.2234 31.0403 24.1319 30.8217 24.1319 30.5938V19.4219C24.1319 19.194 24.2234 18.9754 24.3862 18.8142C24.549 18.653 24.7698 18.5625 25 18.5625ZM14.5833 14.2656C14.5833 14.0377 14.6748 13.8191 14.8376 13.658C15.0004 13.4968 15.2211 13.4062 15.4514 13.4062H34.5486C34.7788 13.4062 34.9996 13.4968 35.1624 13.658C35.3252 13.8191 35.4166 14.0377 35.4166 14.2656C35.4166 14.4935 35.3252 14.7121 35.1624 14.8733C34.9996 15.0345 34.7788 15.125 34.5486 15.125H15.4514C15.2211 15.125 15.0004 15.0345 14.8376 14.8733C14.6748 14.7121 14.5833 14.4935 14.5833 14.2656Z" fill="white"/>
</svg>
