<svg width="16" height="16" viewBox="0 0 16 16" fill="none" xmlns="http://www.w3.org/2000/svg">
<path d="M15.2807 14.2198C15.3504 14.2895 15.4056 14.3722 15.4433 14.4632C15.4811 14.5543 15.5005 14.6519 15.5005 14.7504C15.5005 14.849 15.4811 14.9465 15.4433 15.0376C15.4056 15.1286 15.3504 15.2114 15.2807 15.281C15.211 15.3507 15.1283 15.406 15.0372 15.4437C14.9462 15.4814 14.8486 15.5008 14.7501 15.5008C14.6515 15.5008 14.5539 15.4814 14.4629 15.4437C14.3718 15.406 14.2891 15.3507 14.2194 15.281L8.00005 9.06073L1.78068 15.281C1.63995 15.4218 1.44907 15.5008 1.25005 15.5008C1.05103 15.5008 0.860156 15.4218 0.719426 15.281C0.578695 15.1403 0.499634 14.9494 0.499634 14.7504C0.499634 14.5514 0.578695 14.3605 0.719426 14.2198L6.93974 8.00042L0.719426 1.78104C0.578695 1.64031 0.499634 1.44944 0.499634 1.25042C0.499634 1.05139 0.578695 0.860523 0.719426 0.719792C0.860156 0.579062 1.05103 0.5 1.25005 0.5C1.44907 0.5 1.63995 0.579062 1.78068 0.719792L8.00005 6.9401L14.2194 0.719792C14.3602 0.579062 14.551 0.5 14.7501 0.5C14.9491 0.5 15.1399 0.579062 15.2807 0.719792C15.4214 0.860523 15.5005 1.05139 15.5005 1.25042C15.5005 1.44944 15.4214 1.64031 15.2807 1.78104L9.06036 8.00042L15.2807 14.2198Z" fill="white"/>
</svg>
