<svg xmlns="http://www.w3.org/2000/svg" width="24" height="24" viewBox="0 0 24 24" fill="none">
<path d="M19.2807 18.2198C19.3504 18.2895 19.4056 18.3722 19.4433 18.4632C19.4811 18.5543 19.5005 18.6519 19.5005 18.7504C19.5005 18.849 19.4811 18.9465 19.4433 19.0376C19.4056 19.1286 19.3504 19.2114 19.2807 19.281C19.211 19.3507 19.1283 19.406 19.0372 19.4437C18.9462 19.4814 18.8486 19.5008 18.7501 19.5008C18.6515 19.5008 18.5539 19.4814 18.4629 19.4437C18.3718 19.406 18.2891 19.3507 18.2194 19.281L12.0001 13.0607L5.78068 19.281C5.63995 19.4218 5.44907 19.5008 5.25005 19.5008C5.05103 19.5008 4.86016 19.4218 4.71943 19.281C4.5787 19.1403 4.49963 18.9494 4.49963 18.7504C4.49963 18.5514 4.5787 18.3605 4.71943 18.2198L10.9397 12.0004L4.71943 5.78104C4.5787 5.64031 4.49963 5.44944 4.49963 5.25042C4.49963 5.05139 4.5787 4.86052 4.71943 4.71979C4.86016 4.57906 5.05103 4.5 5.25005 4.5C5.44907 4.5 5.63995 4.57906 5.78068 4.71979L12.0001 10.9401L18.2194 4.71979C18.3602 4.57906 18.551 4.5 18.7501 4.5C18.9491 4.5 19.1399 4.57906 19.2807 4.71979C19.4214 4.86052 19.5005 5.05139 19.5005 5.25042C19.5005 5.44944 19.4214 5.64031 19.2807 5.78104L13.0604 12.0004L19.2807 18.2198Z" fill="white"/>
</svg>