<svg width="24" height="25" viewBox="0 0 24 25" fill="none" xmlns="http://www.w3.org/2000/svg">
<g id="coingecko-1 1">
<g id="Group 632964">
<path id="Vector" d="M22.1671 12.4556C22.1758 14.4161 21.6029 16.3351 20.5209 17.97C19.439 19.6049 17.8965 20.8823 16.0886 21.6406C14.2807 22.3988 12.2885 22.604 10.364 22.2301C8.43952 21.8562 6.66909 20.9201 5.27662 19.54C3.88415 18.16 2.93217 16.398 2.54106 14.4769C2.14995 12.5558 2.33728 10.5619 3.07935 8.74727C3.82142 6.93265 5.08492 5.37882 6.71006 4.28226C8.33521 3.1857 10.249 2.59567 12.2095 2.58677C14.8386 2.57511 17.3647 3.60828 19.2321 5.45902C21.0995 7.30976 22.1552 9.82649 22.1671 12.4556Z" fill="#8DC63F"/>
<path id="Vector_2" d="M21.4197 12.4577C21.4279 14.2705 20.8984 16.0451 19.8981 17.557C18.8978 19.0688 17.4717 20.2502 15.8 20.9515C14.1283 21.6529 12.2862 21.8428 10.5066 21.4972C8.72701 21.1517 7.08985 20.2862 5.80214 19.0101C4.51444 17.7341 3.63404 16.1049 3.27226 14.3285C2.91049 12.5522 3.0836 10.7084 3.76969 9.0304C4.45579 7.3524 5.62406 5.91554 7.12677 4.9015C8.62948 3.88747 10.3991 3.34181 12.212 3.33353C13.4156 3.32803 14.6086 3.55967 15.7228 4.01523C16.837 4.47079 17.8505 5.14134 18.7055 5.9886C19.5605 6.83586 20.2403 7.84323 20.706 8.9532C21.1717 10.0632 21.4142 11.254 21.4197 12.4577Z" fill="#F9E988"/>
<path id="Vector_3" d="M12.4219 3.92781C13.0046 3.82379 13.6011 3.82379 14.1838 3.92781C14.7721 4.02103 15.3408 4.21164 15.8664 4.4918C16.3886 4.77902 16.8409 5.16859 17.29 5.53623C17.7391 5.90387 18.1871 6.27569 18.6133 6.68511C19.0478 7.08765 19.4271 7.54596 19.7413 8.04809C20.0652 8.54682 20.3305 9.08128 20.5319 9.64085C20.9237 10.7585 21.0353 11.9553 20.8567 13.1261H20.7982C20.6262 12.0076 20.3385 10.9099 19.9397 9.85078C19.7486 9.32701 19.5236 8.81625 19.266 8.32173C18.9954 7.82865 18.6976 7.35096 18.3741 6.89086C18.0441 6.42517 17.6397 6.01692 17.1772 5.68245C16.7124 5.35137 16.1777 5.13621 15.6596 4.93255C15.1416 4.72889 14.6235 4.52627 14.0857 4.37065C13.5478 4.21503 12.9974 4.09909 12.424 3.98629L12.4219 3.92781Z" fill="white"/>
<path id="Vector_4" d="M16.9026 9.21996C16.2373 9.02674 15.5448 8.75415 14.8492 8.47842C14.8095 8.30295 14.6539 8.08467 14.3406 7.81834C13.8842 7.4225 13.0277 7.43294 12.2872 7.60945C11.4705 7.41727 10.6631 7.34939 9.88503 7.53529C3.55055 9.2795 7.1434 13.5439 4.81641 17.8261C5.14749 18.5279 8.71632 22.6305 13.88 21.5265C13.88 21.5265 12.1149 17.283 16.0994 15.2463C19.3319 13.5888 21.6683 10.5203 16.9026 9.21996Z" fill="#8BC53F"/>
<path id="Vector_5" d="M17.6847 12.0096C17.6853 12.0857 17.6633 12.1603 17.6215 12.2239C17.5797 12.2875 17.52 12.3373 17.4499 12.3669C17.3798 12.3965 17.3024 12.4046 17.2277 12.3902C17.153 12.3758 17.0842 12.3395 17.0301 12.286C16.976 12.2325 16.939 12.1641 16.9238 12.0896C16.9086 12.015 16.9158 11.9376 16.9447 11.8671C16.9735 11.7967 17.0226 11.7364 17.0857 11.6939C17.1489 11.6514 17.2232 11.6286 17.2993 11.6284C17.3496 11.6281 17.3995 11.6378 17.4462 11.6568C17.4928 11.6758 17.5352 11.7038 17.571 11.7392C17.6067 11.7746 17.6352 11.8167 17.6547 11.8631C17.6742 11.9095 17.6844 11.9593 17.6847 12.0096Z" fill="white"/>
<path id="Vector_6" d="M12.2871 7.60735C12.7487 7.64077 14.4188 8.18596 14.8491 8.4784C14.4929 7.43397 13.2825 7.2982 12.2871 7.60735Z" fill="#009345"/>
<path id="Vector_7" d="M12.7269 10.2414C12.7269 10.5926 12.6227 10.9359 12.4276 11.2278C12.2325 11.5198 11.9552 11.7474 11.6308 11.8818C11.3063 12.0162 10.9493 12.0513 10.6049 11.9828C10.2605 11.9143 9.94414 11.7452 9.69582 11.4969C9.44751 11.2486 9.27841 10.9322 9.2099 10.5878C9.14139 10.2434 9.17655 9.88638 9.31094 9.56195C9.44532 9.23751 9.6729 8.96021 9.96488 8.76511C10.2569 8.57002 10.6001 8.46588 10.9513 8.46588C11.4222 8.46588 11.8738 8.65295 12.2068 8.98592C12.5398 9.3189 12.7269 9.77051 12.7269 10.2414Z" fill="white"/>
<path id="Vector_8" d="M12.2011 10.2571C12.2013 10.5038 12.1284 10.745 11.9915 10.9502C11.8546 11.1554 11.6599 11.3154 11.432 11.41C11.2042 11.5045 10.9534 11.5293 10.7114 11.4813C10.4695 11.4333 10.2472 11.3147 10.0727 11.1403C9.89815 10.9659 9.77927 10.7437 9.73107 10.5018C9.68287 10.2599 9.7075 10.0091 9.80186 9.78115C9.89621 9.55322 10.0561 9.35839 10.2611 9.22132C10.4662 9.08424 10.7074 9.01108 10.9541 9.01108C11.2846 9.01135 11.6014 9.14269 11.8352 9.37627C12.069 9.60985 12.2006 9.92661 12.2011 10.2571Z" fill="#58595B"/>
<path id="Vector_9" d="M19.1207 12.7909C17.6846 13.8029 16.0511 14.5664 13.7346 14.5664C12.6504 14.5664 12.4311 13.4175 11.7146 13.9794C11.3439 14.2708 10.0435 14.9194 9.00433 14.8735C7.96512 14.8275 6.2888 14.2165 5.82403 12.0075C5.63917 14.2165 5.54412 15.8437 4.71484 17.7091C6.36714 20.3546 10.3057 22.3944 13.8797 21.5171C13.4964 18.835 15.8401 16.2072 17.1613 14.863C17.6606 14.3544 18.6235 13.523 19.1207 12.7867V12.7909Z" fill="#8BC53F"/>
<path id="Vector_10" d="M19.0641 12.8577C18.6066 13.2512 18.0961 13.5785 17.5476 13.8301C17.0008 14.0899 16.4308 14.2976 15.8451 14.4505C15.2603 14.6019 14.6482 14.7158 14.0289 14.6594C13.4095 14.603 12.7756 14.392 12.3672 13.9283L12.387 13.9053C12.8925 14.2322 13.4701 14.3471 14.0466 14.3638C14.632 14.3808 15.2174 14.3321 15.7919 14.2186C16.3723 14.0976 16.9401 13.9228 17.488 13.6964C18.0448 13.4838 18.569 13.1941 19.0453 12.8358L19.0641 12.8577Z" fill="#58595B"/>
</g>
</g>
</svg>
