<svg width="124" height="124" viewBox="0 0 124 124" fill="none" xmlns="http://www.w3.org/2000/svg">
<path fill-rule="evenodd" clip-rule="evenodd" d="M11 32.6667C11 27.6111 23.1878 21 38.2222 21C53.2567 21 65.4444 27.6111 65.4444 32.6667V44.3333C65.4444 49.3889 53.2567 56 38.2222 56C23.1878 56 11 49.3889 11 44.3333V32.6667Z" stroke="url(#paint0_linear_980_14202)" stroke-width="2" stroke-linecap="round" stroke-linejoin="round"/>
<path fill-rule="evenodd" clip-rule="evenodd" d="M38.2222 44.2711C53.2567 44.2711 65.4444 38.0256 65.4444 32.6589C65.4444 27.2883 53.2567 21 38.2222 21C23.1878 21 11 27.2883 11 32.6589C11 38.0256 23.1878 44.2711 38.2222 44.2711Z" stroke="url(#paint1_linear_980_14202)" stroke-width="2" stroke-linecap="round" stroke-linejoin="round"/>
<path fill-rule="evenodd" clip-rule="evenodd" d="M72 40.8095C72 37.4254 80.1583 33 90.2222 33C100.286 33 108.444 37.4254 108.444 40.8095V48.619C108.444 52.0032 100.286 56.4286 90.2222 56.4286C80.1583 56.4286 72 52.0032 72 48.619V40.8095Z" stroke="url(#paint2_linear_980_14202)" stroke-width="2" stroke-linecap="round" stroke-linejoin="round"/>
<path fill-rule="evenodd" clip-rule="evenodd" d="M90.2222 48.5774C100.286 48.5774 108.444 44.3967 108.444 40.8043C108.444 37.2093 100.286 33 90.2222 33C80.1583 33 72 37.2093 72 40.8043C72 44.3967 80.1583 48.5774 90.2222 48.5774Z" stroke="url(#paint3_linear_980_14202)" stroke-width="2" stroke-linecap="round" stroke-linejoin="round"/>
<path fill-rule="evenodd" clip-rule="evenodd" d="M20.6665 56.0953C20.6665 48.4191 39.172 38.381 61.9998 38.381C84.8276 38.381 103.333 48.4191 103.333 56.0953V73.8096C103.333 81.4857 84.8276 91.5238 61.9998 91.5238C39.172 91.5238 20.6665 81.4857 20.6665 73.8096V56.0953Z" fill="#23212D" stroke="url(#paint4_linear_980_14202)" stroke-width="2" stroke-linecap="round" stroke-linejoin="round"/>
<path fill-rule="evenodd" clip-rule="evenodd" d="M61.9998 73.7151C84.8276 73.7151 103.333 64.232 103.333 56.0835C103.333 47.929 84.8276 38.381 61.9998 38.381C39.172 38.381 20.6665 47.929 20.6665 56.0835C20.6665 64.232 39.172 73.7151 61.9998 73.7151Z" fill="#2A2835" stroke="url(#paint5_linear_980_14202)" stroke-width="2" stroke-linecap="round" stroke-linejoin="round"/>
<defs>
<linearGradient id="paint0_linear_980_14202" x1="8.71562" y1="21" x2="68.9711" y2="50.5617" gradientUnits="userSpaceOnUse">
<stop stop-color="#69F9F0"/>
<stop offset="1" stop-color="#5143F0"/>
</linearGradient>
<linearGradient id="paint1_linear_980_14202" x1="8.71562" y1="21" x2="57.1199" y2="56.7164" gradientUnits="userSpaceOnUse">
<stop stop-color="#69F9F0"/>
<stop offset="1" stop-color="#5143F0"/>
</linearGradient>
<linearGradient id="paint2_linear_980_14202" x1="70.4709" y1="33" x2="110.805" y2="52.7882" gradientUnits="userSpaceOnUse">
<stop stop-color="#69F9F0"/>
<stop offset="1" stop-color="#5143F0"/>
</linearGradient>
<linearGradient id="paint3_linear_980_14202" x1="70.4709" y1="33" x2="102.872" y2="56.9081" gradientUnits="userSpaceOnUse">
<stop stop-color="#69F9F0"/>
<stop offset="1" stop-color="#5143F0"/>
</linearGradient>
<linearGradient id="paint4_linear_980_14202" x1="17.198" y1="38.381" x2="108.688" y2="83.2664" gradientUnits="userSpaceOnUse">
<stop stop-color="#69F9F0"/>
<stop offset="1" stop-color="#5143F0"/>
</linearGradient>
<linearGradient id="paint5_linear_980_14202" x1="17.198" y1="38.381" x2="90.6935" y2="92.6116" gradientUnits="userSpaceOnUse">
<stop stop-color="#69F9F0"/>
<stop offset="1" stop-color="#5143F0"/>
</linearGradient>
</defs>
</svg>
