<svg width="18" height="19" viewBox="0 0 18 19" fill="none" xmlns="http://www.w3.org/2000/svg">
<path d="M13.4375 5.5625V5.0625H12.9375H7.875C7.85842 5.0625 7.84253 5.05592 7.83081 5.04419C7.81908 5.03247 7.8125 5.01658 7.8125 5C7.8125 4.98342 7.81908 4.96753 7.83081 4.95581C7.84253 4.94408 7.85842 4.9375 7.875 4.9375H13.5C13.5166 4.9375 13.5325 4.94409 13.5442 4.95581C13.5559 4.96753 13.5625 4.98342 13.5625 5V10.625C13.5625 10.6416 13.5559 10.6575 13.5442 10.6692C13.5325 10.6809 13.5166 10.6875 13.5 10.6875C13.4834 10.6875 13.4675 10.6809 13.4558 10.6692C13.4441 10.6575 13.4375 10.6416 13.4375 10.625V5.5625Z" fill="white" stroke="#63CAF8"/>
<path d="M13.5442 4.95488L13.5451 4.95578C13.5509 4.96159 13.5556 4.96848 13.5587 4.97607L14.02 4.78466L13.5587 4.97608C13.5619 4.98367 13.5635 4.99181 13.5635 5.00003C13.5635 5.00825 13.5619 5.01639 13.5587 5.02398L14.0205 5.21562L13.5587 5.02399C13.5556 5.03158 13.5509 5.03847 13.5451 5.04428L13.5447 5.04473L3.41967 15.1697C3.40782 15.1816 3.39174 15.1882 3.37498 15.1882C3.35821 15.1882 3.34213 15.1816 3.33028 15.1697C3.31843 15.1579 3.31177 15.1418 3.31177 15.125C3.31177 15.1083 3.31843 15.0922 3.33028 15.0803L13.4553 4.95533L13.4557 4.95489C13.4615 4.94907 13.4684 4.94445 13.476 4.9413C13.4836 4.93814 13.4918 4.93652 13.5 4.93652C13.5082 4.93652 13.5163 4.93815 13.5239 4.9413L13.7156 4.47948L13.5239 4.9413C13.5315 4.94445 13.5384 4.94907 13.5442 4.95488Z" fill="white" stroke="#63CAF8"/>
</svg>
