<svg width="20" height="21" viewBox="0 0 20 21" fill="none" xmlns="http://www.w3.org/2000/svg">
<path d="M15.625 5.5V13.625C15.625 13.7908 15.5591 13.9497 15.4419 14.0669C15.3247 14.1842 15.1657 14.25 15 14.25C14.8342 14.25 14.6753 14.1842 14.558 14.0669C14.4408 13.9497 14.375 13.7908 14.375 13.625V7.00859L5.44217 15.9422C5.32489 16.0595 5.16583 16.1253 4.99998 16.1253C4.83413 16.1253 4.67507 16.0595 4.55779 15.9422C4.44052 15.8249 4.37463 15.6659 4.37463 15.5C4.37463 15.3341 4.44052 15.1751 4.55779 15.0578L13.4914 6.125H6.87498C6.70922 6.125 6.55025 6.05915 6.43304 5.94194C6.31583 5.82473 6.24998 5.66576 6.24998 5.5C6.24998 5.33424 6.31583 5.17527 6.43304 5.05806C6.55025 4.94085 6.70922 4.875 6.87498 4.875H15C15.1657 4.875 15.3247 4.94085 15.4419 5.05806C15.5591 5.17527 15.625 5.33424 15.625 5.5Z" fill="white"/>
</svg>
