<svg width="16" height="16" viewBox="0 0 16 16" fill="none" xmlns="http://www.w3.org/2000/svg">
<path d="M15.5 6.125C15.5 6.29076 15.4342 6.44973 15.3169 6.56694C15.1997 6.68415 15.0408 6.75 14.875 6.75C14.7092 6.75 14.5503 6.68415 14.4331 6.56694C14.3158 6.44973 14.25 6.29076 14.25 6.125V2.63438L9.06797 7.81719C8.95069 7.93446 8.79163 8.00035 8.62578 8.00035C8.45993 8.00035 8.30087 7.93446 8.18359 7.81719C8.06632 7.69991 8.00043 7.54085 8.00043 7.375C8.00043 7.20915 8.06632 7.05009 8.18359 6.93281L13.3656 1.75H9.875C9.70924 1.75 9.55027 1.68415 9.43306 1.56694C9.31585 1.44973 9.25 1.29076 9.25 1.125C9.25 0.95924 9.31585 0.800269 9.43306 0.683058C9.55027 0.565848 9.70924 0.5 9.875 0.5H14.875C15.0408 0.5 15.1997 0.565848 15.3169 0.683058C15.4342 0.800269 15.5 0.95924 15.5 1.125V6.125ZM12.375 8C12.2092 8 12.0503 8.06585 11.9331 8.18306C11.8158 8.30027 11.75 8.45924 11.75 8.625V14.25H1.75V4.25H7.375C7.54076 4.25 7.69973 4.18415 7.81694 4.06694C7.93415 3.94973 8 3.79076 8 3.625C8 3.45924 7.93415 3.30027 7.81694 3.18306C7.69973 3.06585 7.54076 3 7.375 3H1.75C1.41848 3 1.10054 3.1317 0.866116 3.36612C0.631696 3.60054 0.5 3.91848 0.5 4.25V14.25C0.5 14.5815 0.631696 14.8995 0.866116 15.1339C1.10054 15.3683 1.41848 15.5 1.75 15.5H11.75C12.0815 15.5 12.3995 15.3683 12.6339 15.1339C12.8683 14.8995 13 14.5815 13 14.25V8.625C13 8.45924 12.9342 8.30027 12.8169 8.18306C12.6997 8.06585 12.5408 8 12.375 8Z" fill="white"/>
</svg>
