<svg xmlns="http://www.w3.org/2000/svg" width="24" height="25" viewBox="0 0 24 25" fill="none">
  <g clip-path="url(#clip0_8412_8778)">
    <path d="M8.70869 3.31152H15.3179C15.544 3.31152 15.7354 3.49415 15.7354 3.72895V5.38126C15.7354 5.60736 15.5527 5.79869 15.3179 5.79869H8.70869C8.48258 5.79869 8.29126 5.61606 8.29126 5.38126V3.72895C8.29996 3.49415 8.48258 3.31152 8.70869 3.31152Z" fill="#9CB1F5"/>
    <path d="M19.04 16.5297C19.04 20.5387 15.6919 23.7563 11.6394 23.5476C8.16955 23.365 5.29105 20.5735 5.02146 17.1036C4.98668 16.6427 4.99537 16.1818 5.03886 15.7383C5.4041 15.4252 6.96945 14.2077 9.13485 14.4599C10.6306 14.6338 11.6307 15.4165 12.0307 15.7644C12.2916 15.9905 12.2916 15.9992 12.0394 15.7731C12.4221 16.0601 13.7961 17.0253 15.7615 16.9384C17.4312 16.8688 18.5878 16.0861 19.0052 15.7731C19.0226 16.0253 19.04 16.2775 19.04 16.5297Z" fill="url(#paint0_linear_8412_8778)"/>
    <path d="M18.9966 15.7377C18.5879 15.3812 17.5965 14.6333 16.1442 14.468C13.9093 14.2071 12.3178 15.5203 12.0222 15.7725C11.6308 15.4333 10.6307 14.642 9.12626 14.468C6.96087 14.2158 5.39552 15.4333 5.03027 15.7464C5.30856 13.2592 6.8826 11.1721 9.06539 10.1633C9.35237 10.0242 9.53499 9.73721 9.53499 9.41545V5.78906H14.4919V9.41545C14.4919 9.72852 14.6659 10.0242 14.9615 10.1546C17.1443 11.1634 18.7184 13.2505 18.9966 15.7377Z" fill="#9CB1F5"/>
    <path d="M13.6656 3.31102H10.361L10.0131 0.893432C9.97834 0.641237 10.1697 0.423828 10.4219 0.423828H13.596C13.8482 0.423828 14.0395 0.649934 14.0048 0.893432L13.6656 3.31102Z" fill="#6581D5"/>
    <path d="M19.0053 15.7731C18.5879 16.0949 17.4312 16.8776 15.7615 16.9471C13.7962 17.0341 12.4221 16.0688 12.0395 15.7818C11.7873 15.5905 11.7786 15.5905 12.0308 15.7731C12.3265 15.5209 13.9179 14.2078 16.1529 14.4687C17.6052 14.6339 18.5966 15.3818 19.0053 15.7384V15.7731Z" fill="url(#paint1_linear_8412_8778)"/>
  </g>
  <defs>
    <linearGradient id="paint0_linear_8412_8778" x1="4.99517" y1="18.9937" x2="19.04" y2="18.9937" gradientUnits="userSpaceOnUse">
      <stop stop-color="#7B95DF"/>
      <stop offset="0.1278" stop-color="#677BBF"/>
      <stop offset="0.7102" stop-color="#515EAB"/>
      <stop offset="1" stop-color="#373E7C"/>
    </linearGradient>
    <linearGradient id="paint1_linear_8412_8778" x1="13.5614" y1="17.5184" x2="18.9967" y2="15.3443" gradientUnits="userSpaceOnUse">
      <stop stop-color="#667ABE"/>
      <stop offset="0.1278" stop-color="#677BBF"/>
      <stop offset="0.7102" stop-color="#444F8F"/>
      <stop offset="1" stop-color="#373E7C"/>
    </linearGradient>
    <clipPath id="clip0_8412_8778">
      <rect width="24" height="24" fill="white" transform="translate(0 0.5)"/>
    </clipPath>
  </defs>
</svg>