<svg width="24" height="24" viewBox="0 0 24 24" fill="none" xmlns="http://www.w3.org/2000/svg">
<path d="M22.5 5.25013V9.75013C22.5 9.94905 22.421 10.1398 22.2803 10.2805C22.1397 10.4211 21.9489 10.5001 21.75 10.5001H17.25C17.0511 10.5001 16.8603 10.4211 16.7197 10.2805C16.579 10.1398 16.5 9.94905 16.5 9.75013C16.5 9.55122 16.579 9.36046 16.7197 9.2198C16.8603 9.07915 17.0511 9.00013 17.25 9.00013H19.8188L17.3259 6.71638L17.3025 6.69388C16.2601 5.65184 14.9337 4.94006 13.4891 4.64746C12.0445 4.35485 10.5457 4.4944 9.17991 5.04866C7.81414 5.60293 6.64197 6.54734 5.80982 7.76391C4.97768 8.98048 4.52245 10.4153 4.501 11.8891C4.47956 13.3629 4.89286 14.8103 5.68926 16.0506C6.48566 17.2908 7.62986 18.269 8.97892 18.8627C10.328 19.4565 11.8221 19.6396 13.2746 19.3891C14.7271 19.1387 16.0736 18.4658 17.1459 17.4545C17.2905 17.3178 17.4835 17.244 17.6825 17.2496C17.8814 17.2551 18.07 17.3395 18.2067 17.484C18.3435 17.6286 18.4172 17.8216 18.4117 18.0205C18.4061 18.2195 18.3218 18.4081 18.1772 18.5448C16.5098 20.1261 14.298 21.0053 12 21.0001H11.8763C10.4023 20.9799 8.95579 20.598 7.66398 19.8879C6.37216 19.1777 5.27455 18.1612 4.46762 16.9275C3.6607 15.6938 3.16915 14.2808 3.0362 12.8127C2.90324 11.3446 3.13294 9.86628 3.70511 8.50772C4.27728 7.14916 5.1744 5.95194 6.31762 5.02128C7.46085 4.09063 8.81517 3.45504 10.2616 3.17038C11.7079 2.88571 13.2021 2.96069 14.6127 3.38871C16.0234 3.81674 17.3073 4.58471 18.3516 5.62513L21 8.04388V5.25013C21 5.05122 21.079 4.86046 21.2197 4.7198C21.3603 4.57915 21.5511 4.50013 21.75 4.50013C21.9489 4.50013 22.1397 4.57915 22.2803 4.7198C22.421 4.86046 22.5 5.05122 22.5 5.25013Z" fill="#7088CC"/>
</svg>
