<svg width="20" height="20" viewBox="0 0 20 20" fill="none" xmlns="http://www.w3.org/2000/svg">
<path d="M15.2192 14.1492C14.4661 15.0966 13.4693 15.821 12.3357 16.2449C11.2021 16.6688 9.97454 16.7761 8.7846 16.5554C7.59467 16.3346 6.48727 15.7941 5.58118 14.9918C4.67509 14.1895 4.00448 13.1557 3.64128 12.0013C3.27808 10.8468 3.23599 9.61527 3.51952 8.43872C3.80305 7.26216 4.4015 6.18498 5.2507 5.32269C6.0999 4.46041 7.16781 3.84555 8.33989 3.54406C11.5891 2.71073 14.9524 4.38323 16.1941 7.4999" stroke="url(#paint0_linear_2095_77815)" stroke-width="1.8" stroke-linecap="round" stroke-linejoin="round"/>
<path d="M16.6667 3.33301V7.49967H12.5" stroke="url(#paint1_linear_2095_77815)" stroke-width="1.8" stroke-linecap="round" stroke-linejoin="round"/>
<defs>
<linearGradient id="paint0_linear_2095_77815" x1="0.416504" y1="9.99996" x2="20.4165" y2="9.99996" gradientUnits="userSpaceOnUse">
<stop stop-color="#5689FC"/>
<stop offset="1" stop-color="#72BBF6"/>
</linearGradient>
<linearGradient id="paint1_linear_2095_77815" x1="14.5833" y1="3.33301" x2="14.5833" y2="7.49967" gradientUnits="userSpaceOnUse">
<stop stop-color="#5689FC"/>
<stop offset="1" stop-color="#72BBF6"/>
</linearGradient>
</defs>
</svg>
