<svg width="32" height="32" viewBox="0 0 32 32" fill="none" xmlns="http://www.w3.org/2000/svg">
<rect x="8" y="13.3333" width="2.66667" height="2.66666" transform="rotate(-180 8 13.3333)" fill="#FED955"/>
<rect x="8" y="18.6667" width="2.66667" height="2.66667" transform="rotate(-180 8 18.6667)" fill="#FED955"/>
<rect x="8" y="16" width="2.66667" height="2.66667" transform="rotate(-180 8 16)" fill="#FED955"/>
<rect x="8" y="21.3333" width="2.66667" height="2.66667" transform="rotate(-180 8 21.3333)" fill="#FED955"/>
<rect x="18.6665" y="8" width="2.66667" height="2.66667" transform="rotate(-180 18.6665 8)" fill="#FED955"/>
<rect width="2.66667" height="2.66667" transform="matrix(-1 8.74226e-08 8.7423e-08 1 18.6665 24)" fill="#FED955"/>
<rect x="21.3335" y="8" width="2.66667" height="2.66667" transform="rotate(-180 21.3335 8)" fill="#FED955"/>
<rect x="24" y="8" width="2.66667" height="2.66667" transform="rotate(-180 24 8)" fill="#9695F8"/>
<rect width="2.66667" height="2.66667" transform="matrix(1 -8.74225e-08 -8.7423e-08 -1 8 8)" fill="#9695F8"/>
<rect width="2.66667" height="2.66667" transform="matrix(1 -8.74226e-08 -8.7423e-08 -1 24 24)" fill="#9695F8"/>
<rect x="8" y="24" width="2.66667" height="2.66667" transform="rotate(-180 8 24)" fill="#9695F8"/>
<rect x="21.3335" y="5.33334" width="2.66667" height="2.66667" transform="rotate(-180 21.3335 5.33334)" fill="#9695F8"/>
<rect x="21.3335" y="2.66666" width="2.66667" height="2.66667" transform="rotate(-180 21.3335 2.66666)" fill="#5552FD"/>
<rect x="21.3335" y="32" width="2.66667" height="2.66667" transform="rotate(-180 21.3335 32)" fill="#5552FD"/>
<rect x="21.3335" y="29.3333" width="2.66667" height="2.66667" transform="rotate(-180 21.3335 29.3333)" fill="#9695F8"/>
<rect x="16" y="5.33334" width="2.66667" height="2.66667" transform="rotate(-180 16 5.33334)" fill="#9695F8"/>
<rect x="16" y="2.66666" width="2.66667" height="2.66667" transform="rotate(-180 16 2.66666)" fill="#5552FD"/>
<rect x="16" y="32" width="2.66667" height="2.66667" transform="rotate(-180 16 32)" fill="#5552FD"/>
<rect x="16" y="29.3333" width="2.66667" height="2.66667" transform="rotate(-180 16 29.3333)" fill="#9695F8"/>
<rect x="18.6665" y="5.33334" width="2.66667" height="2.66667" transform="rotate(-180 18.6665 5.33334)" fill="#9695F8"/>
<rect x="18.6665" y="2.66666" width="2.66667" height="2.66667" transform="rotate(-180 18.6665 2.66666)" fill="#5552FD"/>
<rect x="18.6665" y="32" width="2.66667" height="2.66667" transform="rotate(-180 18.6665 32)" fill="#5552FD"/>
<rect x="18.6665" y="29.3333" width="2.66667" height="2.66667" transform="rotate(-180 18.6665 29.3333)" fill="#9695F8"/>
<rect x="13.3335" y="5.33334" width="2.66666" height="2.66667" transform="rotate(-180 13.3335 5.33334)" fill="#9695F8"/>
<rect x="13.3335" y="2.66666" width="2.66666" height="2.66667" transform="rotate(-180 13.3335 2.66666)" fill="#5552FD"/>
<rect x="13.3335" y="32" width="2.66666" height="2.66667" transform="rotate(-180 13.3335 32)" fill="#5552FD"/>
<rect x="13.3335" y="29.3333" width="2.66666" height="2.66667" transform="rotate(-180 13.3335 29.3333)" fill="#9695F8"/>
<rect x="26.6665" y="10.6667" width="2.66667" height="2.66667" transform="rotate(-180 26.6665 10.6667)" fill="#9695F8"/>
<rect width="2.66667" height="2.66667" transform="matrix(1 -8.74226e-08 -8.74229e-08 -1 5.3335 10.6667)" fill="#9695F8"/>
<rect width="2.66667" height="2.66667" transform="matrix(1 -8.74226e-08 -8.7423e-08 -1 21.3335 26.6667)" fill="#9695F8"/>
<rect x="10.6665" y="26.6667" width="2.66667" height="2.66667" transform="rotate(-180 10.6665 26.6667)" fill="#9695F8"/>
<rect x="29.3335" y="13.3333" width="2.66667" height="2.66666" transform="rotate(-180 29.3335 13.3333)" fill="#9695F8"/>
<rect x="5.3335" y="13.3333" width="2.66667" height="2.66666" transform="rotate(-180 5.3335 13.3333)" fill="#9695F8"/>
<rect x="2.6665" y="13.3333" width="2.66667" height="2.66666" transform="rotate(-180 2.6665 13.3333)" fill="#5552FD"/>
<rect x="5.3335" y="10.6667" width="2.66667" height="2.66667" transform="rotate(-180 5.3335 10.6667)" fill="#5552FD"/>
<rect width="2.66667" height="2.66667" transform="matrix(1 -8.74226e-08 -8.7423e-08 -1 26.6665 10.6667)" fill="#5552FD"/>
<rect x="24" y="29.3333" width="2.66667" height="2.66667" transform="rotate(-180 24 29.3333)" fill="#5552FD"/>
<rect x="2.6665" y="24" width="2.66667" height="2.66667" transform="rotate(-90 2.6665 24)" fill="#5552FD"/>
<rect x="8" y="8" width="2.66667" height="2.66667" transform="rotate(-180 8 8)" fill="#5552FD"/>
<rect width="2.66667" height="2.66667" transform="matrix(1 -8.74226e-08 -8.7423e-08 -1 24 8)" fill="#5552FD"/>
<rect x="26.6665" y="26.6667" width="2.66667" height="2.66667" transform="rotate(-180 26.6665 26.6667)" fill="#5552FD"/>
<rect x="5.3335" y="26.6667" width="2.66666" height="2.66667" transform="rotate(-90 5.3335 26.6667)" fill="#5552FD"/>
<rect x="10.6665" y="5.33334" width="2.66667" height="2.66667" transform="rotate(-180 10.6665 5.33334)" fill="#5552FD"/>
<rect width="2.66667" height="2.66667" transform="matrix(1 -8.74226e-08 -8.74229e-08 -1 21.3335 5.33334)" fill="#5552FD"/>
<rect x="29.3335" y="24" width="2.66667" height="2.66667" transform="rotate(-180 29.3335 24)" fill="#5552FD"/>
<rect x="8" y="29.3333" width="2.66667" height="2.66667" transform="rotate(-90 8 29.3333)" fill="#5552FD"/>
<rect x="32" y="13.3333" width="2.66667" height="2.66666" transform="rotate(-180 32 13.3333)" fill="#5552FD"/>
<rect x="29.3335" y="16" width="2.66667" height="2.66667" transform="rotate(-180 29.3335 16)" fill="#9695F8"/>
<rect x="5.3335" y="16" width="2.66667" height="2.66667" transform="rotate(-180 5.3335 16)" fill="#9695F8"/>
<rect x="2.6665" y="16" width="2.66667" height="2.66667" transform="rotate(-180 2.6665 16)" fill="#5552FD"/>
<rect x="32" y="16" width="2.66667" height="2.66667" transform="rotate(-180 32 16)" fill="#5552FD"/>
<rect x="29.3335" y="18.6667" width="2.66667" height="2.66667" transform="rotate(-180 29.3335 18.6667)" fill="#9695F8"/>
<rect x="5.3335" y="18.6667" width="2.66667" height="2.66667" transform="rotate(-180 5.3335 18.6667)" fill="#9695F8"/>
<rect x="2.6665" y="18.6667" width="2.66667" height="2.66667" transform="rotate(-180 2.6665 18.6667)" fill="#5552FD"/>
<rect x="32" y="18.6667" width="2.66667" height="2.66667" transform="rotate(-180 32 18.6667)" fill="#5552FD"/>
<rect x="29.3335" y="21.3333" width="2.66667" height="2.66667" transform="rotate(-180 29.3335 21.3333)" fill="#9695F8"/>
<rect x="5.3335" y="21.3333" width="2.66667" height="2.66667" transform="rotate(-180 5.3335 21.3333)" fill="#9695F8"/>
<rect x="2.6665" y="21.3333" width="2.66667" height="2.66667" transform="rotate(-180 2.6665 21.3333)" fill="#5552FD"/>
<rect x="32" y="21.3333" width="2.66667" height="2.66667" transform="rotate(-180 32 21.3333)" fill="#5552FD"/>
<rect width="2.66667" height="2.66667" transform="matrix(-1 8.74225e-08 8.7423e-08 1 21.3335 24)" fill="#FED955"/>
<rect x="18.6665" y="13.3333" width="2.66667" height="2.66666" transform="rotate(-180 18.6665 13.3333)" fill="#FED955"/>
<rect x="18.6665" y="18.6667" width="2.66667" height="2.66667" transform="rotate(-180 18.6665 18.6667)" fill="#FED955"/>
<rect x="18.6665" y="21.3333" width="2.66667" height="2.66667" transform="rotate(-180 18.6665 21.3333)" fill="#FED955"/>
<rect x="18.6665" y="10.6667" width="2.66667" height="2.66667" transform="rotate(-180 18.6665 10.6667)" fill="#FED955"/>
<rect width="2.66667" height="2.66667" transform="matrix(-1 8.74226e-08 8.74229e-08 1 18.6665 21.3333)" fill="#FED955"/>
<rect x="13.3335" y="18.6667" width="2.66666" height="2.66667" transform="rotate(-180 13.3335 18.6667)" fill="#FED955"/>
<rect x="13.3335" y="16" width="2.66666" height="2.66667" transform="rotate(-180 13.3335 16)" fill="#FED955"/>
<rect x="13.3335" y="21.3333" width="2.66666" height="2.66667" transform="rotate(-180 13.3335 21.3333)" fill="#FED955"/>
<rect x="13.3335" y="10.6667" width="2.66666" height="2.66667" transform="rotate(-180 13.3335 10.6667)" fill="#FED955"/>
<rect width="2.66666" height="2.66667" transform="matrix(-1 8.74227e-08 8.74229e-08 1 13.3335 21.3333)" fill="#FED955"/>
<rect x="21.3335" y="18.6667" width="2.66667" height="2.66667" transform="rotate(-180 21.3335 18.6667)" fill="#FED955"/>
<rect x="21.3335" y="16" width="2.66667" height="2.66667" transform="rotate(-180 21.3335 16)" fill="#FED955"/>
<rect x="21.3335" y="21.3333" width="2.66667" height="2.66667" transform="rotate(-180 21.3335 21.3333)" fill="#FED955"/>
<rect x="21.3335" y="10.6667" width="2.66667" height="2.66667" transform="rotate(-180 21.3335 10.6667)" fill="#FED955"/>
<rect width="2.66667" height="2.66667" transform="matrix(-1 8.74226e-08 8.7423e-08 1 21.3335 21.3333)" fill="#FED955"/>
<rect x="16" y="8" width="2.66667" height="2.66667" transform="rotate(-180 16 8)" fill="#FED955"/>
<rect width="2.66667" height="2.66667" transform="matrix(-1 8.74225e-08 8.7423e-08 1 16 24)" fill="#FED955"/>
<rect x="13.3335" y="8" width="2.66666" height="2.66667" transform="rotate(-180 13.3335 8)" fill="#FED955"/>
<rect width="2.66666" height="2.66667" transform="matrix(-1 8.74226e-08 8.74229e-08 1 13.3335 24)" fill="#FED955"/>
<rect x="16" y="13.3333" width="2.66667" height="2.66666" transform="rotate(-180 16 13.3333)" fill="#FED955"/>
<rect x="16" y="18.6667" width="2.66667" height="2.66667" transform="rotate(-180 16 18.6667)" fill="#FED955"/>
<rect x="13.3335" y="13.3333" width="2.66666" height="2.66666" transform="rotate(-180 13.3335 13.3333)" fill="#5552FD"/>
<rect x="18.6665" y="16" width="2.66667" height="2.66667" transform="rotate(-180 18.6665 16)" fill="#5552FD"/>
<rect x="24" y="13.3333" width="2.66667" height="2.66666" transform="rotate(-180 24 13.3333)" fill="#5552FD"/>
<rect x="24" y="18.6667" width="2.66667" height="2.66667" transform="rotate(-180 24 18.6667)" fill="#5552FD"/>
<rect x="24" y="16" width="2.66667" height="2.66667" transform="rotate(-180 24 16)" fill="#5552FD"/>
<rect x="24" y="21.3333" width="2.66667" height="2.66667" transform="rotate(-180 24 21.3333)" fill="#5552FD"/>
<rect x="24" y="10.6667" width="2.66667" height="2.66667" transform="rotate(-180 24 10.6667)" fill="#5552FD"/>
<rect width="2.66667" height="2.66667" transform="matrix(-1 8.74226e-08 8.74229e-08 1 24 21.3333)" fill="#5552FD"/>
<rect x="10.6665" y="13.3333" width="2.66667" height="2.66666" transform="rotate(-180 10.6665 13.3333)" fill="#5552FD"/>
<rect x="10.6665" y="18.6667" width="2.66667" height="2.66667" transform="rotate(-180 10.6665 18.6667)" fill="#5552FD"/>
<rect x="10.6665" y="16" width="2.66667" height="2.66667" transform="rotate(-180 10.6665 16)" fill="#5552FD"/>
<rect x="10.6665" y="21.3333" width="2.66667" height="2.66667" transform="rotate(-180 10.6665 21.3333)" fill="#5552FD"/>
<rect x="10.6665" y="10.6667" width="2.66667" height="2.66667" transform="rotate(-180 10.6665 10.6667)" fill="#5552FD"/>
<rect width="2.66667" height="2.66667" transform="matrix(-1 8.74226e-08 8.7423e-08 1 10.6665 21.3333)" fill="#5552FD"/>
<rect x="21.3335" y="13.3333" width="2.66667" height="2.66666" transform="rotate(-180 21.3335 13.3333)" fill="#5552FD"/>
<rect x="16" y="16" width="2.66667" height="2.66667" transform="rotate(-180 16 16)" fill="#5552FD"/>
<rect x="16" y="21.3333" width="2.66667" height="2.66667" transform="rotate(-180 16 21.3333)" fill="#FED955"/>
<rect x="16" y="10.6667" width="2.66667" height="2.66667" transform="rotate(-180 16 10.6667)" fill="#FED955"/>
<rect width="2.66667" height="2.66667" transform="matrix(-1 8.74226e-08 8.7423e-08 1 16 21.3333)" fill="#FED955"/>
<rect x="26.6665" y="13.3333" width="2.66667" height="2.66666" transform="rotate(-180 26.6665 13.3333)" fill="#FED955"/>
<rect x="26.6665" y="18.6667" width="2.66667" height="2.66667" transform="rotate(-180 26.6665 18.6667)" fill="#FED955"/>
<rect x="26.6665" y="16" width="2.66667" height="2.66667" transform="rotate(-180 26.6665 16)" fill="#FED955"/>
<rect x="26.6665" y="21.3333" width="2.66667" height="2.66667" transform="rotate(-180 26.6665 21.3333)" fill="#FED955"/>
</svg>
