<svg width="32" height="32" viewBox="0 0 32 32" fill="none" xmlns="http://www.w3.org/2000/svg">
<path d="M14.5886 25.6121V6.64777H16.6537V25.6121H14.5886Z" fill="#006AE3"/>
<path d="M25.1011 12.9662L18.7234 14.6575L17.3011 8.03823L19.1975 7.60971L19.9452 10.7461C19.9452 10.7461 21.6684 7.91971 19.3708 4.993C18.0168 3.48862 17.374 3.4248 15.856 3.18775C14.5203 2.99628 11.4158 3.44759 10.4903 7.07178C10.0983 9.40585 10.5405 11.1336 13.5493 13.3947L13.3806 15.9112C13.3806 15.9112 10.0208 13.5452 9.15464 11.8858C8.4845 10.5729 7.3357 7.97897 9.40993 4.36846C10.5268 2.5632 12.7287 0.830882 16.6082 1.01323C18.5593 1.09529 23.3232 3.4795 22.5847 9.05027C22.457 10.0942 21.9145 11.4846 21.9145 11.4846L24.5312 10.9011L25.1011 12.9662Z" fill="#006AE3"/>
<path d="M21.4587 27.8048C20.2916 29.5782 18.0442 31.2512 14.1738 30.9686C12.2227 30.8364 7.52717 28.3245 8.41157 22.7766C8.56656 21.7372 9.14552 20.365 9.14552 20.365L6.51514 20.8756L6 18.8014L12.4232 17.2787L13.6723 23.9345L11.7622 24.3129L11.0967 21.1537C11.0967 21.1537 9.30052 23.9299 11.5161 26.9205C12.829 28.4613 13.4672 28.5388 14.9853 28.8169C16.3118 29.0448 19.43 28.671 20.4512 25.0742C20.9025 22.7538 20.5059 21.0123 17.5609 18.6691L17.798 16.1573C17.798 16.1573 21.094 18.6099 21.9145 20.2921C22.5436 21.6278 23.624 24.2536 21.4587 27.8048Z" fill="#006AE3"/>
</svg>
