<svg width="32" height="24" viewBox="0 0 32 24" fill="none" xmlns="http://www.w3.org/2000/svg">
<g opacity="0.45">
<g opacity="0.45">
<path opacity="0.45" d="M19.5 16.1398L24.1051 18.8596V8.5L19.5 16.1398Z" fill="#010101"/>
</g>
</g>
<g opacity="0.8">
<g opacity="0.8">
<path opacity="0.8" d="M24.105 8.5V18.8611L28.7087 16.1412L24.105 8.5Z" fill="#010101"/>
</g>
</g>
<g opacity="0.45">
<g opacity="0.45">
<path opacity="0.45" d="M19.5 17.0125L24.1051 23.5V19.7338L19.5 17.0125Z" fill="#010101"/>
</g>
</g>
<g opacity="0.8">
<g opacity="0.8">
<path opacity="0.8" d="M24.105 19.7338V23.5L28.7115 17.0125L24.105 19.7338Z" fill="#010101"/>
</g>
</g>
<rect x="4" y="6.66666" width="1.33333" height="1.33333" transform="rotate(-180 4 6.66666)" fill="#FED955"/>
<rect x="4" y="9.33334" width="1.33333" height="1.33333" transform="rotate(-180 4 9.33334)" fill="#FED955"/>
<rect x="4" y="8" width="1.33333" height="1.33333" transform="rotate(-180 4 8)" fill="#FED955"/>
<rect x="4" y="10.6667" width="1.33333" height="1.33333" transform="rotate(-180 4 10.6667)" fill="#FED955"/>
<rect x="9.33331" y="4" width="1.33333" height="1.33333" transform="rotate(-180 9.33331 4)" fill="#FED955"/>
<rect width="1.33333" height="1.33333" transform="matrix(-1 8.74226e-08 8.7423e-08 1 9.33331 12)" fill="#FED955"/>
<rect x="10.6667" y="4" width="1.33333" height="1.33333" transform="rotate(-180 10.6667 4)" fill="#FED955"/>
<rect x="12" y="4" width="1.33333" height="1.33333" transform="rotate(-180 12 4)" fill="#9695F8"/>
<rect width="1.33333" height="1.33333" transform="matrix(1 -8.74225e-08 -8.7423e-08 -1 4 4)" fill="#9695F8"/>
<rect width="1.33333" height="1.33333" transform="matrix(1 -8.74226e-08 -8.7423e-08 -1 12 12)" fill="#9695F8"/>
<rect x="4" y="12" width="1.33333" height="1.33333" transform="rotate(-180 4 12)" fill="#9695F8"/>
<rect x="10.6667" y="2.66666" width="1.33333" height="1.33333" transform="rotate(-180 10.6667 2.66666)" fill="#9695F8"/>
<rect x="10.6667" y="1.33334" width="1.33333" height="1.33333" transform="rotate(-180 10.6667 1.33334)" fill="#5552FD"/>
<rect x="10.6667" y="16" width="1.33333" height="1.33333" transform="rotate(-180 10.6667 16)" fill="#5552FD"/>
<rect x="10.6667" y="14.6667" width="1.33333" height="1.33333" transform="rotate(-180 10.6667 14.6667)" fill="#9695F8"/>
<rect x="8" y="2.66666" width="1.33333" height="1.33333" transform="rotate(-180 8 2.66666)" fill="#9695F8"/>
<rect x="8" y="1.33334" width="1.33333" height="1.33333" transform="rotate(-180 8 1.33334)" fill="#5552FD"/>
<rect x="8" y="16" width="1.33333" height="1.33333" transform="rotate(-180 8 16)" fill="#5552FD"/>
<rect x="8" y="14.6667" width="1.33333" height="1.33333" transform="rotate(-180 8 14.6667)" fill="#9695F8"/>
<rect x="9.33331" y="2.66666" width="1.33333" height="1.33333" transform="rotate(-180 9.33331 2.66666)" fill="#9695F8"/>
<rect x="9.33331" y="1.33334" width="1.33333" height="1.33333" transform="rotate(-180 9.33331 1.33334)" fill="#5552FD"/>
<rect x="9.33331" y="16" width="1.33333" height="1.33333" transform="rotate(-180 9.33331 16)" fill="#5552FD"/>
<rect x="9.33331" y="14.6667" width="1.33333" height="1.33333" transform="rotate(-180 9.33331 14.6667)" fill="#9695F8"/>
<rect x="6.66669" y="2.66666" width="1.33333" height="1.33333" transform="rotate(-180 6.66669 2.66666)" fill="#9695F8"/>
<rect x="6.66669" y="1.33334" width="1.33333" height="1.33333" transform="rotate(-180 6.66669 1.33334)" fill="#5552FD"/>
<rect x="6.66669" y="16" width="1.33333" height="1.33333" transform="rotate(-180 6.66669 16)" fill="#5552FD"/>
<rect x="6.66669" y="14.6667" width="1.33333" height="1.33333" transform="rotate(-180 6.66669 14.6667)" fill="#9695F8"/>
<rect x="13.3333" y="5.33334" width="1.33333" height="1.33333" transform="rotate(-180 13.3333 5.33334)" fill="#9695F8"/>
<rect width="1.33333" height="1.33333" transform="matrix(1 -8.74226e-08 -8.74229e-08 -1 2.66669 5.33334)" fill="#9695F8"/>
<rect width="1.33333" height="1.33333" transform="matrix(1 -8.74226e-08 -8.7423e-08 -1 10.6667 13.3333)" fill="#9695F8"/>
<rect x="5.33331" y="13.3333" width="1.33333" height="1.33333" transform="rotate(-180 5.33331 13.3333)" fill="#9695F8"/>
<rect x="14.6667" y="6.66666" width="1.33333" height="1.33333" transform="rotate(-180 14.6667 6.66666)" fill="#9695F8"/>
<rect x="2.66669" y="6.66666" width="1.33333" height="1.33333" transform="rotate(-180 2.66669 6.66666)" fill="#9695F8"/>
<rect x="1.33331" y="6.66666" width="1.33333" height="1.33333" transform="rotate(-180 1.33331 6.66666)" fill="#5552FD"/>
<rect x="2.66669" y="5.33334" width="1.33333" height="1.33333" transform="rotate(-180 2.66669 5.33334)" fill="#5552FD"/>
<rect width="1.33333" height="1.33333" transform="matrix(1 -8.74226e-08 -8.7423e-08 -1 13.3333 5.33334)" fill="#5552FD"/>
<rect x="12" y="14.6667" width="1.33333" height="1.33333" transform="rotate(-180 12 14.6667)" fill="#5552FD"/>
<rect x="1.33331" y="12" width="1.33333" height="1.33333" transform="rotate(-90 1.33331 12)" fill="#5552FD"/>
<rect x="4" y="4" width="1.33333" height="1.33333" transform="rotate(-180 4 4)" fill="#5552FD"/>
<rect width="1.33333" height="1.33333" transform="matrix(1 -8.74226e-08 -8.7423e-08 -1 12 4)" fill="#5552FD"/>
<rect x="13.3333" y="13.3333" width="1.33333" height="1.33333" transform="rotate(-180 13.3333 13.3333)" fill="#5552FD"/>
<rect x="2.66669" y="13.3333" width="1.33333" height="1.33333" transform="rotate(-90 2.66669 13.3333)" fill="#5552FD"/>
<rect x="5.33331" y="2.66666" width="1.33333" height="1.33333" transform="rotate(-180 5.33331 2.66666)" fill="#5552FD"/>
<rect width="1.33333" height="1.33333" transform="matrix(1 -8.74226e-08 -8.74229e-08 -1 10.6667 2.66666)" fill="#5552FD"/>
<rect x="14.6667" y="12" width="1.33333" height="1.33333" transform="rotate(-180 14.6667 12)" fill="#5552FD"/>
<rect x="4" y="14.6667" width="1.33333" height="1.33333" transform="rotate(-90 4 14.6667)" fill="#5552FD"/>
<rect x="16" y="6.66666" width="1.33333" height="1.33333" transform="rotate(-180 16 6.66666)" fill="#5552FD"/>
<rect x="14.6667" y="8" width="1.33333" height="1.33333" transform="rotate(-180 14.6667 8)" fill="#9695F8"/>
<rect x="2.66669" y="8" width="1.33333" height="1.33333" transform="rotate(-180 2.66669 8)" fill="#9695F8"/>
<rect x="1.33331" y="8" width="1.33333" height="1.33333" transform="rotate(-180 1.33331 8)" fill="#5552FD"/>
<rect x="16" y="8" width="1.33333" height="1.33333" transform="rotate(-180 16 8)" fill="#5552FD"/>
<rect x="14.6667" y="9.33334" width="1.33333" height="1.33333" transform="rotate(-180 14.6667 9.33334)" fill="#9695F8"/>
<rect x="2.66669" y="9.33334" width="1.33333" height="1.33333" transform="rotate(-180 2.66669 9.33334)" fill="#9695F8"/>
<rect x="1.33331" y="9.33334" width="1.33333" height="1.33333" transform="rotate(-180 1.33331 9.33334)" fill="#5552FD"/>
<rect x="16" y="9.33334" width="1.33333" height="1.33333" transform="rotate(-180 16 9.33334)" fill="#5552FD"/>
<rect x="14.6667" y="10.6667" width="1.33333" height="1.33333" transform="rotate(-180 14.6667 10.6667)" fill="#9695F8"/>
<rect x="2.66669" y="10.6667" width="1.33333" height="1.33333" transform="rotate(-180 2.66669 10.6667)" fill="#9695F8"/>
<rect x="1.33331" y="10.6667" width="1.33333" height="1.33333" transform="rotate(-180 1.33331 10.6667)" fill="#5552FD"/>
<rect x="16" y="10.6667" width="1.33333" height="1.33333" transform="rotate(-180 16 10.6667)" fill="#5552FD"/>
<rect width="1.33333" height="1.33333" transform="matrix(-1 8.74225e-08 8.7423e-08 1 10.6667 12)" fill="#FED955"/>
<rect x="9.33331" y="6.66666" width="1.33333" height="1.33333" transform="rotate(-180 9.33331 6.66666)" fill="#FED955"/>
<rect x="9.33331" y="9.33334" width="1.33333" height="1.33333" transform="rotate(-180 9.33331 9.33334)" fill="#FED955"/>
<rect x="9.33331" y="10.6667" width="1.33333" height="1.33333" transform="rotate(-180 9.33331 10.6667)" fill="#FED955"/>
<rect x="9.33331" y="5.33334" width="1.33333" height="1.33333" transform="rotate(-180 9.33331 5.33334)" fill="#FED955"/>
<rect width="1.33333" height="1.33333" transform="matrix(-1 8.74226e-08 8.74229e-08 1 9.33331 10.6667)" fill="#FED955"/>
<rect x="6.66669" y="9.33334" width="1.33333" height="1.33333" transform="rotate(-180 6.66669 9.33334)" fill="#FED955"/>
<rect x="6.66669" y="8" width="1.33333" height="1.33333" transform="rotate(-180 6.66669 8)" fill="#FED955"/>
<rect x="6.66669" y="10.6667" width="1.33333" height="1.33333" transform="rotate(-180 6.66669 10.6667)" fill="#FED955"/>
<rect x="6.66669" y="5.33334" width="1.33333" height="1.33333" transform="rotate(-180 6.66669 5.33334)" fill="#FED955"/>
<rect width="1.33333" height="1.33333" transform="matrix(-1 8.74227e-08 8.74229e-08 1 6.66669 10.6667)" fill="#FED955"/>
<rect x="10.6667" y="9.33334" width="1.33333" height="1.33333" transform="rotate(-180 10.6667 9.33334)" fill="#FED955"/>
<rect x="10.6667" y="8" width="1.33333" height="1.33333" transform="rotate(-180 10.6667 8)" fill="#FED955"/>
<rect x="10.6667" y="10.6667" width="1.33333" height="1.33333" transform="rotate(-180 10.6667 10.6667)" fill="#FED955"/>
<rect x="10.6667" y="5.33334" width="1.33333" height="1.33333" transform="rotate(-180 10.6667 5.33334)" fill="#FED955"/>
<rect width="1.33333" height="1.33333" transform="matrix(-1 8.74226e-08 8.7423e-08 1 10.6667 10.6667)" fill="#FED955"/>
<rect x="8" y="4" width="1.33333" height="1.33333" transform="rotate(-180 8 4)" fill="#FED955"/>
<rect width="1.33333" height="1.33333" transform="matrix(-1 8.74225e-08 8.7423e-08 1 8 12)" fill="#FED955"/>
<rect x="6.66669" y="4" width="1.33333" height="1.33333" transform="rotate(-180 6.66669 4)" fill="#FED955"/>
<rect width="1.33333" height="1.33333" transform="matrix(-1 8.74226e-08 8.74229e-08 1 6.66669 12)" fill="#FED955"/>
<rect x="8" y="6.66666" width="1.33333" height="1.33333" transform="rotate(-180 8 6.66666)" fill="#FED955"/>
<rect x="8" y="9.33334" width="1.33333" height="1.33333" transform="rotate(-180 8 9.33334)" fill="#FED955"/>
<rect x="6.66669" y="6.66666" width="1.33333" height="1.33333" transform="rotate(-180 6.66669 6.66666)" fill="#5552FD"/>
<rect x="9.33331" y="8" width="1.33333" height="1.33333" transform="rotate(-180 9.33331 8)" fill="#5552FD"/>
<rect x="12" y="6.66666" width="1.33333" height="1.33333" transform="rotate(-180 12 6.66666)" fill="#5552FD"/>
<rect x="12" y="9.33334" width="1.33333" height="1.33333" transform="rotate(-180 12 9.33334)" fill="#5552FD"/>
<rect x="12" y="8" width="1.33333" height="1.33333" transform="rotate(-180 12 8)" fill="#5552FD"/>
<rect x="12" y="10.6667" width="1.33333" height="1.33333" transform="rotate(-180 12 10.6667)" fill="#5552FD"/>
<rect x="12" y="5.33334" width="1.33333" height="1.33333" transform="rotate(-180 12 5.33334)" fill="#5552FD"/>
<rect width="1.33333" height="1.33333" transform="matrix(-1 8.74226e-08 8.7423e-08 1 12 10.6667)" fill="#5552FD"/>
<rect x="5.33331" y="6.66666" width="1.33333" height="1.33333" transform="rotate(-180 5.33331 6.66666)" fill="#5552FD"/>
<rect x="5.33331" y="9.33334" width="1.33333" height="1.33333" transform="rotate(-180 5.33331 9.33334)" fill="#5552FD"/>
<rect x="5.33331" y="8" width="1.33333" height="1.33333" transform="rotate(-180 5.33331 8)" fill="#5552FD"/>
<rect x="5.33331" y="10.6667" width="1.33333" height="1.33333" transform="rotate(-180 5.33331 10.6667)" fill="#5552FD"/>
<rect x="5.33331" y="5.33334" width="1.33333" height="1.33333" transform="rotate(-180 5.33331 5.33334)" fill="#5552FD"/>
<rect width="1.33333" height="1.33333" transform="matrix(-1 8.74226e-08 8.74229e-08 1 5.33331 10.6667)" fill="#5552FD"/>
<rect x="10.6667" y="6.66666" width="1.33333" height="1.33333" transform="rotate(-180 10.6667 6.66666)" fill="#5552FD"/>
<rect x="8" y="8" width="1.33333" height="1.33333" transform="rotate(-180 8 8)" fill="#5552FD"/>
<rect x="8" y="10.6667" width="1.33333" height="1.33333" transform="rotate(-180 8 10.6667)" fill="#FED955"/>
<rect x="8" y="5.33334" width="1.33333" height="1.33333" transform="rotate(-180 8 5.33334)" fill="#FED955"/>
<rect width="1.33333" height="1.33333" transform="matrix(-1 8.74226e-08 8.7423e-08 1 8 10.6667)" fill="#FED955"/>
<rect x="13.3333" y="6.66666" width="1.33333" height="1.33333" transform="rotate(-180 13.3333 6.66666)" fill="#FED955"/>
<rect x="13.3333" y="9.33334" width="1.33333" height="1.33333" transform="rotate(-180 13.3333 9.33334)" fill="#FED955"/>
<rect x="13.3333" y="8" width="1.33333" height="1.33333" transform="rotate(-180 13.3333 8)" fill="#FED955"/>
<rect x="13.3333" y="10.6667" width="1.33333" height="1.33333" transform="rotate(-180 13.3333 10.6667)" fill="#FED955"/>
</svg>
