<svg width="104" height="104" viewBox="0 0 104 104" fill="none" xmlns="http://www.w3.org/2000/svg">
<path fill-rule="evenodd" clip-rule="evenodd" d="M43.9645 3.70157C43.0791 3.04235 41.8559 3.11138 41.0484 3.86615C40.2409 4.62093 40.0759 5.84927 40.6552 6.79469L51.0231 23.7162L51.9133 42.4077C51.9564 43.3124 52.5157 44.1092 53.3457 44.4484L64.6332 49.0611L77.5066 68.6011L72.162 98.0087C72.0025 98.8862 72.3542 99.7786 73.0667 100.304C73.7791 100.83 74.7263 100.896 75.5033 100.474L83.313 96.232C83.8301 95.9512 84.2212 95.4804 84.4058 94.9167L93.6511 66.676C93.8291 66.1325 93.8022 65.5417 93.5758 65.017L80.3107 34.2777C80.0697 33.7192 79.6213 33.2789 79.0622 33.0521L68.84 28.9037L63.775 18.761C63.6126 18.4359 63.3769 18.154 63.087 17.9381L43.9645 3.70157Z" fill="#21B3D3"/>
<path fill-rule="evenodd" clip-rule="evenodd" d="M55.0639 40.1434C54.1481 39.7691 53.0984 40.03 52.4581 40.7909L34.7697 61.8125L22.3068 61.0143C21.2281 60.9452 20.248 61.6475 19.9542 62.7L16.3364 75.6582C16.1961 76.1606 16.2273 76.6962 16.425 77.1785L25.4981 99.3178C25.8534 100.185 26.6897 100.75 27.6172 100.75H74.4184C75.5253 100.75 76.4744 99.9501 76.6746 98.8484L82.1874 68.5159C82.2952 67.9226 82.1706 67.3102 81.84 66.8083L68.058 45.8893C67.802 45.5008 67.4362 45.1994 67.0083 45.0245L55.0639 40.1434Z" fill="#3FDCFF"/>
<path fill-rule="evenodd" clip-rule="evenodd" d="M44.5553 4.34819C44.2223 3.80466 43.6824 3.42423 43.0631 3.29667C42.4438 3.1691 41.8 3.3057 41.2835 3.67423L36.8043 6.87019C36.4013 7.15774 36.1006 7.56903 35.9468 8.04309L29.6894 27.3241L18.1409 43.0004C17.7909 43.4755 17.6337 44.068 17.7015 44.6566L19.8836 63.5999C20.012 64.7148 20.9104 65.577 22.0174 65.6479L35.6271 66.5195C36.3488 66.5658 37.0498 66.2649 37.5187 65.7077L55.952 43.8009C56.33 43.3516 56.5248 42.7735 56.4968 42.1842L55.578 22.8922C55.5592 22.4983 55.4416 22.1158 55.2363 21.7807L44.5553 4.34819Z" fill="#67E3FF"/>
</svg>
