<svg width="30" height="30" viewBox="0 0 30 30" fill="none" xmlns="http://www.w3.org/2000/svg">
<g clip-path="url(#clip0_2188_12776)">
<path d="M27.4548 30.0163C27.4034 30.0163 27.354 29.9959 27.3176 29.9596C27.2812 29.9233 27.2608 29.874 27.2608 29.8227V29.2421H26.6786C26.6272 29.2421 26.5778 29.2217 26.5414 29.1854C26.505 29.1491 26.4846 29.0999 26.4846 29.0485V28.4679H25.9024C25.851 28.4679 25.8016 28.4475 25.7652 28.4112C25.7288 28.3749 25.7084 28.3257 25.7084 28.2743V28.0808H25.1262C25.0748 28.0808 25.0254 28.0604 24.989 28.0241C24.9526 27.9878 24.9322 27.9386 24.9322 27.8872V27.6937H24.7382C24.6867 27.6937 24.6373 27.6733 24.6009 27.637C24.5645 27.6007 24.5441 27.5515 24.5441 27.5001V27.3066H24.3501C24.2986 27.3066 24.2492 27.2862 24.2128 27.2499C24.1764 27.2136 24.156 27.1644 24.156 27.113V26.9195H23.962C23.9105 26.9195 23.8611 26.8991 23.8247 26.8628C23.7884 26.8265 23.7679 26.7773 23.7679 26.7259V26.1453H23.5739C23.5224 26.1453 23.473 26.1249 23.4366 26.0886C23.4003 26.0523 23.3798 26.0031 23.3798 25.9517V25.3711H22.7977C22.7462 25.3711 22.6968 25.3507 22.6604 25.3144C22.6241 25.2781 22.6036 25.2289 22.6036 25.1776V24.5969H22.0215C21.97 24.5969 21.9206 24.5765 21.8843 24.5402C21.8479 24.5039 21.8274 24.4547 21.8274 24.4034V23.8227H21.2453C21.1938 23.8227 21.1444 23.8023 21.1081 23.766C21.0717 23.7297 21.0512 23.6805 21.0512 23.6292V23.0485H17.7524C17.7009 23.0485 17.6516 23.0281 17.6152 22.9918C17.5788 22.9555 17.5583 22.9063 17.5583 22.855V22.6614H17.3643C17.3128 22.6614 17.2635 22.641 17.2271 22.6047C17.1907 22.5684 17.1702 22.5192 17.1702 22.4679V22.2743H16.9762C16.9247 22.2743 16.8754 22.2539 16.839 22.2176C16.8026 22.1813 16.7821 22.1321 16.7821 22.0808V21.8872H16.5881C16.5366 21.8872 16.4873 21.8668 16.4509 21.8305C16.4145 21.7942 16.394 21.745 16.394 21.6937V18.4034H15.8119C15.7604 18.4034 15.7111 18.383 15.6747 18.3467C15.6383 18.3104 15.6178 18.2612 15.6178 18.2098V17.6292H15.0357C14.9842 17.6292 14.9349 17.6088 14.8985 17.5725C14.8621 17.5362 14.8417 17.487 14.8417 17.4356V16.855H14.2595C14.208 16.855 14.1587 16.8346 14.1223 16.7983C14.0859 16.762 14.0655 16.7128 14.0655 16.6614V16.0808H12.7071C12.6557 16.0808 12.6063 16.0604 12.5699 16.0241C12.5335 15.9878 12.5131 15.9386 12.5131 15.8872V14.5324H9.60233C9.55087 14.5324 9.50151 14.512 9.46512 14.4757C9.42873 14.4394 9.40828 14.3902 9.40828 14.3389V14.1453H9.21423C9.16277 14.1453 9.11341 14.1249 9.07702 14.0886C9.04063 14.0523 9.02018 14.0031 9.02018 13.9518V13.7582H8.82614C8.77467 13.7582 8.72531 13.7378 8.68892 13.7015C8.65253 13.6652 8.63209 13.616 8.63209 13.5647V13.3711H8.43804C8.38657 13.3711 8.33722 13.3507 8.30082 13.3144C8.26443 13.2781 8.24399 13.2289 8.24399 13.1776V11.4356H8.04994C7.99848 11.4356 7.94912 11.4152 7.91273 11.3789C7.87634 11.3426 7.85589 11.2934 7.85589 11.2421V10.8898L7.46779 11.2808C7.43042 11.3156 7.38117 11.335 7.33002 11.335C7.27887 11.335 7.22962 11.3156 7.19224 11.2808L6.78086 10.8705L6.36948 11.2808C6.33286 11.3156 6.28422 11.335 6.23364 11.335C6.18182 11.3355 6.13179 11.3161 6.09393 11.2808L5.68254 10.8705L5.27116 11.2808C5.23455 11.3156 5.1859 11.335 5.13532 11.335C5.08365 11.3347 5.03391 11.3154 4.99561 11.2808L4.58423 10.8705L4.17284 11.2808C4.13606 11.3153 4.08749 11.3345 4.03701 11.3345C3.98653 11.3345 3.93795 11.3153 3.90117 11.2808L3.48979 10.8705L3.07452 11.2808C3.05693 11.2988 3.03575 11.3129 3.01236 11.3222C2.98897 11.3316 2.96387 11.3359 2.93869 11.335C2.91353 11.3358 2.88847 11.3314 2.8651 11.322C2.84173 11.3127 2.82054 11.2987 2.80286 11.2808L0.059004 8.54402C0.0402718 8.52599 0.0254421 8.50432 0.0154298 8.48035C0.00541746 8.45638 0.000434831 8.43062 0.000789293 8.40466C0.000332628 8.37926 0.00528542 8.35404 0.0153205 8.33069C0.0253556 8.30733 0.0402446 8.28637 0.059004 8.26918L0.470388 7.85808L0.059004 7.44776C0.0402718 7.42973 0.0254421 7.40806 0.0154298 7.38409C0.00541746 7.36013 0.000434831 7.33437 0.000789293 7.3084C0.000332628 7.283 0.00528542 7.25779 0.0153205 7.23443C0.0253556 7.21108 0.0402446 7.19011 0.059004 7.17292L0.470388 6.7626L0.059004 6.35228C0.0403224 6.33502 0.0254859 6.31405 0.015457 6.29071C0.00542802 6.26737 0.000430723 6.24218 0.000789293 6.21679C0.000365371 6.19082 0.00531633 6.16504 0.0153328 6.14106C0.0253493 6.11709 0.040216 6.09543 0.059004 6.07744L0.470388 5.66712L0.059004 5.25679C0.0403224 5.23954 0.0254859 5.21856 0.015457 5.19522C0.00542802 5.17188 0.000430723 5.1467 0.000789293 5.12131C0.000746399 5.09539 0.00587106 5.06972 0.0158651 5.0458C0.0258592 5.02188 0.0405232 5.00017 0.059004 4.98195L0.470388 4.57163L0.059004 4.16131C0.0411234 4.14462 0.0267171 4.12458 0.0166094 4.10233C0.0065016 4.08009 0.000890727 4.05607 9.77103e-05 4.03166C-0.000695306 4.00724 0.0033451 3.98292 0.0119878 3.96006C0.0206305 3.93721 0.0337058 3.91628 0.0504658 3.89847C0.0531187 3.89557 0.0559717 3.89285 0.059004 3.89034L0.470388 3.48002L0.059004 3.0666C0.0411234 3.04991 0.0267171 3.02987 0.0166094 3.00762C0.0065016 2.98538 0.000890727 2.96136 9.77103e-05 2.93695C-0.000695306 2.91253 0.0033451 2.88821 0.0119878 2.86535C0.0206305 2.8425 0.0337058 2.82157 0.0504658 2.80376C0.0531187 2.80086 0.0559717 2.79814 0.059004 2.79563L2.80286 0.0588606C2.82028 0.0403299 2.84131 0.0255504 2.86467 0.0154316C2.88803 0.0053128 2.91322 6.86785e-05 2.93869 2.19214e-05C2.96415 -0.000335724 2.9894 0.00464867 3.0128 0.0146517C3.0362 0.0246548 3.05723 0.039453 3.07452 0.0580864L3.48979 0.468409L3.90117 0.0580864C3.91787 0.040264 3.93793 0.0259032 3.9602 0.0158267C3.98248 0.00575027 4.00652 0.000156228 4.03097 -0.00063488C4.05541 -0.00142599 4.07977 0.00260139 4.10265 0.0112165C4.12553 0.0198316 4.14648 0.0328651 4.1643 0.0495703C4.16702 0.05228 4.17013 0.0549896 4.17284 0.0580864L4.58423 0.468409L4.99561 0.0580864C5.01388 0.0396533 5.03563 0.0250272 5.05962 0.0150589C5.08361 0.00509057 5.10934 -2.08615e-05 5.13532 2.19214e-05C5.16073 3.68757e-05 5.18586 0.00519027 5.20921 0.0151704C5.23255 0.0251506 5.25363 0.0397502 5.27116 0.0580864L5.68254 0.468409L6.09315 0.0588606C6.11142 0.0404275 6.13318 0.0258014 6.15716 0.0158331C6.18115 0.00586477 6.20688 0.000753332 6.23287 0.000796115C6.28405 0.00152328 6.33287 0.0223933 6.3687 0.0588606L6.78008 0.469183L7.19147 0.0588606C7.20911 0.0406655 7.2302 0.0261593 7.25352 0.0161897C7.27685 0.00621999 7.30193 0.000986872 7.3273 0.000796115C7.35327 0.000838511 7.37898 0.00598877 7.40296 0.0159522C7.42693 0.0259156 7.4487 0.0404965 7.46702 0.0588606L7.8784 0.469183L8.28978 0.0588606C8.30742 0.0406655 8.32852 0.0261593 8.35184 0.0161897C8.37516 0.00621999 8.40025 0.000986872 8.42562 0.000796115C8.45159 0.000838511 8.4773 0.00598877 8.50127 0.0159522C8.52525 0.0259156 8.54702 0.0404965 8.56533 0.0588606L11.3092 2.79563C11.3438 2.83232 11.363 2.88077 11.363 2.93112C11.363 2.98146 11.3438 3.02992 11.3092 3.0666L10.8978 3.48079L11.3092 3.89112C11.3438 3.9278 11.363 3.97625 11.363 4.0266C11.363 4.07695 11.3438 4.1254 11.3092 4.16208L10.8978 4.57241L11.3092 4.98273C11.3439 5.02093 11.3632 5.07055 11.3635 5.12208C11.3635 5.17253 11.3441 5.22105 11.3092 5.25757L10.8978 5.66789L11.3092 6.07821C11.3446 6.11598 11.364 6.16588 11.3635 6.21757C11.3635 6.26801 11.3441 6.31653 11.3092 6.35305L10.8978 6.76337L11.3092 7.1737C11.3443 7.21006 11.3638 7.25868 11.3635 7.30918C11.3639 7.36084 11.3444 7.41068 11.3092 7.44853L10.8986 7.85808L10.9917 7.95098H11.1547C11.2062 7.95098 11.2555 7.97138 11.2919 8.00767C11.3283 8.04397 11.3488 8.0932 11.3488 8.14453V8.32647C11.3514 8.32974 11.3528 8.33387 11.3527 8.33808H11.9309C11.9824 8.33808 12.0317 8.35847 12.0681 8.39477C12.1045 8.43107 12.125 8.4803 12.125 8.53163V9.49937H12.7071C12.7586 9.49937 12.8079 9.51976 12.8443 9.55606C12.8807 9.59236 12.9012 9.64159 12.9012 9.69292V11.0478H13.4833C13.5348 11.0478 13.5841 11.0681 13.6205 11.1044C13.6569 11.1407 13.6774 11.19 13.6774 11.2413V11.822H14.2595C14.311 11.822 14.3603 11.8423 14.3967 11.8786C14.4331 11.9149 14.4536 11.9642 14.4536 12.0155V12.209H17.7524C17.8039 12.209 17.8532 12.2294 17.8896 12.2657C17.926 12.302 17.9464 12.3513 17.9464 12.4026V12.5961H18.1405C18.192 12.5961 18.2413 12.6165 18.2777 12.6528C18.3141 12.6891 18.3345 12.7384 18.3345 12.7897V12.9832H18.5286C18.58 12.9832 18.6294 13.0036 18.6658 13.0399C18.7022 13.0762 18.7226 13.1255 18.7226 13.1768V13.3703H18.9167C18.9681 13.3703 19.0175 13.3907 19.0539 13.427C19.0903 13.4633 19.1107 13.5126 19.1107 13.5639V17.2413H19.6929C19.7443 17.2413 19.7937 17.2617 19.8301 17.298C19.8665 17.3343 19.8869 17.3835 19.8869 17.4349V18.0155H20.4691C20.5205 18.0155 20.5699 18.0359 20.6063 18.0722C20.6427 18.1085 20.6631 18.1577 20.6631 18.209V18.7897H21.2453C21.2967 18.7897 21.3461 18.8101 21.3825 18.8464C21.4189 18.8827 21.4393 18.9319 21.4393 18.9832V19.5639H22.0215C22.0729 19.5639 22.1223 19.5843 22.1587 19.6206C22.1951 19.6569 22.2155 19.7061 22.2155 19.7574V20.3381H22.7977C22.8491 20.3381 22.8985 20.3585 22.9349 20.3948C22.9713 20.4311 22.9917 20.4803 22.9917 20.5316V20.7252H25.1262C25.1777 20.7252 25.2271 20.7456 25.2635 20.7819C25.2999 20.8182 25.3203 20.8674 25.3203 20.9187V21.1123H25.5143C25.5658 21.1123 25.6152 21.1327 25.6516 21.169C25.688 21.2053 25.7084 21.2545 25.7084 21.3058V21.4994H25.9024C25.9539 21.4994 26.0033 21.5198 26.0397 21.5561C26.076 21.5924 26.0965 21.6416 26.0965 21.6929V24.209H26.6786C26.7301 24.209 26.7795 24.2294 26.8159 24.2657C26.8522 24.302 26.8727 24.3513 26.8727 24.4026V24.9832H27.4548C27.5063 24.9832 27.5557 25.0036 27.592 25.0399C27.6284 25.0762 27.6489 25.1255 27.6489 25.1768V25.7574H28.231C28.2825 25.7574 28.3319 25.7778 28.3682 25.8141C28.4046 25.8504 28.4251 25.8996 28.4251 25.951V26.5316H29.0072C29.0587 26.5316 29.108 26.552 29.1444 26.5883C29.1808 26.6246 29.2013 26.6738 29.2013 26.7252V27.3058H29.7834C29.8349 27.3058 29.8842 27.3262 29.9206 27.3625C29.957 27.3988 29.9775 27.448 29.9775 27.4994V29.8219C29.9775 29.8733 29.957 29.9225 29.9206 29.9588C29.8842 29.9951 29.8349 30.0155 29.7834 30.0155L27.4548 30.0163Z" fill="white"/>
<path d="M29.0073 27.5002V26.726H28.2311V25.9518H27.4549V25.1776H26.6787V24.4034H25.9025V21.6937H25.5144V21.3066H25.1263V20.9195H22.7977V20.5324H22.0215V19.7582H21.2453V18.9841H20.4691V18.2099H19.6929V17.4357H19.4989V13.5647C19.4989 13.5134 19.4784 13.4641 19.442 13.4278C19.4056 13.3915 19.3563 13.3712 19.3048 13.3712H18.5286V13.1776H18.1405V12.7905H17.7524V12.4034H14.2596V12.0163H13.4834V11.2421H12.7072V9.69373H11.931V8.53244H11.1548V8.42406L11.1703 8.4047L11.1548 8.38922V8.14535H10.9103L10.6231 7.85889L11.1703 7.30922L10.6231 6.76341L11.1703 6.2176L10.6231 5.66793L11.1703 5.12212L10.6231 4.57244L11.1703 4.02664L10.6231 3.48083L11.1703 2.93115L8.42643 0.193604L7.87844 0.740184L7.32811 0.193604L6.7809 0.73941L6.23368 0.193604L5.68258 0.73941L5.13536 0.193604L4.58426 0.73941L4.03626 0.193604L3.48905 0.73941L2.93872 0.193604L0.194092 2.93115L0.74131 3.48083L0.194092 4.02586L0.74131 4.57167L0.194092 5.12212L0.74131 5.66793L0.194092 6.2176L0.74131 6.76341L0.194092 7.30922L0.742087 7.85812L0.194092 8.4047L2.93795 11.1415L3.48905 10.5957L4.03626 11.1415L4.58348 10.5957L5.13458 11.1415L5.6818 10.5957L6.2329 11.1415L6.78012 10.5957L7.32734 11.1415L7.87844 10.5957L8.0492 10.766V11.2421H8.4373V13.1776H8.8254V13.5647H9.2135V13.9518H9.60159V14.3389H12.7064V15.8873H14.2588V16.6615H15.035V17.4357H15.8112V18.2099H16.5874V21.6937H16.9755V22.0808H17.3636V22.4679H17.7517V22.855H21.2445V23.6292H22.0207V24.4034H22.7969V25.1776H23.5731V25.9518H23.9612V26.726H24.3493V27.1131H24.7374V27.5002H25.1255V27.8873H25.9017V28.2744H26.6779V29.0486H27.4541V29.8228H29.7827V27.5002H29.0073Z" fill="white"/>
<path d="M11.1546 8.14539H10.3784V12.0164H11.1546V8.14539Z" fill="#5552FD"/>
<path d="M11.9308 9.69373H10.3784V12.7905H11.9308V9.69373Z" fill="#5552FD"/>
<path d="M12.7071 10.4679H9.60229V12.0163H12.7071V10.4679Z" fill="#5552FD"/>
<path d="M11.9308 10.4679H8.0498V11.2421H11.9308V10.4679Z" fill="#5552FD"/>
<path d="M29.7835 28.2744H29.0073V29.8228H29.7835V28.2744Z" fill="#5552FD"/>
<path d="M29.0072 29.0486H28.231V29.8228H29.0072V29.0486Z" fill="#5552FD"/>
<path d="M14.4147 12.9841H13.0564V14.4938H14.4147V12.9841Z" fill="#5552FD"/>
<path d="M16.5876 15.1131V16.6615H15.0352V15.8873H12.7066V13.5647H11.9304V12.0164H13.4828V12.7906H15.8114V15.1131H16.5876Z" fill="#5552FD"/>
<path d="M15.8119 14.3389H14.2595V15.8873H15.8119V14.3389Z" fill="#5552FD"/>
<path d="M17.3642 15.8872H15.8118V17.4356H17.3642V15.8872Z" fill="#5552FD"/>
<path d="M18.1405 16.6615H16.5881V18.2099H18.1405V16.6615Z" fill="#5552FD"/>
<path d="M18.9167 17.4357H17.3643V18.9841H18.9167V17.4357Z" fill="#5552FD"/>
<path d="M19.6928 18.2098H18.1404V19.7582H19.6928V18.2098Z" fill="#5552FD"/>
<path d="M20.4691 18.9841H18.9167V20.5325H20.4691V18.9841Z" fill="#5552FD"/>
<path d="M21.2452 19.7582H19.6929V21.3066H21.2452V19.7582Z" fill="#5552FD"/>
<path d="M22.0214 20.5325H20.469V22.0809H22.0214V20.5325Z" fill="#5552FD"/>
<path d="M22.7976 21.3066H21.2451V22.8551H22.7976V21.3066Z" fill="#5552FD"/>
<path d="M23.5739 22.0808H22.0215V23.6292H23.5739V22.0808Z" fill="#5552FD"/>
<path d="M24.35 22.855H22.7976V24.4034H24.35V22.855Z" fill="#5552FD"/>
<path d="M25.1264 23.6292H23.574V25.1775H25.1264V23.6292Z" fill="#5552FD"/>
<path d="M25.9025 24.4033H24.3501V25.9517H25.9025V24.4033Z" fill="#5552FD"/>
<path d="M26.6786 25.1775H25.1262V26.7259H26.6786V25.1775Z" fill="#5552FD"/>
<path d="M29.0068 27.4998V29.0482H26.6783V28.274H25.9021V25.9514H27.4545V26.7256H28.2306V27.4998H27.4545V28.274H28.2306V27.4998H29.0068Z" fill="#5552FD"/>
<path d="M28.2305 27.5002H27.4543V28.2744H28.2305V27.5002Z" fill="#5552FD"/>
<path d="M28.2305 27.5002H27.4543V28.2744H28.2305V27.5002Z" fill="#5552FD"/>
<path d="M10.62 7.85777L7.87573 10.595L8.30137 11.0195L11.0456 8.28231L10.62 7.85777Z" fill="#5552FD"/>
<path d="M0.744166 7.85783L0.195312 8.40527L2.93958 11.1425L3.48843 10.595L0.744166 7.85783Z" fill="#5552FD"/>
<path d="M4.03567 10.0479L3.48682 10.5953L4.03567 11.1428L4.58453 10.5953L4.03567 10.0479Z" fill="#5552FD"/>
<path d="M5.1343 10.0477L4.58545 10.5951L5.1343 11.1425L5.68315 10.5951L5.1343 10.0477Z" fill="#5552FD"/>
<path d="M6.23318 10.047L5.68433 10.5945L6.23318 11.1419L6.78203 10.5945L6.23318 10.047Z" fill="#5552FD"/>
<path d="M7.32913 10.0495L6.78027 10.5969L7.32913 11.1444L7.87798 10.5969L7.32913 10.0495Z" fill="#5552FD"/>
<path d="M10.6201 6.76018L10.0713 7.30762L10.6201 7.85505L11.169 7.30762L10.6201 6.76018Z" fill="#5552FD"/>
<path d="M10.6226 5.67082L10.0737 6.21826L10.6226 6.7657L11.1714 6.21826L10.6226 5.67082Z" fill="#5552FD"/>
<path d="M10.6221 4.57487L10.0732 5.12231L10.6221 5.66976L11.1709 5.12231L10.6221 4.57487Z" fill="#5552FD"/>
<path d="M10.6219 3.47905L10.073 4.02649L10.6219 4.57393L11.1707 4.02649L10.6219 3.47905Z" fill="#5552FD"/>
<path d="M8.42459 0.192919L7.87573 0.740356L10.62 3.47754L11.1689 2.93011L8.42459 0.192919Z" fill="#5552FD"/>
<path d="M7.32816 0.192919L6.7793 0.740356L7.32816 1.28779L7.87702 0.740356L7.32816 0.192919Z" fill="#5552FD"/>
<path d="M6.2322 0.190479L5.68335 0.737915L6.2322 1.28535L6.78106 0.737915L6.2322 0.190479Z" fill="#5552FD"/>
<path d="M5.13357 0.190967L4.58472 0.738403L5.13357 1.28584L5.68243 0.738403L5.13357 0.190967Z" fill="#5552FD"/>
<path d="M4.0347 0.19121L3.48584 0.738647L4.0347 1.28608L4.58355 0.738647L4.0347 0.19121Z" fill="#5552FD"/>
<path d="M2.93934 0.193356L0.195068 2.93054L0.743922 3.47798L3.48819 0.740793L2.93934 0.193356Z" fill="#5552FD"/>
<path d="M0.743678 3.48027L0.194824 4.02771L0.743678 4.57515L1.29253 4.02771L0.743678 3.48027Z" fill="#5552FD"/>
<path d="M0.743921 4.5761L0.195068 5.12354L0.743921 5.67097L1.29277 5.12354L0.743921 4.5761Z" fill="#5552FD"/>
<path d="M0.74441 5.67205L0.195557 6.21948L0.74441 6.76692L1.29326 6.21948L0.74441 5.67205Z" fill="#5552FD"/>
<path d="M0.74197 6.76141L0.193115 7.30884L0.74197 7.85627L1.29082 7.30884L0.74197 6.76141Z" fill="#5552FD"/>
<path d="M5.13213 1.28832L4.58491 1.83413L1.84066 4.57206L0.743896 3.47774L3.48853 0.740967L4.03614 1.28677L4.58335 0.740967L5.13213 1.28832Z" fill="#9695F8"/>
<path d="M9.52595 6.76301L6.78171 9.49979L6.231 8.9505L5.68378 8.40508L5.68222 8.40353L1.84082 4.57204L4.58507 1.83411L5.68378 2.92998V2.93037L8.42647 5.66637L8.42802 5.66753L8.97524 6.21334L8.97718 6.21527L9.52518 6.76185L9.52595 6.76301Z" fill="#9695F8"/>
<path d="M1.29239 4.02422L0.741699 4.57312L1.29036 5.12076L1.84106 4.57186L1.29239 4.02422Z" fill="#9695F8"/>
<path d="M10.6233 3.47774L8.42784 5.66755L8.42628 5.66639L5.68359 2.93039L7.87907 0.740967L10.6233 3.47774Z" fill="#9695F8"/>
<path d="M5.68369 2.92996L4.58887 1.83796L5.68641 0.743248L6.23246 1.28789L6.78006 0.741699L7.32883 1.28905L5.68369 2.92996Z" fill="#9695F8"/>
<path d="M5.13753 2.38576L2.39328 5.12292L1.29535 6.21802L0.746582 5.67066L1.84451 4.57556L4.58876 1.83801L5.13753 2.38576Z" fill="#9695F8"/>
<path d="M5.68356 2.93004V2.93043L2.93931 5.66759L1.29145 7.3112L0.742676 6.76346L1.29261 6.21533L2.39054 5.12062L5.13478 2.38269L5.68356 2.93004Z" fill="#9695F8"/>
<path d="M10.6233 7.85778L7.87905 10.5946L7.32951 10.0468L6.78035 10.5946L6.23235 10.0476L5.6828 10.5961L5.13403 10.0484L6.23274 8.95288L6.78151 9.49985L9.52575 6.76306L10.6233 7.85778Z" fill="#9695F8"/>
<path d="M6.23083 8.95046L4.58374 10.5937L4.03652 10.0479L3.48853 10.5945L0.743896 7.85768L2.93937 5.66748L5.68206 8.40349L5.68361 8.40504L6.23083 8.95046Z" fill="#9695F8"/>
<path d="M8.42795 5.66757L5.6837 8.40511L5.68215 8.40356L2.93945 5.66757L5.6837 2.93042L8.4264 5.66641L8.42795 5.66757Z" fill="#9695F8"/>
<path d="M10.6211 4.57201L6.2309 8.95046L5.68368 8.40505L5.68213 8.4035L10.0723 4.02466L10.0739 4.02582L10.6211 4.57201Z" fill="#9695F8"/>
<path d="M10.0738 5.12154L6.23291 8.95251L6.78176 9.49995L10.6226 5.66898L10.0738 5.12154Z" fill="#9695F8"/>
<path d="M10.6225 6.76222L10.0738 7.30918L9.52578 6.76299L6.78154 9.49975L6.78076 9.49937L9.525 6.76183L10.0734 6.21448L10.0746 6.21525L10.6225 6.76222Z" fill="#9695F8"/>
<path d="M1.84304 4.57573L1.29419 5.12317L5.68502 9.50268L6.23388 8.95524L1.84304 4.57573Z" fill="#5552FD"/>
<path d="M5.68289 1.83806L5.13403 2.3855L8.97602 6.21756L9.52488 5.67012L5.68289 1.83806Z" fill="#5552FD"/>
<path d="M5.68582 2.93498L5.13696 3.48242L5.68582 4.02986L6.23467 3.48242L5.68582 2.93498Z" fill="#5552FD"/>
<path d="M3.48928 5.11858L2.94043 5.66602L3.48928 6.21345L4.03814 5.66602L3.48928 5.11858Z" fill="#5552FD"/>
<path d="M5.68415 4.02725L4.0376 5.66956L4.58645 6.21699L6.233 4.57468L5.68415 4.02725Z" fill="#5552FD"/>
<path d="M8.97795 7.31149L8.97523 7.31497L8.9729 7.31265L8.976 7.30994L8.97795 7.31149Z" fill="#FED955"/>
<path d="M9.52459 7.85698L7.87827 9.49943L7.3295 8.95208L7.33105 8.95053H7.33066L7.32911 8.95169L7.3295 8.95208L6.78228 9.49827L3.48926 6.21337L4.03803 5.66601L4.58641 6.21298L6.22846 4.57518L5.68202 4.03014L6.23079 3.48279L9.52381 6.76692L8.97776 7.31156L8.97582 7.31001L8.97271 7.31272L8.97504 7.31505L8.97776 7.31156L9.52459 7.85698Z" fill="#FED955"/>
<path d="M7.33099 8.9494L7.32935 8.95105L7.32962 8.95133L7.33127 8.94968L7.33099 8.9494Z" fill="#FED955"/>
<path d="M2.39236 6.21526L1.84351 6.7627L4.58778 9.49988L5.13663 8.95244L2.39236 6.21526Z" fill="#FED955"/>
<path d="M6.78176 1.83904L6.23291 2.38647L8.97718 5.12366L9.52603 4.57623L6.78176 1.83904Z" fill="#FED955"/>
<path d="M2.38748 7.30876L1.83862 7.8562L3.48518 9.49851L4.03403 8.95108L2.38748 7.30876Z" fill="#FED955"/>
<path d="M7.33099 8.95029L7.32935 8.9519L7.32962 8.95217L7.33127 8.95056L7.33099 8.95029Z" fill="#FED955"/>
<path d="M8.97795 7.31149L8.97523 7.31497L8.9729 7.31265L8.976 7.30994L8.97795 7.31149Z" fill="#FED955"/>
<path d="M7.87893 1.83647L7.33008 2.38391L8.97664 4.02622L9.5255 3.47879L7.87893 1.83647Z" fill="#FED955"/>
<path d="M5.13456 3.47855L5.68255 4.02474L4.03585 5.66719L3.48825 5.12061L2.93948 5.66758L1.84155 4.57287L2.39032 4.02513L1.84388 3.47971L3.46302 1.86475L4.00946 2.41055L4.58579 1.83533L5.68371 2.93042L5.13456 3.47855Z" fill="#FED955"/>
<path d="M5.13381 1.28691L4.58496 1.83435L5.13381 2.38179L5.68267 1.83435L5.13381 1.28691Z" fill="#5552FD"/>
<path d="M11.931 11.2422H11.1548V12.0164H11.931V11.2422Z" fill="#9695F8"/>
<path d="M12.7071 12.0164H11.9309V12.7905H12.7071V12.0164Z" fill="#9695F8"/>
<path d="M16.588 15.8872H15.8118V16.6614H16.588V15.8872Z" fill="#9695F8"/>
<path d="M17.3644 16.6615H16.5881V17.4357H17.3644V16.6615Z" fill="#9695F8"/>
<path d="M18.1404 17.4357H17.3643V18.2099H18.1404V17.4357Z" fill="#9695F8"/>
<path d="M18.9166 18.2098H18.1404V18.9841H18.9166V18.2098Z" fill="#9695F8"/>
<path d="M20.4691 19.7582H19.6929V20.5324H20.4691V19.7582Z" fill="#9695F8"/>
<path d="M21.2451 20.5325H20.469V21.3066H21.2451V20.5325Z" fill="#9695F8"/>
<path d="M23.5738 22.855H22.7976V23.6292H23.5738V22.855Z" fill="#9695F8"/>
<path d="M24.3502 23.6292H23.574V24.4033H24.3502V23.6292Z" fill="#9695F8"/>
<path d="M25.9024 25.1775H25.1262V25.9517H25.9024V25.1775Z" fill="#9695F8"/>
<path d="M26.6785 25.9519H25.9023V26.726H26.6785V25.9519Z" fill="#9695F8"/>
<path d="M28.2311 27.5002H27.4548V28.2744H28.2311V27.5002Z" fill="#9695F8"/>
<path d="M29.0072 28.2744H28.231V29.0485H29.0072V28.2744Z" fill="#9695F8"/>
<path d="M15.0358 13.5647H13.4834V15.1131H15.0358V13.5647Z" fill="#FED955"/>
<path d="M14.6476 13.8744H13.8713V14.6486H14.6476V13.8744Z" fill="#FFF2BB"/>
<path d="M14.6476 13.1776H13.8713V13.5647H14.6476V13.1776Z" fill="#C7BA82"/>
<path d="M15.4237 13.8744H15.0356V14.6486H15.4237V13.8744Z" fill="#CABE84"/>
<path d="M14.6476 15.1132H13.8713V15.5002H14.6476V15.1132Z" fill="#C7BA82"/>
<path d="M13.4833 13.8744H13.0952V14.6486H13.4833V13.8744Z" fill="#CABE84"/>
<path d="M11.1546 10.4679H10.3784V11.2421H11.1546V10.4679Z" fill="#9695F8"/>
<path d="M10.3785 8.91956H8.82617V10.4679H10.3785V8.91956Z" fill="#9695F8"/>
<path d="M9.99041 10.4679H9.60229V11.2421H9.99041V10.4679Z" fill="#FED955"/>
<path d="M22.7977 20.5325H22.0215V21.3066H22.7977V20.5325Z" fill="#5552FD"/>
<path d="M25.1262 20.9196H22.7976V21.3066H25.1262V20.9196Z" fill="#FCA956"/>
<path d="M10.3785 10.0808H9.60229V10.855H10.3785V10.0808Z" fill="#FED955"/>
<path d="M20.081 18.5969H19.6929V18.984H20.081V18.5969Z" fill="#FCA956"/>
<path d="M18.9166 19.7582H18.1404V20.5324H18.9166V19.7582Z" fill="#5552FD"/>
<path d="M25.1262 21.3066H23.9619V22.8551H25.1262V21.3066Z" fill="#FED955"/>
<path d="M24.3502 22.0808H23.574V22.855H24.3502V22.0808Z" fill="#5552FD"/>
<path d="M12.7071 13.9518H11.9309V14.3388H12.7071V13.9518Z" fill="#4B4BDD"/>
<path d="M11.9309 8.53247H10.7666V8.91958H11.9309V8.53247Z" fill="#E09251"/>
<path d="M9.60219 10.4679H9.21411V10.855H9.60219V10.4679Z" fill="#FED955"/>
<path d="M22.0214 19.7582H21.2451V20.5324H22.0214V19.7582Z" fill="#5552FD"/>
<path d="M21.2451 18.9841H20.469V19.7583H21.2451V18.9841Z" fill="#5552FD"/>
<path d="M20.4691 18.2098H19.6929V18.9841H20.4691V18.2098Z" fill="#5552FD"/>
<path d="M19.6929 17.4357H18.9167V18.2099H19.6929V17.4357Z" fill="#5552FD"/>
<path d="M23.5738 21.3066H22.7976V22.0809H23.5738V21.3066Z" fill="#5552FD"/>
<path d="M25.1263 22.855H24.3501V23.6292H25.1263V22.855Z" fill="#5552FD"/>
<path d="M25.9024 23.6292H25.1262V24.4033H25.9024V23.6292Z" fill="#5552FD"/>
<path d="M26.6785 24.4033H25.9023V25.1775H26.6785V24.4033Z" fill="#5552FD"/>
<path d="M28.2311 25.9519H27.4548V26.726H28.2311V25.9519Z" fill="#5552FD"/>
<path d="M27.4548 25.1775H26.6787V25.9517H27.4548V25.1775Z" fill="#5552FD"/>
<path d="M29.0072 26.7258H28.231V27.5001H29.0072V26.7258Z" fill="#5552FD"/>
<path d="M29.7835 27.5002H29.0073V28.2744H29.7835V27.5002Z" fill="#5552FD"/>
<path d="M25.9024 26.7258H25.1262V27.5001H25.9024V26.7258Z" fill="#5552FD"/>
<path d="M28.2311 29.0486H27.4548V29.8228H28.2311V29.0486Z" fill="#5552FD"/>
<path d="M21.2451 22.0808H20.469V22.855H21.2451V22.0808Z" fill="#5552FD"/>
<path d="M20.4691 21.3066H19.6929V22.0809H20.4691V21.3066Z" fill="#5552FD"/>
<path d="M22.0214 22.855H21.2451V23.6292H22.0214V22.855Z" fill="#5552FD"/>
<path d="M22.7977 23.6292H22.0215V24.4033H22.7977V23.6292Z" fill="#5552FD"/>
<path d="M24.3502 25.1775H23.574V25.9517H24.3502V25.1775Z" fill="#5552FD"/>
<path d="M19.6929 20.5325H18.9167V21.3066H19.6929V20.5325Z" fill="#5552FD"/>
<path d="M18.9166 16.6615H18.1404V17.4357H18.9166V16.6615Z" fill="#5552FD"/>
<path d="M18.1404 18.9841H17.3643V19.7583H18.1404V18.9841Z" fill="#5552FD"/>
<path d="M17.3644 18.2098H16.5881V18.9841H17.3644V18.2098Z" fill="#5552FD"/>
<path d="M16.588 17.4357H15.8118V18.2099H16.588V17.4357Z" fill="#5552FD"/>
<path d="M15.8118 16.6615H15.0356V17.4357H15.8118V16.6615Z" fill="#5552FD"/>
<path d="M15.0357 15.8872H14.2595V16.6614H15.0357V15.8872Z" fill="#5552FD"/>
<path d="M17.3644 15.1132H16.5881V15.8873H17.3644V15.1132Z" fill="#5552FD"/>
<path d="M16.588 14.3389H15.8118V15.1131H16.588V14.3389Z" fill="#5552FD"/>
<path d="M18.1404 15.8872H17.3643V16.6614H18.1404V15.8872Z" fill="#5552FD"/>
<path d="M12.7071 13.5647H11.9309V14.3389H12.7071V13.5647Z" fill="#5552FD"/>
<path d="M11.931 12.7905H11.1548V13.5647H11.931V12.7905Z" fill="#5552FD"/>
<path d="M14.2596 12.0164H13.4834V12.7905H14.2596V12.0164Z" fill="#5552FD"/>
<path d="M13.4833 11.2422H12.707V12.0164H13.4833V11.2422Z" fill="#5552FD"/>
<path d="M10.3785 12.0164H9.60229V12.7905H10.3785V12.0164Z" fill="#5552FD"/>
<path d="M9.60234 11.2422H8.82617V12.0164H9.60234V11.2422Z" fill="#5552FD"/>
<path d="M11.931 8.91956H11.1548V9.69373H11.931V8.91956Z" fill="#5552FD"/>
<path d="M12.7071 9.69373H11.9309V10.855H12.7071V9.69373Z" fill="#5552FD"/>
<path d="M25.1263 25.9519H24.3501V26.726H25.1263V25.9519Z" fill="#5552FD"/>
<path d="M23.5738 24.4033H22.7976V25.1775H23.5738V24.4033Z" fill="#5552FD"/>
<path d="M20.4691 21.3066H19.6929V22.0809H20.4691V21.3066Z" fill="#4B4BDD"/>
<path d="M21.2451 22.0808H20.469V22.855H21.2451V22.0808Z" fill="#4B4BDD"/>
<path d="M22.0214 22.855H21.2451V23.6292H22.0214V22.855Z" fill="#4B4BDD"/>
<path d="M19.6929 20.5325H18.9167V21.3066H19.6929V20.5325Z" fill="#4B4BDD"/>
<path d="M18.9166 20.1454H18.1404V20.5325H18.9166V20.1454Z" fill="#4B4BDD"/>
<path d="M18.1404 19.3711H17.3643V19.7582H18.1404V19.3711Z" fill="#4B4BDD"/>
<path d="M22.7977 23.6292H22.0215V24.4033H22.7977V23.6292Z" fill="#4B4BDD"/>
<path d="M23.5738 24.4033H22.7976V25.1775H23.5738V24.4033Z" fill="#4B4BDD"/>
<path d="M24.3502 25.1775H23.574V25.9517H24.3502V25.1775Z" fill="#4B4BDD"/>
<path d="M25.1263 25.9519H24.3501V26.726H25.1263V25.9519Z" fill="#4B4BDD"/>
<path d="M25.9024 27.113H25.1262V27.5002H25.9024V27.113Z" fill="#4B4BDD"/>
<path d="M26.6785 27.8872H25.9023V28.2743H26.6785V27.8872Z" fill="#4B4BDD"/>
<path d="M27.4548 28.6614H26.6787V29.0485H27.4548V28.6614Z" fill="#4B4BDD"/>
<path d="M29.7835 29.0486H27.4548V29.8228H29.7835V29.0486Z" fill="#4B4BDD"/>
<path d="M16.588 17.4357H15.8118V18.2099H16.588V17.4357Z" fill="#4B4BDD"/>
<path d="M17.3644 18.5969H16.5881V18.984H17.3644V18.5969Z" fill="#4B4BDD"/>
<path d="M15.8118 16.6615H15.0356V17.4357H15.8118V16.6615Z" fill="#4B4BDD"/>
<path d="M15.0357 15.8872H14.2595V16.6614H15.0357V15.8872Z" fill="#4B4BDD"/>
<path d="M11.931 13.1776H11.1548V13.5647H11.931V13.1776Z" fill="#4B4BDD"/>
<path d="M12.7071 13.5647H11.9309V14.3389H12.7071V13.5647Z" fill="#4B4BDD"/>
<path d="M11.1548 12.0164H9.99048V12.7905H11.1548V12.0164Z" fill="#4B4BDD"/>
<path d="M9.60234 11.6292H8.82617V12.0163H9.60234V11.6292Z" fill="#4B4BDD"/>
<path d="M17.7524 12.4034H14.2595V12.7905H17.7524V12.4034Z" fill="#FCA956"/>
<path d="M18.9167 13.5647H18.5286V21.3066H18.9167V13.5647Z" fill="#E2BC52"/>
<path d="M19.3048 13.5647H18.9167V21.3066H19.3048V13.5647Z" fill="#FCA956"/>
<path d="M8.8261 10.855H8.43799V13.1776H8.8261V10.855Z" fill="#FCA956"/>
<path d="M19.6925 21.3063V22.4676H17.752V22.0805H16.9758V13.9518H15.8115V12.7905H17.8684V13.1776H18.5282V21.3063H19.6925Z" fill="#FED955"/>
<path d="M18.1405 12.7905H17.7524V13.1776H18.1405V12.7905Z" fill="#FCA956"/>
<path d="M20.4691 22.4679H17.7524V22.855H20.4691V22.4679Z" fill="#E09251"/>
<path d="M17.7524 22.0808H17.3643V22.4679H17.7524V22.0808Z" fill="#E09251"/>
<path d="M18.5286 13.5647H17.7524V14.3389H18.5286V13.5647Z" fill="#FFF2BB"/>
<path d="M17.7524 14.3389H17.3643V14.726H17.7524V14.3389Z" fill="#FFF2BB"/>
<path d="M17.3642 14.726H16.9761V15.1131H17.3642V14.726Z" fill="#FFF2BB"/>
<path d="M18.1405 14.726H17.7524V15.1131H18.1405V14.726Z" fill="#FFF2BB"/>
<path d="M17.3642 13.9518H16.9761V14.3388H17.3642V13.9518Z" fill="#FFF2BB"/>
<path d="M16.9762 13.9518H16.5881V21.6937H16.9762V13.9518Z" fill="#FCA956"/>
<path d="M18.5285 13.1776H18.1404V13.5647H18.5285V13.1776Z" fill="#FCA956"/>
<path d="M11.5428 8.91956H10.7666V9.69373H11.5428V8.91956Z" fill="#FED955"/>
<path d="M20.4691 22.0808H19.6929V22.4679H20.4691V22.0808Z" fill="#FED955"/>
<path d="M16.9761 13.9518H15.8118V14.3388H16.9761V13.9518Z" fill="#FCA956"/>
<path d="M25.5143 21.3066H25.1262V21.6938H25.5143V21.3066Z" fill="#FCA956"/>
<path d="M24.35 22.4679H23.9619V26.7259H24.35V22.4679Z" fill="#FCA956"/>
<path d="M25.1261 27.113H24.738V27.5002H25.1261V27.113Z" fill="#E09251"/>
<path d="M11.9305 12.7905V13.9518H9.21378V13.1776H8.82568V10.855H9.98997V12.7905H11.9305Z" fill="#FED955"/>
<path d="M11.9309 13.9518H9.60229V14.3388H11.9309V13.9518Z" fill="#E09251"/>
<path d="M9.21426 13.1776H8.82617V13.5647H9.21426V13.1776Z" fill="#E09251"/>
<path d="M17.3642 21.6937H16.9761V22.0808H17.3642V21.6937Z" fill="#E09251"/>
<path d="M25.9025 21.6937H25.5144V22.0808H25.9025V21.6937Z" fill="#FCA956"/>
<path d="M9.60219 13.5647H9.21411V13.9518H9.60219V13.5647Z" fill="#E09251"/>
<path d="M25.9025 22.0808H25.5144V26.7259H25.9025V22.0808Z" fill="#FCA956"/>
<path d="M25.1261 26.3389H24.738V26.7259H25.1261V26.3389Z" fill="#E09251"/>
<path d="M10.7667 9.69373H9.99048V10.4679H10.7667V9.69373Z" fill="#FED955"/>
<path d="M11.1546 9.30664H10.3784V10.0808H11.1546V9.30664Z" fill="#FED955"/>
<path d="M10.7661 8.53198V9.30619H10.378V9.69329H9.98991V9.69174H9.60181V9.30464H9.98991V8.91908H10.378V8.53198H10.7661Z" fill="#FCA956"/>
<path d="M9.98996 9.69336V10.0808H9.60187V10.4679H9.21378V10.855H8.82568V10.0808H9.21533V9.69336H9.98996Z" fill="#FCA956"/>
<path d="M24.7382 26.7258H24.3501V27.1129H24.7382V26.7258Z" fill="#E09251"/>
<path d="M25.9021 26.3385V27.4998H24.7378V26.7256H24.3497V23.6289H23.9616V22.0805H23.5735V21.3063H25.1259V21.6934H25.514V26.3385H25.9021Z" fill="#FED955"/>
<path d="M25.9024 27.5002H25.1262V27.8873H25.9024V27.5002Z" fill="#FCA956"/>
<path d="M11.9305 8.91919V10.0809H11.5424V10.4679H11.1543V10.855H10.7662V11.2421H10.3781V11.6292H9.98999V10.855H10.3781V10.4679H10.7662V10.0809H11.1543V9.69337H11.5424V8.91919H11.9305Z" fill="#FCA956"/>
<path d="M20.4691 22.0808H17.7524V22.4679H20.4691V22.0808Z" fill="#E2BC52"/>
<path d="M11.9309 13.5647H9.60229V13.9518H11.9309V13.5647Z" fill="#E2BC52"/>
<path d="M10.3786 10.0808H9.99048V10.4679H10.3786V10.0808Z" fill="#FFF2BB"/>
<path d="M10.7665 9.69373H10.3784V10.0808H10.7665V9.69373Z" fill="#FFF2BB"/>
<path d="M9.99041 10.4679H9.60229V10.855H9.99041V10.4679Z" fill="#FFF2BB"/>
<path d="M17.3642 18.2098H16.9761V18.597H17.3642V18.2098Z" fill="#FFF2BB"/>
<path d="M18.1405 17.4357H17.7524V17.8228H18.1405V17.4357Z" fill="#FFF2BB"/>
<path d="M17.7524 17.8228H17.3643V18.2099H17.7524V17.8228Z" fill="#FFF2BB"/>
<path d="M18.5285 17.0486H18.1404V17.4357H18.5285V17.0486Z" fill="#FFF2BB"/>
<path d="M17.3642 18.9841H16.9761V19.3712H17.3642V18.9841Z" fill="#FFF2BB"/>
<path d="M18.1405 18.2098H17.7524V18.597H18.1405V18.2098Z" fill="#FFF2BB"/>
<path d="M17.7524 18.5969H17.3643V18.984H17.7524V18.5969Z" fill="#FFF2BB"/>
<path d="M18.5285 17.8228H18.1404V18.2099H18.5285V17.8228Z" fill="#FFF2BB"/>
<path d="M20.4691 18.2098H19.6929V18.9841H20.4691V18.2098Z" fill="#9695F8"/>
<path d="M21.2451 18.9841H20.469V19.7583H21.2451V18.9841Z" fill="#9695F8"/>
<path d="M22.7977 20.5325H22.0215V21.3066H22.7977V20.5325Z" fill="#9695F8"/>
<path d="M23.5738 21.3066H22.7976V22.0809H23.5738V21.3066Z" fill="#9695F8"/>
<path d="M23.9621 22.0808H23.574V22.855H23.9621V22.0808Z" fill="#9695F8"/>
<path d="M28.2311 25.9519H27.4548V26.726H28.2311V25.9519Z" fill="#9695F8"/>
<path d="M29.0072 26.7258H28.231V27.5001H29.0072V26.7258Z" fill="#9695F8"/>
<path d="M29.7835 27.5002H29.0073V28.2744H29.7835V27.5002Z" fill="#9695F8"/>
<path d="M22.0214 19.7582H21.2451V20.5324H22.0214V19.7582Z" fill="#9695F8"/>
<path d="M19.6928 17.4357H19.3047V18.2099H19.6928V17.4357Z" fill="#9695F8"/>
<path d="M27.4548 25.1775H26.6787V25.9517H27.4548V25.1775Z" fill="#9695F8"/>
<path d="M14.6476 15.1132H13.8713V15.5002H14.6476V15.1132Z" fill="#C7BA82"/>
<path d="M16.588 14.3389H15.8118V15.1131H16.588V14.3389Z" fill="#9695F8"/>
<path d="M14.2596 12.0164H13.4834V12.7905H14.2596V12.0164Z" fill="#9695F8"/>
<path d="M13.4833 11.2422H12.707V12.0164H13.4833V11.2422Z" fill="#9695F8"/>
<path d="M24.7382 22.855H24.3501V23.242H24.7382V22.855Z" fill="#FFF2BB"/>
<path d="M25.5143 22.0808H25.1262V22.4679H25.5143V22.0808Z" fill="#FFF2BB"/>
<path d="M25.1261 22.4679H24.738V22.855H25.1261V22.4679Z" fill="#FFF2BB"/>
<path d="M25.5143 22.855H25.1262V23.242H25.5143V22.855Z" fill="#FFF2BB"/>
<path d="M25.1261 23.2422H24.738V23.6293H25.1261V23.2422Z" fill="#FFF2BB"/>
<path d="M24.7382 23.6292H24.3501V24.0162H24.7382V23.6292Z" fill="#FFF2BB"/>
<path d="M25.1261 27.113H24.738V27.5002H25.1261V27.113Z" fill="#E09251"/>
<rect x="2.63892" y="13.9777" width="0.931436" height="0.929035" fill="#FED955"/>
<rect x="2.63892" y="18.6228" width="0.931436" height="0.929035" fill="#FED955"/>
<rect x="6.36475" y="15.8357" width="0.929038" height="0.931435" transform="rotate(90 6.36475 15.8357)" fill="#FED955"/>
<rect x="1.70752" y="15.8357" width="0.929038" height="0.931436" transform="rotate(90 1.70752 15.8357)" fill="#FED955"/>
<rect x="2.63892" y="15.8357" width="0.931436" height="0.929039" fill="#FED955"/>
<rect x="2.63892" y="16.7648" width="0.931436" height="0.929035" fill="#FED955"/>
<rect x="1.70752" y="14.9066" width="0.931436" height="0.929031" fill="#FED955"/>
<rect x="1.70752" y="17.6937" width="0.931436" height="0.929034" fill="#FED955"/>
<rect x="4.50195" y="14.9066" width="0.931436" height="0.929031" fill="#FED955"/>
<rect x="4.50195" y="17.6937" width="0.931436" height="0.929034" fill="#FED955"/>
<rect x="2.63892" y="14.9066" width="0.931436" height="0.929031" fill="#E09251"/>
<rect x="2.63892" y="17.6937" width="0.931436" height="0.929034" fill="#E09251"/>
<rect x="2.63892" y="15.8357" width="0.929038" height="0.931435" transform="rotate(90 2.63892 15.8357)" fill="#E09251"/>
<rect x="5.43335" y="15.8357" width="0.929038" height="0.931435" transform="rotate(90 5.43335 15.8357)" fill="#E09251"/>
<rect x="3.57031" y="13.9777" width="0.931436" height="0.929035" fill="#FED955"/>
<rect x="3.57031" y="18.6228" width="0.931436" height="0.929035" fill="#FED955"/>
<rect x="6.36475" y="16.7648" width="0.929041" height="0.931435" transform="rotate(90 6.36475 16.7648)" fill="#FED955"/>
<rect x="1.70752" y="16.7648" width="0.929041" height="0.931436" transform="rotate(90 1.70752 16.7648)" fill="#FED955"/>
<rect x="3.57031" y="15.8357" width="0.931436" height="0.929039" fill="#FED955"/>
<rect x="3.57031" y="16.7648" width="0.931436" height="0.929035" fill="#FED955"/>
<rect x="3.57031" y="14.9066" width="0.931436" height="0.929031" fill="#E09251"/>
<rect x="3.57031" y="17.6937" width="0.931436" height="0.929034" fill="#E09251"/>
<rect x="2.63892" y="16.7648" width="0.929041" height="0.931435" transform="rotate(90 2.63892 16.7648)" fill="#E09251"/>
<rect x="5.43335" y="16.7648" width="0.929041" height="0.931435" transform="rotate(90 5.43335 16.7648)" fill="#E09251"/>
<rect x="11.4487" y="22.6873" width="0.931431" height="0.929035" fill="#FED955"/>
<rect x="11.4487" y="27.3323" width="0.931431" height="0.929035" fill="#FED955"/>
<rect x="15.1746" y="24.5452" width="0.929038" height="0.93143" transform="rotate(90 15.1746 24.5452)" fill="#FED955"/>
<rect x="10.5173" y="24.5452" width="0.929038" height="0.931431" transform="rotate(90 10.5173 24.5452)" fill="#FED955"/>
<rect x="11.4487" y="24.5452" width="0.931431" height="0.929039" fill="#FED955"/>
<rect x="11.4487" y="25.4744" width="0.931431" height="0.929035" fill="#FED955"/>
<rect x="10.5173" y="23.6162" width="0.931431" height="0.929031" fill="#FED955"/>
<rect x="10.5173" y="26.4033" width="0.931431" height="0.929035" fill="#FED955"/>
<rect x="13.3118" y="23.6162" width="0.931431" height="0.929031" fill="#FED955"/>
<rect x="13.3118" y="26.4033" width="0.931431" height="0.929035" fill="#FED955"/>
<rect x="11.4487" y="23.6162" width="0.931431" height="0.929031" fill="#E09251"/>
<rect x="11.4487" y="26.4033" width="0.931431" height="0.929035" fill="#E09251"/>
<rect x="11.4487" y="24.5452" width="0.929038" height="0.93143" transform="rotate(90 11.4487 24.5452)" fill="#E09251"/>
<rect x="14.2432" y="24.5452" width="0.929038" height="0.93143" transform="rotate(90 14.2432 24.5452)" fill="#E09251"/>
<rect x="12.3801" y="22.6873" width="0.931431" height="0.929035" fill="#FED955"/>
<rect x="12.3801" y="27.3323" width="0.931431" height="0.929035" fill="#FED955"/>
<rect x="15.1746" y="25.4744" width="0.929042" height="0.93143" transform="rotate(90 15.1746 25.4744)" fill="#FED955"/>
<rect x="10.5173" y="25.4744" width="0.929042" height="0.931431" transform="rotate(90 10.5173 25.4744)" fill="#FED955"/>
<rect x="12.3801" y="24.5452" width="0.931431" height="0.929039" fill="#FED955"/>
<rect x="12.3801" y="25.4744" width="0.931431" height="0.929035" fill="#FED955"/>
<rect x="12.3801" y="23.6162" width="0.931431" height="0.929031" fill="#E09251"/>
<rect x="12.3801" y="26.4033" width="0.931431" height="0.929035" fill="#E09251"/>
<rect x="11.4487" y="25.4744" width="0.929042" height="0.93143" transform="rotate(90 11.4487 25.4744)" fill="#E09251"/>
<rect x="14.2432" y="25.4744" width="0.929042" height="0.93143" transform="rotate(90 14.2432 25.4744)" fill="#E09251"/>
<rect x="17.8914" y="2.71313" width="0.931438" height="0.929032" fill="#FED955"/>
<rect x="17.8914" y="7.35828" width="0.931438" height="0.929032" fill="#FED955"/>
<rect x="21.6172" y="4.57117" width="0.929035" height="0.931437" transform="rotate(90 21.6172 4.57117)" fill="#FED955"/>
<rect x="16.96" y="4.57117" width="0.929035" height="0.931438" transform="rotate(90 16.96 4.57117)" fill="#FED955"/>
<rect x="17.8914" y="4.57117" width="0.931438" height="0.929036" fill="#FED955"/>
<rect x="17.8914" y="5.50012" width="0.931438" height="0.929032" fill="#FED955"/>
<rect x="16.96" y="3.64209" width="0.931438" height="0.929029" fill="#FED955"/>
<rect x="16.96" y="6.4292" width="0.931438" height="0.929032" fill="#FED955"/>
<rect x="19.7544" y="3.64209" width="0.931438" height="0.929029" fill="#FED955"/>
<rect x="19.7544" y="6.4292" width="0.931438" height="0.929032" fill="#FED955"/>
<rect x="17.8914" y="3.64209" width="0.931438" height="0.929029" fill="#E09251"/>
<rect x="17.8914" y="6.4292" width="0.931438" height="0.929032" fill="#E09251"/>
<rect x="17.8914" y="4.57117" width="0.929035" height="0.931437" transform="rotate(90 17.8914 4.57117)" fill="#E09251"/>
<rect x="20.6858" y="4.57117" width="0.929035" height="0.931437" transform="rotate(90 20.6858 4.57117)" fill="#E09251"/>
<rect x="18.823" y="2.71313" width="0.931438" height="0.929032" fill="#FED955"/>
<rect x="18.823" y="7.35828" width="0.931438" height="0.929032" fill="#FED955"/>
<rect x="21.6172" y="5.50012" width="0.929039" height="0.931437" transform="rotate(90 21.6172 5.50012)" fill="#FED955"/>
<rect x="16.96" y="5.50012" width="0.929039" height="0.931438" transform="rotate(90 16.96 5.50012)" fill="#FED955"/>
<rect x="18.823" y="4.57117" width="0.931438" height="0.929036" fill="#FED955"/>
<rect x="18.823" y="5.50012" width="0.931438" height="0.929032" fill="#FED955"/>
<rect x="18.823" y="3.64209" width="0.931438" height="0.929029" fill="#E09251"/>
<rect x="18.823" y="6.4292" width="0.931438" height="0.929032" fill="#E09251"/>
<rect x="17.8914" y="5.50012" width="0.929039" height="0.931437" transform="rotate(90 17.8914 5.50012)" fill="#E09251"/>
<rect x="20.6858" y="5.50012" width="0.929039" height="0.931437" transform="rotate(90 20.6858 5.50012)" fill="#E09251"/>
</g>
<defs>
<clipPath id="clip0_2188_12776">
<rect width="30" height="30" fill="white"/>
</clipPath>
</defs>
</svg>
