<svg width="232" height="232" viewBox="0 0 232 232" fill="none" xmlns="http://www.w3.org/2000/svg">
<rect x="14.0606" width="7.0303" height="7.0303" fill="#A4A0C0"/>
<rect x="7.0303" y="14.0605" width="7.0303" height="7.0303" transform="rotate(90 7.0303 14.0605)" fill="#A4A0C0"/>
<rect x="14.0606" y="7.03027" width="7.0303" height="7.0303" fill="#CA8D3B"/>
<rect x="14.0606" y="14.0605" width="7.0303" height="7.0303" fill="#FED955"/>
<rect x="21.0909" y="21.0909" width="7.0303" height="7.0303" fill="#FED955"/>
<rect x="14.0606" y="28.1212" width="7.0303" height="7.0303" fill="#FED955"/>
<rect x="35.1515" y="70.303" width="7.0303" height="7.0303" fill="#9A7457"/>
<rect x="77.3333" y="91.3939" width="7.0303" height="7.0303" transform="rotate(90 77.3333 91.3939)" fill="#9A7457"/>
<rect x="35.1515" y="77.3334" width="7.0303" height="7.0303" fill="#A4A0C0"/>
<rect x="21.0909" y="105.455" width="7.0303" height="7.0303" fill="#FED955"/>
<rect x="21.0909" y="140.606" width="7.0303" height="7.0303" fill="#FED955"/>
<rect x="49.2121" y="119.515" width="7.0303" height="7.0303" transform="rotate(90 49.2121 119.515)" fill="#FED955"/>
<rect x="14.0606" y="119.515" width="7.0303" height="7.0303" transform="rotate(90 14.0606 119.515)" fill="#FED955"/>
<rect x="21.0909" y="119.515" width="7.0303" height="7.0303" fill="#FED955"/>
<rect x="21.0909" y="126.546" width="7.0303" height="7.0303" fill="#FED955"/>
<rect x="14.0606" y="112.485" width="7.0303" height="7.0303" fill="#FED955"/>
<rect x="14.0606" y="133.576" width="7.0303" height="7.0303" fill="#FED955"/>
<rect x="35.1515" y="112.485" width="7.0303" height="7.0303" fill="#FED955"/>
<rect x="35.1515" y="133.576" width="7.0303" height="7.0303" fill="#FED955"/>
<rect x="21.0909" y="112.485" width="7.0303" height="7.0303" fill="#CA8D3B"/>
<rect x="21.0909" y="133.576" width="7.0303" height="7.0303" fill="#CA8D3B"/>
<rect x="21.0909" y="119.515" width="7.0303" height="7.0303" transform="rotate(90 21.0909 119.515)" fill="#CA8D3B"/>
<rect x="42.1818" y="119.515" width="7.0303" height="7.0303" transform="rotate(90 42.1818 119.515)" fill="#CA8D3B"/>
<rect x="28.1212" y="105.455" width="7.0303" height="7.0303" fill="#FED955"/>
<rect x="28.1212" y="140.606" width="7.0303" height="7.0303" fill="#FED955"/>
<rect x="49.2121" y="126.546" width="7.0303" height="7.0303" transform="rotate(90 49.2121 126.546)" fill="#FED955"/>
<rect x="14.0606" y="126.546" width="7.0303" height="7.0303" transform="rotate(90 14.0606 126.546)" fill="#FED955"/>
<rect x="28.1212" y="119.515" width="7.0303" height="7.0303" fill="#FED955"/>
<rect x="28.1212" y="126.546" width="7.0303" height="7.0303" fill="#FED955"/>
<rect x="28.1212" y="112.485" width="7.0303" height="7.0303" fill="#CA8D3B"/>
<rect x="28.1212" y="133.576" width="7.0303" height="7.0303" fill="#CA8D3B"/>
<rect x="21.0909" y="126.546" width="7.0303" height="7.0303" transform="rotate(90 21.0909 126.546)" fill="#CA8D3B"/>
<rect x="42.1818" y="126.546" width="7.0303" height="7.0303" transform="rotate(90 42.1818 126.546)" fill="#CA8D3B"/>
<rect x="112.485" y="35.1515" width="7.0303" height="7.0303" fill="#FED955"/>
<rect x="112.485" y="70.303" width="7.0303" height="7.0303" fill="#FED955"/>
<rect x="140.606" y="49.212" width="7.0303" height="7.0303" transform="rotate(90 140.606 49.212)" fill="#FED955"/>
<rect x="105.455" y="49.212" width="7.0303" height="7.0303" transform="rotate(90 105.455 49.212)" fill="#FED955"/>
<rect x="112.485" y="49.212" width="7.0303" height="7.0303" fill="#FED955"/>
<rect x="112.485" y="56.2424" width="7.0303" height="7.0303" fill="#FED955"/>
<rect x="105.455" y="42.1818" width="7.0303" height="7.0303" fill="#FED955"/>
<rect x="105.455" y="63.2727" width="7.0303" height="7.0303" fill="#FED955"/>
<rect x="126.545" y="42.1818" width="7.0303" height="7.0303" fill="#FED955"/>
<rect x="126.545" y="63.2727" width="7.0303" height="7.0303" fill="#FED955"/>
<rect x="112.485" y="42.1818" width="7.0303" height="7.0303" fill="#CA8D3B"/>
<rect x="112.485" y="63.2727" width="7.0303" height="7.0303" fill="#CA8D3B"/>
<rect x="112.485" y="49.212" width="7.0303" height="7.0303" transform="rotate(90 112.485 49.212)" fill="#CA8D3B"/>
<rect x="133.576" y="49.212" width="7.0303" height="7.0303" transform="rotate(90 133.576 49.212)" fill="#CA8D3B"/>
<rect x="119.515" y="35.1515" width="7.0303" height="7.0303" fill="#FED955"/>
<rect x="119.515" y="70.303" width="7.0303" height="7.0303" fill="#FED955"/>
<rect x="140.606" y="56.2424" width="7.0303" height="7.0303" transform="rotate(90 140.606 56.2424)" fill="#FED955"/>
<rect x="105.455" y="56.2424" width="7.0303" height="7.0303" transform="rotate(90 105.455 56.2424)" fill="#FED955"/>
<rect x="119.515" y="49.212" width="7.0303" height="7.0303" fill="#FED955"/>
<rect x="119.515" y="56.2424" width="7.0303" height="7.0303" fill="#FED955"/>
<rect x="119.515" y="42.1818" width="7.0303" height="7.0303" fill="#CA8D3B"/>
<rect x="119.515" y="63.2727" width="7.0303" height="7.0303" fill="#CA8D3B"/>
<rect x="112.485" y="56.2424" width="7.0303" height="7.0303" transform="rotate(90 112.485 56.2424)" fill="#CA8D3B"/>
<rect x="133.576" y="56.2424" width="7.0303" height="7.0303" transform="rotate(90 133.576 56.2424)" fill="#CA8D3B"/>
<rect x="103.697" y="172.242" width="7.0303" height="7.0303" fill="#FED955"/>
<rect x="103.697" y="207.394" width="7.0303" height="7.0303" fill="#FED955"/>
<rect x="131.818" y="186.303" width="7.0303" height="7.0303" transform="rotate(90 131.818 186.303)" fill="#FED955"/>
<rect x="96.6667" y="186.303" width="7.0303" height="7.0303" transform="rotate(90 96.6667 186.303)" fill="#FED955"/>
<rect x="103.697" y="186.303" width="7.0303" height="7.0303" fill="#FED955"/>
<rect x="103.697" y="193.333" width="7.0303" height="7.0303" fill="#FED955"/>
<rect x="96.6667" y="179.273" width="7.0303" height="7.0303" fill="#FED955"/>
<rect x="96.6667" y="200.364" width="7.0303" height="7.03031" fill="#FED955"/>
<rect x="117.758" y="179.273" width="7.0303" height="7.0303" fill="#FED955"/>
<rect x="117.758" y="200.364" width="7.0303" height="7.03031" fill="#FED955"/>
<rect x="103.697" y="179.273" width="7.0303" height="7.0303" fill="#CA8D3B"/>
<rect x="103.697" y="200.364" width="7.0303" height="7.03031" fill="#CA8D3B"/>
<rect x="103.697" y="186.303" width="7.0303" height="7.0303" transform="rotate(90 103.697 186.303)" fill="#CA8D3B"/>
<rect x="124.788" y="186.303" width="7.0303" height="7.0303" transform="rotate(90 124.788 186.303)" fill="#CA8D3B"/>
<rect x="110.727" y="172.242" width="7.0303" height="7.0303" fill="#FED955"/>
<rect x="110.727" y="207.394" width="7.0303" height="7.0303" fill="#FED955"/>
<rect x="131.818" y="193.333" width="7.0303" height="7.0303" transform="rotate(90 131.818 193.333)" fill="#FED955"/>
<rect x="96.6667" y="193.333" width="7.0303" height="7.0303" transform="rotate(90 96.6667 193.333)" fill="#FED955"/>
<rect x="110.727" y="186.303" width="7.0303" height="7.0303" fill="#FED955"/>
<rect x="110.727" y="193.333" width="7.0303" height="7.0303" fill="#FED955"/>
<rect x="110.727" y="179.273" width="7.0303" height="7.0303" fill="#CA8D3B"/>
<rect x="110.727" y="200.364" width="7.0303" height="7.03031" fill="#CA8D3B"/>
<rect x="103.697" y="193.333" width="7.0303" height="7.0303" transform="rotate(90 103.697 193.333)" fill="#CA8D3B"/>
<rect x="124.788" y="193.333" width="7.0303" height="7.0303" transform="rotate(90 124.788 193.333)" fill="#CA8D3B"/>
<rect x="42.1818" y="70.303" width="7.0303" height="7.0303" fill="#9A7457"/>
<rect x="77.3333" y="98.4242" width="7.0303" height="7.0303" transform="rotate(90 77.3333 98.4242)" fill="#9A7457"/>
<rect x="42.1818" y="77.3334" width="7.0303" height="7.0303" fill="#A4A0C0"/>
<rect x="49.2121" y="70.303" width="7.0303" height="7.0303" fill="#9A7457"/>
<rect x="77.3333" y="105.455" width="7.0303" height="7.0303" transform="rotate(90 77.3333 105.455)" fill="#9A7457"/>
<rect x="56.2424" y="70.303" width="7.0303" height="7.0303" fill="#9A7457"/>
<rect x="49.2121" y="77.3334" width="7.0303" height="7.0303" fill="#A4A0C0"/>
<rect x="56.2424" y="77.3334" width="7.0303" height="7.0303" fill="#A4A0C0"/>
<rect x="63.2727" y="77.3334" width="7.0303" height="7.0303" fill="#A4A0C0"/>
<rect x="70.303" y="56.2424" width="7.0303" height="7.0303" fill="#9A7457"/>
<rect x="63.2727" y="56.2424" width="7.0303" height="7.0303" fill="#525396"/>
<rect x="21.0909" y="28.1212" width="7.0303" height="7.0303" fill="#CA8D3B"/>
<rect x="28.1212" y="28.1212" width="7.0303" height="7.0303" fill="#CA8D3B"/>
<rect x="28.1212" y="21.0909" width="7.0303" height="7.0303" fill="#CA8D3B"/>
<rect x="28.1212" y="14.0605" width="7.0303" height="7.0303" fill="#FED955"/>
<rect x="14.0606" y="14.0605" width="7.0303" height="7.0303" transform="rotate(90 14.0606 14.0605)" fill="#CA8D3B"/>
<rect x="21.0909" width="7.0303" height="7.0303" fill="#A4A0C0"/>
<rect x="7.0303" y="21.0909" width="7.0303" height="7.0303" transform="rotate(90 7.0303 21.0909)" fill="#A4A0C0"/>
<rect x="14.0606" y="35.1515" width="7.0303" height="7.0303" transform="rotate(90 14.0606 35.1515)" fill="#A4A0C0"/>
<rect x="21.0909" y="35.1515" width="7.0303" height="7.0303" transform="rotate(90 21.0909 35.1515)" fill="#525396"/>
<rect x="42.1818" y="21.0909" width="7.0303" height="7.0303" transform="rotate(-180 42.1818 21.0909)" fill="#525396"/>
<rect x="49.2121" y="21.0909" width="7.0303" height="7.0303" transform="rotate(-180 49.2121 21.0909)" fill="#525396"/>
<rect x="56.2424" y="28.1212" width="7.0303" height="7.0303" transform="rotate(-180 56.2424 28.1212)" fill="#525396"/>
<rect x="56.2424" y="35.1515" width="7.0303" height="7.0303" transform="rotate(-180 56.2424 35.1515)" fill="#525396"/>
<rect x="56.2424" y="42.1818" width="7.0303" height="7.0303" transform="rotate(-180 56.2424 42.1818)" fill="#525396"/>
<rect x="63.2727" y="63.2727" width="7.0303" height="7.0303" transform="rotate(-180 63.2727 63.2727)" fill="#6164AF"/>
<rect x="77.3333" y="77.3334" width="7.0303" height="7.0303" transform="rotate(-180 77.3333 77.3334)" fill="#6164AF"/>
<rect x="91.3939" y="91.3939" width="7.0303" height="7.0303" transform="rotate(-180 91.3939 91.3939)" fill="#A4A0C0"/>
<rect x="105.455" y="105.455" width="7.0303" height="7.03031" transform="rotate(-180 105.455 105.455)" fill="#A4A0C0"/>
<rect x="119.515" y="119.515" width="7.0303" height="7.0303" transform="rotate(-180 119.515 119.515)" fill="#A4A0C0"/>
<rect x="126.545" y="133.576" width="7.0303" height="7.0303" transform="rotate(-180 126.545 133.576)" fill="#9A7457"/>
<rect x="70.303" y="70.303" width="7.0303" height="7.0303" transform="rotate(-180 70.303 70.303)" fill="#6164AF"/>
<rect x="84.3636" y="84.3636" width="7.0303" height="7.0303" transform="rotate(-180 84.3636 84.3636)" fill="#6164AF"/>
<rect x="98.4243" y="98.4242" width="7.0303" height="7.0303" transform="rotate(-180 98.4243 98.4242)" fill="#A4A0C0"/>
<rect x="112.485" y="112.485" width="7.0303" height="7.0303" transform="rotate(-180 112.485 112.485)" fill="#A4A0C0"/>
<rect x="126.545" y="126.545" width="7.0303" height="7.0303" transform="rotate(-180 126.545 126.545)" fill="#A4A0C0"/>
<rect x="28.1212" y="35.1515" width="7.0303" height="7.0303" transform="rotate(90 28.1212 35.1515)" fill="#525396"/>
<rect x="42.1818" y="28.1212" width="7.0303" height="7.0303" transform="rotate(-180 42.1818 28.1212)" fill="#525396"/>
<rect x="35.1515" y="35.1515" width="7.0303" height="7.0303" transform="rotate(90 35.1515 35.1515)" fill="#525396"/>
<rect x="42.1818" y="35.1515" width="7.0303" height="7.0303" transform="rotate(-180 42.1818 35.1515)" fill="#525396"/>
<rect x="63.2727" y="49.2122" width="7.0303" height="7.03031" transform="rotate(-180 63.2727 49.2122)" fill="#525396"/>
<rect x="63.2727" y="56.2424" width="7.0303" height="7.0303" transform="rotate(-180 63.2727 56.2424)" fill="#525396"/>
<rect x="77.3333" y="70.303" width="7.0303" height="7.0303" transform="rotate(-180 77.3333 70.303)" fill="#525396"/>
<rect x="84.3636" y="77.3334" width="7.0303" height="7.0303" transform="rotate(-180 84.3636 77.3334)" fill="#525396"/>
<rect x="84.3636" y="70.303" width="7.0303" height="7.0303" transform="rotate(-180 84.3636 70.303)" fill="#FED955"/>
<rect x="91.3939" y="84.3636" width="7.0303" height="7.0303" transform="rotate(-180 91.3939 84.3636)" fill="#525396"/>
<rect x="98.4243" y="91.3939" width="7.0303" height="7.0303" transform="rotate(-180 98.4243 91.3939)" fill="#525396"/>
<rect x="91.3939" y="98.4242" width="7.0303" height="7.0303" transform="rotate(-180 91.3939 98.4242)" fill="#525396"/>
<rect x="98.4243" y="105.455" width="7.0303" height="7.03031" transform="rotate(-180 98.4243 105.455)" fill="#525396"/>
<rect x="112.485" y="105.455" width="7.0303" height="7.03031" transform="rotate(-180 112.485 105.455)" fill="#525396"/>
<rect x="105.455" y="112.485" width="7.0303" height="7.0303" transform="rotate(-180 105.455 112.485)" fill="#525396"/>
<rect x="112.485" y="119.515" width="7.0303" height="7.0303" transform="rotate(-180 112.485 119.515)" fill="#525396"/>
<rect x="210.909" y="217.939" width="7.03032" height="7.03029" transform="rotate(-180 210.909 217.939)" fill="#3C418D"/>
<rect x="210.909" y="224.97" width="7.03032" height="7.0303" transform="rotate(-180 210.909 224.97)" fill="#A4A0C0"/>
<rect x="217.939" y="210.909" width="7.03032" height="7.0303" transform="rotate(-90 217.939 210.909)" fill="#A4A0C0"/>
<rect x="210.909" y="203.879" width="7.03029" height="7.03029" transform="rotate(-90 210.909 203.879)" fill="#A4A0C0"/>
<rect x="203.879" y="196.849" width="7.03032" height="7.03032" transform="rotate(-90 203.879 196.849)" fill="#A4A0C0"/>
<rect x="196.848" y="189.818" width="7.03029" height="7.03029" transform="rotate(-90 196.848 189.818)" fill="#A4A0C0"/>
<rect x="189.818" y="182.788" width="7.03032" height="7.03032" transform="rotate(-90 189.818 182.788)" fill="#A4A0C0"/>
<rect x="182.788" y="175.758" width="7.03029" height="7.03029" transform="rotate(-90 182.788 175.758)" fill="#A4A0C0"/>
<rect x="175.758" y="168.727" width="7.03032" height="7.03032" transform="rotate(-90 175.758 168.727)" fill="#A4A0C0"/>
<rect x="196.848" y="217.939" width="7.03029" height="7.03029" transform="rotate(-90 196.848 217.939)" fill="#A4A0C0"/>
<rect x="189.818" y="210.909" width="7.03032" height="7.03032" transform="rotate(-90 189.818 210.909)" fill="#9A7457"/>
<rect x="189.818" y="217.939" width="7.03029" height="7.03032" transform="rotate(-90 189.818 217.939)" fill="#A4A0C0"/>
<rect x="182.788" y="217.939" width="7.03029" height="7.03029" transform="rotate(-90 182.788 217.939)" fill="#A4A0C0"/>
<rect x="182.788" y="210.909" width="7.03032" height="7.03029" transform="rotate(-90 182.788 210.909)" fill="#9A7457"/>
<rect x="175.758" y="210.909" width="7.03032" height="7.03032" transform="rotate(-90 175.758 210.909)" fill="#A4A0C0"/>
<rect x="175.758" y="203.879" width="7.03029" height="7.03032" transform="rotate(-90 175.758 203.879)" fill="#9A7457"/>
<rect x="168.727" y="196.849" width="7.03032" height="7.03029" transform="rotate(-90 168.727 196.849)" fill="#9A7457"/>
<rect x="161.697" y="203.879" width="7.03029" height="7.03032" transform="rotate(-90 161.697 203.879)" fill="#A4A0C0"/>
<rect x="168.727" y="203.879" width="7.03029" height="7.03029" transform="rotate(-90 168.727 203.879)" fill="#A4A0C0"/>
<rect x="154.667" y="203.879" width="7.03029" height="7.03029" transform="rotate(-90 154.667 203.879)" fill="#A4A0C0"/>
<rect x="147.636" y="196.849" width="7.03032" height="7.0303" transform="rotate(-90 147.636 196.849)" fill="#A4A0C0"/>
<rect x="140.606" y="189.818" width="7.03029" height="7.0303" transform="rotate(-90 140.606 189.818)" fill="#A4A0C0"/>
<rect x="217.939" y="217.939" width="7.03029" height="7.03029" transform="rotate(-180 217.939 217.939)" fill="#6767AB"/>
<rect x="217.939" y="224.97" width="7.03029" height="7.0303" transform="rotate(-180 217.939 224.97)" fill="#3C418D"/>
<rect x="224.97" y="224.97" width="7.0303" height="7.0303" transform="rotate(-180 224.97 224.97)" fill="#3C418D"/>
<rect x="217.939" y="232" width="7.03029" height="7.0303" transform="rotate(-180 217.939 232)" fill="#A4A0C0"/>
<rect x="224.97" y="217.939" width="7.03029" height="7.0303" transform="rotate(-90 224.97 217.939)" fill="#A4A0C0"/>
<rect x="224.97" y="232" width="7.0303" height="7.0303" transform="rotate(-180 224.97 232)" fill="#A4A0C0"/>
<rect x="224.97" y="224.97" width="7.0303" height="7.0303" transform="rotate(-90 224.97 224.97)" fill="#A4A0C0"/>
<rect x="217.939" y="217.939" width="7.03029" height="7.0303" transform="rotate(-90 217.939 217.939)" fill="#3C418D"/>
<rect x="210.909" y="210.909" width="7.03032" height="7.03032" transform="rotate(-180 210.909 210.909)" fill="#6767AB"/>
<rect x="203.879" y="203.879" width="7.03029" height="7.03029" transform="rotate(-180 203.879 203.879)" fill="#6767AB"/>
<rect x="196.848" y="196.849" width="7.03032" height="7.03032" transform="rotate(-180 196.848 196.849)" fill="#6767AB"/>
<rect x="189.818" y="189.818" width="7.03029" height="7.03029" transform="rotate(-180 189.818 189.818)" fill="#6767AB"/>
<rect x="182.788" y="182.788" width="7.03032" height="7.03032" transform="rotate(-180 182.788 182.788)" fill="#6767AB"/>
<rect x="175.758" y="175.758" width="7.03029" height="7.03029" transform="rotate(-180 175.758 175.758)" fill="#6767AB"/>
<rect x="175.758" y="168.727" width="7.03029" height="7.03032" transform="rotate(-180 175.758 168.727)" fill="#3C418D"/>
<rect x="175.758" y="182.788" width="7.03029" height="7.03032" transform="rotate(-180 175.758 182.788)" fill="#3C418D"/>
<rect x="182.788" y="175.758" width="7.03032" height="7.03029" transform="rotate(-180 182.788 175.758)" fill="#3C418D"/>
<rect x="217.939" y="210.909" width="7.03029" height="7.03032" transform="rotate(-180 217.939 210.909)" fill="#3C418D"/>
<rect x="210.909" y="203.879" width="7.03032" height="7.03029" transform="rotate(-180 210.909 203.879)" fill="#3C418D"/>
<rect x="203.879" y="196.849" width="7.03029" height="7.03032" transform="rotate(-180 203.879 196.849)" fill="#3C418D"/>
<rect x="196.848" y="189.818" width="7.03032" height="7.03029" transform="rotate(-180 196.848 189.818)" fill="#3C418D"/>
<rect x="189.818" y="182.788" width="7.03029" height="7.03032" transform="rotate(-180 189.818 182.788)" fill="#3C418D"/>
<rect x="196.848" y="203.879" width="7.03032" height="7.03029" transform="rotate(-180 196.848 203.879)" fill="#3C418D"/>
<rect x="189.818" y="196.849" width="7.03029" height="7.03032" transform="rotate(-180 189.818 196.849)" fill="#3C418D"/>
<rect x="182.788" y="189.818" width="7.03032" height="7.03029" transform="rotate(-180 182.788 189.818)" fill="#3C418D"/>
<rect x="203.879" y="210.909" width="7.03029" height="7.03032" transform="rotate(-180 203.879 210.909)" fill="#3C418D"/>
<rect x="119.515" y="126.545" width="7.0303" height="7.0303" transform="rotate(-180 119.515 126.545)" fill="#525396"/>
<rect x="126.545" y="119.515" width="7.0303" height="7.0303" transform="rotate(-180 126.545 119.515)" fill="#525396"/>
<rect x="133.576" y="126.545" width="7.0303" height="7.0303" transform="rotate(-180 133.576 126.545)" fill="#525396"/>
<rect x="133.576" y="140.606" width="7.0303" height="7.0303" transform="rotate(-180 133.576 140.606)" fill="#525396"/>
<rect x="140.606" y="147.636" width="7.0303" height="7.0303" transform="rotate(-180 140.606 147.636)" fill="#525396"/>
<rect x="147.636" y="154.667" width="7.0303" height="7.0303" transform="rotate(-180 147.636 154.667)" fill="#525396"/>
<rect x="140.606" y="133.576" width="7.0303" height="7.0303" transform="rotate(-180 140.606 133.576)" fill="#525396"/>
<rect x="147.636" y="140.606" width="7.0303" height="7.0303" transform="rotate(-180 147.636 140.606)" fill="#525396"/>
<rect x="133.576" y="147.636" width="7.0303" height="7.0303" transform="rotate(-180 133.576 147.636)" fill="#A4A0C0"/>
<rect x="140.606" y="154.667" width="7.0303" height="7.0303" transform="rotate(-180 140.606 154.667)" fill="#A4A0C0"/>
<rect x="147.636" y="161.697" width="7.0303" height="7.03029" transform="rotate(-180 147.636 161.697)" fill="#A4A0C0"/>
<rect x="147.636" y="175.758" width="7.0303" height="7.03029" transform="rotate(-180 147.636 175.758)" fill="#A4A0C0"/>
<rect x="147.636" y="168.727" width="7.0303" height="7.03032" transform="rotate(-180 147.636 168.727)" fill="#A4A0C0"/>
<rect x="147.636" y="182.788" width="7.0303" height="7.03032" transform="rotate(-180 147.636 182.788)" fill="#A4A0C0"/>
<rect x="133.576" y="133.576" width="7.0303" height="7.0303" transform="rotate(-180 133.576 133.576)" fill="#6767AB"/>
<rect x="140.606" y="140.606" width="7.0303" height="7.0303" transform="rotate(-180 140.606 140.606)" fill="#6767AB"/>
<rect x="147.636" y="147.636" width="7.0303" height="7.0303" transform="rotate(-180 147.636 147.636)" fill="#6767AB"/>
<rect x="119.515" y="112.485" width="7.0303" height="7.0303" transform="rotate(-180 119.515 112.485)" fill="#525396"/>
<rect x="84.3636" y="91.3939" width="7.0303" height="7.0303" transform="rotate(-180 84.3636 91.3939)" fill="#525396"/>
<rect x="77.3333" y="84.3636" width="7.0303" height="7.0303" transform="rotate(-180 77.3333 84.3636)" fill="#525396"/>
<rect x="70.303" y="77.3334" width="7.0303" height="7.0303" transform="rotate(-180 70.303 77.3334)" fill="#525396"/>
<rect x="63.2727" y="70.303" width="7.0303" height="7.0303" transform="rotate(-180 63.2727 70.303)" fill="#525396"/>
<rect x="105.455" y="98.4242" width="7.0303" height="7.0303" transform="rotate(-180 105.455 98.4242)" fill="#525396"/>
<rect x="21.0909" y="42.1818" width="7.0303" height="7.0303" transform="rotate(90 21.0909 42.1818)" fill="#525396"/>
<rect x="28.1212" y="49.2122" width="7.0303" height="7.0303" transform="rotate(90 28.1212 49.2122)" fill="#525396"/>
<rect x="35.1515" y="49.2122" width="7.0303" height="7.0303" transform="rotate(90 35.1515 49.2122)" fill="#525396"/>
<rect x="42.1818" y="49.2122" width="7.0303" height="7.0303" transform="rotate(90 42.1818 49.2122)" fill="#525396"/>
<rect x="42.1818" y="42.1818" width="7.0303" height="7.0303" transform="rotate(90 42.1818 42.1818)" fill="#5D5D9C"/>
<rect x="49.2121" y="35.1515" width="7.0303" height="7.0303" transform="rotate(90 49.2121 35.1515)" fill="#5D5D9C"/>
<rect x="21.0909" y="7.03027" width="7.0303" height="7.0303" fill="#CA8D3B"/>
<rect x="14.0606" y="21.0909" width="7.0303" height="7.0303" transform="rotate(90 14.0606 21.0909)" fill="#CA8D3B"/>
<rect x="35.1515" y="63.2727" width="7.0303" height="7.0303" transform="rotate(90 35.1515 63.2727)" fill="#9A7457"/>
<rect x="35.1515" y="56.2424" width="7.0303" height="7.0303" transform="rotate(90 35.1515 56.2424)" fill="#9A7457"/>
<rect x="28.1212" width="7.0303" height="7.0303" fill="#A4A0C0"/>
<rect x="7.0303" y="28.1212" width="7.0303" height="7.0303" transform="rotate(90 7.0303 28.1212)" fill="#A4A0C0"/>
<rect x="14.0606" y="42.1818" width="7.0303" height="7.0303" transform="rotate(90 14.0606 42.1818)" fill="#A4A0C0"/>
<rect x="21.0909" y="49.2122" width="7.0303" height="7.0303" transform="rotate(90 21.0909 49.2122)" fill="#A4A0C0"/>
<rect x="28.1212" y="56.2424" width="7.0303" height="7.0303" transform="rotate(90 28.1212 56.2424)" fill="#A4A0C0"/>
<rect x="126.545" y="140.606" width="7.0303" height="7.0303" transform="rotate(-180 126.545 140.606)" fill="#A4A0C0"/>
<rect x="28.1212" y="63.2727" width="7.0303" height="7.0303" transform="rotate(90 28.1212 63.2727)" fill="#A4A0C0"/>
<rect x="119.515" y="140.606" width="7.0303" height="7.0303" transform="rotate(-180 119.515 140.606)" fill="#A4A0C0"/>
<rect x="168.727" y="161.697" width="7.03029" height="7.03029" transform="rotate(-90 168.727 161.697)" fill="#A4A0C0"/>
<rect x="112.485" y="140.606" width="7.0303" height="7.0303" transform="rotate(-180 112.485 140.606)" fill="#A4A0C0"/>
<rect x="168.727" y="154.667" width="7.0303" height="7.03029" transform="rotate(-90 168.727 154.667)" fill="#A4A0C0"/>
<rect x="105.455" y="140.606" width="7.0303" height="7.0303" transform="rotate(-180 105.455 140.606)" fill="#A4A0C0"/>
<rect x="168.727" y="147.636" width="7.0303" height="7.03029" transform="rotate(-90 168.727 147.636)" fill="#A4A0C0"/>
<rect x="98.4243" y="140.606" width="7.0303" height="7.0303" transform="rotate(-180 98.4243 140.606)" fill="#A4A0C0"/>
<rect x="168.727" y="140.606" width="7.0303" height="7.03029" transform="rotate(-90 168.727 140.606)" fill="#A4A0C0"/>
<rect x="161.697" y="133.576" width="7.0303" height="7.03032" transform="rotate(-90 161.697 133.576)" fill="#A4A0C0"/>
<rect x="154.667" y="126.545" width="7.0303" height="7.03029" transform="rotate(-90 154.667 126.545)" fill="#A4A0C0"/>
<rect x="98.4243" y="133.576" width="7.0303" height="7.0303" transform="rotate(-180 98.4243 133.576)" fill="#9A7457"/>
<rect x="91.3939" y="126.545" width="7.0303" height="7.0303" transform="rotate(-180 91.3939 126.545)" fill="#9A7457"/>
<rect x="70.303" y="105.455" width="7.0303" height="7.03031" transform="rotate(-180 70.303 105.455)" fill="#A4A0C0"/>
<rect x="70.303" y="112.485" width="7.0303" height="7.0303" transform="rotate(-180 70.303 112.485)" fill="#A4A0C0"/>
<rect x="77.3333" y="119.515" width="7.0303" height="7.0303" transform="rotate(-180 77.3333 119.515)" fill="#A4A0C0"/>
<rect x="84.3636" y="126.545" width="7.0303" height="7.0303" transform="rotate(-180 84.3636 126.545)" fill="#A4A0C0"/>
<rect x="91.3939" y="133.576" width="7.0303" height="7.0303" transform="rotate(-180 91.3939 133.576)" fill="#A4A0C0"/>
<rect x="70.303" y="98.4242" width="7.0303" height="7.0303" transform="rotate(-180 70.303 98.4242)" fill="#A4A0C0"/>
<rect x="70.303" y="91.3939" width="7.0303" height="7.0303" transform="rotate(-180 70.303 91.3939)" fill="#A4A0C0"/>
<rect x="35.1515" y="7.03027" width="7.0303" height="7.0303" fill="#A4A0C0"/>
<rect x="7.0303" y="7.03027" width="7.0303" height="7.0303" fill="#A4A0C0"/>
<rect x="14.0606" y="21.0909" width="7.0303" height="7.0303" fill="#FFECA9"/>
<rect x="21.0909" y="14.0605" width="7.0303" height="7.0303" fill="#FFECA9"/>
<rect x="35.1515" y="35.1515" width="7.0303" height="7.0303" fill="#A4A0C0"/>
<rect x="42.1818" y="42.1818" width="7.0303" height="7.0303" fill="#5D5D9C"/>
<rect x="42.1818" y="49.2122" width="7.0303" height="7.0303" fill="#A4A0C0"/>
<rect x="42.1818" y="56.2424" width="7.0303" height="7.0303" fill="#525396"/>
<rect x="35.1515" y="56.2424" width="7.0303" height="7.0303" fill="#A4A0C0"/>
<rect x="35.1515" y="63.2727" width="7.0303" height="7.0303" fill="#FED955"/>
<rect x="84.3636" y="91.3939" width="7.0303" height="7.0303" transform="rotate(90 84.3636 91.3939)" fill="#FED955"/>
<rect x="42.1818" y="63.2727" width="7.0303" height="7.0303" fill="#FED955"/>
<rect x="84.3636" y="98.4242" width="7.0303" height="7.0303" transform="rotate(90 84.3636 98.4242)" fill="#FED955"/>
<rect x="49.2121" y="63.2727" width="7.0303" height="7.0303" fill="#FED955"/>
<rect x="84.3636" y="105.455" width="7.0303" height="7.0303" transform="rotate(90 84.3636 105.455)" fill="#FED955"/>
<rect x="91.3939" y="105.455" width="7.0303" height="7.0303" transform="rotate(90 91.3939 105.455)" fill="#FED955"/>
<rect x="98.4243" y="112.485" width="7.0303" height="7.0303" transform="rotate(90 98.4243 112.485)" fill="#FED955"/>
<rect x="105.455" y="119.515" width="7.0303" height="7.0303" transform="rotate(90 105.455 119.515)" fill="#FED955"/>
<rect x="161.697" y="140.606" width="7.03029" height="7.0303" transform="rotate(-180 161.697 140.606)" fill="#FED955"/>
<rect x="161.697" y="154.667" width="7.03029" height="7.0303" transform="rotate(-180 161.697 154.667)" fill="#FED955"/>
<rect x="161.697" y="168.727" width="7.03029" height="7.03032" transform="rotate(-180 161.697 168.727)" fill="#FED955"/>
<rect x="105.455" y="126.545" width="7.0303" height="7.0303" transform="rotate(90 105.455 126.545)" fill="#9A7457"/>
<rect x="140.606" y="119.515" width="7.0303" height="7.0303" transform="rotate(90 140.606 119.515)" fill="#CA8D3B"/>
<rect x="84.3636" y="112.485" width="7.0303" height="7.0303" transform="rotate(90 84.3636 112.485)" fill="#9A7457"/>
<rect x="49.2121" y="49.2122" width="7.0303" height="7.0303" fill="#525396"/>
<rect x="49.2121" y="56.2424" width="7.0303" height="7.0303" fill="#525396"/>
<rect x="49.2121" y="42.1818" width="7.0303" height="7.0303" fill="#A4A0C0"/>
<rect x="42.1818" y="28.1212" width="7.0303" height="7.0303" fill="#A4A0C0"/>
<rect x="56.2424" y="28.1212" width="7.0303" height="7.0303" fill="#A4A0C0"/>
<rect x="56.2424" y="35.1515" width="7.0303" height="7.0303" fill="#A4A0C0"/>
<rect x="63.2727" y="49.2122" width="7.0303" height="7.0303" fill="#A4A0C0"/>
<rect x="63.2727" y="42.1818" width="7.0303" height="7.0303" fill="#A4A0C0"/>
<rect x="70.303" y="49.2122" width="7.0303" height="7.0303" fill="#A4A0C0"/>
<rect x="77.3333" y="56.2424" width="7.0303" height="7.0303" fill="#9A7457"/>
<rect x="84.3636" y="98.4242" width="7.0303" height="7.0303" fill="#CA8D3B"/>
<rect x="91.3939" y="105.455" width="7.0303" height="7.0303" fill="#CA8D3B"/>
<rect x="84.3636" y="112.485" width="7.0303" height="7.0303" fill="#FED955"/>
<rect x="91.3939" y="119.515" width="7.0303" height="7.0303" fill="#FED955"/>
<rect x="98.4243" y="112.485" width="7.0303" height="7.0303" fill="#CA8D3B"/>
<rect x="105.455" y="119.515" width="7.0303" height="7.0303" fill="#FED955"/>
<rect x="161.697" y="140.606" width="7.0303" height="7.03029" transform="rotate(90 161.697 140.606)" fill="#FED955"/>
<rect x="161.697" y="154.667" width="7.03029" height="7.03029" transform="rotate(90 161.697 154.667)" fill="#FED955"/>
<rect x="161.697" y="168.727" width="7.03029" height="7.03029" transform="rotate(90 161.697 168.727)" fill="#FED955"/>
<rect x="161.697" y="175.758" width="7.03032" height="7.03029" transform="rotate(90 161.697 175.758)" fill="#FED955"/>
<rect x="147.636" y="126.545" width="7.0303" height="7.0303" fill="#FED955"/>
<rect x="105.455" y="126.545" width="7.0303" height="7.0303" fill="#9A7457"/>
<rect x="140.606" y="119.515" width="7.0303" height="7.0303" fill="#CA8D3B"/>
<rect x="140.606" y="126.545" width="7.0303" height="7.0303" fill="#CA8D3B"/>
<rect x="112.485" y="126.545" width="7.0303" height="7.0303" fill="#9A7457"/>
<rect x="147.636" y="119.515" width="7.0303" height="7.0303" fill="#CA8D3B"/>
<rect x="154.667" y="126.545" width="7.03029" height="7.0303" fill="#CA8D3B"/>
<rect x="147.636" y="133.576" width="7.0303" height="7.0303" fill="#9A7457"/>
<rect x="147.636" y="154.667" width="7.0303" height="7.03029" fill="#9A7457"/>
<rect x="147.636" y="140.606" width="7.0303" height="7.0303" fill="#9A7457"/>
<rect x="147.636" y="161.697" width="7.0303" height="7.03032" fill="#9A7457"/>
<rect x="147.636" y="175.758" width="7.0303" height="7.03032" fill="#9A7457"/>
<rect x="147.636" y="147.636" width="7.0303" height="7.0303" fill="#9A7457"/>
<rect x="147.636" y="168.727" width="7.0303" height="7.03029" fill="#9A7457"/>
<rect x="147.636" y="182.788" width="7.0303" height="7.03029" fill="#9A7457"/>
<rect x="154.667" y="189.818" width="7.03029" height="7.03032" fill="#9A7457"/>
<rect x="161.697" y="189.818" width="7.03032" height="7.03032" fill="#9A7457"/>
<rect x="168.727" y="161.697" width="7.03032" height="7.03032" transform="rotate(90 168.727 161.697)" fill="#9A7457"/>
<rect x="168.727" y="140.606" width="7.0303" height="7.03032" transform="rotate(90 168.727 140.606)" fill="#9A7457"/>
<rect x="168.727" y="133.576" width="7.0303" height="7.03032" transform="rotate(90 168.727 133.576)" fill="#9A7457"/>
<rect x="154.667" y="182.788" width="7.03029" height="7.03029" fill="#CA8D3B"/>
<rect x="168.727" y="168.727" width="7.03029" height="7.03032" transform="rotate(90 168.727 168.727)" fill="#9A7457"/>
<rect x="168.727" y="147.636" width="7.0303" height="7.03032" transform="rotate(90 168.727 147.636)" fill="#9A7457"/>
<rect x="161.697" y="182.788" width="7.03032" height="7.03029" fill="#CA8D3B"/>
<rect x="168.727" y="182.788" width="7.03029" height="7.03029" fill="#CA8D3B"/>
<rect x="175.758" y="189.818" width="7.03032" height="7.03032" fill="#CA8D3B"/>
<rect x="182.788" y="196.849" width="7.03029" height="7.03029" fill="#CA8D3B"/>
<rect x="168.727" y="175.758" width="7.03032" height="7.03032" transform="rotate(90 168.727 175.758)" fill="#9A7457"/>
<rect x="168.727" y="154.667" width="7.03029" height="7.03032" transform="rotate(90 168.727 154.667)" fill="#9A7457"/>
<rect x="84.3636" y="56.2424" width="7.0303" height="7.0303" fill="#A4A0C0"/>
<rect x="77.3333" y="49.2122" width="7.0303" height="7.0303" fill="#A4A0C0"/>
<rect x="84.3636" y="63.2727" width="7.0303" height="7.0303" fill="#9A7457"/>
<rect x="91.3939" y="63.2727" width="7.0303" height="7.0303" fill="#A4A0C0"/>
<rect x="84.3636" y="70.303" width="7.0303" height="7.0303" fill="#9A7457"/>
<rect x="91.3939" y="70.303" width="7.0303" height="7.0303" fill="#A4A0C0"/>
<rect x="105.455" y="91.3939" width="7.0303" height="7.0303" fill="#A4A0C0"/>
<rect x="98.4243" y="84.3636" width="7.0303" height="7.0303" fill="#A4A0C0"/>
<rect x="112.485" y="98.4242" width="7.0303" height="7.0303" fill="#A4A0C0"/>
<rect x="119.515" y="105.455" width="7.0303" height="7.0303" fill="#A4A0C0"/>
<rect x="126.545" y="112.485" width="7.0303" height="7.0303" fill="#A4A0C0"/>
<rect x="133.576" y="112.485" width="7.0303" height="7.0303" fill="#A4A0C0"/>
<rect x="140.606" y="112.485" width="7.0303" height="7.0303" fill="#A4A0C0"/>
<rect x="147.636" y="112.485" width="7.0303" height="7.0303" fill="#A4A0C0"/>
<rect x="91.3939" y="77.3334" width="7.0303" height="7.0303" fill="#A4A0C0"/>
<rect x="28.1212" y="42.1818" width="7.0303" height="7.0303" transform="rotate(90 28.1212 42.1818)" fill="#A4A0C0"/>
<rect x="42.1818" y="21.0909" width="7.0303" height="7.0303" fill="#A4A0C0"/>
<rect x="56.2424" y="21.0909" width="7.0303" height="7.0303" fill="#A4A0C0"/>
<rect x="35.1515" y="42.1818" width="7.0303" height="7.0303" transform="rotate(90 35.1515 42.1818)" fill="#A4A0C0"/>
<rect x="42.1818" y="7.03027" width="7.0303" height="7.0303" fill="#A4A0C0"/>
<rect x="49.2121" y="14.0605" width="7.0303" height="7.0303" fill="#A4A0C0"/>
<rect x="28.1212" y="7.03027" width="7.0303" height="7.0303" fill="#CA8D3B"/>
<rect x="14.0606" y="28.1212" width="7.0303" height="7.0303" transform="rotate(90 14.0606 28.1212)" fill="#CA8D3B"/>
<rect x="35.1515" y="70.303" width="7.0303" height="7.0303" transform="rotate(90 35.1515 70.303)" fill="#A4A0C0"/>
<rect x="77.3333" y="91.3939" width="7.0303" height="7.0303" transform="rotate(-180 77.3333 91.3939)" fill="#9A7457"/>
</svg>
