<svg width="32" height="32" viewBox="0 0 32 32" fill="none" xmlns="http://www.w3.org/2000/svg">
<path d="M19.2525 11.0739V7.08211H28.2203V1H3.80084V7.08211H12.7696V11.0707C5.48061 11.4114 0 12.8809 0 14.6411C0 16.4014 5.48324 17.8708 12.7696 18.2138V31H19.2546V18.2127C26.5305 17.8708 32 16.4025 32 14.6438C32 12.8852 26.5305 11.4168 19.2546 11.075L19.2525 11.0739ZM19.2546 17.1297V17.1265C19.0717 17.1383 18.1316 17.1957 16.0385 17.1957C14.365 17.1957 13.1877 17.1474 12.7728 17.1254V17.1308C6.33315 16.8404 1.52635 15.6989 1.52635 14.3331C1.52635 12.9673 6.33367 11.8274 12.7728 11.5365V15.9936C13.1946 16.0231 14.4009 16.0955 16.0659 16.0955C18.0657 16.0955 19.0711 16.0107 19.2557 15.9936V11.5365C25.6827 11.8279 30.4784 12.9705 30.4784 14.3315C30.4784 15.6925 25.6806 16.8356 19.2557 17.127" fill="#53AE94"/>
</svg>
