<svg width="24" height="24" viewBox="0 0 24 24" fill="none" xmlns="http://www.w3.org/2000/svg">
<circle cx="12" cy="12" r="12" fill="url(#paint0_linear_2301_144950)"/>
<path fill-rule="evenodd" clip-rule="evenodd" d="M19.3173 7.05764C19.3755 7.1157 19.4217 7.18467 19.4532 7.2606C19.4847 7.33653 19.5009 7.41793 19.5009 7.50014C19.5009 7.58235 19.4847 7.66375 19.4532 7.73968C19.4217 7.81561 19.3755 7.88458 19.3173 7.94264L10.5673 16.6926C10.5093 16.7508 10.4403 16.797 10.3644 16.8285C10.2884 16.86 10.207 16.8763 10.1248 16.8763C10.0426 16.8763 9.9612 16.86 9.88527 16.8285C9.80934 16.797 9.74037 16.7508 9.68231 16.6926L5.30731 12.3176C5.18995 12.2003 5.12402 12.0411 5.12402 11.8751C5.12402 11.7092 5.18995 11.55 5.30731 11.4326C5.42467 11.3153 5.58384 11.2494 5.74981 11.2494C5.91578 11.2494 6.07495 11.3153 6.19231 11.4326L10.1248 15.3664L18.4323 7.05764C18.4904 6.99944 18.5593 6.95326 18.6353 6.92175C18.7112 6.89024 18.7926 6.87402 18.8748 6.87402C18.957 6.87402 19.0384 6.89024 19.1144 6.92175C19.1903 6.95326 19.2593 6.99944 19.3173 7.05764Z" fill="#2A2835"/>
<defs>
<linearGradient id="paint0_linear_2301_144950" x1="8.9407e-08" y1="12" x2="24" y2="12" gradientUnits="userSpaceOnUse">
<stop stop-color="#9DF4FF"/>
<stop offset="1" stop-color="#7981FF"/>
</linearGradient>
</defs>
</svg>
