<svg width="19" height="19" viewBox="0 0 19 19" fill="none" xmlns="http://www.w3.org/2000/svg">
<circle cx="9.28067" cy="9.2807" r="6.98538" stroke="white"/>
<path d="M9.26875 6.14884C9.06914 6.14884 8.90147 6.08097 8.76574 5.94523C8.63 5.8095 8.56213 5.64183 8.56213 5.44222C8.56213 5.24261 8.63 5.07493 8.76574 4.9392C8.90147 4.80346 9.06914 4.7356 9.26875 4.7356C9.47635 4.7356 9.64801 4.80346 9.78375 4.9392C9.92747 5.07493 9.99933 5.24261 9.99933 5.44222C9.99933 5.64183 9.92747 5.8095 9.78375 5.94523C9.64801 6.08097 9.47635 6.14884 9.26875 6.14884ZM8.65795 7.27464H9.89154V13.0234H8.65795V7.27464Z" fill="white"/>
</svg>
