<svg width="19" height="19" viewBox="0 0 19 19" fill="none" xmlns="http://www.w3.org/2000/svg">
<path d="M9.28067 1.42102C4.94032 1.42102 1.42102 4.94032 1.42102 9.28067C1.42102 13.621 4.94032 17.1403 9.28067 17.1403C13.621 17.1403 17.1403 13.621 17.1403 9.28067C17.1403 4.94032 13.621 1.42102 9.28067 1.42102ZM9.28067 15.807C5.67716 15.807 2.75435 12.8842 2.75435 9.28067C2.75435 5.67716 5.67716 2.75435 9.28067 2.75435C12.8842 2.75435 15.807 5.67716 15.807 9.28067C15.807 12.8842 12.8842 15.807 9.28067 15.807Z" fill="white"/>
<path d="M12.3455 11.5017L9.8438 9.69296V5.35086C9.8438 5.27367 9.78064 5.21051 9.70345 5.21051H8.85959C8.7824 5.21051 8.71924 5.27367 8.71924 5.35086V10.1824C8.71924 10.228 8.74029 10.2701 8.77713 10.2965L11.6789 12.4122C11.742 12.4579 11.8298 12.4438 11.8754 12.3824L12.3771 11.6982C12.4227 11.6333 12.4087 11.5456 12.3455 11.5017Z" fill="white"/>
</svg>
