<svg width="72" height="72" viewBox="0 0 72 72" fill="none" xmlns="http://www.w3.org/2000/svg">
<g id="Group 29676">
<rect id="Rectangle 23898" width="72" height="72" fill="#131415"/>
<g id="Group 29675">
<path id="Vector" d="M60 12H12V60H60V12Z" fill="#131415"/>
<g id="Group">
<path id="Vector_2" d="M50.442 49.7159H43.488C43.032 49.7159 42.6 49.5359 42.276 49.2119L29.67 36.6059C29.334 36.2699 29.334 35.7299 29.67 35.3939L42.276 22.7879C42.6 22.4639 43.032 22.2839 43.488 22.2839H50.442C50.826 22.2839 51.018 22.7459 50.748 23.0159L38.07 35.6939C37.902 35.8619 37.902 36.1319 38.07 36.2999L50.748 48.9779C51.018 49.2479 50.826 49.7099 50.442 49.7099V49.7159Z" fill="#FFF7EF"/>
<path id="Vector_3" d="M30.4794 29.6459L24.7314 35.3939C24.3954 35.7299 24.3954 36.2699 24.7314 36.6059L30.4794 42.3539C30.8034 42.6779 30.9834 43.1099 30.9834 43.5659V48.8579C30.9834 49.3319 30.5994 49.7159 30.1254 49.7159H24.2994C23.8254 49.7159 23.4414 49.3319 23.4414 48.8579V23.1419C23.4414 22.6679 23.8254 22.2839 24.2994 22.2839H30.1254C30.5994 22.2839 30.9834 22.6679 30.9834 23.1419V28.4339C30.9834 28.8899 30.8034 29.3219 30.4794 29.6459Z" fill="#FFF7EF"/>
</g>
</g>
</g>
</svg>
