<svg width="24" height="24" viewBox="0 0 24 24" fill="none" xmlns="http://www.w3.org/2000/svg">
<g id="game-icons:beam-wake" clip-path="url(#clip0_7564_162706)">
<path id="Vector" d="M2.23387 0.936129C1.48556 0.936129 0.878906 1.54269 0.878906 2.29105C0.878906 3.03941 1.48556 3.64602 2.23387 3.64602C2.42635 3.64625 2.61665 3.60534 2.79202 3.52602L17.603 23.1284L17.5854 23.1415L23.0361 23.1416L23.0362 17.9502L3.48928 2.80518C3.5543 2.64664 3.58884 2.47297 3.58884 2.29096C3.58884 1.54255 2.98228 0.936035 2.23387 0.936035V0.936129ZM4.96294 1.37254C5.29472 1.8155 5.36911 2.42019 5.20603 3.02788L5.95167 3.605C6.12858 2.9001 6.00028 2.20354 5.53706 1.74032C5.37347 1.57719 5.17406 1.45414 4.96284 1.37258L4.96294 1.37254ZM7.05469 2.57089C7.48078 3.13935 7.57453 3.91738 7.36233 4.69785L8.31445 5.43613C8.54555 4.53097 8.38205 3.6358 7.78711 3.04105C7.57805 2.83236 7.32502 2.67472 7.05469 2.57089ZM9.66506 4.12504C10.1986 4.83707 10.3188 5.80944 10.0576 6.7866L11.2559 7.71538C11.5402 6.58147 11.3346 5.46224 10.5893 4.71678C10.3263 4.45396 10.0052 4.25619 9.66502 4.12504H9.66506ZM1.42237 4.91314C1.50375 5.12455 1.62656 5.32386 1.79002 5.48736C2.22314 5.92049 2.85877 6.06079 3.51562 5.93268L2.95017 5.18558C2.38617 5.30614 1.83408 5.22168 1.42237 4.9131V4.91314ZM12.5903 5.39943C13.3204 6.37363 13.4405 7.73258 13.0019 9.06889L14.5283 10.251C15.0043 8.71349 14.7742 7.16136 13.7637 6.15083C13.4298 5.81708 13.0222 5.56569 12.5904 5.39943H12.5903ZM2.52984 7.09574C2.63391 7.36583 2.78986 7.61933 2.99859 7.82816C3.58453 8.41419 4.46147 8.58158 5.35256 8.36582L4.63031 7.40919C3.85884 7.61263 3.09197 7.517 2.52984 7.09569V7.09574ZM15.7896 7.1968C16.6657 8.36577 16.8066 9.99838 16.2729 11.6016L18.0938 13.0137C18.6725 11.1695 18.4005 9.30543 17.1885 8.09324C16.79 7.69499 16.3051 7.39513 15.7896 7.1968ZM19.6406 9.25349C20.7117 10.6827 20.8712 12.6852 20.1987 14.6441L22.4018 16.3506C23.1298 14.1006 22.8104 11.8153 21.331 10.336C20.8498 9.8548 20.2633 9.49335 19.6406 9.25349ZM3.96825 9.82325C4.09922 10.1636 4.29717 10.483 4.56005 10.7461C5.32317 11.5093 6.47925 11.7085 7.64067 11.3936L6.72802 10.1866C5.71833 10.4832 4.70405 10.3746 3.9683 9.8233L3.96825 9.82325ZM5.35988 12.6328C5.52614 13.0641 5.77659 13.4714 6.10987 13.8047C7.0898 14.7847 8.57953 15.0318 10.0708 14.6119L8.91356 13.0796C7.61513 13.475 6.30619 13.3416 5.35988 12.6328ZM7.15575 15.8307C7.35417 16.3464 7.65375 16.8326 8.05223 17.231C9.22177 18.4005 10.9982 18.694 12.7779 18.1933L11.3965 16.3667C9.84656 16.838 8.28539 16.6772 7.1558 15.8306L7.15575 15.8307ZM9.21239 19.6817C9.4522 20.3044 9.81366 20.8908 10.295 21.3721C11.7174 22.7944 13.884 23.1457 16.0489 22.5235L14.3804 20.3145C12.4935 20.9003 10.5875 20.7121 9.21239 19.6817Z" fill="white"/>
</g>
<defs>
<clipPath id="clip0_7564_162706">
<rect width="24" height="24" fill="white"/>
</clipPath>
</defs>
</svg>
