<svg width="24" height="24" viewBox="0 0 24 24" fill="none" xmlns="http://www.w3.org/2000/svg">
<path fill-rule="evenodd" clip-rule="evenodd" d="M20.75 16.714C20.7499 16.762 20.7452 16.8099 20.736 16.857C20.7571 16.9656 20.7539 17.0774 20.7267 17.1846C20.6995 17.2918 20.6489 17.3917 20.5785 17.477C20.5082 17.5623 20.4198 17.6311 20.3198 17.6783C20.2198 17.7255 20.1106 17.75 20 17.75H6C5.83585 17.75 5.6733 17.7823 5.52165 17.8451C5.36999 17.908 5.23219 18 5.11612 18.1161C5.00004 18.2322 4.90797 18.37 4.84515 18.5216C4.78233 18.6733 4.75 18.8358 4.75 19C4.75 19.1642 4.78233 19.3267 4.84515 19.4784C4.90797 19.63 5.00004 19.7678 5.11612 19.8839C5.23219 20 5.36999 20.092 5.52165 20.1549C5.6733 20.2177 5.83585 20.25 6 20.25H20C20.1989 20.25 20.3897 20.329 20.5303 20.4697C20.671 20.6103 20.75 20.8011 20.75 21C20.75 21.1989 20.671 21.3897 20.5303 21.5303C20.3897 21.671 20.1989 21.75 20 21.75H6C5.27065 21.75 4.57118 21.4603 4.05546 20.9445C3.53973 20.4288 3.25 19.7293 3.25 19V5C3.25 4.27065 3.53973 3.57118 4.05546 3.05546C4.57118 2.53973 5.27065 2.25 6 2.25H19.4C20.146 2.25 20.75 2.854 20.75 3.6V16.714ZM9 6.25C8.80109 6.25 8.61032 6.32902 8.46967 6.46967C8.32902 6.61032 8.25 6.80109 8.25 7C8.25 7.19891 8.32902 7.38968 8.46967 7.53033C8.61032 7.67098 8.80109 7.75 9 7.75H15C15.1989 7.75 15.3897 7.67098 15.5303 7.53033C15.671 7.38968 15.75 7.19891 15.75 7C15.75 6.80109 15.671 6.61032 15.5303 6.46967C15.3897 6.32902 15.1989 6.25 15 6.25H9Z" fill="white"/>
</svg>
