<svg xmlns="http://www.w3.org/2000/svg" width="24" height="24" viewBox="0 0 24 24" fill="none">
  <g clip-path="url(#clip0_7564_162708)">
    <path d="M15.3697 5.90283C11.0664 3.41833 5.93647 2.24171 4.45947 4.79995C2.98247 7.35819 6.56645 11.2126 10.8697 13.6971C15.1739 16.1821 20.303 17.3582 21.78 14.7999C23.257 12.2417 19.6739 8.38783 15.3697 5.90283ZM6.0706 12.0094L4.5706 14.6075C5.49237 15.4849 6.5856 16.3274 7.7642 17.076L9.2642 14.4779C8.12346 13.7587 7.05406 12.9321 6.0706 12.0094ZM10.9968 15.477L9.49675 18.0751C10.6895 18.7044 11.9402 19.2172 13.2314 19.6066L14.7314 17.0085C13.4402 16.6192 12.1895 16.1063 10.9968 15.477ZM16.7834 17.4543L15.2834 20.0523C17.2206 20.299 18.81 19.9441 19.53 18.6971L21.03 16.099C20.31 17.3461 18.7206 17.7009 16.7834 17.4543ZM3.15905 13.0523L4.65905 10.4543C3.4777 8.90042 2.98997 7.3452 3.70947 6.09898L2.20947 8.69706C1.48997 9.94327 1.9777 11.4985 3.15905 13.0523Z" fill="white"/>
  </g>
  <defs>
    <clipPath id="clip0_7564_162708">
      <rect width="24" height="24" fill="white"/>
    </clipPath>
  </defs>
</svg>