<svg width="24" height="24" viewBox="0 0 24 24" fill="none" xmlns="http://www.w3.org/2000/svg">
<g id="material-symbols-light:potted-plant" clip-path="url(#clip0_17402_108412)">
<path id="Vector" d="M8.12703 24.231C7.76303 24.231 7.43803 24.1183 7.15203 23.893C6.86603 23.667 6.67103 23.3737 6.56703 23.013L5.54003 18.963H18.463L17.433 23.015C17.3297 23.375 17.135 23.6677 16.849 23.893C16.563 24.119 16.238 24.232 15.874 24.232L8.12703 24.231ZM12 11.904C12.128 10.5967 12.6537 10.4813 13.577 9.558C14.5004 8.63467 15.6157 8.11533 16.923 8C16.8077 9.20533 16.336 10.2587 15.508 11.16C14.68 12.0613 13.6774 12.6283 12.5 12.861V14.231H20.654V16.577C20.654 17.0243 20.4967 17.4053 20.182 17.72C19.8674 18.0347 19.4864 18.192 19.039 18.192H5.00003C4.5527 18.192 4.1717 18.035 3.85703 17.721C3.5417 17.4057 3.38403 17.0243 3.38403 16.577V14.231H11.5V12.861C10.3227 12.6277 9.32337 12.0637 8.50203 11.169C7.6807 10.2743 7.2057 9.21833 7.07703 8.001C8.38437 8.11633 9.4997 8.63567 10.423 9.559C11.3464 10.4823 11.872 10.5973 12 11.904Z" fill="white"/>
<path id="Vector_2" d="M13.4479 1.99067C11.7347 1.00151 9.69224 0.533053 9.1042 1.55158C8.51615 2.5701 9.94306 4.10466 11.6563 5.09383C13.37 6.08319 15.412 6.55145 16.0001 5.53292C16.5881 4.5144 15.1616 2.98004 13.4479 1.99067ZM9.74564 4.42191L9.14844 5.45629C9.51543 5.80563 9.95068 6.14105 10.4199 6.4391L11.0171 5.40471C10.563 5.11836 10.1372 4.78927 9.74564 4.42191ZM11.7069 5.8025L11.1097 6.83689C11.5846 7.08742 12.0825 7.2916 12.5966 7.44662L13.1938 6.41224C12.6797 6.25722 12.1818 6.05303 11.7069 5.8025ZM14.0108 6.5897L13.4136 7.62409C14.1849 7.72229 14.8176 7.58101 15.1043 7.0845L15.7015 6.05012C15.4148 6.54662 14.7821 6.6879 14.0108 6.5897ZM8.58645 4.83714L9.18366 3.80276C8.71332 3.18412 8.51914 2.56493 8.8056 2.06877L8.20839 3.10315C7.92194 3.59931 8.11612 4.2185 8.58645 4.83714Z" fill="white"/>
<line id="Line 195" x1="12" y1="13" x2="12" y2="6" stroke="white"/>
</g>
<defs>
<clipPath id="clip0_17402_108412">
<rect width="24" height="24" fill="white"/>
</clipPath>
</defs>
</svg>
