<svg width="24" height="24" viewBox="0 0 24 24" fill="none" xmlns="http://www.w3.org/2000/svg">
<g id="teenyicons:safe-solid">
<g id="Group 632866">
<path id="Vector" d="M13.1335 12.5001C13.1335 11.9962 13.3337 11.5129 13.69 11.1566C14.0464 10.8003 14.5296 10.6001 15.0335 10.6001C15.5375 10.6001 16.0207 10.8003 16.377 11.1566C16.7334 11.5129 16.9335 11.9962 16.9335 12.5001C16.9335 13.004 16.7334 13.4873 16.377 13.8436C16.0207 14.1999 15.5375 14.4001 15.0335 14.4001C14.5296 14.4001 14.0464 14.1999 13.69 13.8436C13.3337 13.4873 13.1335 13.004 13.1335 12.5001Z" fill="white"/>
<path id="Vector_2" fill-rule="evenodd" clip-rule="evenodd" d="M4.9 3C4.39609 3 3.91282 3.20018 3.5565 3.5565C3.20018 3.91282 3 4.39609 3 4.9L3 18.8333C3 19.3372 3.20018 19.8205 3.5565 20.1768C3.91282 20.5332 4.39609 20.7333 4.9 20.7333H5.53333V22H6.8V20.7333H18.2V22H19.4667V20.7333H20.1C20.6039 20.7333 21.0872 20.5332 21.4435 20.1768C21.7998 19.8205 22 19.3372 22 18.8333V4.9C22 4.39609 21.7998 3.91282 21.4435 3.5565C21.0872 3.20018 20.6039 3 20.1 3H4.9ZM5.53333 6.8V10.6H6.8V6.8H5.53333ZM15.0333 9.33333C14.1935 9.33333 13.388 9.66696 12.7942 10.2608C12.2003 10.8547 11.8667 11.6601 11.8667 12.5C11.8667 13.3399 12.2003 14.1453 12.7942 14.7392C13.388 15.333 14.1935 15.6667 15.0333 15.6667C15.8732 15.6667 16.6786 15.333 17.2725 14.7392C17.8664 14.1453 18.2 13.3399 18.2 12.5C18.2 11.6601 17.8664 10.8547 17.2725 10.2608C16.6786 9.66696 15.8732 9.33333 15.0333 9.33333ZM5.53333 16.9333V13.1333H6.8V16.9333H5.53333Z" fill="white"/>
</g>
</g>
</svg>
