<svg width="24" height="24" viewBox="0 0 24 24" fill="none" xmlns="http://www.w3.org/2000/svg">
<path d="M15.42 2.58023C15.317 2.4697 15.1928 2.38105 15.0548 2.31956C14.9168 2.25807 14.7678 2.22501 14.6168 2.22234C14.4657 2.21968 14.3157 2.24746 14.1756 2.30405C14.0355 2.36063 13.9083 2.44484 13.8014 2.55167C13.6946 2.6585 13.6104 2.78575 13.5538 2.92583C13.4972 3.06592 13.4694 3.21596 13.4721 3.36701C13.4748 3.51807 13.5078 3.66704 13.5693 3.80504C13.6308 3.94304 13.7195 4.06724 13.83 4.17023L15.66 6.00023H5.625C5.32663 6.00023 5.04048 6.11876 4.8295 6.32973C4.61853 6.54071 4.5 6.82686 4.5 7.12523C4.5 7.4236 4.61853 7.70975 4.8295 7.92073C5.04048 8.1317 5.32663 8.25023 5.625 8.25023H15.66L13.83 10.0802C13.6313 10.2935 13.5231 10.5756 13.5282 10.867C13.5334 11.1585 13.6514 11.4365 13.8576 11.6427C14.0637 11.8488 14.3418 11.9669 14.6332 11.972C14.9247 11.9771 15.2067 11.869 15.42 11.6702L19.17 7.92023C19.3807 7.70929 19.499 7.42336 19.499 7.12523C19.499 6.8271 19.3807 6.54117 19.17 6.33023L15.42 2.58023ZM10.17 13.9202C10.3687 13.707 10.4769 13.4249 10.4718 13.1334C10.4666 12.842 10.3486 12.5639 10.1424 12.3578C9.93631 12.1517 9.65824 12.0336 9.36678 12.0285C9.07533 12.0233 8.79326 12.1315 8.58 12.3302L4.83 16.0802C4.61932 16.2912 4.50099 16.5771 4.50099 16.8752C4.50099 17.1734 4.61932 17.4593 4.83 17.6702L8.58 21.4202C8.79326 21.6189 9.07533 21.7271 9.36678 21.722C9.65824 21.7169 9.93631 21.5988 10.1424 21.3927C10.3486 21.1865 10.4666 20.9085 10.4718 20.617C10.4769 20.3256 10.3687 20.0435 10.17 19.8302L8.34 18.0002H18.375C18.6734 18.0002 18.9595 17.8817 19.1705 17.6707C19.3815 17.4597 19.5 17.1736 19.5 16.8752C19.5 16.5769 19.3815 16.2907 19.1705 16.0797C18.9595 15.8688 18.6734 15.7502 18.375 15.7502H8.34L10.17 13.9202Z" fill="white"/>
</svg>
