<svg width="20" height="21" viewBox="0 0 20 21" fill="none" xmlns="http://www.w3.org/2000/svg">
<path d="M16.25 6.75H13.75V4.875C13.75 3.88044 13.3549 2.92661 12.6517 2.22335C11.9484 1.52009 10.9946 1.125 10 1.125C9.00544 1.125 8.05161 1.52009 7.34835 2.22335C6.64509 2.92661 6.25 3.88044 6.25 4.875V6.75H3.75C3.41848 6.75 3.10054 6.8817 2.86612 7.11612C2.6317 7.35054 2.5 7.66848 2.5 8V16.75C2.5 17.0815 2.6317 17.3995 2.86612 17.6339C3.10054 17.8683 3.41848 18 3.75 18H16.25C16.5815 18 16.8995 17.8683 17.1339 17.6339C17.3683 17.3995 17.5 17.0815 17.5 16.75V8C17.5 7.66848 17.3683 7.35054 17.1339 7.11612C16.8995 6.8817 16.5815 6.75 16.25 6.75ZM7.5 4.875C7.5 4.21196 7.76339 3.57607 8.23223 3.10723C8.70107 2.63839 9.33696 2.375 10 2.375C10.663 2.375 11.2989 2.63839 11.7678 3.10723C12.2366 3.57607 12.5 4.21196 12.5 4.875V6.75H7.5V4.875ZM16.25 16.75H3.75V8H16.25V16.75Z" fill="white"/>
</svg>
