        <svg
          xmlns="http://www.w3.org/2000/svg"
          width="20"
          height="20"
          viewBox="0 0 20 20"
          fill="none"
        >
          <g clip-path="url(#clip0_16052_565529)">
            <path
              d="M9.95017 0C4.45139 0 0 4.45139 0 9.95017C0 15.449 4.45139 19.9003 9.95017 19.9003C15.449 19.9003 19.9003 15.449 19.9003 9.95017C19.9003 4.45139 15.449 0 9.95017 0ZM9.95017 17.9667C5.51892 17.9667 1.93364 14.3814 1.93364 9.95017C1.93364 9.18478 2.31633 7.41228 5.05566 7.41228C7.79497 7.41228 10.2321 10.071 13.5154 10.4537C14.6231 10.5947 15.5094 10.5745 16.174 10.494C17.1409 10.3731 17.9265 11.2997 17.6444 12.2464C16.6575 15.5497 13.5959 17.9667 9.95017 17.9667Z"
              fill="url(#paint0_linear_16052_565529)"
            />
          </g>
          <defs>
            <linearGradient
              id="paint0_linear_16052_565529"
              x1="-3.78789"
              y1="9.99999"
              x2="9.19197"
              y2="23.3333"
              gradientUnits="userSpaceOnUse"
            >
              <stop stop-color="#FFE480" />
              <stop offset="0.458483" stop-color="#FF43C3" />
              <stop offset="0.979531" stop-color="#4156E0" />
            </linearGradient>
            <clipPath id="clip0_16052_565529">
              <rect width="20" height="20" fill="white" />
            </clipPath>
          </defs>
        </svg>