<svg width="32" height="32" viewBox="0 0 32 32" fill="none" xmlns="http://www.w3.org/2000/svg">
<path d="M0 10C0 4.47715 4.47715 0 10 0H22C27.5228 0 32 4.47715 32 10V22C32 27.5228 27.5228 32 22 32H10C4.47715 32 0 27.5228 0 22V10Z" fill="url(#paint0_radial_3_10247)"/>
<path fill-rule="evenodd" clip-rule="evenodd" d="M17.3596 12.6281L21.5394 10.3065V14.9497L17.3596 12.6281ZM21.5394 22.5779L15.9663 25.6734L10.3933 22.5779V17.1608L15.9663 20.2563L21.5394 17.1608V22.5779ZM10.3933 10.3065L14.5731 12.6281L10.3933 14.9497V10.3065ZM16.663 13.7337L20.8428 16.0553L16.663 18.3769V13.7337ZM15.2697 18.3769L11.0899 16.0553L15.2697 13.7337V18.3769ZM20.8428 9.201L15.9663 11.8543L11.0899 9.201L15.9663 6.43719L20.8428 9.201ZM9 8.75879V23.2412L15.9663 27L22.9327 23.2412V8.75879L15.9663 5L9 8.75879Z" fill="white"/>
<path d="M10 1H22V-1H10V1ZM31 10V22H33V10H31ZM22 31H10V33H22V31ZM1 22V10H-1V22H1ZM10 31C5.02944 31 1 26.9706 1 22H-1C-1 28.0751 3.92487 33 10 33V31ZM31 22C31 26.9706 26.9706 31 22 31V33C28.0751 33 33 28.0751 33 22H31ZM22 1C26.9706 1 31 5.02944 31 10H33C33 3.92487 28.0751 -1 22 -1V1ZM10 -1C3.92487 -1 -1 3.92487 -1 10H1C1 5.02944 5.02944 1 10 1V-1Z" fill="white" fill-opacity="0.2"/>
<defs>
<radialGradient id="paint0_radial_3_10247" cx="0" cy="0" r="1" gradientUnits="userSpaceOnUse" gradientTransform="translate(16 16) rotate(90) scale(16)">
<stop stop-color="#C4F0FF"/>
<stop offset="1" stop-color="#13B5EC"/>
</radialGradient>
</defs>
</svg>
