<svg width="32" height="32" viewBox="0 0 32 32" fill="none" xmlns="http://www.w3.org/2000/svg">
<path d="M0 10C0 4.47715 4.47715 0 10 0H22C27.5228 0 32 4.47715 32 10V22C32 27.5228 27.5228 32 22 32H10C4.47715 32 0 27.5228 0 22V10Z" fill="url(#paint0_radial_3_10591)"/>
<path d="M8.66667 14.1667H10.5V12.3333H8.66667V14.1667Z" fill="#FED955"/>
<path d="M8.66667 17.8333H10.5V16H8.66667V17.8333Z" fill="#FED955"/>
<path d="M8.66667 16H10.5V14.1667H8.66667V16Z" fill="#FED955"/>
<path d="M8.66667 19.6667H10.5V17.8333H8.66667V19.6667Z" fill="#FED955"/>
<path d="M16 10.5H17.8333V8.66667H16V10.5Z" fill="#FED955"/>
<path d="M16 21.5L17.8333 21.5L17.8333 23.3333L16 23.3333L16 21.5Z" fill="#FED955"/>
<path d="M17.8333 10.5H19.6666V8.66667H17.8333V10.5Z" fill="#FED955"/>
<path d="M19.6667 10.5H21.5V8.66667H19.6667V10.5Z" fill="#9695F8"/>
<path d="M12.3333 10.5L10.5 10.5L10.5 8.66667L12.3333 8.66667L12.3333 10.5Z" fill="#9695F8"/>
<path d="M23.3333 21.5L21.5 21.5L21.5 19.6667L23.3333 19.6667L23.3333 21.5Z" fill="#9695F8"/>
<path d="M8.66667 21.5H10.5V19.6667H8.66667V21.5Z" fill="#9695F8"/>
<path d="M17.8333 8.66666H19.6666V6.83333H17.8333V8.66666Z" fill="#9695F8"/>
<path d="M17.8333 6.83331H19.6666V4.99998H17.8333V6.83331Z" fill="#5552FD"/>
<path d="M17.8333 27H19.6666V25.1666H17.8333V27Z" fill="#5552FD"/>
<path d="M17.8333 25.1667H19.6666V23.3333H17.8333V25.1667Z" fill="#9695F8"/>
<path d="M14.1667 8.66666H16V6.83333H14.1667V8.66666Z" fill="#9695F8"/>
<path d="M14.1667 6.83331H16V4.99998H14.1667V6.83331Z" fill="#5552FD"/>
<path d="M14.1667 27H16V25.1666H14.1667V27Z" fill="#5552FD"/>
<path d="M14.1667 25.1667H16V23.3333H14.1667V25.1667Z" fill="#9695F8"/>
<path d="M16 8.66666H17.8333V6.83333H16V8.66666Z" fill="#9695F8"/>
<path d="M16 6.83331H17.8333V4.99998H16V6.83331Z" fill="#5552FD"/>
<path d="M16 27H17.8333V25.1666H16V27Z" fill="#5552FD"/>
<path d="M16 25.1667H17.8333V23.3333H16V25.1667Z" fill="#9695F8"/>
<path d="M12.3333 8.66666H14.1666V6.83333H12.3333V8.66666Z" fill="#9695F8"/>
<path d="M12.3333 6.83331H14.1666V4.99998H12.3333V6.83331Z" fill="#5552FD"/>
<path d="M12.3333 27H14.1666V25.1666H12.3333V27Z" fill="#5552FD"/>
<path d="M12.3333 25.1667H14.1666V23.3333H12.3333V25.1667Z" fill="#9695F8"/>
<path d="M21.5 12.3333H23.3333V10.5H21.5V12.3333Z" fill="#9695F8"/>
<path d="M10.5 12.3333L8.66669 12.3333L8.66669 10.5L10.5 10.5L10.5 12.3333Z" fill="#9695F8"/>
<path d="M21.5 23.3333L19.6666 23.3333L19.6666 21.5L21.5 21.5L21.5 23.3333Z" fill="#9695F8"/>
<path d="M10.5 23.3333H12.3333V21.5H10.5V23.3333Z" fill="#9695F8"/>
<path d="M23.3333 14.1667H25.1666V12.3333H23.3333V14.1667Z" fill="#9695F8"/>
<path d="M6.83336 14.1667H8.66669V12.3333H6.83336V14.1667Z" fill="#9695F8"/>
<path d="M4.99998 14.1667H6.83331V12.3333H4.99998V14.1667Z" fill="#5552FD"/>
<path d="M6.83336 12.3333H8.66669V10.5H6.83336V12.3333Z" fill="#5552FD"/>
<path d="M25.1666 12.3333L23.3333 12.3333L23.3333 10.5L25.1666 10.5L25.1666 12.3333Z" fill="#5552FD"/>
<path d="M19.6667 25.1667H21.5V23.3333H19.6667V25.1667Z" fill="#5552FD"/>
<path d="M6.83331 19.6667V21.5H8.66664V19.6667H6.83331Z" fill="#5552FD"/>
<path d="M8.66667 10.5H10.5V8.66667H8.66667V10.5Z" fill="#5552FD"/>
<path d="M23.3333 10.5L21.5 10.5L21.5 8.66667L23.3333 8.66667L23.3333 10.5Z" fill="#5552FD"/>
<path d="M21.5 23.3333H23.3333V21.5H21.5V23.3333Z" fill="#5552FD"/>
<path d="M8.66669 21.5V23.3333H10.5V21.5H8.66669Z" fill="#5552FD"/>
<path d="M10.5 8.66666H12.3333V6.83333H10.5V8.66666Z" fill="#5552FD"/>
<path d="M21.5 8.66666L19.6666 8.66666L19.6666 6.83333L21.5 6.83332L21.5 8.66666Z" fill="#5552FD"/>
<path d="M23.3333 21.5H25.1666V19.6667H23.3333V21.5Z" fill="#5552FD"/>
<path d="M10.5 23.3333V25.1667H12.3333V23.3333H10.5Z" fill="#5552FD"/>
<path d="M25.1667 14.1667H27V12.3333H25.1667V14.1667Z" fill="#5552FD"/>
<path d="M23.3333 16H25.1666V14.1667H23.3333V16Z" fill="#9695F8"/>
<path d="M6.83336 16H8.66669V14.1667H6.83336V16Z" fill="#9695F8"/>
<path d="M4.99998 16H6.83331V14.1667H4.99998V16Z" fill="#5552FD"/>
<path d="M25.1667 16H27V14.1667H25.1667V16Z" fill="#5552FD"/>
<path d="M23.3333 17.8333H25.1666V16H23.3333V17.8333Z" fill="#9695F8"/>
<path d="M6.83336 17.8333H8.66669V16H6.83336V17.8333Z" fill="#9695F8"/>
<path d="M4.99998 17.8333H6.83331V16H4.99998V17.8333Z" fill="#5552FD"/>
<path d="M25.1667 17.8333H27V16H25.1667V17.8333Z" fill="#5552FD"/>
<path d="M23.3333 19.6667H25.1666V17.8333H23.3333V19.6667Z" fill="#9695F8"/>
<path d="M6.83336 19.6667H8.66669V17.8333H6.83336V19.6667Z" fill="#9695F8"/>
<path d="M4.99998 19.6667H6.83331V17.8333H4.99998V19.6667Z" fill="#5552FD"/>
<path d="M25.1667 19.6667H27V17.8333H25.1667V19.6667Z" fill="#5552FD"/>
<path d="M17.8333 21.5L19.6666 21.5L19.6666 23.3333L17.8333 23.3333L17.8333 21.5Z" fill="#FED955"/>
<path d="M16 14.1667H17.8333V12.3333H16V14.1667Z" fill="#FED955"/>
<path d="M16 17.8333H17.8333V16H16V17.8333Z" fill="#FED955"/>
<path d="M16 19.6667H17.8333V17.8333H16V19.6667Z" fill="#FED955"/>
<path d="M16 12.3333H17.8333V10.5H16V12.3333Z" fill="#FED955"/>
<path d="M16 19.6667L17.8333 19.6667L17.8333 21.5L16 21.5L16 19.6667Z" fill="#FED955"/>
<path d="M12.3333 17.8333H14.1666V16H12.3333V17.8333Z" fill="#FED955"/>
<path d="M12.3333 16H14.1666V14.1667H12.3333V16Z" fill="#FED955"/>
<path d="M12.3333 19.6667H14.1666V17.8333H12.3333V19.6667Z" fill="#FED955"/>
<path d="M12.3333 12.3333H14.1666V10.5H12.3333V12.3333Z" fill="#FED955"/>
<path d="M12.3333 19.6667L14.1666 19.6667L14.1666 21.5L12.3333 21.5L12.3333 19.6667Z" fill="#FED955"/>
<path d="M17.8333 17.8333H19.6666V16H17.8333V17.8333Z" fill="#FED955"/>
<path d="M17.8333 16H19.6666V14.1667H17.8333V16Z" fill="#FED955"/>
<path d="M17.8333 19.6667H19.6666V17.8333H17.8333V19.6667Z" fill="#FED955"/>
<path d="M17.8333 12.3333H19.6666V10.5H17.8333V12.3333Z" fill="#FED955"/>
<path d="M17.8333 19.6667L19.6666 19.6667L19.6666 21.5L17.8333 21.5L17.8333 19.6667Z" fill="#FED955"/>
<path d="M14.1667 10.5H16V8.66667H14.1667V10.5Z" fill="#FED955"/>
<path d="M14.1667 21.5L16 21.5L16 23.3333L14.1667 23.3333L14.1667 21.5Z" fill="#FED955"/>
<path d="M12.3333 10.5H14.1666V8.66667H12.3333V10.5Z" fill="#FED955"/>
<path d="M12.3333 21.5L14.1666 21.5L14.1666 23.3333L12.3333 23.3333L12.3333 21.5Z" fill="#FED955"/>
<path d="M14.1667 14.1667H16V12.3333H14.1667V14.1667Z" fill="#FED955"/>
<path d="M14.1667 17.8333H16V16H14.1667V17.8333Z" fill="#FED955"/>
<path d="M12.3333 14.1667H14.1666V12.3333H12.3333V14.1667Z" fill="#5552FD"/>
<path d="M16 16H17.8333V14.1667H16V16Z" fill="#5552FD"/>
<path d="M19.6667 14.1667H21.5V12.3333H19.6667V14.1667Z" fill="#5552FD"/>
<path d="M19.6667 17.8333H21.5V16H19.6667V17.8333Z" fill="#5552FD"/>
<path d="M19.6667 16H21.5V14.1667H19.6667V16Z" fill="#5552FD"/>
<path d="M19.6667 19.6667H21.5V17.8333H19.6667V19.6667Z" fill="#5552FD"/>
<path d="M19.6667 12.3333H21.5V10.5H19.6667V12.3333Z" fill="#5552FD"/>
<path d="M19.6667 19.6667L21.5 19.6667L21.5 21.5L19.6667 21.5L19.6667 19.6667Z" fill="#5552FD"/>
<path d="M10.5 14.1667H12.3333V12.3333H10.5V14.1667Z" fill="#5552FD"/>
<path d="M10.5 17.8333H12.3333V16H10.5V17.8333Z" fill="#5552FD"/>
<path d="M10.5 16H12.3333V14.1667H10.5V16Z" fill="#5552FD"/>
<path d="M10.5 19.6667H12.3333V17.8333H10.5V19.6667Z" fill="#5552FD"/>
<path d="M10.5 12.3333H12.3333V10.5H10.5V12.3333Z" fill="#5552FD"/>
<path d="M10.5 19.6667L12.3333 19.6667L12.3333 21.5L10.5 21.5L10.5 19.6667Z" fill="#5552FD"/>
<path d="M17.8333 14.1667H19.6666V12.3333H17.8333V14.1667Z" fill="#5552FD"/>
<path d="M14.1667 16H16V14.1667H14.1667V16Z" fill="#5552FD"/>
<path d="M14.1667 19.6667H16V17.8333H14.1667V19.6667Z" fill="#FED955"/>
<path d="M14.1667 12.3333H16V10.5H14.1667V12.3333Z" fill="#FED955"/>
<path d="M14.1667 19.6667L16 19.6667L16 21.5L14.1667 21.5L14.1667 19.6667Z" fill="#FED955"/>
<path d="M21.5 14.1667H23.3333V12.3333H21.5V14.1667Z" fill="#FED955"/>
<path d="M21.5 17.8333H23.3333V16H21.5V17.8333Z" fill="#FED955"/>
<path d="M21.5 16H23.3333V14.1667H21.5V16Z" fill="#FED955"/>
<path d="M21.5 19.6667H23.3333V17.8333H21.5V19.6667Z" fill="#FED955"/>
<path d="M10 1H22V-1H10V1ZM31 10V22H33V10H31ZM22 31H10V33H22V31ZM1 22V10H-1V22H1ZM10 31C5.02944 31 1 26.9706 1 22H-1C-1 28.0751 3.92487 33 10 33V31ZM31 22C31 26.9706 26.9706 31 22 31V33C28.0751 33 33 28.0751 33 22H31ZM22 1C26.9706 1 31 5.02944 31 10H33C33 3.92487 28.0751 -1 22 -1V1ZM10 -1C3.92487 -1 -1 3.92487 -1 10H1C1 5.02944 5.02944 1 10 1V-1Z" fill="white" fill-opacity="0.2"/>
<defs>
<radialGradient id="paint0_radial_3_10591" cx="0" cy="0" r="1" gradientUnits="userSpaceOnUse" gradientTransform="translate(16 16) rotate(90) scale(16)">
<stop stop-color="#F4F4FF"/>
<stop offset="1" stop-color="#A698FF"/>
</radialGradient>
</defs>
</svg>
