<svg width="32" height="32" viewBox="0 0 32 32" fill="none" xmlns="http://www.w3.org/2000/svg">
<path d="M0 10C0 4.47715 4.47715 0 10 0H22C27.5228 0 32 4.47715 32 10V22C32 27.5228 27.5228 32 22 32H10C4.47715 32 0 27.5228 0 22V10Z" fill="url(#paint0_radial_3_10272)"/>
<path d="M18.0328 12.9212V10.4263H23.6377V6.625H8.37552V10.4263H13.981V12.9192C9.42538 13.1322 6 14.0505 6 15.1507C6 16.2509 9.42703 17.1693 13.981 17.3836V25.375H18.0341V17.3829C22.5815 17.1693 26 16.2516 26 15.1524C26 14.0532 22.5815 13.1355 18.0341 12.9218L18.0328 12.9212ZM18.0341 16.7061V16.704C17.9198 16.7114 17.3323 16.7473 16.0241 16.7473C14.9782 16.7473 14.2423 16.7171 13.983 16.7034V16.7067C9.95822 16.5253 6.95397 15.8118 6.95397 14.9582C6.95397 14.1045 9.95855 13.3921 13.983 13.2103V15.996C14.2466 16.0144 15.0006 16.0597 16.0412 16.0597C17.2911 16.0597 17.9195 16.0067 18.0348 15.996V13.2103C22.0517 13.3924 25.049 14.1066 25.049 14.9572C25.049 15.8078 22.0504 16.5223 18.0348 16.7044" fill="white"/>
<defs>
<radialGradient id="paint0_radial_3_10272" cx="0" cy="0" r="1" gradientUnits="userSpaceOnUse" gradientTransform="translate(16 16) rotate(90) scale(16)">
<stop stop-color="#7BD3BA"/>
<stop offset="1" stop-color="#53AE94"/>
</radialGradient>
</defs>
</svg>
