<svg width="32" height="32" viewBox="0 0 32 32" fill="none" xmlns="http://www.w3.org/2000/svg">
<path d="M0 10C0 4.47715 4.47715 0 10 0H22C27.5228 0 32 4.47715 32 10V22C32 27.5228 27.5228 32 22 32H10C4.47715 32 0 27.5228 0 22V10Z" fill="url(#paint0_radial_110_19605)"/>
<g clip-path="url(#clip0_110_19605)">
<path d="M11.8286 7.60073C16.4182 7.59977 21.0087 7.59977 25.5993 7.60073C25.6003 9.08485 25.6003 10.568 25.5993 12.0512C21.0087 12.0521 16.4191 12.0521 11.8286 12.0512C11.8267 10.567 11.8267 9.08389 11.8286 7.60073Z" fill="white"/>
<path d="M6.40575 13.7253C7.88699 13.7177 9.36727 13.7177 10.8495 13.7253C10.8571 15.2065 10.8571 16.6868 10.8495 18.1689C9.36823 18.1766 7.88699 18.1766 6.40575 18.1689C6.39807 16.6877 6.39807 15.2065 6.40575 13.7253Z" fill="white"/>
<path d="M11.8315 13.7253C15.1443 13.7186 18.4571 13.7186 21.7699 13.7253C21.7766 15.2065 21.7766 16.6868 21.7699 18.1689C18.4571 18.1757 15.1443 18.1757 11.8315 18.1689C11.8248 16.6877 11.8248 15.2065 11.8315 13.7253Z" fill="white"/>
<path d="M11.8352 19.8508C13.3136 19.8345 14.792 19.8345 16.2693 19.8508C16.2847 21.3282 16.2847 22.8065 16.2703 24.2849C14.7919 24.2993 13.3136 24.2993 11.8362 24.2839C11.8208 22.8075 11.8208 21.3291 11.8352 19.8508Z" fill="white"/>
</g>
<path d="M10 1H22V-1H10V1ZM31 10V22H33V10H31ZM22 31H10V33H22V31ZM1 22V10H-1V22H1ZM10 31C5.02944 31 1 26.9706 1 22H-1C-1 28.0751 3.92487 33 10 33V31ZM31 22C31 26.9706 26.9706 31 22 31V33C28.0751 33 33 28.0751 33 22H31ZM22 1C26.9706 1 31 5.02944 31 10H33C33 3.92487 28.0751 -1 22 -1V1ZM10 -1C3.92487 -1 -1 3.92487 -1 10H1C1 5.02944 5.02944 1 10 1V-1Z" fill="white" fill-opacity="0.2"/>
<defs>
<radialGradient id="paint0_radial_110_19605" cx="0" cy="0" r="1" gradientUnits="userSpaceOnUse" gradientTransform="translate(16 16) rotate(90) scale(16)">
<stop stop-color="#5FCADE"/>
<stop offset="1" stop-color="#02A6C2"/>
</radialGradient>
<clipPath id="clip0_110_19605">
<rect width="18" height="18" fill="white" transform="translate(7 7)"/>
</clipPath>
</defs>
</svg>
