<svg width="32" height="32" viewBox="0 0 32 32" fill="none" xmlns="http://www.w3.org/2000/svg">
<path d="M0 10C0 4.47715 4.47715 0 10 0H22C27.5228 0 32 4.47715 32 10V22C32 27.5228 27.5228 32 22 32H10C4.47715 32 0 27.5228 0 22V10Z" fill="url(#paint0_radial_209_46794)"/>
<path d="M14.9832 12.8066C15.3744 12.1309 16.0057 12.1309 16.3969 12.8066L18.833 17.0832C19.2242 17.7589 18.9042 18.3101 18.1217 18.3101H13.2139C12.4404 18.3101 12.1203 17.7589 12.5026 17.0832L14.9832 12.8066ZM10.2709 4.57344C10.6621 3.89772 11.2845 3.89772 11.6757 4.57344L12.2181 5.55146L13.4984 7.8009C13.8096 8.44106 13.8096 9.1968 13.4984 9.83696L9.204 17.2788C8.8128 17.8834 8.16375 18.2657 7.44357 18.3101H3.87825C3.09584 18.3101 2.77576 17.7678 3.16696 17.0832L10.2709 4.57344Z" fill="#E64343"/>
<path d="M21.0008 28.9928C25.4322 28.9928 28.9968 25.4282 28.9968 20.9968C28.9968 16.5654 25.4322 13.0008 21.0008 13.0008C16.5694 13.0008 13.0048 16.5654 13.0048 20.9968C13.0048 25.4282 16.5694 28.9928 21.0008 28.9928Z" fill="#2775CA"/>
<path d="M23.1997 22.2626C23.1997 21.0968 22.5 20.697 21.1007 20.5298C20.1012 20.3963 19.9013 20.13 19.9013 19.6639C19.9013 19.1977 20.2348 18.8979 20.9008 18.8979C21.5005 18.8979 21.834 19.0978 22.0003 19.5975C22.0339 19.6975 22.1338 19.7638 22.2338 19.7638H22.7671C22.9006 19.7638 23.0006 19.6639 23.0006 19.5303V19.4968C22.8671 18.7635 22.2674 18.1974 21.5013 18.1311V17.3315C21.5013 17.1979 21.4014 17.098 21.2351 17.0652H20.7353C20.6018 17.0652 20.5018 17.1651 20.4691 17.3315V18.0975C19.4696 18.231 18.8363 18.8971 18.8363 19.7302C18.8363 20.8297 19.5023 21.2631 20.9016 21.4294C21.8348 21.5957 22.1346 21.7956 22.1346 22.3289C22.1346 22.8623 21.6685 23.2285 21.0352 23.2285C20.1692 23.2285 19.8694 22.8623 19.7694 22.3625C19.7358 22.229 19.6359 22.1626 19.5359 22.1626H18.9698C18.8363 22.1626 18.7363 22.2626 18.7363 22.3961V22.4297C18.8699 23.2629 19.4024 23.8626 20.5018 24.0289V24.8285C20.5018 24.962 20.6018 25.062 20.7681 25.0948H21.2679C21.4014 25.0948 21.5013 24.9948 21.5341 24.8285V24.0289C22.5328 23.8618 23.1997 23.1621 23.1997 22.2626Z" fill="white"/>
<path d="M19.3016 25.7609C16.7029 24.8277 15.37 21.9292 16.3367 19.364C16.8365 17.9647 17.9359 16.8989 19.3016 16.3991C19.4352 16.3328 19.5015 16.2328 19.5015 16.0657V15.5995C19.5015 15.466 19.4352 15.366 19.3016 15.3333C19.2681 15.3333 19.2017 15.3333 19.1681 15.3668C16.0033 16.3663 14.2706 19.7311 15.2701 22.8967C15.8698 24.7622 17.3026 26.195 19.1681 26.7948C19.3016 26.8611 19.4344 26.7948 19.468 26.6612C19.5015 26.6276 19.5015 26.5949 19.5015 26.5277V26.0615C19.5015 25.9608 19.4016 25.828 19.3016 25.7609ZM22.8327 15.366C22.6991 15.2997 22.5664 15.366 22.5328 15.4996C22.4992 15.5332 22.4992 15.5659 22.4992 15.6331V16.0993C22.4992 16.2328 22.5992 16.3655 22.6991 16.4327C25.2978 17.3658 26.6308 20.2644 25.6641 22.8295C25.1643 24.2288 24.0649 25.2947 22.6991 25.7944C22.5656 25.8608 22.4992 25.9608 22.4992 26.1279V26.5941C22.4992 26.7276 22.5656 26.8275 22.6991 26.8603C22.7327 26.8603 22.7991 26.8603 22.8327 26.8267C25.9975 25.8272 27.7302 22.4625 26.7307 19.2969C26.131 17.3986 24.6654 15.9657 22.8327 15.366Z" fill="white"/>
<path d="M10 1H22V-1H10V1ZM31 10V22H33V10H31ZM22 31H10V33H22V31ZM1 22V10H-1V22H1ZM10 31C5.02944 31 1 26.9706 1 22H-1C-1 28.0751 3.92487 33 10 33V31ZM31 22C31 26.9706 26.9706 31 22 31V33C28.0751 33 33 28.0751 33 22H31ZM22 1C26.9706 1 31 5.02944 31 10H33C33 3.92487 28.0751 -1 22 -1V1ZM10 -1C3.92487 -1 -1 3.92487 -1 10H1C1 5.02944 5.02944 1 10 1V-1Z" fill="white" fill-opacity="0.2"/>
<defs>
<radialGradient id="paint0_radial_209_46794" cx="0" cy="0" r="1" gradientUnits="userSpaceOnUse" gradientTransform="translate(16 16) rotate(90) scale(16)">
<stop stop-color="#676379"/>
<stop offset="1" stop-color="#1F1D2C"/>
</radialGradient>
</defs>
</svg>
