<svg width="32" height="32" viewBox="0 0 32 32" fill="none" xmlns="http://www.w3.org/2000/svg">
<path d="M0 10C0 4.47715 4.47715 0 10 0H22C27.5228 0 32 4.47715 32 10V22C32 27.5228 27.5228 32 22 32H10C4.47715 32 0 27.5228 0 22V10Z" fill="url(#paint0_radial_3_10313)"/>
<rect x="6.33333" y="5" width="0.666667" height="0.666667" fill="#A4A0C0"/>
<rect x="5.66666" y="6.33333" width="0.666667" height="0.666667" transform="rotate(90 5.66666 6.33333)" fill="#A4A0C0"/>
<rect x="6.33333" y="5.66666" width="0.666667" height="0.666667" fill="#CA8D3B"/>
<rect x="6.33333" y="6.33333" width="0.666667" height="0.666667" fill="#FED955"/>
<rect x="7" y="7" width="0.666667" height="0.666667" fill="#FED955"/>
<rect x="6.33333" y="7.66666" width="0.666667" height="0.666667" fill="#FED955"/>
<rect x="8.33333" y="11.6667" width="0.666667" height="0.666667" fill="#9A7457"/>
<rect x="12.3333" y="13.6667" width="0.666667" height="0.666667" transform="rotate(90 12.3333 13.6667)" fill="#9A7457"/>
<rect x="8.33333" y="12.3333" width="0.666667" height="0.666667" fill="#A4A0C0"/>
<rect x="6.99998" y="15" width="0.666667" height="0.666667" fill="#FED955"/>
<rect x="6.99998" y="18.3333" width="0.666667" height="0.666667" fill="#FED955"/>
<rect x="9.66666" y="16.3333" width="0.666667" height="0.666667" transform="rotate(90 9.66666 16.3333)" fill="#FED955"/>
<rect x="6.33333" y="16.3333" width="0.666667" height="0.666667" transform="rotate(90 6.33333 16.3333)" fill="#FED955"/>
<rect x="6.99998" y="16.3333" width="0.666667" height="0.666667" fill="#FED955"/>
<rect x="6.99998" y="17" width="0.666667" height="0.666667" fill="#FED955"/>
<rect x="6.33333" y="15.6667" width="0.666667" height="0.666667" fill="#FED955"/>
<rect x="6.33333" y="17.6667" width="0.666667" height="0.666667" fill="#FED955"/>
<rect x="8.33333" y="15.6667" width="0.666667" height="0.666667" fill="#FED955"/>
<rect x="8.33333" y="17.6667" width="0.666667" height="0.666667" fill="#FED955"/>
<rect x="6.99998" y="15.6667" width="0.666667" height="0.666667" fill="#CA8D3B"/>
<rect x="6.99998" y="17.6667" width="0.666667" height="0.666667" fill="#CA8D3B"/>
<rect x="6.99998" y="16.3333" width="0.666667" height="0.666667" transform="rotate(90 6.99998 16.3333)" fill="#CA8D3B"/>
<rect x="8.99998" y="16.3333" width="0.666667" height="0.666667" transform="rotate(90 8.99998 16.3333)" fill="#CA8D3B"/>
<rect x="7.66666" y="15" width="0.666667" height="0.666667" fill="#FED955"/>
<rect x="7.66666" y="18.3333" width="0.666667" height="0.666667" fill="#FED955"/>
<rect x="9.66666" y="17" width="0.666667" height="0.666667" transform="rotate(90 9.66666 17)" fill="#FED955"/>
<rect x="6.33333" y="17" width="0.666667" height="0.666667" transform="rotate(90 6.33333 17)" fill="#FED955"/>
<rect x="7.66666" y="16.3333" width="0.666667" height="0.666667" fill="#FED955"/>
<rect x="7.66666" y="17" width="0.666667" height="0.666667" fill="#FED955"/>
<rect x="7.66666" y="15.6667" width="0.666667" height="0.666667" fill="#CA8D3B"/>
<rect x="7.66666" y="17.6667" width="0.666667" height="0.666667" fill="#CA8D3B"/>
<rect x="6.99998" y="17" width="0.666667" height="0.666667" transform="rotate(90 6.99998 17)" fill="#CA8D3B"/>
<rect x="8.99998" y="17" width="0.666667" height="0.666667" transform="rotate(90 8.99998 17)" fill="#CA8D3B"/>
<rect x="15.6667" y="8.33332" width="0.666667" height="0.666667" fill="#FED955"/>
<rect x="15.6667" y="11.6667" width="0.666667" height="0.666667" fill="#FED955"/>
<rect x="18.3333" y="9.66665" width="0.666667" height="0.666667" transform="rotate(90 18.3333 9.66665)" fill="#FED955"/>
<rect x="15" y="9.66665" width="0.666667" height="0.666667" transform="rotate(90 15 9.66665)" fill="#FED955"/>
<rect x="15.6667" y="9.66665" width="0.666667" height="0.666667" fill="#FED955"/>
<rect x="15.6667" y="10.3333" width="0.666667" height="0.666667" fill="#FED955"/>
<rect x="15" y="8.99999" width="0.666667" height="0.666667" fill="#FED955"/>
<rect x="15" y="11" width="0.666667" height="0.666667" fill="#FED955"/>
<rect x="17" y="8.99999" width="0.666667" height="0.666667" fill="#FED955"/>
<rect x="17" y="11" width="0.666667" height="0.666667" fill="#FED955"/>
<rect x="15.6667" y="8.99999" width="0.666667" height="0.666667" fill="#CA8D3B"/>
<rect x="15.6667" y="11" width="0.666667" height="0.666667" fill="#CA8D3B"/>
<rect x="15.6667" y="9.66665" width="0.666667" height="0.666667" transform="rotate(90 15.6667 9.66665)" fill="#CA8D3B"/>
<rect x="17.6667" y="9.66665" width="0.666667" height="0.666667" transform="rotate(90 17.6667 9.66665)" fill="#CA8D3B"/>
<rect x="16.3333" y="8.33332" width="0.666667" height="0.666667" fill="#FED955"/>
<rect x="16.3333" y="11.6667" width="0.666667" height="0.666667" fill="#FED955"/>
<rect x="18.3333" y="10.3333" width="0.666667" height="0.666667" transform="rotate(90 18.3333 10.3333)" fill="#FED955"/>
<rect x="15" y="10.3333" width="0.666667" height="0.666667" transform="rotate(90 15 10.3333)" fill="#FED955"/>
<rect x="16.3333" y="9.66665" width="0.666667" height="0.666667" fill="#FED955"/>
<rect x="16.3333" y="10.3333" width="0.666667" height="0.666667" fill="#FED955"/>
<rect x="16.3333" y="8.99999" width="0.666667" height="0.666667" fill="#CA8D3B"/>
<rect x="16.3333" y="11" width="0.666667" height="0.666667" fill="#CA8D3B"/>
<rect x="15.6667" y="10.3333" width="0.666667" height="0.666667" transform="rotate(90 15.6667 10.3333)" fill="#CA8D3B"/>
<rect x="17.6667" y="10.3333" width="0.666667" height="0.666667" transform="rotate(90 17.6667 10.3333)" fill="#CA8D3B"/>
<rect x="14.8333" y="21.3333" width="0.666667" height="0.666667" fill="#FED955"/>
<rect x="14.8333" y="24.6667" width="0.666667" height="0.666667" fill="#FED955"/>
<rect x="17.5" y="22.6667" width="0.666667" height="0.666667" transform="rotate(90 17.5 22.6667)" fill="#FED955"/>
<rect x="14.1667" y="22.6667" width="0.666667" height="0.666667" transform="rotate(90 14.1667 22.6667)" fill="#FED955"/>
<rect x="14.8333" y="22.6667" width="0.666667" height="0.666667" fill="#FED955"/>
<rect x="14.8333" y="23.3333" width="0.666667" height="0.666667" fill="#FED955"/>
<rect x="14.1667" y="22" width="0.666667" height="0.666667" fill="#FED955"/>
<rect x="14.1667" y="24" width="0.666667" height="0.666667" fill="#FED955"/>
<rect x="16.1667" y="22" width="0.666667" height="0.666667" fill="#FED955"/>
<rect x="16.1667" y="24" width="0.666667" height="0.666667" fill="#FED955"/>
<rect x="14.8333" y="22" width="0.666667" height="0.666667" fill="#CA8D3B"/>
<rect x="14.8333" y="24" width="0.666667" height="0.666667" fill="#CA8D3B"/>
<rect x="14.8333" y="22.6667" width="0.666667" height="0.666667" transform="rotate(90 14.8333 22.6667)" fill="#CA8D3B"/>
<rect x="16.8333" y="22.6667" width="0.666667" height="0.666667" transform="rotate(90 16.8333 22.6667)" fill="#CA8D3B"/>
<rect x="15.5" y="21.3333" width="0.666667" height="0.666667" fill="#FED955"/>
<rect x="15.5" y="24.6667" width="0.666667" height="0.666667" fill="#FED955"/>
<rect x="17.5" y="23.3333" width="0.666667" height="0.666667" transform="rotate(90 17.5 23.3333)" fill="#FED955"/>
<rect x="14.1667" y="23.3333" width="0.666667" height="0.666667" transform="rotate(90 14.1667 23.3333)" fill="#FED955"/>
<rect x="15.5" y="22.6667" width="0.666667" height="0.666667" fill="#FED955"/>
<rect x="15.5" y="23.3333" width="0.666667" height="0.666667" fill="#FED955"/>
<rect x="15.5" y="22" width="0.666667" height="0.666667" fill="#CA8D3B"/>
<rect x="15.5" y="24" width="0.666667" height="0.666667" fill="#CA8D3B"/>
<rect x="14.8333" y="23.3333" width="0.666667" height="0.666667" transform="rotate(90 14.8333 23.3333)" fill="#CA8D3B"/>
<rect x="16.8333" y="23.3333" width="0.666667" height="0.666667" transform="rotate(90 16.8333 23.3333)" fill="#CA8D3B"/>
<rect x="9.00002" y="11.6667" width="0.666667" height="0.666667" fill="#9A7457"/>
<rect x="12.3333" y="14.3333" width="0.666666" height="0.666667" transform="rotate(90 12.3333 14.3333)" fill="#9A7457"/>
<rect x="9.00002" y="12.3333" width="0.666667" height="0.666667" fill="#A4A0C0"/>
<rect x="9.66669" y="11.6667" width="0.666667" height="0.666667" fill="#9A7457"/>
<rect x="12.3333" y="15" width="0.666667" height="0.666667" transform="rotate(90 12.3333 15)" fill="#9A7457"/>
<rect x="10.3333" y="11.6667" width="0.666667" height="0.666667" fill="#9A7457"/>
<rect x="9.66669" y="12.3333" width="0.666667" height="0.666667" fill="#A4A0C0"/>
<rect x="10.3333" y="12.3333" width="0.666667" height="0.666667" fill="#A4A0C0"/>
<rect x="11" y="12.3333" width="0.666667" height="0.666667" fill="#A4A0C0"/>
<rect x="11.6667" y="10.3333" width="0.666667" height="0.666667" fill="#9A7457"/>
<rect x="11" y="10.3333" width="0.666667" height="0.666667" fill="#525396"/>
<rect x="7" y="7.66666" width="0.666667" height="0.666667" fill="#CA8D3B"/>
<rect x="7.66666" y="7.66666" width="0.666667" height="0.666667" fill="#CA8D3B"/>
<rect x="7.66666" y="7" width="0.666667" height="0.666667" fill="#CA8D3B"/>
<rect x="7.66666" y="6.33333" width="0.666667" height="0.666667" fill="#FED955"/>
<rect x="6.33333" y="6.33333" width="0.666667" height="0.666667" transform="rotate(90 6.33333 6.33333)" fill="#CA8D3B"/>
<rect x="7" y="5" width="0.666667" height="0.666667" fill="#A4A0C0"/>
<rect x="5.66666" y="7" width="0.666667" height="0.666667" transform="rotate(90 5.66666 7)" fill="#A4A0C0"/>
<rect x="6.33333" y="8.33332" width="0.666667" height="0.666667" transform="rotate(90 6.33333 8.33332)" fill="#A4A0C0"/>
<rect x="7" y="8.33332" width="0.666667" height="0.666667" transform="rotate(90 7 8.33332)" fill="#525396"/>
<rect x="9.00002" y="7" width="0.666667" height="0.666667" transform="rotate(-180 9.00002 7)" fill="#525396"/>
<rect x="9.66669" y="7" width="0.666667" height="0.666667" transform="rotate(-180 9.66669 7)" fill="#525396"/>
<rect x="10.3333" y="7.66666" width="0.666667" height="0.666666" transform="rotate(-180 10.3333 7.66666)" fill="#525396"/>
<rect x="10.3333" y="8.33332" width="0.666667" height="0.666667" transform="rotate(-180 10.3333 8.33332)" fill="#525396"/>
<rect x="10.3333" y="9" width="0.666667" height="0.666667" transform="rotate(-180 10.3333 9)" fill="#525396"/>
<rect x="11" y="11" width="0.666667" height="0.666666" transform="rotate(-180 11 11)" fill="#6164AF"/>
<rect x="12.3333" y="12.3333" width="0.666667" height="0.666667" transform="rotate(-180 12.3333 12.3333)" fill="#6164AF"/>
<rect x="13.6667" y="13.6667" width="0.666667" height="0.666667" transform="rotate(-180 13.6667 13.6667)" fill="#A4A0C0"/>
<rect x="15" y="15" width="0.666666" height="0.666664" transform="rotate(-180 15 15)" fill="#A4A0C0"/>
<rect x="16.3333" y="16.3333" width="0.666666" height="0.666665" transform="rotate(-180 16.3333 16.3333)" fill="#A4A0C0"/>
<rect x="17" y="17.6667" width="0.666667" height="0.666666" transform="rotate(-180 17 17.6667)" fill="#9A7457"/>
<rect x="11.6667" y="11.6667" width="0.666667" height="0.666667" transform="rotate(-180 11.6667 11.6667)" fill="#6164AF"/>
<rect x="13" y="13" width="0.666667" height="0.666667" transform="rotate(-180 13 13)" fill="#6164AF"/>
<rect x="14.3333" y="14.3333" width="0.666667" height="0.666667" transform="rotate(-180 14.3333 14.3333)" fill="#A4A0C0"/>
<rect x="15.6667" y="15.6667" width="0.666667" height="0.666665" transform="rotate(-180 15.6667 15.6667)" fill="#A4A0C0"/>
<rect x="17" y="17" width="0.666667" height="0.666667" transform="rotate(-180 17 17)" fill="#A4A0C0"/>
<rect x="7.66666" y="8.33332" width="0.666667" height="0.666667" transform="rotate(90 7.66666 8.33332)" fill="#525396"/>
<rect x="9.00002" y="7.66666" width="0.666667" height="0.666666" transform="rotate(-180 9.00002 7.66666)" fill="#525396"/>
<rect x="8.33333" y="8.33332" width="0.666667" height="0.666666" transform="rotate(90 8.33333 8.33332)" fill="#525396"/>
<rect x="9.00002" y="8.33332" width="0.666667" height="0.666667" transform="rotate(-180 9.00002 8.33332)" fill="#525396"/>
<rect x="11" y="9.66667" width="0.666667" height="0.666666" transform="rotate(-180 11 9.66667)" fill="#525396"/>
<rect x="11" y="10.3333" width="0.666667" height="0.666666" transform="rotate(-180 11 10.3333)" fill="#525396"/>
<rect x="12.3333" y="11.6667" width="0.666667" height="0.666667" transform="rotate(-180 12.3333 11.6667)" fill="#525396"/>
<rect x="13" y="12.3333" width="0.666667" height="0.666667" transform="rotate(-180 13 12.3333)" fill="#525396"/>
<rect x="13" y="11.6667" width="0.666667" height="0.666667" transform="rotate(-180 13 11.6667)" fill="#FED955"/>
<rect x="13.6667" y="13" width="0.666667" height="0.666667" transform="rotate(-180 13.6667 13)" fill="#525396"/>
<rect x="14.3333" y="13.6667" width="0.666667" height="0.666667" transform="rotate(-180 14.3333 13.6667)" fill="#525396"/>
<rect x="13.6667" y="14.3333" width="0.666667" height="0.666667" transform="rotate(-180 13.6667 14.3333)" fill="#525396"/>
<rect x="14.3333" y="15" width="0.666667" height="0.666664" transform="rotate(-180 14.3333 15)" fill="#525396"/>
<rect x="15.6667" y="15" width="0.666667" height="0.666664" transform="rotate(-180 15.6667 15)" fill="#525396"/>
<rect x="15" y="15.6667" width="0.666666" height="0.666665" transform="rotate(-180 15 15.6667)" fill="#525396"/>
<rect x="15.6667" y="16.3333" width="0.666667" height="0.666665" transform="rotate(-180 15.6667 16.3333)" fill="#525396"/>
<rect x="25" y="25.6667" width="0.666666" height="0.666666" transform="rotate(-180 25 25.6667)" fill="#3C418D"/>
<rect x="25" y="26.3333" width="0.666666" height="0.666668" transform="rotate(-180 25 26.3333)" fill="#A4A0C0"/>
<rect x="25.6667" y="25" width="0.666666" height="0.666668" transform="rotate(-90 25.6667 25)" fill="#A4A0C0"/>
<rect x="25" y="24.3333" width="0.666666" height="0.666666" transform="rotate(-90 25 24.3333)" fill="#A4A0C0"/>
<rect x="24.3333" y="23.6667" width="0.666667" height="0.666666" transform="rotate(-90 24.3333 23.6667)" fill="#A4A0C0"/>
<rect x="23.6667" y="23" width="0.666666" height="0.666666" transform="rotate(-90 23.6667 23)" fill="#A4A0C0"/>
<rect x="23" y="22.3333" width="0.666667" height="0.666667" transform="rotate(-90 23 22.3333)" fill="#A4A0C0"/>
<rect x="22.3333" y="21.6667" width="0.666666" height="0.666666" transform="rotate(-90 22.3333 21.6667)" fill="#A4A0C0"/>
<rect x="21.6667" y="21" width="0.666668" height="0.666667" transform="rotate(-90 21.6667 21)" fill="#A4A0C0"/>
<rect x="23.6667" y="25.6667" width="0.666666" height="0.666666" transform="rotate(-90 23.6667 25.6667)" fill="#A4A0C0"/>
<rect x="23" y="25" width="0.666666" height="0.666667" transform="rotate(-90 23 25)" fill="#9A7457"/>
<rect x="23" y="25.6667" width="0.666666" height="0.666667" transform="rotate(-90 23 25.6667)" fill="#A4A0C0"/>
<rect x="22.3333" y="25.6667" width="0.666666" height="0.666666" transform="rotate(-90 22.3333 25.6667)" fill="#A4A0C0"/>
<rect x="22.3333" y="25" width="0.666666" height="0.666666" transform="rotate(-90 22.3333 25)" fill="#9A7457"/>
<rect x="21.6667" y="25" width="0.666666" height="0.666667" transform="rotate(-90 21.6667 25)" fill="#A4A0C0"/>
<rect x="21.6667" y="24.3333" width="0.666666" height="0.666667" transform="rotate(-90 21.6667 24.3333)" fill="#9A7457"/>
<rect x="21" y="23.6667" width="0.666667" height="0.666666" transform="rotate(-90 21 23.6667)" fill="#9A7457"/>
<rect x="20.3333" y="24.3333" width="0.666666" height="0.666668" transform="rotate(-90 20.3333 24.3333)" fill="#A4A0C0"/>
<rect x="21" y="24.3333" width="0.666666" height="0.666666" transform="rotate(-90 21 24.3333)" fill="#A4A0C0"/>
<rect x="19.6667" y="24.3333" width="0.666666" height="0.666666" transform="rotate(-90 19.6667 24.3333)" fill="#A4A0C0"/>
<rect x="19" y="23.6667" width="0.666667" height="0.666667" transform="rotate(-90 19 23.6667)" fill="#A4A0C0"/>
<rect x="18.3333" y="23" width="0.666666" height="0.666666" transform="rotate(-90 18.3333 23)" fill="#A4A0C0"/>
<rect x="25.6667" y="25.6667" width="0.666666" height="0.666666" transform="rotate(-180 25.6667 25.6667)" fill="#6767AB"/>
<rect x="25.6667" y="26.3333" width="0.666666" height="0.666668" transform="rotate(-180 25.6667 26.3333)" fill="#3C418D"/>
<rect x="26.3333" y="26.3333" width="0.666668" height="0.666668" transform="rotate(-180 26.3333 26.3333)" fill="#3C418D"/>
<rect x="25.6667" y="27" width="0.666666" height="0.666664" transform="rotate(-180 25.6667 27)" fill="#A4A0C0"/>
<rect x="26.3333" y="25.6667" width="0.666666" height="0.666666" transform="rotate(-90 26.3333 25.6667)" fill="#A4A0C0"/>
<rect x="26.3333" y="27" width="0.666668" height="0.666664" transform="rotate(-180 26.3333 27)" fill="#A4A0C0"/>
<rect x="26.3333" y="26.3333" width="0.666668" height="0.666666" transform="rotate(-90 26.3333 26.3333)" fill="#A4A0C0"/>
<rect x="25.6667" y="25.6667" width="0.666666" height="0.666668" transform="rotate(-90 25.6667 25.6667)" fill="#3C418D"/>
<rect x="25" y="25" width="0.666666" height="0.666666" transform="rotate(-180 25 25)" fill="#6767AB"/>
<rect x="24.3333" y="24.3333" width="0.666666" height="0.666666" transform="rotate(-180 24.3333 24.3333)" fill="#6767AB"/>
<rect x="23.6667" y="23.6667" width="0.666667" height="0.666667" transform="rotate(-180 23.6667 23.6667)" fill="#6767AB"/>
<rect x="23" y="23" width="0.666666" height="0.666666" transform="rotate(-180 23 23)" fill="#6767AB"/>
<rect x="22.3333" y="22.3333" width="0.666667" height="0.666667" transform="rotate(-180 22.3333 22.3333)" fill="#6767AB"/>
<rect x="21.6667" y="21.6667" width="0.666666" height="0.666666" transform="rotate(-180 21.6667 21.6667)" fill="#6767AB"/>
<rect x="21.6667" y="21" width="0.666666" height="0.666668" transform="rotate(-180 21.6667 21)" fill="#3C418D"/>
<rect x="21.6667" y="22.3333" width="0.666666" height="0.666667" transform="rotate(-180 21.6667 22.3333)" fill="#3C418D"/>
<rect x="22.3333" y="21.6667" width="0.666667" height="0.666666" transform="rotate(-180 22.3333 21.6667)" fill="#3C418D"/>
<rect x="25.6667" y="25" width="0.666666" height="0.666666" transform="rotate(-180 25.6667 25)" fill="#3C418D"/>
<rect x="25" y="24.3333" width="0.666666" height="0.666666" transform="rotate(-180 25 24.3333)" fill="#3C418D"/>
<rect x="24.3333" y="23.6667" width="0.666666" height="0.666667" transform="rotate(-180 24.3333 23.6667)" fill="#3C418D"/>
<rect x="23.6667" y="23" width="0.666667" height="0.666666" transform="rotate(-180 23.6667 23)" fill="#3C418D"/>
<rect x="23" y="22.3333" width="0.666666" height="0.666667" transform="rotate(-180 23 22.3333)" fill="#3C418D"/>
<rect x="23.6667" y="24.3333" width="0.666667" height="0.666666" transform="rotate(-180 23.6667 24.3333)" fill="#3C418D"/>
<rect x="23" y="23.6667" width="0.666666" height="0.666667" transform="rotate(-180 23 23.6667)" fill="#3C418D"/>
<rect x="22.3333" y="23" width="0.666667" height="0.666666" transform="rotate(-180 22.3333 23)" fill="#3C418D"/>
<rect x="24.3333" y="25" width="0.666666" height="0.666666" transform="rotate(-180 24.3333 25)" fill="#3C418D"/>
<rect x="16.3333" y="17" width="0.666666" height="0.666667" transform="rotate(-180 16.3333 17)" fill="#525396"/>
<rect x="17" y="16.3333" width="0.666667" height="0.666665" transform="rotate(-180 17 16.3333)" fill="#525396"/>
<rect x="17.6667" y="17" width="0.666666" height="0.666667" transform="rotate(-180 17.6667 17)" fill="#525396"/>
<rect x="17.6667" y="18.3333" width="0.666666" height="0.666667" transform="rotate(-180 17.6667 18.3333)" fill="#525396"/>
<rect x="18.3333" y="19" width="0.666667" height="0.666666" transform="rotate(-180 18.3333 19)" fill="#525396"/>
<rect x="19" y="19.6667" width="0.666666" height="0.666667" transform="rotate(-180 19 19.6667)" fill="#525396"/>
<rect x="18.3333" y="17.6667" width="0.666667" height="0.666666" transform="rotate(-180 18.3333 17.6667)" fill="#525396"/>
<rect x="19" y="18.3333" width="0.666666" height="0.666667" transform="rotate(-180 19 18.3333)" fill="#525396"/>
<rect x="17.6667" y="19" width="0.666666" height="0.666666" transform="rotate(-180 17.6667 19)" fill="#A4A0C0"/>
<rect x="18.3333" y="19.6667" width="0.666667" height="0.666667" transform="rotate(-180 18.3333 19.6667)" fill="#A4A0C0"/>
<rect x="19" y="20.3334" width="0.666666" height="0.666666" transform="rotate(-180 19 20.3334)" fill="#A4A0C0"/>
<rect x="19" y="21.6667" width="0.666666" height="0.666666" transform="rotate(-180 19 21.6667)" fill="#A4A0C0"/>
<rect x="19" y="21" width="0.666666" height="0.666668" transform="rotate(-180 19 21)" fill="#A4A0C0"/>
<rect x="19" y="22.3333" width="0.666666" height="0.666667" transform="rotate(-180 19 22.3333)" fill="#A4A0C0"/>
<rect x="17.6667" y="17.6667" width="0.666666" height="0.666666" transform="rotate(-180 17.6667 17.6667)" fill="#6767AB"/>
<rect x="18.3333" y="18.3333" width="0.666667" height="0.666667" transform="rotate(-180 18.3333 18.3333)" fill="#6767AB"/>
<rect x="19" y="19" width="0.666666" height="0.666666" transform="rotate(-180 19 19)" fill="#6767AB"/>
<rect x="16.3333" y="15.6667" width="0.666666" height="0.666665" transform="rotate(-180 16.3333 15.6667)" fill="#525396"/>
<rect x="13" y="13.6667" width="0.666667" height="0.666667" transform="rotate(-180 13 13.6667)" fill="#525396"/>
<rect x="12.3333" y="13" width="0.666667" height="0.666667" transform="rotate(-180 12.3333 13)" fill="#525396"/>
<rect x="11.6667" y="12.3333" width="0.666667" height="0.666667" transform="rotate(-180 11.6667 12.3333)" fill="#525396"/>
<rect x="11" y="11.6667" width="0.666667" height="0.666667" transform="rotate(-180 11 11.6667)" fill="#525396"/>
<rect x="15" y="14.3333" width="0.666666" height="0.666667" transform="rotate(-180 15 14.3333)" fill="#525396"/>
<rect x="7" y="9" width="0.666667" height="0.666667" transform="rotate(90 7 9)" fill="#525396"/>
<rect x="7.66666" y="9.66667" width="0.666666" height="0.666667" transform="rotate(90 7.66666 9.66667)" fill="#525396"/>
<rect x="8.33333" y="9.66667" width="0.666666" height="0.666666" transform="rotate(90 8.33333 9.66667)" fill="#525396"/>
<rect x="9.00002" y="9.66667" width="0.666666" height="0.666667" transform="rotate(90 9.00002 9.66667)" fill="#525396"/>
<rect x="9.00002" y="9" width="0.666667" height="0.666667" transform="rotate(90 9.00002 9)" fill="#5D5D9C"/>
<rect x="9.66669" y="8.33332" width="0.666667" height="0.666667" transform="rotate(90 9.66669 8.33332)" fill="#5D5D9C"/>
<rect x="7" y="5.66666" width="0.666667" height="0.666667" fill="#CA8D3B"/>
<rect x="6.33333" y="7" width="0.666667" height="0.666667" transform="rotate(90 6.33333 7)" fill="#CA8D3B"/>
<rect x="8.33333" y="11" width="0.666667" height="0.666666" transform="rotate(90 8.33333 11)" fill="#9A7457"/>
<rect x="8.33333" y="10.3333" width="0.666666" height="0.666666" transform="rotate(90 8.33333 10.3333)" fill="#9A7457"/>
<rect x="7.66666" y="5" width="0.666667" height="0.666667" fill="#A4A0C0"/>
<rect x="5.66666" y="7.66666" width="0.666666" height="0.666667" transform="rotate(90 5.66666 7.66666)" fill="#A4A0C0"/>
<rect x="6.33333" y="9" width="0.666667" height="0.666667" transform="rotate(90 6.33333 9)" fill="#A4A0C0"/>
<rect x="7" y="9.66667" width="0.666666" height="0.666667" transform="rotate(90 7 9.66667)" fill="#A4A0C0"/>
<rect x="7.66666" y="10.3333" width="0.666666" height="0.666667" transform="rotate(90 7.66666 10.3333)" fill="#A4A0C0"/>
<rect x="17" y="18.3333" width="0.666667" height="0.666667" transform="rotate(-180 17 18.3333)" fill="#A4A0C0"/>
<rect x="7.66666" y="11" width="0.666667" height="0.666667" transform="rotate(90 7.66666 11)" fill="#A4A0C0"/>
<rect x="16.3333" y="18.3333" width="0.666666" height="0.666667" transform="rotate(-180 16.3333 18.3333)" fill="#A4A0C0"/>
<rect x="21" y="20.3334" width="0.666666" height="0.666666" transform="rotate(-90 21 20.3334)" fill="#A4A0C0"/>
<rect x="15.6667" y="18.3333" width="0.666667" height="0.666667" transform="rotate(-180 15.6667 18.3333)" fill="#A4A0C0"/>
<rect x="21" y="19.6667" width="0.666667" height="0.666666" transform="rotate(-90 21 19.6667)" fill="#A4A0C0"/>
<rect x="15" y="18.3333" width="0.666666" height="0.666667" transform="rotate(-180 15 18.3333)" fill="#A4A0C0"/>
<rect x="21" y="19" width="0.666667" height="0.666666" transform="rotate(-90 21 19)" fill="#A4A0C0"/>
<rect x="14.3333" y="18.3333" width="0.666667" height="0.666667" transform="rotate(-180 14.3333 18.3333)" fill="#A4A0C0"/>
<rect x="21" y="18.3333" width="0.666667" height="0.666666" transform="rotate(-90 21 18.3333)" fill="#A4A0C0"/>
<rect x="20.3333" y="17.6667" width="0.666666" height="0.666668" transform="rotate(-90 20.3333 17.6667)" fill="#A4A0C0"/>
<rect x="19.6667" y="17" width="0.666667" height="0.666666" transform="rotate(-90 19.6667 17)" fill="#A4A0C0"/>
<rect x="14.3333" y="17.6667" width="0.666667" height="0.666666" transform="rotate(-180 14.3333 17.6667)" fill="#9A7457"/>
<rect x="13.6667" y="17" width="0.666667" height="0.666667" transform="rotate(-180 13.6667 17)" fill="#9A7457"/>
<rect x="11.6667" y="15" width="0.666667" height="0.666664" transform="rotate(-180 11.6667 15)" fill="#A4A0C0"/>
<rect x="11.6667" y="15.6667" width="0.666667" height="0.666665" transform="rotate(-180 11.6667 15.6667)" fill="#A4A0C0"/>
<rect x="12.3333" y="16.3333" width="0.666667" height="0.666665" transform="rotate(-180 12.3333 16.3333)" fill="#A4A0C0"/>
<rect x="13" y="17" width="0.666667" height="0.666667" transform="rotate(-180 13 17)" fill="#A4A0C0"/>
<rect x="13.6667" y="17.6667" width="0.666667" height="0.666666" transform="rotate(-180 13.6667 17.6667)" fill="#A4A0C0"/>
<rect x="11.6667" y="14.3333" width="0.666667" height="0.666667" transform="rotate(-180 11.6667 14.3333)" fill="#A4A0C0"/>
<rect x="11.6667" y="13.6667" width="0.666667" height="0.666667" transform="rotate(-180 11.6667 13.6667)" fill="#A4A0C0"/>
<rect x="8.33333" y="5.66666" width="0.666667" height="0.666667" fill="#A4A0C0"/>
<rect x="5.66666" y="5.66666" width="0.666667" height="0.666667" fill="#A4A0C0"/>
<rect x="6.33333" y="7" width="0.666667" height="0.666667" fill="#FFECA9"/>
<rect x="7" y="6.33333" width="0.666667" height="0.666667" fill="#FFECA9"/>
<rect x="8.33333" y="8.33332" width="0.666667" height="0.666667" fill="#A4A0C0"/>
<rect x="9.00002" y="9" width="0.666667" height="0.666667" fill="#5D5D9C"/>
<rect x="9.00002" y="9.66667" width="0.666667" height="0.666667" fill="#A4A0C0"/>
<rect x="9.00002" y="10.3333" width="0.666667" height="0.666667" fill="#525396"/>
<rect x="8.33333" y="10.3333" width="0.666667" height="0.666667" fill="#A4A0C0"/>
<rect x="8.33333" y="11" width="0.666667" height="0.666667" fill="#FED955"/>
<rect x="13" y="13.6667" width="0.666667" height="0.666667" transform="rotate(90 13 13.6667)" fill="#FED955"/>
<rect x="9.00002" y="11" width="0.666667" height="0.666667" fill="#FED955"/>
<rect x="13" y="14.3333" width="0.666666" height="0.666667" transform="rotate(90 13 14.3333)" fill="#FED955"/>
<rect x="9.66669" y="11" width="0.666667" height="0.666667" fill="#FED955"/>
<rect x="13" y="15" width="0.666667" height="0.666667" transform="rotate(90 13 15)" fill="#FED955"/>
<rect x="13.6667" y="15" width="0.666667" height="0.666667" transform="rotate(90 13.6667 15)" fill="#FED955"/>
<rect x="14.3333" y="15.6667" width="0.666665" height="0.666667" transform="rotate(90 14.3333 15.6667)" fill="#FED955"/>
<rect x="15" y="16.3333" width="0.666667" height="0.666666" transform="rotate(90 15 16.3333)" fill="#FED955"/>
<rect x="20.3333" y="18.3333" width="0.666666" height="0.666667" transform="rotate(-180 20.3333 18.3333)" fill="#FED955"/>
<rect x="20.3333" y="19.6667" width="0.666666" height="0.666667" transform="rotate(-180 20.3333 19.6667)" fill="#FED955"/>
<rect x="20.3333" y="21" width="0.666666" height="0.666668" transform="rotate(-180 20.3333 21)" fill="#FED955"/>
<rect x="15" y="17" width="0.666666" height="0.666666" transform="rotate(90 15 17)" fill="#9A7457"/>
<rect x="18.3333" y="16.3333" width="0.666667" height="0.666667" transform="rotate(90 18.3333 16.3333)" fill="#CA8D3B"/>
<rect x="13" y="15.6667" width="0.666665" height="0.666667" transform="rotate(90 13 15.6667)" fill="#9A7457"/>
<rect x="9.66669" y="9.66667" width="0.666667" height="0.666667" fill="#525396"/>
<rect x="9.66669" y="10.3333" width="0.666667" height="0.666667" fill="#525396"/>
<rect x="9.66669" y="9" width="0.666667" height="0.666667" fill="#A4A0C0"/>
<rect x="9.00002" y="7.66666" width="0.666667" height="0.666667" fill="#A4A0C0"/>
<rect x="10.3333" y="7.66666" width="0.666667" height="0.666667" fill="#A4A0C0"/>
<rect x="10.3333" y="8.33332" width="0.666667" height="0.666667" fill="#A4A0C0"/>
<rect x="11" y="9.66667" width="0.666667" height="0.666667" fill="#A4A0C0"/>
<rect x="11" y="9" width="0.666667" height="0.666667" fill="#A4A0C0"/>
<rect x="11.6667" y="9.66667" width="0.666667" height="0.666667" fill="#A4A0C0"/>
<rect x="12.3333" y="10.3333" width="0.666667" height="0.666667" fill="#9A7457"/>
<rect x="13" y="14.3333" width="0.666667" height="0.666666" fill="#CA8D3B"/>
<rect x="13.6667" y="15" width="0.666667" height="0.666667" fill="#CA8D3B"/>
<rect x="13" y="15.6667" width="0.666667" height="0.666666" fill="#FED955"/>
<rect x="13.6667" y="16.3333" width="0.666667" height="0.666667" fill="#FED955"/>
<rect x="14.3333" y="15.6667" width="0.666666" height="0.666666" fill="#CA8D3B"/>
<rect x="15" y="16.3333" width="0.666667" height="0.666667" fill="#FED955"/>
<rect x="20.3333" y="18.3333" width="0.666666" height="0.666666" transform="rotate(90 20.3333 18.3333)" fill="#FED955"/>
<rect x="20.3333" y="19.6667" width="0.666666" height="0.666666" transform="rotate(90 20.3333 19.6667)" fill="#FED955"/>
<rect x="20.3333" y="21" width="0.666666" height="0.666666" transform="rotate(90 20.3333 21)" fill="#FED955"/>
<rect x="20.3333" y="21.6667" width="0.666667" height="0.666666" transform="rotate(90 20.3333 21.6667)" fill="#FED955"/>
<rect x="19" y="17" width="0.666667" height="0.666666" fill="#FED955"/>
<rect x="15" y="17" width="0.666667" height="0.666666" fill="#9A7457"/>
<rect x="18.3333" y="16.3333" width="0.666666" height="0.666667" fill="#CA8D3B"/>
<rect x="18.3333" y="17" width="0.666666" height="0.666666" fill="#CA8D3B"/>
<rect x="15.6667" y="17" width="0.666666" height="0.666666" fill="#9A7457"/>
<rect x="19" y="16.3333" width="0.666667" height="0.666667" fill="#CA8D3B"/>
<rect x="19.6667" y="17" width="0.666666" height="0.666666" fill="#CA8D3B"/>
<rect x="19" y="17.6667" width="0.666667" height="0.666667" fill="#9A7457"/>
<rect x="19" y="19.6667" width="0.666667" height="0.666666" fill="#9A7457"/>
<rect x="19" y="18.3333" width="0.666667" height="0.666666" fill="#9A7457"/>
<rect x="19" y="20.3334" width="0.666667" height="0.666668" fill="#9A7457"/>
<rect x="19" y="21.6667" width="0.666667" height="0.666667" fill="#9A7457"/>
<rect x="19" y="19" width="0.666667" height="0.666667" fill="#9A7457"/>
<rect x="19" y="21" width="0.666667" height="0.666666" fill="#9A7457"/>
<rect x="19" y="22.3333" width="0.666667" height="0.666666" fill="#9A7457"/>
<rect x="19.6667" y="23" width="0.666666" height="0.666667" fill="#9A7457"/>
<rect x="20.3333" y="23" width="0.666668" height="0.666667" fill="#9A7457"/>
<rect x="21" y="20.3334" width="0.666668" height="0.666668" transform="rotate(90 21 20.3334)" fill="#9A7457"/>
<rect x="21" y="18.3333" width="0.666666" height="0.666668" transform="rotate(90 21 18.3333)" fill="#9A7457"/>
<rect x="21" y="17.6667" width="0.666667" height="0.666668" transform="rotate(90 21 17.6667)" fill="#9A7457"/>
<rect x="19.6667" y="22.3333" width="0.666666" height="0.666666" fill="#CA8D3B"/>
<rect x="21" y="21" width="0.666666" height="0.666668" transform="rotate(90 21 21)" fill="#9A7457"/>
<rect x="21" y="19" width="0.666667" height="0.666668" transform="rotate(90 21 19)" fill="#9A7457"/>
<rect x="20.3333" y="22.3333" width="0.666668" height="0.666666" fill="#CA8D3B"/>
<rect x="21" y="22.3333" width="0.666666" height="0.666666" fill="#CA8D3B"/>
<rect x="21.6667" y="23" width="0.666667" height="0.666667" fill="#CA8D3B"/>
<rect x="22.3333" y="23.6667" width="0.666666" height="0.666666" fill="#CA8D3B"/>
<rect x="21" y="21.6667" width="0.666667" height="0.666668" transform="rotate(90 21 21.6667)" fill="#9A7457"/>
<rect x="21" y="19.6667" width="0.666666" height="0.666668" transform="rotate(90 21 19.6667)" fill="#9A7457"/>
<rect x="13" y="10.3333" width="0.666667" height="0.666667" fill="#A4A0C0"/>
<rect x="12.3333" y="9.66667" width="0.666667" height="0.666667" fill="#A4A0C0"/>
<rect x="13" y="11" width="0.666667" height="0.666667" fill="#9A7457"/>
<rect x="13.6667" y="11" width="0.666667" height="0.666667" fill="#A4A0C0"/>
<rect x="13" y="11.6667" width="0.666667" height="0.666667" fill="#9A7457"/>
<rect x="13.6667" y="11.6667" width="0.666667" height="0.666667" fill="#A4A0C0"/>
<rect x="15" y="13.6667" width="0.666667" height="0.666667" fill="#A4A0C0"/>
<rect x="14.3333" y="13" width="0.666666" height="0.666667" fill="#A4A0C0"/>
<rect x="15.6667" y="14.3333" width="0.666666" height="0.666666" fill="#A4A0C0"/>
<rect x="16.3333" y="15" width="0.666667" height="0.666667" fill="#A4A0C0"/>
<rect x="17" y="15.6667" width="0.666666" height="0.666666" fill="#A4A0C0"/>
<rect x="17.6667" y="15.6667" width="0.666667" height="0.666666" fill="#A4A0C0"/>
<rect x="18.3333" y="15.6667" width="0.666666" height="0.666666" fill="#A4A0C0"/>
<rect x="19" y="15.6667" width="0.666667" height="0.666666" fill="#A4A0C0"/>
<rect x="13.6667" y="12.3333" width="0.666667" height="0.666667" fill="#A4A0C0"/>
<rect x="7.66666" y="9" width="0.666667" height="0.666667" transform="rotate(90 7.66666 9)" fill="#A4A0C0"/>
<rect x="9.00002" y="7" width="0.666667" height="0.666667" fill="#A4A0C0"/>
<rect x="10.3333" y="7" width="0.666667" height="0.666667" fill="#A4A0C0"/>
<rect x="8.33333" y="9" width="0.666667" height="0.666666" transform="rotate(90 8.33333 9)" fill="#A4A0C0"/>
<rect x="9.00002" y="5.66666" width="0.666667" height="0.666667" fill="#A4A0C0"/>
<rect x="9.66669" y="6.33333" width="0.666667" height="0.666667" fill="#A4A0C0"/>
<rect x="7.66666" y="5.66666" width="0.666667" height="0.666667" fill="#CA8D3B"/>
<rect x="6.33333" y="7.66666" width="0.666666" height="0.666667" transform="rotate(90 6.33333 7.66666)" fill="#CA8D3B"/>
<rect x="8.33333" y="11.6667" width="0.666667" height="0.666666" transform="rotate(90 8.33333 11.6667)" fill="#A4A0C0"/>
<rect x="12.3333" y="13.6667" width="0.666667" height="0.666667" transform="rotate(-180 12.3333 13.6667)" fill="#9A7457"/>
<path d="M10 1H22V-1H10V1ZM31 10V22H33V10H31ZM22 31H10V33H22V31ZM1 22V10H-1V22H1ZM10 31C5.02944 31 1 26.9706 1 22H-1C-1 28.0751 3.92487 33 10 33V31ZM31 22C31 26.9706 26.9706 31 22 31V33C28.0751 33 33 28.0751 33 22H31ZM22 1C26.9706 1 31 5.02944 31 10H33C33 3.92487 28.0751 -1 22 -1V1ZM10 -1C3.92487 -1 -1 3.92487 -1 10H1C1 5.02944 5.02944 1 10 1V-1Z" fill="white" fill-opacity="0.2"/>
<defs>
<radialGradient id="paint0_radial_3_10313" cx="0" cy="0" r="1" gradientUnits="userSpaceOnUse" gradientTransform="translate(16 16) rotate(90) scale(16)">
<stop stop-color="#786EBC"/>
<stop offset="1" stop-color="#180845"/>
</radialGradient>
</defs>
</svg>
