<svg width="32" height="32" viewBox="0 0 32 32" fill="none" xmlns="http://www.w3.org/2000/svg">
<path d="M0 10C0 4.47715 4.47715 0 10 0H22C27.5228 0 32 4.47715 32 10V22C32 27.5228 27.5228 32 22 32H10C4.47715 32 0 27.5228 0 22V10Z" fill="url(#paint0_radial_3_10267)"/>
<path d="M15.2983 23.0488V9.14168H16.8127V23.0488H15.2983Z" fill="white"/>
<path d="M23.0075 13.7752L18.3305 15.0155L17.2875 10.1614L18.6782 9.84712L19.2265 12.1472C19.2265 12.1472 20.4901 10.0745 18.8052 7.9282C17.8123 6.82499 17.341 6.77819 16.2277 6.60435C15.2482 6.46394 12.9716 6.7949 12.2929 9.45264C12.0054 11.1643 12.3297 12.4313 14.5361 14.0895L14.4124 15.9349C14.4124 15.9349 11.9486 14.1998 11.3134 12.9829C10.822 12.0201 9.97953 10.1179 11.5006 7.4702C12.3197 6.14635 13.9344 4.87598 16.7793 5.0097C18.2102 5.06988 21.7037 6.8183 21.1621 10.9035C21.0685 11.6691 20.6707 12.6887 20.6707 12.6887L22.5896 12.2608L23.0075 13.7752Z" fill="white"/>
<path d="M20.3363 24.6569C19.4805 25.9573 17.8324 27.1842 14.9941 26.977C13.5633 26.88 10.1199 25.038 10.7685 20.9695C10.8821 20.2072 11.3067 19.201 11.3067 19.201L9.37777 19.5754L9 18.0543L13.7104 16.9377L14.6264 21.8186L13.2256 22.0961L12.7376 19.7793C12.7376 19.7793 11.4204 21.8153 13.0451 24.0083C14.0079 25.1383 14.4759 25.1951 15.5892 25.399C16.562 25.5662 18.8487 25.2921 19.5975 22.6544C19.9285 20.9527 19.6376 19.6757 17.478 17.9574L17.6519 16.1153C17.6519 16.1153 20.0689 17.9139 20.6707 19.1475C21.132 20.127 21.9243 22.0526 20.3363 24.6569Z" fill="white"/>
<path d="M10 1H22V-1H10V1ZM31 10V22H33V10H31ZM22 31H10V33H22V31ZM1 22V10H-1V22H1ZM10 31C5.02944 31 1 26.9706 1 22H-1C-1 28.0751 3.92487 33 10 33V31ZM31 22C31 26.9706 26.9706 31 22 31V33C28.0751 33 33 28.0751 33 22H31ZM22 1C26.9706 1 31 5.02944 31 10H33C33 3.92487 28.0751 -1 22 -1V1ZM10 -1C3.92487 -1 -1 3.92487 -1 10H1C1 5.02944 5.02944 1 10 1V-1Z" fill="white" fill-opacity="0.2"/>
<defs>
<radialGradient id="paint0_radial_3_10267" cx="0" cy="0" r="1" gradientUnits="userSpaceOnUse" gradientTransform="translate(16 16) rotate(90) scale(16)">
<stop stop-color="#7FADFC"/>
<stop offset="1" stop-color="#2D76F2"/>
</radialGradient>
</defs>
</svg>
