<svg width="32" height="32" viewBox="0 0 32 32" fill="none" xmlns="http://www.w3.org/2000/svg">
<path d="M0 10C0 4.47715 4.47715 0 10 0H22C27.5228 0 32 4.47715 32 10V22C32 27.5228 27.5228 32 22 32H10C4.47715 32 0 27.5228 0 22V10Z" fill="#F00500"/>
<path d="M21.1991 15.7369C21.1899 15.7861 21.0455 15.9336 20.9011 16.0411C20.4771 16.3514 19.7183 16.6402 18.9472 16.7784C18.5078 16.8583 18.0685 16.8706 17.9364 16.8061C17.8504 16.7631 17.8381 16.7293 17.8688 16.6187C17.9333 16.3882 18.1422 16.1363 18.4679 15.8998C18.6338 15.78 19.3066 15.3714 19.62 15.1993C20.1361 14.9167 20.5539 14.7477 20.8365 14.7078C20.9256 14.6955 21.0332 14.6924 21.067 14.7078C21.1223 14.7293 21.1837 14.8921 21.2083 15.0887C21.2206 15.1932 21.2144 15.654 21.1991 15.7369Z" fill="black"/>
<path d="M13.961 16.7538C13.9425 16.7907 13.8504 16.8306 13.7459 16.846C13.6415 16.8614 13.322 16.8521 13.1407 16.8306C12.4894 16.7446 11.7982 16.5449 11.2943 16.2992C11.0117 16.1609 10.8089 16.0227 10.6584 15.8721L10.5723 15.783L10.5631 15.6663C10.5478 15.4635 10.5508 15.144 10.5754 15.0303C10.5908 14.9351 10.6246 14.8429 10.6707 14.76C10.6952 14.7293 10.6952 14.7293 10.8058 14.7293C10.941 14.7293 11.0547 14.7508 11.239 14.8091C11.6169 14.9259 12.1791 15.2085 12.8642 15.6202C13.4295 15.9581 13.6415 16.124 13.8043 16.3514C13.9149 16.4927 13.9886 16.6924 13.961 16.7538Z" fill="black"/>
<path d="M18.3112 21.0303C18.3112 21.0396 18.2743 21.187 18.2283 21.3621C18.1822 21.5372 18.1453 21.6786 18.1453 21.6847C18.1115 21.6878 18.0808 21.6909 18.047 21.6878H17.9487L17.8135 22.0073C17.7398 22.1824 17.6722 22.3452 17.663 22.3698L17.6445 22.4128L17.58 22.3084L17.5155 22.2039V21.3529L17.4909 21.3591C17.4387 21.3713 17.067 21.4205 16.9041 21.4359C16.2313 21.5035 15.5554 21.4881 14.8857 21.3929C14.7782 21.3775 14.686 21.3652 14.6829 21.3683C14.6799 21.3713 14.6829 21.568 14.6891 21.8107L14.6983 22.2469L14.6461 22.3268C14.6184 22.3698 14.5908 22.4067 14.5908 22.4097C14.5816 22.419 14.5508 22.3698 14.4802 22.2285C14.4034 22.081 14.3481 21.9243 14.3081 21.7615L14.2866 21.6724L14.1914 21.6786L14.0962 21.6878L14.0716 21.5741C14.0593 21.5127 14.0439 21.4174 14.0378 21.3652L14.0286 21.2669L13.9487 21.1962C13.9026 21.1563 13.8565 21.1164 13.8473 21.1102C13.8319 21.0979 13.8258 21.0764 13.8258 21.058V21.0211L14.2098 21.0242L14.5939 21.0273L14.6061 21.0672L14.6184 21.1071L14.7505 21.1133C14.8243 21.1164 15.0578 21.1225 15.2667 21.1286L15.6507 21.1379L15.749 20.9843L15.8504 20.8306H15.9794L15.9763 20.5111L15.9733 20.1916L15.8043 20.1179C15.2605 19.8783 14.941 19.6048 14.8212 19.273C14.7966 19.2055 14.7966 19.1809 14.7905 18.8737C14.7874 18.5695 14.7874 18.5419 14.8089 18.4743C14.8519 18.3207 14.9717 18.2009 15.1253 18.1609C15.1776 18.1456 15.3158 18.1456 16.0409 18.1456L16.8949 18.1486L16.9902 18.1947C17.1038 18.25 17.1561 18.2899 17.2206 18.376C17.2943 18.4743 17.3158 18.5511 17.3158 18.7385C17.3158 19.0058 17.2974 19.2362 17.2697 19.3283C17.2298 19.4543 17.1683 19.5741 17.0915 19.6816C16.9379 19.8783 16.6584 20.0749 16.4034 20.164L16.3296 20.1916L16.3327 20.5142L16.3358 20.8368L16.4034 20.8429L16.471 20.8491L16.5631 20.9873L16.6522 21.1256H17.0639C17.2912 21.1256 17.4909 21.1286 17.5094 21.1317C17.5401 21.1379 17.5462 21.1348 17.5769 21.0826L17.6138 21.0273H17.9671C18.2313 21.015 18.3112 21.0211 18.3112 21.0303Z" fill="black"/>
<path d="M16.6891 21.912C16.6307 21.9458 16.5908 21.9612 16.5816 21.9551C16.5723 21.952 16.5293 21.9151 16.4833 21.8813L16.4003 21.8137L16.3143 21.9059C16.1269 22.1087 16.1207 22.1179 16.0654 22.121C15.9794 22.1302 15.961 22.1148 15.8565 21.9581C15.8012 21.8783 15.7582 21.8107 15.7582 21.8107C15.7582 21.8107 15.7183 21.8045 15.6722 21.8014L15.5862 21.7922L15.5462 21.8752L15.5063 21.9581L15.4356 21.9366C15.3803 21.9182 15.325 21.8967 15.2728 21.8721L15.1806 21.826V21.6509L15.9978 21.654L16.8151 21.6571L16.8181 21.74C16.8212 21.8383 16.8243 21.8352 16.6891 21.912Z" fill="black"/>
<path d="M24.3696 18.164C24.3665 18.1517 24.3665 18.1302 24.3634 18.0964C23.6261 18.0165 21.5217 17.9673 19.5677 19.5802C19.5677 19.5802 18.9379 16.6924 15.9886 16.6924C13.0393 16.6924 11.9456 19.5802 11.9456 19.5802C10.2928 17.8014 8.0808 17.9305 7.28203 18.0472C7.28203 18.0657 7.27896 18.0872 7.27896 18.1056C7.25438 18.5511 7.26667 18.763 7.3404 19.0426C7.57082 19.9182 8.28049 20.8829 9.39263 21.8291C11.2144 23.3775 13.6845 24.4958 15.5555 24.6248C17.5063 24.7569 20.3849 23.6171 22.302 21.952C22.6031 21.6847 22.8857 21.4021 23.1499 21.101C23.3404 20.8798 23.623 20.4988 23.6015 20.4988C23.5954 20.4988 23.6015 20.4927 23.6138 20.4865C23.623 20.4804 23.6323 20.4712 23.6261 20.465C23.623 20.462 23.6292 20.4528 23.6384 20.4497C23.6476 20.4466 23.6538 20.4405 23.6507 20.4343C23.6476 20.4282 23.6507 20.422 23.663 20.419C23.6722 20.4159 23.6753 20.4067 23.6722 20.4005C23.6691 20.3944 23.6722 20.3882 23.6783 20.3882C23.6845 20.3882 23.6906 20.379 23.6906 20.3729C23.6906 20.3667 23.6968 20.3575 23.7029 20.3575C23.7091 20.3575 23.7152 20.3514 23.7152 20.3452C23.7244 20.3206 23.7398 20.2961 23.7551 20.2746C23.8012 20.2039 23.9856 19.8752 24.0101 19.8199C24.1853 19.4236 24.2959 19.0703 24.3481 18.717C24.3665 18.548 24.3819 18.2377 24.3696 18.164ZM16.6891 21.912C16.6307 21.9458 16.5908 21.9612 16.5816 21.9551C16.5724 21.952 16.5293 21.9151 16.4833 21.8813L16.4003 21.8137L16.3143 21.9059C16.1269 22.1087 16.1207 22.1179 16.0654 22.121C15.9794 22.1302 15.961 22.1148 15.8565 21.9581C15.8012 21.8783 15.7582 21.8107 15.7582 21.8107C15.7582 21.8107 15.7183 21.8045 15.6722 21.8014L15.5862 21.7922L15.5462 21.8752L15.5063 21.9581L15.4356 21.9366C15.3803 21.9182 15.325 21.8967 15.2728 21.8721L15.1806 21.826V21.6509L15.9979 21.654L16.8151 21.6571L16.8181 21.74C16.8212 21.8383 16.8243 21.8352 16.6891 21.912ZM18.2252 21.359C18.1791 21.5342 18.1422 21.6755 18.1422 21.6816C18.1085 21.6847 18.0777 21.6878 18.0439 21.6847H17.9456L17.8135 22.0073C17.7398 22.1824 17.6722 22.3452 17.663 22.3698L17.6446 22.4128L17.58 22.3084L17.5155 22.2039V21.3529L17.4909 21.359C17.4387 21.3713 17.067 21.4205 16.9041 21.4359C16.2313 21.5034 15.5555 21.4881 14.8857 21.3928C14.7782 21.3775 14.686 21.3652 14.683 21.3683C14.6799 21.3713 14.683 21.568 14.6891 21.8107L14.6983 22.2469L14.6461 22.3268C14.6184 22.3698 14.5908 22.4067 14.5908 22.4097C14.5816 22.419 14.5508 22.3698 14.4802 22.2285C14.4034 22.081 14.3481 21.9243 14.3081 21.7615L14.2866 21.6724L14.1914 21.6786L14.0962 21.6878L14.0716 21.5741C14.0593 21.5127 14.0439 21.4174 14.0378 21.3652L14.0286 21.2669L13.9487 21.1962C13.9026 21.1563 13.8565 21.1163 13.8473 21.1102C13.832 21.0979 13.8258 21.0764 13.8258 21.058V21.0211L14.2098 21.0242L14.5939 21.0273L14.6061 21.0672L14.6184 21.1071L14.7505 21.1133C14.8243 21.1163 15.0578 21.1225 15.2667 21.1286L15.6507 21.1379L15.749 20.9842L15.8504 20.8306H15.9794L15.9763 20.5111L15.9733 20.1916L15.8043 20.1179C15.2605 19.8783 14.941 19.6048 14.8212 19.273C14.7966 19.2054 14.7966 19.1809 14.7905 18.8736C14.7874 18.5695 14.7874 18.5418 14.8089 18.4743C14.8519 18.3206 14.9717 18.2008 15.1253 18.1609C15.1776 18.1455 15.3158 18.1455 16.0409 18.1455L16.8949 18.1486L16.9902 18.1947C17.1038 18.25 17.1561 18.2899 17.2206 18.3759C17.2943 18.4743 17.3158 18.5511 17.3158 18.7385C17.3158 19.0057 17.2974 19.2362 17.2697 19.3283C17.2298 19.4543 17.1684 19.5741 17.0916 19.6816C16.9379 19.8782 16.6584 20.0749 16.4034 20.164L16.3296 20.1916L16.3327 20.5142L16.3358 20.8368L16.4034 20.8429L16.471 20.8491L16.5631 20.9873L16.6522 21.1256H17.0639C17.2912 21.1256 17.4909 21.1286 17.5094 21.1317C17.5401 21.1379 17.5462 21.1348 17.577 21.0826L17.6138 21.0273H17.9671C18.2406 21.0273 18.3204 21.0303 18.3204 21.0395C18.3112 21.0365 18.2713 21.187 18.2252 21.359Z" fill="white"/>
<path d="M24.345 17.8506C24.3389 17.7124 24.3266 17.5188 24.3174 17.4236C24.1852 16.0288 23.8289 14.889 23.153 13.6816C23.1253 13.6356 23.1008 13.5895 23.0854 13.5526C23.0793 13.5434 23.0762 13.5342 23.0731 13.528C23.1683 13.2423 23.5585 12.0472 23.8688 10.6801C24.2897 8.8245 24.557 6.65553 23.7398 6.00422C23.7398 6.00422 22.3266 5.89977 20.4341 7.75538C19.921 8.26843 19.451 8.8245 19.0332 9.41743L18.9011 9.37442C18.1392 9.12557 17.3496 8.97197 16.5539 8.91974C16.3143 8.9013 15.4203 8.9013 15.1284 8.91974C14.2467 8.97811 13.5708 9.11021 12.8028 9.3775C12.772 9.38978 12.7444 9.399 12.7167 9.40822C12.2836 8.81836 11.8012 8.26536 11.2697 7.75845C9.30046 5.89362 7.83502 6.00115 7.83502 6.00115C6.96866 6.67396 7.26359 8.94124 7.71213 10.8583C8.00706 12.1271 8.36958 13.2423 8.50476 13.6448C8.49554 13.6663 8.48325 13.6909 8.47096 13.7124C7.75514 15.1624 7.36804 16.5603 7.27588 18.0472C8.07772 17.9305 10.2866 17.7984 11.9425 19.5803C11.9425 19.5803 13.0362 16.6924 15.9856 16.6924C18.9349 16.6924 19.5647 19.5803 19.5647 19.5803C21.5186 17.9674 23.623 18.0196 24.3604 18.0964C24.3573 18.035 24.3511 17.9428 24.345 17.8506ZM9.0854 12.4866C9.0854 12.4866 7.9364 9.61406 8.23133 7.9735C8.28049 7.697 8.37265 7.4543 8.51704 7.26997C8.51704 7.26997 9.81966 7.399 11.921 9.73387C11.921 9.73387 11.5217 9.92742 10.9871 10.3391C10.9871 10.3391 10.984 10.3422 10.9809 10.3422C10.4003 10.7876 9.65683 11.4942 9.0854 12.4866ZM13.961 16.7538C13.9425 16.7907 13.8504 16.8306 13.7459 16.846C13.6415 16.8614 13.322 16.8522 13.1407 16.8306C12.4894 16.7446 11.7981 16.5449 11.2943 16.2992C11.0117 16.1609 10.8089 16.0227 10.6584 15.8721L10.5723 15.783L10.5631 15.6663C10.5478 15.4635 10.5508 15.144 10.5754 15.0303C10.5908 14.9351 10.6246 14.8429 10.6707 14.76C10.6952 14.7293 10.6952 14.7293 10.8058 14.7293C10.941 14.7293 11.0547 14.7508 11.239 14.8091C11.6169 14.9259 12.1791 15.2085 12.8642 15.6202C13.4295 15.9581 13.6415 16.124 13.8043 16.3514C13.9149 16.4927 13.9886 16.6924 13.961 16.7538ZM21.1991 15.7369C21.1899 15.7861 21.0455 15.9336 20.9011 16.0411C20.4771 16.3514 19.7183 16.6402 18.9471 16.7784C18.5078 16.8583 18.0685 16.8706 17.9364 16.8061C17.8504 16.7631 17.8381 16.7293 17.8688 16.6187C17.9333 16.3883 18.1422 16.1363 18.4679 15.8998C18.6338 15.78 19.3066 15.3714 19.62 15.1993C20.1361 14.9167 20.5539 14.7477 20.8365 14.7078C20.9256 14.6955 21.0332 14.6924 21.067 14.7078C21.1223 14.7293 21.1837 14.8921 21.2083 15.0887C21.2206 15.1932 21.2144 15.654 21.1991 15.7369ZM20.6891 10.3391L20.6829 10.336C20.1668 9.92435 19.7797 9.7308 19.7797 9.7308C21.8104 7.39593 23.067 7.2669 23.067 7.2669C23.2052 7.4543 23.2943 7.69393 23.3435 7.97043C23.6292 9.61098 22.5201 12.4866 22.5201 12.4866C22.0562 11.6601 21.4326 10.929 20.6891 10.3391Z" fill="#FFA409"/>
<path d="M23.3465 7.97043C23.1069 7.93971 21.9733 7.93356 20.6891 10.3391L20.6829 10.336C20.1668 9.92435 19.7797 9.7308 19.7797 9.7308C21.8104 7.39593 23.067 7.2669 23.067 7.2669C23.2083 7.4543 23.2974 7.69393 23.3465 7.97043Z" fill="#FF9300"/>
<path d="M22.5232 12.4866C22.0562 11.6571 21.4357 10.929 20.6891 10.3391C21.9733 7.93356 23.1038 7.93971 23.3465 7.97043C23.6322 9.61405 22.5232 12.4866 22.5232 12.4866Z" fill="#FF8300"/>
<path d="M23.3926 7.97964C23.3773 7.97657 23.3619 7.9735 23.3466 7.97043L23.3926 7.97964Z" fill="#FF8300"/>
<path d="M11.9211 9.7308C11.9211 9.7308 11.5217 9.92435 10.9871 10.336C10.9871 10.336 10.984 10.3391 10.981 10.3391C9.6507 7.93049 8.48019 7.93971 8.22827 7.97043C8.27743 7.69393 8.36959 7.45123 8.51398 7.2669C8.51706 7.2669 9.81967 7.39593 11.9211 9.7308Z" fill="#FF9300"/>
<path d="M10.984 10.3391C10.4003 10.7876 9.65683 11.4912 9.0854 12.4866C9.0854 12.4866 7.9364 9.61405 8.23133 7.97043C8.48018 7.93971 9.65376 7.93356 10.984 10.3391Z" fill="#FF8300"/>
<path d="M8.23134 7.97043C8.21598 7.9735 8.19755 7.97657 8.18219 7.97964L8.23134 7.97043Z" fill="#FF8300"/>
<path d="M19.4141 14.081C19.4141 14.081 18.431 14.1425 18.5539 13.3744C18.6768 12.6064 19.4448 12.5142 19.6599 12.5449C19.8749 12.5756 20.7352 12.8829 20.5816 13.528C20.4279 14.1732 20.2129 14.0503 20.09 14.081C19.9671 14.1118 19.4141 14.081 19.4141 14.081Z" fill="white"/>
<path d="M12.1638 14.081C12.1638 14.081 11.1807 14.1425 11.3035 13.3744C11.4264 12.6064 12.1945 12.5142 12.4095 12.5449C12.6246 12.5756 13.4848 12.8829 13.3312 13.528C13.1776 14.1732 12.9625 14.0503 12.8396 14.081C12.7168 14.1118 12.1638 14.081 12.1638 14.081Z" fill="white"/>
</svg>
