<svg width="32" height="32" viewBox="0 0 32 32" fill="none" xmlns="http://www.w3.org/2000/svg">
<path d="M0 10C0 4.47715 4.47715 0 10 0H22C27.5228 0 32 4.47715 32 10V22C32 27.5228 27.5228 32 22 32H10C4.47715 32 0 27.5228 0 22V10Z" fill="url(#paint0_radial_3_10250)"/>
<path d="M20.3994 18.5252C20.3994 16.1935 19.0001 15.3939 16.2015 15.0597C14.2025 14.7926 13.8027 14.2601 13.8027 13.3278C13.8027 12.3954 14.4696 11.7957 15.8017 11.7957C17.0011 11.7957 17.668 12.1955 18.0006 13.195C18.0678 13.3949 18.2677 13.5277 18.4676 13.5277H19.5342C19.8013 13.5277 20.0012 13.3278 20.0012 13.0607V12.9935C19.7341 11.5271 18.5347 10.3948 17.0027 10.2621V8.6629C17.0027 8.39584 16.8028 8.19594 16.4702 8.13037H15.4707C15.2036 8.13037 15.0037 8.33027 14.9381 8.6629V10.1949C12.9391 10.462 11.6726 11.7941 11.6726 13.4605C11.6726 15.6594 13.0047 16.5262 15.8033 16.8588C17.6696 17.1914 18.2693 17.5912 18.2693 18.6579C18.2693 19.7246 17.3369 20.457 16.0704 20.457C14.3384 20.457 13.7387 19.7246 13.5388 18.7251C13.4717 18.458 13.2718 18.3253 13.0719 18.3253H11.9396C11.6726 18.3253 11.4727 18.5252 11.4727 18.7922V18.8594C11.7397 20.5257 12.8048 21.7251 15.0037 22.0578V23.657C15.0037 23.924 15.2036 24.1239 15.5362 24.1895H16.5357C16.8028 24.1895 17.0027 23.9896 17.0683 23.657V22.0578C19.0657 21.7235 20.3994 20.3243 20.3994 18.5252Z" fill="white"/>
<path d="M12.6033 25.5217C7.40591 23.6554 4.74004 17.8583 6.67348 12.7281C7.67298 9.92946 9.87188 7.79772 12.6033 6.79821C12.8704 6.66548 13.0031 6.46558 13.0031 6.13135V5.19901C13.0031 4.93194 12.8704 4.73204 12.6033 4.66647C12.5361 4.66647 12.4034 4.66647 12.3362 4.73364C6.00661 6.73265 2.54114 13.4621 4.54014 19.7934C5.73954 23.5243 8.60531 26.3901 12.3362 27.5895C12.6033 27.7222 12.8688 27.5895 12.9359 27.3224C13.0031 27.2552 13.0031 27.1897 13.0031 27.0553V26.123C13.0031 25.9215 12.8032 25.656 12.6033 25.5217ZM19.6654 4.73204C19.3983 4.59931 19.1328 4.73204 19.0657 4.99911C18.9985 5.06627 18.9985 5.13184 18.9985 5.26618V6.19851C18.9985 6.46558 19.1984 6.73105 19.3983 6.86538C24.5957 8.73165 27.2616 14.5288 25.3282 19.659C24.3287 22.4576 22.1297 24.5894 19.3983 25.5889C19.1312 25.7216 18.9985 25.9215 18.9985 26.2557V27.1881C18.9985 27.4551 19.1312 27.655 19.3983 27.7206C19.4655 27.7206 19.5982 27.7206 19.6654 27.6534C25.995 25.6544 29.4605 18.925 27.4615 12.5937C26.2621 8.79722 23.3307 5.93144 19.6654 4.73204Z" fill="white"/>
<path d="M10 1H22V-1H10V1ZM31 10V22H33V10H31ZM22 31H10V33H22V31ZM1 22V10H-1V22H1ZM10 31C5.02944 31 1 26.9706 1 22H-1C-1 28.0751 3.92487 33 10 33V31ZM31 22C31 26.9706 26.9706 31 22 31V33C28.0751 33 33 28.0751 33 22H31ZM22 1C26.9706 1 31 5.02944 31 10H33C33 3.92487 28.0751 -1 22 -1V1ZM10 -1C3.92487 -1 -1 3.92487 -1 10H1C1 5.02944 5.02944 1 10 1V-1Z" fill="white" fill-opacity="0.2"/>
<defs>
<radialGradient id="paint0_radial_3_10250" cx="0" cy="0" r="1" gradientUnits="userSpaceOnUse" gradientTransform="translate(16 16) rotate(90) scale(16)">
<stop stop-color="#65A0F3"/>
<stop offset="1" stop-color="#2775CA"/>
</radialGradient>
</defs>
</svg>
