<svg width="32" height="32" viewBox="0 0 32 32" fill="none" xmlns="http://www.w3.org/2000/svg">
<path d="M0 10C0 4.47715 4.47715 0 10 0H22C27.5228 0 32 4.47715 32 10V22C32 27.5228 27.5228 32 22 32H10C4.47715 32 0 27.5228 0 22V10Z" fill="url(#paint0_radial_3_10712)"/>
<path opacity="0.7" d="M15.9984 13.2783L9.125 16.4043L15.9984 20.4651L22.8691 16.4043L15.9984 13.2783Z" fill="white"/>
<path opacity="0.5" d="M9.125 16.4044L15.9984 20.4652V5L9.125 16.4044Z" fill="white"/>
<path opacity="0.8" d="M15.9989 5V20.4652L22.8696 16.4044L15.9989 5Z" fill="white"/>
<path opacity="0.5" d="M9.125 17.7069L15.9984 27.3902V21.7677L9.125 17.7069Z" fill="white"/>
<path opacity="0.8" d="M15.9989 21.7677V27.3902L22.875 17.7069L15.9989 21.7677Z" fill="white"/>
<path d="M10 1H22V-1H10V1ZM31 10V22H33V10H31ZM22 31H10V33H22V31ZM1 22V10H-1V22H1ZM10 31C5.02944 31 1 26.9706 1 22H-1C-1 28.0751 3.92487 33 10 33V31ZM31 22C31 26.9706 26.9706 31 22 31V33C28.0751 33 33 28.0751 33 22H31ZM22 1C26.9706 1 31 5.02944 31 10H33C33 3.92487 28.0751 -1 22 -1V1ZM10 -1C3.92487 -1 -1 3.92487 -1 10H1C1 5.02944 5.02944 1 10 1V-1Z" fill="white" fill-opacity="0.2"/>
<defs>
<radialGradient id="paint0_radial_3_10712" cx="0" cy="0" r="1" gradientUnits="userSpaceOnUse" gradientTransform="translate(16 16) rotate(90) scale(16)">
<stop stop-color="#B2BFE2"/>
<stop offset="1" stop-color="#6474A2"/>
</radialGradient>
</defs>
</svg>
