<svg width="32" height="32" viewBox="0 0 32 32" fill="none" xmlns="http://www.w3.org/2000/svg">
<path d="M0 10C0 4.47715 4.47715 0 10 0H22C27.5228 0 32 4.47715 32 10V22C32 27.5228 27.5228 32 22 32H10C4.47715 32 0 27.5228 0 22V10Z" fill="url(#paint0_radial_112_19619)"/>
<path fill-rule="evenodd" clip-rule="evenodd" d="M16.165 27C12.9313 26.9975 10.3265 26.2216 8.50646 24.8278C6.66461 23.4173 5.6875 21.4157 5.6875 19.1509C5.6875 16.9685 6.66246 15.3949 7.76561 14.3312C8.63014 13.4976 9.58416 12.9637 10.2484 12.6567C10.0982 12.1956 9.9108 11.5921 9.74312 10.9687C9.51877 10.1345 9.29865 9.15583 9.29865 8.43866C9.29865 7.58977 9.48374 6.73724 9.98277 6.07479C10.51 5.37493 11.3037 5 12.2586 5C13.0049 5 13.6385 5.27679 14.1345 5.75435C14.6086 6.2108 14.9242 6.81703 15.142 7.44895C15.5249 8.55933 15.674 9.95439 15.7158 11.3466H16.6304C16.6723 9.95439 16.8213 8.55933 17.2042 7.44895C17.4221 6.81703 17.7376 6.2108 18.2118 5.75435C18.7078 5.27679 19.3414 5 20.0876 5C21.0425 5 21.8362 5.37493 22.3635 6.07479C22.8625 6.73724 23.0476 7.58977 23.0476 8.43866C23.0476 9.15583 22.8275 10.1345 22.6031 10.9687C22.4354 11.5921 22.248 12.1956 22.0978 12.6567C22.7621 12.9637 23.7161 13.4976 24.5806 14.3312C25.6838 15.3949 26.6587 16.9685 26.6587 19.1509C26.6587 21.4157 25.6816 23.4173 23.8398 24.8278C22.0198 26.2216 19.415 26.9975 16.1812 27H16.165Z" fill="#633001"/>
<path d="M12.2585 5.80731C10.8599 5.80731 10.2162 6.86134 10.2162 8.31905C10.2162 9.47769 10.9642 11.7982 11.2711 12.7015C11.3401 12.9047 11.2317 13.1273 11.0339 13.2061C9.91295 13.6526 6.60504 15.2873 6.60504 19.0313C6.60504 22.9751 9.96661 25.9487 16.1657 25.9534C16.1681 25.9534 16.1706 25.9534 16.1731 25.9534C16.1755 25.9534 16.178 25.9534 16.1805 25.9534C22.3795 25.9487 25.7411 22.9751 25.7411 19.0313C25.7411 15.2873 22.4332 13.6526 21.3123 13.2061C21.1144 13.1273 21.006 12.9047 21.075 12.7015C21.3819 11.7982 22.1299 9.47769 22.1299 8.31905C22.1299 6.86134 21.4861 5.80731 20.0876 5.80731C18.0744 5.80731 17.5726 8.68817 17.5368 11.78C17.5344 11.9865 17.3692 12.1539 17.1648 12.1539H15.1813C14.9769 12.1539 14.8117 11.9865 14.8094 11.78C14.7736 8.68817 14.2717 5.80731 12.2585 5.80731Z" fill="#D1884F"/>
<path d="M16.1805 24.6901C11.6257 24.6901 6.6129 22.2271 6.60504 19.0388C6.60504 19.0437 6.60504 19.0487 6.60504 19.0537C6.60504 23.0007 9.97197 25.9759 16.1805 25.9759C22.3889 25.9759 25.7559 23.0007 25.7559 19.0537C25.7559 19.0487 25.7559 19.0437 25.7559 19.0388C25.748 22.2271 20.7352 24.6901 16.1805 24.6901Z" fill="#FEDC90"/>
<path d="M13.6497 18.0595C13.6497 19.1359 13.1461 19.6966 12.5249 19.6966C11.9037 19.6966 11.4002 19.1359 11.4002 18.0595C11.4002 16.983 11.9037 16.4224 12.5249 16.4224C13.1461 16.4224 13.6497 16.983 13.6497 18.0595Z" fill="#633001"/>
<path d="M20.9608 18.0595C20.9608 19.1359 20.4572 19.6966 19.836 19.6966C19.2148 19.6966 18.7112 19.1359 18.7112 18.0595C18.7112 16.983 19.2148 16.4224 19.836 16.4224C20.4572 16.4224 20.9608 16.983 20.9608 18.0595Z" fill="#633001"/>
<path d="M10 1H22V-1H10V1ZM31 10V22H33V10H31ZM22 31H10V33H22V31ZM1 22V10H-1V22H1ZM10 31C5.02944 31 1 26.9706 1 22H-1C-1 28.0751 3.92487 33 10 33V31ZM31 22C31 26.9706 26.9706 31 22 31V33C28.0751 33 33 28.0751 33 22H31ZM22 1C26.9706 1 31 5.02944 31 10H33C33 3.92487 28.0751 -1 22 -1V1ZM10 -1C3.92487 -1 -1 3.92487 -1 10H1C1 5.02944 5.02944 1 10 1V-1Z" fill="white" fill-opacity="0.2"/>
<defs>
<radialGradient id="paint0_radial_112_19619" cx="0" cy="0" r="1" gradientUnits="userSpaceOnUse" gradientTransform="translate(16 16) rotate(90) scale(16)">
<stop stop-color="white"/>
<stop offset="1" stop-color="#47D9E4"/>
</radialGradient>
</defs>
</svg>
