<svg width="32" height="32" viewBox="0 0 32 32" fill="none" xmlns="http://www.w3.org/2000/svg">
<path d="M0 10C0 4.47715 4.47715 0 10 0H22C27.5228 0 32 4.47715 32 10V22C32 27.5228 27.5228 32 22 32H10C4.47715 32 0 27.5228 0 22V10Z" fill="url(#paint0_radial_3_10298)"/>
<path d="M21.4769 18.4841C22.0148 17.5549 22.8828 17.5549 23.4207 18.4841L26.7704 24.3644C27.3083 25.2935 26.8682 26.0515 25.7924 26.0515H19.0441C17.9805 26.0515 17.5404 25.2935 18.0661 24.3644L21.4769 18.4841ZM14.9975 7.1635C15.5354 6.23439 16.3912 6.23439 16.9291 7.1635L17.6749 8.50828L19.4353 11.6013C19.8632 12.4815 19.8632 13.5206 19.4353 14.4008L13.5305 24.6333C12.9926 25.4647 12.1002 25.9903 11.1099 26.0515H6.20759C5.13177 26.0515 4.69167 25.3057 5.22958 24.3644L14.9975 7.1635Z" fill="white"/>
<path d="M10 1H22V-1H10V1ZM31 10V22H33V10H31ZM22 31H10V33H22V31ZM1 22V10H-1V22H1ZM10 31C5.02944 31 1 26.9706 1 22H-1C-1 28.0751 3.92487 33 10 33V31ZM31 22C31 26.9706 26.9706 31 22 31V33C28.0751 33 33 28.0751 33 22H31ZM22 1C26.9706 1 31 5.02944 31 10H33C33 3.92487 28.0751 -1 22 -1V1ZM10 -1C3.92487 -1 -1 3.92487 -1 10H1C1 5.02944 5.02944 1 10 1V-1Z" fill="white" fill-opacity="0.2"/>
<defs>
<radialGradient id="paint0_radial_3_10298" cx="0" cy="0" r="1" gradientUnits="userSpaceOnUse" gradientTransform="translate(16 16) rotate(90) scale(16)">
<stop stop-color="#D74F49"/>
<stop offset="1" stop-color="#E84142"/>
</radialGradient>
</defs>
</svg>
