<svg width="60" height="60" viewBox="0 0 60 60" fill="none" xmlns="http://www.w3.org/2000/svg">
<circle cx="30" cy="30" r="30" fill="url(#paint0_radial_4301_301466)"/>
<circle cx="30" cy="30" r="29.5" stroke="white" stroke-opacity="0.2"/>
<path d="M34.5193 28.2756L37.6587 23.1352L46.1209 35.853L46.1249 38.2938L46.0974 21.4987C46.0773 21.0882 45.8514 20.7127 45.491 20.4912L30.2558 12.0351C29.8997 11.866 29.4475 11.868 29.0918 12.0404C29.0437 12.0636 28.9985 12.0889 28.9555 12.1165L28.9023 12.1487L14.1143 20.4176L14.057 20.4427C13.9832 20.4754 13.9085 20.5171 13.8386 20.5654C13.5582 20.7594 13.372 21.0463 13.3118 21.3682C13.3027 21.4169 13.2961 21.4665 13.293 21.5168L13.3162 35.2031L21.1983 23.4147C22.1907 21.8516 24.3528 21.3481 26.3599 21.3755L28.7156 21.4355L14.8354 42.9146L16.4716 43.8234L30.518 21.4573L36.7266 21.4355L22.7164 44.3661L28.5548 47.6065L29.2524 47.9936C29.5475 48.1093 29.8954 48.1152 30.1929 48.0114L45.6421 39.3724L42.6884 41.024L34.5193 28.2756ZM35.717 44.9223L29.8202 35.9919L33.4199 30.0978L41.1643 41.8762L35.717 44.9223Z" fill="#2D374B"/>
<path d="M29.8203 35.9917L35.717 44.9222L41.1644 41.8761L33.4199 30.0977L29.8203 35.9917Z" fill="#28A0F0"/>
<path d="M46.1247 38.2938L46.1206 35.853L37.6585 23.1353L34.519 28.2756L42.6881 41.0239L45.6417 39.3723C45.9314 39.1452 46.1067 38.8121 46.1251 38.4526L46.1247 38.2938Z" fill="#28A0F0"/>
<path d="M10.6641 40.5954L14.835 42.9146L28.7152 21.4355L26.3595 21.3756C24.3523 21.3482 22.1902 21.8517 21.1978 23.4148L13.3158 35.2032L10.6641 39.1345V40.5954Z" fill="white"/>
<path d="M36.7262 21.4355L30.5176 21.4573L16.4712 43.8235L21.3808 46.5511L22.716 44.3661L36.7262 21.4355Z" fill="white"/>
<path d="M48.741 21.4046C48.689 20.1517 47.986 19.0048 46.8848 18.3371L31.45 9.77223C30.3607 9.24299 28.9999 9.24231 27.9087 9.77189C27.7797 9.83468 12.8988 18.1623 12.8988 18.1623C12.6928 18.2576 12.4944 18.3711 12.3078 18.5C11.3248 19.1798 10.7256 20.2363 10.6641 21.3969V39.1344L13.3158 35.2031L13.2926 21.5168C13.2957 21.4667 13.3022 21.4174 13.3115 21.3688C13.3714 21.0468 13.5577 20.7596 13.8383 20.5654C13.9083 20.5171 29.0434 12.0635 29.0915 12.0404C29.4473 11.868 29.8994 11.8659 30.2556 12.035L45.4907 20.4909C45.8511 20.7124 46.077 21.0879 46.0971 21.4985V38.4524C46.0787 38.8119 45.9314 39.1451 45.6417 39.3722L42.688 41.0237L41.164 41.876L35.7167 44.9221L30.1925 48.0112C29.895 48.1149 29.5471 48.109 29.252 47.9933L22.716 44.3659L21.3809 46.551L27.2546 49.8141C27.4488 49.9207 27.6218 50.0152 27.7639 50.0921C27.9837 50.2111 28.1336 50.2907 28.1865 50.3155C28.604 50.5111 29.2047 50.625 29.7459 50.625C30.2422 50.625 30.7261 50.5371 31.184 50.364L47.2295 41.3976C48.1504 40.7091 48.6922 39.6707 48.741 38.5459V21.4046Z" fill="#96BEDC"/>
<defs>
<radialGradient id="paint0_radial_4301_301466" cx="0" cy="0" r="1" gradientUnits="userSpaceOnUse" gradientTransform="translate(30 30) rotate(90) scale(30)">
<stop stop-color="#464352"/>
<stop offset="1" stop-color="#212936"/>
</radialGradient>
</defs>
</svg>
