<svg width="13" height="13" viewBox="0 0 13 13" fill="none" xmlns="http://www.w3.org/2000/svg">
<path d="M3.84996 5.29471L6.29827 2.8464L8.74657 5.29471L10.1698 3.87151L6.29827 0L2.42676 3.87151L3.84996 5.29471Z" fill="#F3BA2F"/>
<path d="M1.42155 4.87874L0 6.30029L1.42155 7.72185L2.8431 6.30029L1.42155 4.87874Z" fill="#F3BA2F"/>
<path d="M3.84996 7.30518L6.29827 9.75348L8.74657 7.30518L10.1698 8.72838L6.29827 12.5999L2.42676 8.72838L3.84996 7.30518Z" fill="#F3BA2F"/>
<path d="M11.1745 4.87898L9.75293 6.30054L11.1745 7.72209L12.596 6.30054L11.1745 4.87898Z" fill="#F3BA2F"/>
<path d="M7.74168 6.30004L6.29858 4.85693L5.23366 5.92185L5.10428 6.04128L4.85547 6.30004L6.29858 7.74315L7.74168 6.30004Z" fill="#F3BA2F"/>
</svg>
