<svg width="32" height="32" viewBox="0 0 32 32" fill="none" xmlns="http://www.w3.org/2000/svg">
<path d="M0 10C0 4.47715 4.47715 0 10 0H22C27.5228 0 32 4.47715 32 10V22C32 27.5228 27.5228 32 22 32H10C4.47715 32 0 27.5228 0 22V10Z" fill="url(#paint0_radial_3_10254)"/>
<path d="M11.7244 14.2448L16.0005 9.96995L20.2767 14.2448L22.7624 11.7598L16.0005 5L9.23865 11.7598L11.7244 14.2448Z" fill="white"/>
<path d="M7.48322 13.5181L5 16.0005L7.48322 18.483L9.96644 16.0005L7.48322 13.5181Z" fill="white"/>
<path d="M11.7244 17.7552L16.0005 22.0301L20.2767 17.7552L22.7624 20.2402L16.0005 27L9.23865 20.2402L11.7244 17.7552Z" fill="white"/>
<path d="M24.5175 13.5185L22.0343 16.001L24.5175 18.4834L27.0007 16.001L24.5175 13.5185Z" fill="white"/>
<path d="M18.521 16.0001L16.0005 13.4804L14.1406 15.3397L13.9146 15.5483L13.48 16.0001L16.0005 18.5198L18.521 16.0001Z" fill="white"/>
<path d="M10 1H22V-1H10V1ZM31 10V22H33V10H31ZM22 31H10V33H22V31ZM1 22V10H-1V22H1ZM10 31C5.02944 31 1 26.9706 1 22H-1C-1 28.0751 3.92487 33 10 33V31ZM31 22C31 26.9706 26.9706 31 22 31V33C28.0751 33 33 28.0751 33 22H31ZM22 1C26.9706 1 31 5.02944 31 10H33C33 3.92487 28.0751 -1 22 -1V1ZM10 -1C3.92487 -1 -1 3.92487 -1 10H1C1 5.02944 5.02944 1 10 1V-1Z" fill="white" fill-opacity="0.2"/>
<defs>
<radialGradient id="paint0_radial_3_10254" cx="0" cy="0" r="1" gradientUnits="userSpaceOnUse" gradientTransform="translate(16 16) rotate(90) scale(16)">
<stop stop-color="#FFDE98"/>
<stop offset="1" stop-color="#F6BF48"/>
</radialGradient>
</defs>
</svg>
