<svg width="79" height="78" viewBox="0 0 79 78" fill="none" xmlns="http://www.w3.org/2000/svg">
<rect x="0.584473" width="78" height="78" rx="39" fill="url(#paint0_linear_3754_135794)" fill-opacity="0.27"/>
<g clip-path="url(#clip0_3754_135794)">
<path d="M38.9977 18.8596C40.7976 18.8596 42.5293 19.0914 44.1929 19.555C45.8564 20.0186 47.4109 20.6731 48.8563 21.5185C50.3017 22.364 51.6243 23.3866 52.8243 24.5866C54.0242 25.7865 55.0401 27.1024 55.8718 28.5341C56.7036 29.9659 57.365 31.5271 57.8558 33.218C58.3467 34.9088 58.5785 36.6405 58.5513 38.4132C58.5513 40.2131 58.3195 41.9448 57.8558 43.6084C57.3922 45.2719 56.7377 46.8264 55.8923 48.2718C55.0469 49.7172 54.0242 51.0398 52.8243 52.2398C51.6243 53.4397 50.3085 54.4556 48.8767 55.2874C47.445 56.1191 45.8837 56.7805 44.1929 57.2714C42.502 57.7622 40.7703 57.9941 38.9977 57.9668C37.1977 57.9668 35.466 57.735 33.8024 57.2714C32.1389 56.8078 30.5844 56.1532 29.139 55.3078C27.6937 54.4624 26.371 53.4397 25.171 52.2398C23.9711 51.0398 22.9552 49.724 22.1235 48.2923C21.2917 46.8605 20.6304 45.2992 20.1395 43.6084C19.6486 41.9176 19.4168 40.1858 19.444 38.4132C19.444 36.6133 19.6759 34.8815 20.1395 33.218C20.6031 31.5544 21.2576 29.9999 22.103 28.5546C22.9484 27.1092 23.9711 25.7865 25.171 24.5866C26.371 23.3866 27.6868 22.3708 29.1186 21.539C30.5503 20.7072 32.1116 20.0459 33.8024 19.555C35.4933 19.0641 37.225 18.8323 38.9977 18.8596ZM38.9977 55.5124C40.5658 55.5124 42.0793 55.3078 43.5383 54.8988C44.9974 54.4897 46.3609 53.917 47.6291 53.1807C48.8972 52.4443 50.0494 51.5512 51.0857 50.5012C52.122 49.4513 53.0083 48.2991 53.7447 47.0446C54.481 45.7901 55.0605 44.4265 55.4832 42.9539C55.9059 41.4812 56.1105 39.9677 56.0968 38.4132C56.0968 36.8451 55.8923 35.3315 55.4832 33.8725C55.0742 32.4135 54.5015 31.0499 53.7651 29.7818C53.0288 28.5137 52.1357 27.3614 51.0857 26.3251C50.0358 25.2888 48.8835 24.4025 47.6291 23.6662C46.3746 22.9298 45.011 22.3503 43.5383 21.9276C42.0657 21.5049 40.5521 21.3004 38.9977 21.314C37.4295 21.314 35.916 21.5185 34.457 21.9276C32.9979 22.3367 31.6344 22.9094 30.3663 23.6457C29.0981 24.382 27.9459 25.2752 26.9096 26.3251C25.8733 27.3751 24.987 28.5273 24.2506 29.7818C23.5143 31.0363 22.9348 32.3998 22.5121 33.8725C22.0894 35.3451 21.8848 36.8587 21.8985 38.4132C21.8985 39.9813 22.103 41.4949 22.5121 42.9539C22.9212 44.4129 23.4939 45.7765 24.2302 47.0446C24.9665 48.3127 25.8596 49.4649 26.9096 50.5012C27.9595 51.5375 29.1118 52.4239 30.3663 53.1602C31.6207 53.8965 32.9843 54.476 34.457 54.8988C35.9296 55.3215 37.4432 55.526 38.9977 55.5124ZM37.6886 47.5764H40.3067V50.1944H37.6886V47.5764ZM38.9977 27.941C39.8976 27.941 40.743 28.1114 41.5339 28.4523C42.3248 28.7932 43.0134 29.2636 43.5997 29.8636C44.186 30.4636 44.6565 31.159 45.011 31.9499C45.3655 32.7407 45.5428 33.5861 45.5428 34.4861C45.5428 35.3042 45.4133 36.0133 45.1542 36.6133C44.8951 37.2132 44.5747 37.7655 44.1929 38.27C43.8111 38.7745 43.3884 39.2177 42.9247 39.5995C42.4611 39.9813 42.0452 40.3835 41.6771 40.8062C41.3089 41.229 40.9816 41.6585 40.6953 42.0948C40.4089 42.5312 40.2794 43.0493 40.3067 43.6493V44.9583H37.6886V43.6493C37.6886 42.8312 37.8182 42.1221 38.0772 41.5221C38.3363 40.9222 38.6568 40.3699 39.0386 39.8654C39.4204 39.3609 39.8431 38.9177 40.3067 38.5359C40.7703 38.1541 41.1862 37.7519 41.5543 37.3291C41.9225 36.9064 42.2498 36.4769 42.5361 36.0406C42.8225 35.6042 42.952 35.0861 42.9247 34.4861C42.9247 33.9407 42.8225 33.4293 42.6179 32.9521C42.4134 32.4748 42.1339 32.0589 41.7793 31.7044C41.4248 31.3499 41.0089 31.0704 40.5317 30.8658C40.0544 30.6613 39.5431 30.559 38.9977 30.559C38.4522 30.559 37.9409 30.6613 37.4636 30.8658C36.9864 31.0704 36.5705 31.3499 36.216 31.7044C35.8614 32.0589 35.5819 32.4748 35.3774 32.9521C35.1728 33.4293 35.0706 33.9407 35.0706 34.4861H32.4525C32.4525 33.5861 32.623 32.7407 32.9639 31.9499C33.3047 31.159 33.7684 30.4704 34.3547 29.884C34.941 29.2977 35.6365 28.8273 36.441 28.4727C37.2455 28.1182 38.0977 27.941 38.9977 27.941Z" fill="white" fill-opacity="0.6"/>
</g>
<defs>
<linearGradient id="paint0_linear_3754_135794" x1="0.584472" y1="39" x2="78.5845" y2="39" gradientUnits="userSpaceOnUse">
<stop stop-color="#2D4A96"/>
<stop offset="1" stop-color="#745CD2"/>
</linearGradient>
<clipPath id="clip0_3754_135794">
<rect width="41.8889" height="41.8889" fill="white" transform="translate(19.3623 18.7778)"/>
</clipPath>
</defs>
</svg>
