<svg width="60" height="60" viewBox="0 0 60 60" fill="none" xmlns="http://www.w3.org/2000/svg">
<g clip-path="url(#clip0_4301_301442)">
<path d="M30 60C46.5685 60 60 46.5685 60 30C60 13.4315 46.5685 0 30 0C13.4315 0 0 13.4315 0 30C0 46.5685 13.4315 60 30 60Z" fill="#FF0420"/>
<path d="M21.2562 37.9736C19.4699 37.9736 18.0064 37.5532 16.8655 36.7126C15.7397 35.857 15.1768 34.6412 15.1768 33.065C15.1768 32.7348 15.2143 32.3294 15.2893 31.849C15.4846 30.7683 15.7622 29.4698 16.1225 27.9537C17.1432 23.8257 19.7777 21.7617 24.0258 21.7617C25.1816 21.7617 26.2174 21.9568 27.1331 22.3471C28.0488 22.7223 28.7693 23.2928 29.2946 24.0584C29.82 24.8089 30.0828 25.7096 30.0828 26.7603C30.0828 27.0756 30.0452 27.4734 29.9701 27.9537C29.745 29.2897 29.4748 30.5882 29.1595 31.849C28.6342 33.9056 27.726 35.4442 26.435 36.465C25.1441 37.4707 23.4179 37.9736 21.2562 37.9736ZM21.5714 34.7312C22.4122 34.7312 23.1251 34.4835 23.7106 33.9882C24.311 33.4928 24.7388 32.7348 24.994 31.714C25.3392 30.303 25.602 29.072 25.7821 28.0213C25.8421 27.706 25.8721 27.3834 25.8721 27.053C25.8721 25.687 25.1591 25.004 23.7331 25.004C22.8924 25.004 22.1719 25.2517 21.5714 25.747C20.9861 26.2425 20.5657 27.0006 20.3106 28.0213C20.0404 29.027 19.7701 30.258 19.5 31.714C19.4399 32.0142 19.4099 32.3294 19.4099 32.6596C19.4099 34.0407 20.1305 34.7312 21.5714 34.7312Z" fill="white"/>
<path d="M31.1165 37.7485C30.9514 37.7485 30.8237 37.6959 30.7337 37.5908C30.6586 37.4707 30.6362 37.3357 30.6662 37.1855L33.7735 22.5497C33.8035 22.3846 33.886 22.2495 34.0211 22.1444C34.1563 22.0394 34.2988 21.9868 34.4489 21.9868H40.4384C42.1046 21.9868 43.4405 22.3321 44.4463 23.0225C45.4671 23.7131 45.9775 24.7113 45.9775 26.0173C45.9775 26.3925 45.9325 26.7829 45.8423 27.1881C45.4671 28.9144 44.7091 30.1904 43.5682 31.016C42.4424 31.8416 40.8962 32.2544 38.9297 32.2544H35.89L34.8543 37.1855C34.8242 37.3507 34.7416 37.4857 34.6066 37.5908C34.4715 37.6959 34.3288 37.7485 34.1788 37.7485H31.1165ZM39.0874 29.1471C39.7178 29.1471 40.2657 28.9744 40.7311 28.6292C41.2114 28.2839 41.5267 27.7886 41.6768 27.1431C41.7218 26.8879 41.7443 26.6627 41.7443 26.4676C41.7443 26.0323 41.6168 25.702 41.3615 25.4769C41.1063 25.2367 40.6711 25.1167 40.0556 25.1167H37.3535L36.4979 29.1471H39.0874Z" fill="white"/>
</g>
<defs>
<clipPath id="clip0_4301_301442">
<rect width="60" height="60" fill="white"/>
</clipPath>
</defs>
</svg>
