<svg width="40" height="40" viewBox="0 0 40 40" fill="none" xmlns="http://www.w3.org/2000/svg">
<g clip-path="url(#clip0_4301_180377)">
<path fill-rule="evenodd" clip-rule="evenodd" d="M7.13511 17.865C7.019 17.7486 6.88106 17.6563 6.7292 17.5933C6.57734 17.5302 6.41453 17.4978 6.25011 17.4978C6.0857 17.4978 5.92289 17.5302 5.77103 17.5933C5.61917 17.6563 5.48123 17.7486 5.36511 17.865L0.365114 22.865C0.130398 23.0998 -0.00146484 23.4181 -0.00146484 23.75C-0.00146484 24.082 0.130398 24.4003 0.365114 24.635C0.599831 24.8698 0.918175 25.0016 1.25011 25.0016C1.58205 25.0016 1.9004 24.8698 2.13511 24.635L6.25011 20.5175L10.3651 24.635C10.5998 24.8698 10.9182 25.0016 11.2501 25.0016C11.5821 25.0016 11.9004 24.8698 12.1351 24.635C12.3698 24.4003 12.5017 24.082 12.5017 23.75C12.5017 23.4181 12.3698 23.0998 12.1351 22.865L7.13511 17.865ZM39.6351 15.365C39.519 15.2486 39.3811 15.1563 39.2292 15.0933C39.0773 15.0302 38.9145 14.9978 38.7501 14.9978C38.5857 14.9978 38.4229 15.0302 38.271 15.0933C38.1192 15.1563 37.9812 15.2486 37.8651 15.365L33.7501 19.4825L29.6351 15.365C29.4004 15.1303 29.0821 14.9985 28.7501 14.9985C28.4182 14.9985 28.0998 15.1303 27.8651 15.365C27.6304 15.5998 27.4985 15.9181 27.4985 16.25C27.4985 16.582 27.6304 16.9003 27.8651 17.135L32.8651 22.135C32.9812 22.2514 33.1192 22.3438 33.271 22.4068C33.4229 22.4698 33.5857 22.5023 33.7501 22.5023C33.9145 22.5023 34.0773 22.4698 34.2292 22.4068C34.3811 22.3438 34.519 22.2514 34.6351 22.135L39.6351 17.135C39.7515 17.0189 39.8439 16.881 39.9069 16.7291C39.9699 16.5773 40.0023 16.4145 40.0023 16.25C40.0023 16.0856 39.9699 15.9228 39.9069 15.771C39.8439 15.6191 39.7515 15.4812 39.6351 15.365Z" fill="white"/>
<path fill-rule="evenodd" clip-rule="evenodd" d="M20 7.50007C17.9179 7.49847 15.8685 8.01751 14.0381 9.00997C12.2078 10.0024 10.6546 11.4368 9.52 13.1826C9.33344 13.4471 9.05156 13.6289 8.73367 13.6898C8.41578 13.7507 8.08666 13.6859 7.81557 13.509C7.54447 13.3322 7.35255 13.0571 7.28017 12.7416C7.20779 12.4261 7.26061 12.0949 7.4275 11.8176C9.19123 9.10716 11.7836 7.03929 14.8183 5.9222C17.853 4.80512 21.1674 4.69864 24.2675 5.61864C27.3676 6.53864 30.0874 8.43585 32.0215 11.0275C33.9555 13.6191 35.0003 16.7663 35 20.0001C35 20.3319 34.8682 20.6502 34.6335 20.8848C34.3989 21.1195 34.0806 21.2513 33.7488 21.2513C33.4169 21.2513 33.0986 21.1195 32.864 20.8848C32.6293 20.6502 32.4975 20.3319 32.4975 20.0001C32.4975 16.6849 31.1805 13.5054 28.8363 11.1612C26.4921 8.81703 23.3127 7.50007 19.9975 7.50007H20ZM6.25 18.7501C6.58152 18.7501 6.89946 18.8818 7.13388 19.1162C7.3683 19.3506 7.5 19.6685 7.5 20.0001C7.49907 22.6956 8.3695 25.3192 9.98147 27.4796C11.5934 29.64 13.8606 31.2215 16.4448 31.9881C19.029 32.7548 21.7917 32.6656 24.3211 31.7337C26.8504 30.8019 29.0108 29.0775 30.48 26.8176C30.5666 26.6737 30.6813 26.5487 30.8173 26.4501C30.9533 26.3515 31.1078 26.2813 31.2715 26.2438C31.4352 26.2062 31.6048 26.202 31.7702 26.2315C31.9355 26.2609 32.0933 26.3234 32.234 26.4152C32.3746 26.5069 32.4954 26.6261 32.589 26.7656C32.6826 26.9051 32.7471 27.062 32.7787 27.2269C32.8103 27.3919 32.8083 27.5616 32.7729 27.7258C32.7375 27.8899 32.6693 28.0453 32.5725 28.1826C30.8088 30.893 28.2164 32.9608 25.1817 34.0779C22.147 35.195 18.8326 35.3015 15.7325 34.3815C12.6324 33.4615 9.9126 31.5643 7.97854 28.9727C6.04448 26.3811 4.99972 23.2338 5 20.0001C5 19.8357 5.03241 19.673 5.09539 19.5211C5.15836 19.3693 5.25066 19.2314 5.367 19.1153C5.48334 18.9992 5.62143 18.9072 5.77338 18.8445C5.92532 18.7818 6.08814 18.7497 6.2525 18.7501H6.25Z" fill="white"/>
</g>
<defs>
<clipPath id="clip0_4301_180377">
<rect width="40" height="40" fill="white"/>
</clipPath>
</defs>
</svg>
