<svg width="13" height="13" viewBox="0 0 13 13" fill="none" xmlns="http://www.w3.org/2000/svg">
<path d="M0.257545 0.303805L0.299551 4.83533L4.83201 4.87641L4.81983 3.69475L2.2134 3.66788C2.93267 2.94225 3.66093 2.38726 4.39818 2.0029C5.13731 1.61919 5.84862 1.43023 6.5321 1.43602C7.23255 1.44387 7.89513 1.58481 8.51981 1.85883C9.1445 2.13286 9.6812 2.49424 10.1299 2.94296C10.3997 3.2127 10.6402 3.51166 10.8515 3.83984C11.0628 4.16803 11.2334 4.50898 11.3633 4.86271L12.5659 4.80256C12.4104 4.28651 12.1972 3.8041 11.9263 3.35532C11.6547 2.90717 11.3326 2.49681 10.96 2.12425C10.3945 1.55875 9.72846 1.10779 8.9618 0.771367C8.19514 0.434946 7.3843 0.260129 6.52926 0.246918C5.67232 0.231802 4.7956 0.461143 3.8991 0.93494C3.00197 1.4081 2.19059 2.0037 1.46495 2.72172L1.44013 0.315054L0.257545 0.303805ZM0.584091 8.21609C0.739537 8.73214 0.953048 9.21425 1.22463 9.6624C1.49559 10.1112 1.81735 10.5218 2.18991 10.8944C2.75351 11.458 3.42055 11.9112 4.19104 12.2539C4.96154 12.5967 5.77488 12.7696 6.63107 12.7728C7.48179 12.7941 8.35663 12.5654 9.25559 12.0866C10.1545 11.6065 10.9627 11.0078 11.6802 10.2903L11.7108 12.7027L12.8924 12.7148L12.8513 8.18239L8.31887 8.14131L8.33106 9.32297L10.9478 9.34901C10.2291 10.0677 9.49708 10.6214 8.75172 11.0101C8.00634 11.3975 7.29127 11.5871 6.60651 11.5787C5.92176 11.5717 5.26548 11.4314 4.63766 11.158C4.00986 10.8858 3.47096 10.5248 3.02097 10.0748C2.75122 9.80502 2.5104 9.50637 2.29848 9.17881C2.08656 8.85125 1.91596 8.51029 1.78667 8.15594L0.584091 8.21609Z" fill="white"/>
</svg>
