<svg width="24" height="24" viewBox="0 0 24 24" fill="none" xmlns="http://www.w3.org/2000/svg">
<g clip-path="url(#clip0_1599_15395)">
<path fill-rule="evenodd" clip-rule="evenodd" d="M20.5021 9.16595C20.2011 9.05987 19.9418 8.86057 19.7619 8.59701C19.582 8.33346 19.4908 8.01939 19.5016 7.70045L19.5046 7.49645C19.5046 6.36883 19.1868 5.26403 18.5877 4.30872C17.9886 3.35342 17.1324 2.58627 16.1173 2.09524C15.1022 1.60421 13.9693 1.40917 12.8484 1.53249C11.7276 1.6558 10.6642 2.09248 9.78009 2.79245C9.6129 2.9249 9.41938 3.02017 9.21245 3.0719C9.00552 3.12364 8.78994 3.13064 8.58009 3.09245C7.34833 2.86731 6.077 3.03317 4.94423 3.56681C3.81147 4.10044 2.87404 4.97511 2.26332 6.06823C1.65259 7.16136 1.39916 8.41817 1.53854 9.66256C1.67793 10.9069 2.20314 12.0765 3.04059 13.0075C3.22057 13.2076 3.34338 13.4524 3.39617 13.7163C3.44895 13.9803 3.42975 14.2535 3.34059 14.5075C2.88434 15.8025 2.88607 17.2148 3.34546 18.5087C3.80486 19.8026 4.69414 20.8998 5.86488 21.6172C7.03561 22.3345 8.41697 22.6286 9.77839 22.4504C11.1398 22.2722 12.3989 21.6325 13.3456 20.638C13.5858 20.3864 13.9059 20.2261 14.2512 20.1845C14.5965 20.1429 14.9456 20.2226 15.2386 20.41C15.8927 20.8278 16.6604 21.0324 17.4358 20.9955C18.2111 20.9585 18.9559 20.6819 19.5673 20.2038C20.1788 19.7256 20.6268 19.0695 20.8496 18.326C21.0724 17.5824 21.0589 16.788 20.8111 16.0525C20.7114 15.7556 20.7071 15.435 20.7989 15.1356C20.8906 14.8362 21.0737 14.573 21.3226 14.383C21.7529 14.0548 22.0866 13.6164 22.2882 13.1141C22.4897 12.6119 22.5518 12.0645 22.4677 11.5298C22.3836 10.9952 22.1565 10.4933 21.8105 10.0771C21.4645 9.661 21.0124 9.34616 20.5021 9.16595ZM21.0046 7.49645C21.0046 7.58195 21.0046 7.66595 21.0001 7.75145C21.7656 8.02146 22.4438 8.49343 22.9629 9.11737C23.4821 9.74132 23.8229 10.494 23.9493 11.2958C24.0756 12.0976 23.9828 12.9187 23.6807 13.6721C23.3786 14.4254 22.8784 15.0831 22.2331 15.5755C22.5791 16.6051 22.5972 17.7167 22.2849 18.7571C21.9727 19.7975 21.3454 20.7154 20.4895 21.3843C19.6337 22.0532 18.5915 22.4401 17.5065 22.4918C16.4215 22.5436 15.3472 22.2574 14.4316 21.673C13.2479 22.9148 11.6743 23.7134 9.97316 23.9354C8.272 24.1574 6.54613 23.7895 5.08341 22.893C3.62068 21.9965 2.50951 20.6257 1.93522 19.0091C1.36093 17.3925 1.35824 15.6278 1.92759 14.0095C0.881529 12.846 0.225533 11.3844 0.0514555 9.82955C-0.122622 8.27467 0.193935 6.70427 0.956802 5.33825C1.71967 3.97224 2.89065 2.879 4.30577 2.21162C5.72089 1.54424 7.3093 1.33614 8.84859 1.61645C9.95367 0.741376 11.283 0.195437 12.6841 0.041233C14.0853 -0.112971 15.5015 0.130803 16.7704 0.744604C18.0394 1.3584 19.1096 2.31738 19.8585 3.51158C20.6074 4.70578 21.0046 6.08686 21.0046 7.49645Z" fill="white"/>
<path d="M12 16.5C14.4853 16.5 16.5 14.4853 16.5 12C16.5 9.51472 14.4853 7.5 12 7.5C9.51472 7.5 7.5 9.51472 7.5 12C7.5 14.4853 9.51472 16.5 12 16.5Z" fill="white"/>
</g>
<defs>
<clipPath id="clip0_1599_15395">
<rect width="24" height="24" fill="white"/>
</clipPath>
</defs>
</svg>
