<svg width="24" height="24" viewBox="0 0 24 24" fill="none" xmlns="http://www.w3.org/2000/svg">
<path d="M14.7178 2.92801C14.8389 3.02514 14.9269 3.15743 14.9696 3.30665C15.0123 3.45587 15.0076 3.61466 14.9563 3.76113C14.9049 3.9076 14.8094 4.03453 14.6829 4.12442C14.5563 4.21431 14.4051 4.26273 14.2498 4.26301C11.7433 4.26301 9.97184 5.15701 8.82584 6.04051L7.28534 7.60951V9.31501C7.28552 9.41357 7.26627 9.51119 7.22869 9.6023C7.19111 9.69342 7.13594 9.77623 7.06634 9.84601L5.13734 11.7795C5.06767 11.8494 4.98491 11.9048 4.89379 11.9426C4.80267 11.9804 4.70499 11.9998 4.60634 11.9998C4.50769 11.9998 4.41001 11.9804 4.31889 11.9426C4.22777 11.9048 4.14501 11.8494 4.07534 11.7795L0.218841 7.91101C0.0786959 7.77042 0 7.58002 0 7.38151C0 7.183 0.0786959 6.99259 0.218841 6.85201L2.14784 4.91701C2.21762 4.84741 2.30043 4.79224 2.39155 4.75466C2.48266 4.71708 2.58028 4.69783 2.67884 4.69801H4.25984C6.75734 1.84201 9.32384 1.29301 11.3353 1.56001C12.4485 1.71313 13.5131 2.11397 14.4508 2.73301L14.7178 2.92651V2.92801Z" fill="white"/>
<path fill-rule="evenodd" clip-rule="evenodd" d="M9.01822 5.24996C9.12009 5.25247 9.22037 5.27571 9.31295 5.31827C9.40554 5.36082 9.48848 5.42179 9.55672 5.49746L23.2757 18.4665C23.4049 18.6091 23.4742 18.7959 23.4695 18.9883C23.4647 19.1807 23.3862 19.3639 23.2502 19.5L21.0002 21.75C20.924 21.8264 20.8321 21.8854 20.7309 21.9231C20.6297 21.9607 20.5216 21.9761 20.4139 21.9681C20.3063 21.9601 20.2016 21.929 20.1071 21.8769C20.0125 21.8247 19.9304 21.7528 19.8662 21.666L6.89722 7.94546C6.79065 7.80119 6.73932 7.6235 6.75253 7.44462C6.76574 7.26574 6.84261 7.09752 6.96922 6.97046L8.46922 5.47046C8.541 5.39841 8.62668 5.3417 8.72106 5.30379C8.81544 5.26589 8.91654 5.24757 9.01822 5.24996Z" fill="white"/>
</svg>
