<svg width="16" height="16" viewBox="0 0 16 16" fill="none" xmlns="http://www.w3.org/2000/svg">
<g clip-path="url(#clip0_1599_15520)">
<path fill-rule="evenodd" clip-rule="evenodd" d="M11.6667 8.5L4 8.5C3.86739 8.5 3.74021 8.44732 3.64645 8.35355C3.55268 8.25979 3.5 8.13261 3.5 8C3.5 7.86739 3.55268 7.74022 3.64645 7.64645C3.74021 7.55268 3.86739 7.5 4 7.5L9.66667 7.5C12.5 7.5 11.6667 8.5 11.6667 8.5Z" fill="white"/>
<path fill-rule="evenodd" clip-rule="evenodd" d="M7.99987 7.5L11.9999 7.5C12.1325 7.5 12.2597 7.55268 12.3534 7.64645C12.4472 7.74021 12.4999 7.86739 12.4999 8C12.4999 8.13261 12.4472 8.25979 12.3534 8.35355C12.2597 8.44732 12.1325 8.5 11.9999 8.5H7.66654C6.8392 8.5 7.05508 7.5 7.99987 7.5Z" fill="white"/>
<path fill-rule="evenodd" clip-rule="evenodd" d="M14 1L2 1C1.73478 1 1.48043 1.10536 1.29289 1.29289C1.10536 1.48043 1 1.73478 1 2L1 14C1 14.2652 1.10536 14.5196 1.29289 14.7071C1.48043 14.8946 1.73478 15 2 15L14 15C14.2652 15 14.5196 14.8946 14.7071 14.7071C14.8946 14.5196 15 14.2652 15 14L15 2C15 1.73478 14.8946 1.48043 14.7071 1.29289C14.5196 1.10536 14.2652 1 14 1ZM2 0C1.46957 0 0.960859 0.210714 0.585786 0.585786C0.210714 0.960859 0 1.46957 0 2L0 14C0 14.5304 0.210714 15.0391 0.585786 15.4142C0.960859 15.7893 1.46957 16 2 16L14 16C14.5304 16 15.0391 15.7893 15.4142 15.4142C15.7893 15.0391 16 14.5304 16 14V2C16 1.46957 15.7893 0.960859 15.4142 0.585786C15.0391 0.210714 14.5304 0 14 0L2 0Z" fill="white"/>
</g>
<defs>
<clipPath id="clip0_1599_15520">
<rect width="16" height="16" fill="white"/>
</clipPath>
</defs>
</svg>
