<svg width="24" height="24" viewBox="0 0 24 24" fill="none" xmlns="http://www.w3.org/2000/svg">
<g id="Icons">
<path id="Vector" d="M21.9419 9.54467L19.1453 7.95092L19.1341 4.79904L21.9419 9.54467ZM21.9419 9.54467C22.0354 9.59793 22.1164 9.67072 22.1794 9.75807L21.9419 9.54467ZM21.8161 10.1479L21.8162 10.1488C21.9922 11.0306 22.0415 11.9313 21.9641 12.8237H21.4618C21.5292 12.0805 21.5038 11.3309 21.3856 10.5925L21.3477 10.3558L21.1393 10.2371L18.4622 8.71226C18.4617 8.71197 18.4612 8.71168 18.4607 8.71139C18.422 8.68848 18.3899 8.65584 18.3676 8.61672C18.307 8.50433 18.2436 8.40077 18.1856 8.30714L18.1844 8.30521C18.1596 8.26567 18.1464 8.21998 18.1462 8.17333L18.1462 8.17327L18.1359 5.15452L18.1351 4.91146L17.9434 4.76197C17.1809 4.16717 16.3319 3.69231 15.4259 3.3538L15.2092 3.27282L15.0072 3.38559L12.306 4.89358C12.3057 4.89375 12.3053 4.89393 12.305 4.8941C12.2653 4.91576 12.2206 4.92658 12.1753 4.92545L12.1753 4.92529H12.1628H11.8216V4.9251L11.8077 4.92549C11.7632 4.92672 11.7191 4.91602 11.6801 4.8945C11.6799 4.89441 11.6798 4.89432 11.6796 4.89424L8.98271 3.3893L8.77987 3.27611L8.56254 3.35812C7.65846 3.69927 6.81179 4.1765 6.05182 4.77331L5.86176 4.92256L5.86063 5.16422L5.84657 8.18766L5.84657 8.18878C5.84646 8.23464 5.83344 8.27954 5.80902 8.31835L5.80901 8.31835L5.80724 8.3212C5.75052 8.41268 5.69494 8.50859 5.64587 8.59328C5.6405 8.60256 5.6352 8.6117 5.62999 8.62069L5.62997 8.62068L5.62786 8.6244C5.60561 8.66352 5.57322 8.6959 5.5341 8.71815L5.53338 8.71856L2.85963 10.2448L2.65113 10.3638L2.61364 10.601C2.46671 11.5304 2.46671 12.4771 2.61364 13.4065L2.65117 13.6439L2.86004 13.7629L5.5387 15.2886C5.57745 15.3115 5.60955 15.3442 5.6318 15.3833C5.6924 15.4957 5.75576 15.5992 5.8138 15.6928L5.81501 15.6948C5.83977 15.7343 5.85298 15.78 5.85313 15.8266V15.8267L5.86344 18.8454L5.86427 19.0885L6.05593 19.238C6.81853 19.8328 7.66748 20.3077 8.57343 20.6462L8.79015 20.7271L8.99216 20.6144L11.6934 19.1064C11.6937 19.1062 11.6941 19.106 11.6944 19.1058C11.7341 19.0842 11.7788 19.0734 11.8241 19.0745L11.8241 19.0747H11.8366L12.1956 19.0747L12.1979 19.0747C12.2404 19.0745 12.2823 19.0851 12.3195 19.1056C12.3197 19.1057 12.3199 19.1058 12.3201 19.1059L15.0207 20.6108L15.2234 20.7238L15.4406 20.6418C16.3447 20.3007 17.1913 19.8235 17.9513 19.2267L18.1414 19.0774L18.1425 18.8357L18.1566 15.8123L18.1566 15.8112C18.1567 15.7653 18.1697 15.7204 18.1941 15.6816L18.1959 15.6788C18.2526 15.5873 18.3082 15.4914 18.3572 15.4067C18.3626 15.3974 18.3679 15.3883 18.3732 15.3793L18.3753 15.3756C18.3975 15.3364 18.4299 15.3041 18.469 15.2818L18.4691 15.2818L21.1475 13.7583L21.9069 13.3264C21.8824 13.5003 21.8531 13.6736 21.8189 13.8463L21.8189 13.8464C21.8119 13.8816 21.7975 13.9149 21.7765 13.944L22.1822 14.2363L21.7765 13.944C21.7555 13.9731 21.7285 13.9974 21.6973 14.0152L21.6971 14.0153L18.9006 15.609L18.6494 15.7521L18.6481 16.0412L18.6341 19.1959V19.1959C18.6339 19.232 18.6259 19.2677 18.6107 19.3005C18.5954 19.3332 18.5732 19.3623 18.5456 19.3856L18.5453 19.3859C17.5805 20.2042 16.4693 20.8323 15.2705 21.2367C15.2442 21.2455 15.2166 21.25 15.1889 21.25L15.1859 21.25C15.1443 21.2503 15.1033 21.2398 15.0669 21.2195C15.0669 21.2195 15.0668 21.2195 15.0668 21.2195L12.2438 19.6402L11.9996 19.5036L11.7555 19.6402L8.93249 21.2204C8.93239 21.2205 8.93228 21.2206 8.93217 21.2206C8.90176 21.2375 8.86815 21.2479 8.83352 21.251C8.79874 21.2542 8.76369 21.2501 8.73062 21.2389L8.72916 21.2384C7.52935 20.8364 6.41682 20.2101 5.45073 19.3929C5.42321 19.3696 5.40108 19.3405 5.38585 19.3078C5.37058 19.275 5.36261 19.2393 5.3625 19.2031L5.3625 19.2029L5.35125 16.051L5.35022 15.7617L5.09882 15.6184L2.30226 14.0246L2.30206 14.0245C2.27087 14.0068 2.24388 13.9825 2.2229 13.9534L1.81831 14.2448L2.2229 13.9534C2.20192 13.9243 2.18746 13.891 2.1805 13.8558L2.18039 13.8552C1.93727 12.6335 1.93727 11.3758 2.18039 10.1541L2.1805 10.1536C2.18746 10.1184 2.20192 10.0851 2.2229 10.0559L1.8172 9.7637L2.2229 10.0559C2.24388 10.0268 2.27088 10.0026 2.30206 9.98481L2.30226 9.9847L5.09882 8.39095L5.34996 8.24783L5.35125 7.95877L5.36531 4.80409L5.36531 4.80405C5.36547 4.76792 5.37346 4.73225 5.38872 4.69951C5.40399 4.66676 5.42618 4.63771 5.45375 4.61436L5.45423 4.61395C6.419 3.79487 7.53035 3.16617 8.72937 2.76119C8.76251 2.75 8.79763 2.74589 8.83246 2.74912C8.86728 2.75234 8.90105 2.76285 8.93156 2.77994L8.93183 2.78009L11.7556 4.35978L11.9996 4.49629L12.2437 4.35986L15.0641 2.78328C15.0641 2.78324 15.0642 2.78319 15.0643 2.78315C15.0947 2.76623 15.1284 2.75585 15.1631 2.75268C15.1978 2.7495 15.2329 2.75364 15.2659 2.76484L15.2674 2.76533C16.4671 3.16731 17.5796 3.7935 18.5456 4.61061C18.5732 4.63399 18.5955 4.66309 18.6107 4.69589C18.626 4.7287 18.634 4.76443 18.6341 4.80061L18.6341 4.80083L18.6453 7.9527L18.6464 8.24206L18.8977 8.38533L21.6943 9.97908L21.6945 9.97919C21.7257 9.99694 21.7527 10.0212 21.7737 10.0503C21.7946 10.0794 21.8091 10.1127 21.8161 10.1479ZM17.6425 18.8334C16.9226 19.3988 16.1205 19.8509 15.2641 20.174L17.6566 15.81L17.6425 18.8334ZM8.57031 21.7125C8.66953 21.7461 8.77468 21.7585 8.87899 21.749L8.57031 21.7125ZM9.77741 8.6741C10.4352 8.23459 11.2085 8 11.9996 7.99998H11.9997C13.0602 8.00122 14.0769 8.42304 14.8267 9.17293C15.5768 9.92293 15.9986 10.9398 15.9997 12.0005C15.9996 12.7914 15.765 13.5646 15.3256 14.2223C14.886 14.8801 14.2613 15.3927 13.5304 15.6955C12.7995 15.9983 11.9953 16.0775 11.2193 15.9231C10.4434 15.7688 9.73067 15.3878 9.17126 14.8284C8.61185 14.269 8.23089 13.5563 8.07655 12.7803C7.92221 12.0044 8.00142 11.2002 8.30417 10.4692C8.60692 9.73834 9.11961 9.11363 9.77741 8.6741ZM10.0552 14.9101C10.6308 15.2947 11.3075 15.5 11.9997 15.5C12.9279 15.5 13.8182 15.1312 14.4746 14.4749C15.1309 13.8185 15.4997 12.9282 15.4997 12C15.4997 11.3077 15.2944 10.6311 14.9098 10.0555C14.5252 9.47991 13.9786 9.03131 13.3391 8.7664C12.6995 8.5015 11.9958 8.43219 11.3169 8.56723C10.6379 8.70228 10.0143 9.03562 9.52482 9.52511C9.03533 10.0146 8.70199 10.6382 8.56694 11.3172C8.43189 11.9961 8.5012 12.6998 8.76611 13.3394C9.03102 13.9789 9.47962 14.5255 10.0552 14.9101Z" fill="white" stroke="#7088CC"/>
</g>
</svg>
