<svg width="24" height="24" viewBox="0 0 24 24" fill="none" xmlns="http://www.w3.org/2000/svg">
<path d="M11.9999 7.6428C11.4934 7.6428 10.9918 7.74257 10.5239 7.93641C10.0559 8.13025 9.6307 8.41437 9.27253 8.77254C8.91436 9.1307 8.63025 9.55591 8.43641 10.0239C8.24257 10.4919 8.1428 10.9934 8.1428 11.4999C8.1428 12.0065 8.24257 12.508 8.43641 12.976C8.63025 13.444 8.91436 13.8692 9.27253 14.2274C9.6307 14.5855 10.0559 14.8696 10.5239 15.0635C10.9918 15.2573 11.4934 15.3571 11.9999 15.3571C13.0229 15.3571 14.004 14.9507 14.7274 14.2274C15.4507 13.504 15.8571 12.5229 15.8571 11.4999C15.8571 10.477 15.4507 9.49589 14.7274 8.77254C14.004 8.04918 13.0229 7.6428 11.9999 7.6428ZM9.42851 11.4999C9.42851 11.1623 9.49503 10.8279 9.62425 10.5159C9.75348 10.2039 9.94289 9.92045 10.1817 9.68167C10.4204 9.44289 10.7039 9.25348 11.0159 9.12426C11.3279 8.99503 11.6623 8.92852 11.9999 8.92852C12.3376 8.92852 12.672 8.99503 12.984 9.12426C13.296 9.25348 13.5794 9.44289 13.8182 9.68167C14.057 9.92045 14.2464 10.2039 14.3756 10.5159C14.5049 10.8279 14.5714 11.1623 14.5714 11.4999C14.5714 12.1819 14.3005 12.836 13.8182 13.3182C13.336 13.8005 12.6819 14.0714 11.9999 14.0714C11.318 14.0714 10.6639 13.8005 10.1817 13.3182C9.69943 12.836 9.42851 12.1819 9.42851 11.4999ZM18.6085 18.6957L17.1274 18.0451C16.9166 17.9535 16.6873 17.9125 16.4578 17.9253C16.2283 17.9381 16.005 18.0043 15.8057 18.1188C15.4054 18.3502 15.1499 18.7591 15.0994 19.2194L14.9211 20.8308C14.9031 20.9927 14.8356 21.1452 14.7278 21.2673C14.6199 21.3894 14.477 21.4752 14.3185 21.5131C12.7936 21.8766 11.2046 21.8766 9.67966 21.5131C9.52135 21.4751 9.37861 21.3892 9.27093 21.2671C9.16324 21.145 9.09585 20.9926 9.07794 20.8308L8.89966 19.2219C8.87406 18.9955 8.79574 18.7783 8.671 18.5876C8.54626 18.3969 8.37857 18.2381 8.18137 18.1239C7.98438 18.01 7.76336 17.944 7.53616 17.9312C7.30895 17.9184 7.08192 17.9592 6.87337 18.0502L5.39223 18.7008C5.2425 18.7666 5.07603 18.7842 4.91585 18.7512C4.75568 18.7181 4.60974 18.6361 4.49823 18.5165C3.43217 17.3741 2.63887 16.005 2.17794 14.5119C2.12948 14.355 2.13099 14.1869 2.18228 14.0309C2.23358 13.8749 2.3321 13.7386 2.46423 13.6411L3.77309 12.6742C3.95735 12.5389 4.10716 12.362 4.21042 12.158C4.31368 11.954 4.36749 11.7286 4.36749 11.4999C4.36749 11.2713 4.31368 11.0459 4.21042 10.8419C4.10716 10.6379 3.95735 10.461 3.77309 10.3257L2.46423 9.36138C2.33193 9.26376 2.2333 9.1274 2.182 8.9712C2.1307 8.815 2.12928 8.6467 2.17794 8.48966C2.63983 6.99795 3.4337 5.63028 4.49994 4.48938C4.61155 4.36989 4.75754 4.28806 4.91771 4.25519C5.07788 4.22233 5.2443 4.24007 5.39394 4.30595L6.86823 4.9548C7.078 5.04509 7.30599 5.08501 7.53396 5.07139C7.76193 5.05776 7.98354 4.99096 8.18106 4.87632C8.37859 4.76169 8.54653 4.60242 8.67146 4.41124C8.79639 4.22007 8.87483 4.0023 8.90051 3.77538L9.08051 2.16566C9.09864 2.00191 9.16743 1.84789 9.2773 1.72512C9.38717 1.60234 9.53263 1.51693 9.69337 1.4808C10.4485 1.3128 11.2191 1.22366 12.0111 1.21423C12.7842 1.2228 13.5539 1.3128 14.3082 1.4808C14.4692 1.51686 14.6148 1.60237 14.7247 1.72533C14.8346 1.8483 14.9033 2.00257 14.9211 2.16652L15.1002 3.77623C15.1389 4.13321 15.3079 4.46339 15.5748 4.70348C15.8418 4.94358 16.188 5.07672 16.5471 5.07738C16.7468 5.07738 16.9448 5.03538 17.1299 4.95395L18.6042 4.30509C18.7539 4.23921 18.9203 4.22147 19.0805 4.25434C19.2406 4.2872 19.3866 4.36904 19.4982 4.48852C20.5642 5.62948 21.3578 6.99715 21.8194 8.4888C21.8679 8.64564 21.8665 8.81369 21.8154 8.96971C21.7643 9.12573 21.6659 9.26199 21.5339 9.35966L20.2268 10.3257C19.8539 10.5999 19.6285 11.0362 19.6285 11.4999C19.6285 11.9628 19.8539 12.3991 20.2277 12.6742L21.5357 13.6394C21.8065 13.8399 21.9214 14.1897 21.8219 14.5111C21.3604 16.0026 20.5671 17.3702 19.5017 18.5114C19.3901 18.631 19.2442 18.713 19.084 18.746C18.9239 18.779 18.7582 18.7614 18.6085 18.6957ZM13.9397 18.5259C14.1442 17.8854 14.5795 17.3437 15.1611 17.0062C15.5352 16.7907 15.9547 16.6659 16.3858 16.6419C16.8169 16.6179 17.2477 16.6955 17.6434 16.8682L18.7954 17.3739C19.5353 16.5172 20.1081 15.5292 20.4839 14.4614L19.4648 13.7097C19.1178 13.4549 18.8355 13.1214 18.6406 12.7376C18.4458 12.3538 18.3437 11.9295 18.3428 11.4991C18.3428 10.6188 18.7688 9.80195 19.4631 9.29109L19.4648 9.29023L20.4822 8.53852C20.1061 7.47084 19.5331 6.4832 18.7928 5.6268L17.6502 6.12909L17.6485 6.12995C17.3005 6.28423 16.9259 6.36309 16.5462 6.36309C15.871 6.36207 15.2198 6.11217 14.7172 5.66116C14.2147 5.21016 13.896 4.58972 13.8222 3.91852V3.9168L13.6825 2.66538C13.1311 2.56268 12.5719 2.50734 12.0111 2.49995C11.4431 2.50709 10.8768 2.56243 10.3182 2.66538L10.1785 3.91766C10.1305 4.345 9.98283 4.75511 9.74746 5.11502C9.5121 5.47492 9.19558 5.77459 8.82335 5.98993C8.45111 6.20526 8.03355 6.33026 7.60422 6.35488C7.17489 6.3795 6.74578 6.30304 6.35137 6.13166L5.20623 5.62766C4.46593 6.48403 3.89288 7.47168 3.5168 8.53938L4.5368 9.29109C4.88304 9.54607 5.16451 9.87887 5.35849 10.2626C5.55248 10.6464 5.65355 11.0704 5.65355 11.5004C5.65355 11.9304 5.55248 12.3544 5.35849 12.7381C5.16451 13.1219 4.88304 13.4547 4.5368 13.7097L3.5168 14.4622C3.89217 15.5316 4.46495 16.521 5.20537 17.3791L6.35823 16.8734C6.75139 16.7013 7.1795 16.624 7.60801 16.6478C8.03652 16.6717 8.45343 16.7959 8.82508 17.0105C9.19659 17.2251 9.51256 17.5239 9.74762 17.8828C9.98268 18.2417 10.1303 18.6508 10.1785 19.0771V19.0814L10.3174 20.3362C11.4291 20.5548 12.5717 20.5548 13.6834 20.3362L13.8222 19.0788C13.8428 18.8902 13.8814 18.7042 13.9397 18.5259Z" fill="#7088CC"/>
</svg>
