<svg width="20" height="21" viewBox="0 0 20 21" fill="none" xmlns="http://www.w3.org/2000/svg">
<g clip-path="url(#clip0_15092_554492)">
<path d="M9.37417 11.7501V8.62513C9.37417 8.45937 9.44002 8.3004 9.55723 8.18319C9.67444 8.06598 9.83341 8.00013 9.99917 8.00013C10.1649 8.00013 10.3239 8.06598 10.4411 8.18319C10.5583 8.3004 10.6242 8.45937 10.6242 8.62513V11.7501C10.6242 11.9159 10.5583 12.0749 10.4411 12.1921C10.3239 12.3093 10.1649 12.3751 9.99917 12.3751C9.83341 12.3751 9.67444 12.3093 9.55723 12.1921C9.44002 12.0749 9.37417 11.9159 9.37417 11.7501ZM18.4992 17.0626C18.3351 17.3484 18.0984 17.5856 17.813 17.7503C17.5276 17.9149 17.2037 18.0011 16.8742 18.0001H3.12417C2.79467 18.0014 2.47071 17.9154 2.18519 17.7509C1.89967 17.5864 1.66276 17.3493 1.49851 17.0637C1.33426 16.778 1.24853 16.454 1.25002 16.1245C1.25151 15.795 1.34016 15.4718 1.50699 15.1876L8.37417 3.31263C8.53858 3.02703 8.77535 2.7898 9.06063 2.62485C9.34591 2.4599 9.66963 2.37305 9.99917 2.37305C10.3287 2.37305 10.6524 2.4599 10.9377 2.62485C11.223 2.7898 11.4598 3.02703 11.6242 3.31263L18.4914 15.1876C18.6594 15.4712 18.7488 15.7945 18.7502 16.1241C18.7515 16.4537 18.6649 16.7777 18.4992 17.0626ZM17.4132 15.8126L10.5382 3.93763C10.4831 3.84365 10.4043 3.76571 10.3098 3.71156C10.2152 3.65741 10.1081 3.62892 9.99917 3.62892C9.89021 3.62892 9.78313 3.65741 9.68857 3.71156C9.59401 3.76571 9.51525 3.84365 9.46011 3.93763L2.58511 15.8126C2.52868 15.9071 2.49888 16.0151 2.49888 16.1251C2.49888 16.2352 2.52868 16.3432 2.58511 16.4376C2.63917 16.5329 2.71758 16.612 2.81231 16.6669C2.90704 16.7218 3.01468 16.7505 3.12417 16.7501H16.8742C16.9837 16.7505 17.0913 16.7218 17.186 16.6669C17.2808 16.612 17.3592 16.5329 17.4132 16.4376C17.4697 16.3432 17.4995 16.2352 17.4995 16.1251C17.4995 16.0151 17.4697 15.9071 17.4132 15.8126ZM9.99917 13.6251C9.81375 13.6251 9.6325 13.6801 9.47833 13.7831C9.32416 13.8861 9.20399 14.0326 9.13304 14.2039C9.06208 14.3752 9.04351 14.5637 9.07969 14.7455C9.11586 14.9274 9.20515 15.0944 9.33626 15.2255C9.46737 15.3567 9.63442 15.4459 9.81628 15.4821C9.99813 15.5183 10.1866 15.4997 10.3579 15.4288C10.5292 15.3578 10.6757 15.2377 10.7787 15.0835C10.8817 14.9293 10.9367 14.7481 10.9367 14.5626C10.9367 14.314 10.8379 14.0755 10.6621 13.8997C10.4863 13.7239 10.2478 13.6251 9.99917 13.6251Z" fill="white"/>
</g>
<defs>
<clipPath id="clip0_15092_554492">
<rect width="20" height="20" fill="white" transform="translate(0 0.5)"/>
</clipPath>
</defs>
</svg>
