<svg width="24" height="25" viewBox="0 0 24 25" fill="currentColor" xmlns="http://www.w3.org/2000/svg">
<path fill-rule="evenodd" clip-rule="evenodd" d="M12 5.75C12.1989 5.75 12.3897 5.82902 12.5303 5.96967C12.671 6.11032 12.75 6.30109 12.75 6.5V20C12.75 20.1989 12.671 20.3897 12.5303 20.5303C12.3897 20.671 12.1989 20.75 12 20.75C11.8011 20.75 11.6103 20.671 11.4697 20.5303C11.329 20.3897 11.25 20.1989 11.25 20V6.5C11.25 6.30109 11.329 6.11032 11.4697 5.96967C11.6103 5.82902 11.8011 5.75 12 5.75Z" fill="#63FFA1"/>
<path fill-rule="evenodd" clip-rule="evenodd" d="M11.469 4.46888C11.5386 4.39903 11.6214 4.34362 11.7125 4.30581C11.8036 4.268 11.9013 4.24854 12 4.24854C12.0986 4.24854 12.1963 4.268 12.2874 4.30581C12.3785 4.34362 12.4613 4.39903 12.531 4.46888L17.031 8.96888C17.1718 9.10971 17.2509 9.30071 17.2509 9.49988C17.2509 9.69904 17.1718 9.89005 17.031 10.0309C16.8901 10.1717 16.6991 10.2508 16.5 10.2508C16.3008 10.2508 16.1098 10.1717 15.969 10.0309L12 6.06038L8.03097 10.0309C7.89014 10.1717 7.69913 10.2508 7.49997 10.2508C7.30081 10.2508 7.1098 10.1717 6.96897 10.0309C6.82814 9.89005 6.74902 9.69904 6.74902 9.49988C6.74902 9.30071 6.82814 9.10971 6.96897 8.96888L11.469 4.46888Z" fill="#63FFA1"/>
</svg>
