<svg width="24" height="25" viewBox="0 0 24 25" fill="none" xmlns="http://www.w3.org/2000/svg">
<path fill-rule="evenodd" clip-rule="evenodd" d="M6.96936 14.9689C7.03903 14.899 7.1218 14.8436 7.21291 14.8058C7.30403 14.768 7.40171 14.7485 7.50036 14.7485C7.59901 14.7485 7.6967 14.768 7.78781 14.8058C7.87893 14.8436 7.9617 14.899 8.03136 14.9689L12.0004 18.9394L15.9694 14.9689C16.1102 14.828 16.3012 14.7489 16.5004 14.7489C16.6995 14.7489 16.8905 14.828 17.0314 14.9689C17.1722 15.1097 17.2513 15.3007 17.2513 15.4999C17.2513 15.699 17.1722 15.89 17.0314 16.0309L12.5314 20.5309C12.4617 20.6007 12.3789 20.6561 12.2878 20.6939C12.1967 20.7318 12.099 20.7512 12.0004 20.7512C11.9017 20.7512 11.804 20.7318 11.7129 20.6939C11.6218 20.6561 11.539 20.6007 11.4694 20.5309L6.96936 16.0309C6.89952 15.9612 6.8441 15.8784 6.80629 15.7873C6.76849 15.6962 6.74902 15.5985 6.74902 15.4999C6.74902 15.4012 6.76849 15.3035 6.80629 15.2124C6.8441 15.1213 6.89952 15.0385 6.96936 14.9689Z" fill="#FF7B52"/>
<path fill-rule="evenodd" clip-rule="evenodd" d="M12 4.25C12.1989 4.25 12.3897 4.32902 12.5303 4.46967C12.671 4.61032 12.75 4.80109 12.75 5V18.5C12.75 18.6989 12.671 18.8897 12.5303 19.0303C12.3897 19.171 12.1989 19.25 12 19.25C11.8011 19.25 11.6103 19.171 11.4697 19.0303C11.329 18.8897 11.25 18.6989 11.25 18.5V5C11.25 4.80109 11.329 4.61032 11.4697 4.46967C11.6103 4.32902 11.8011 4.25 12 4.25Z" fill="#FF7B52"/>
</svg>
