<svg width="20" height="20" viewBox="0 0 20 20" fill="none" xmlns="http://www.w3.org/2000/svg">
<circle cx="10" cy="10" r="10" fill="url(#paint0_linear_4003_8622)"/>
<path fill-rule="evenodd" clip-rule="evenodd" d="M16.0979 5.88129C16.1464 5.92967 16.1849 5.98714 16.2111 6.05042C16.2374 6.11369 16.2509 6.18153 16.2509 6.25004C16.2509 6.31854 16.2374 6.38638 16.2111 6.44965C16.1849 6.51293 16.1464 6.57041 16.0979 6.61879L8.80622 13.9105C8.75784 13.959 8.70036 13.9974 8.63708 14.0237C8.57381 14.05 8.50597 14.0635 8.43747 14.0635C8.36896 14.0635 8.30112 14.05 8.23785 14.0237C8.17457 13.9974 8.1171 13.959 8.06872 13.9105L4.42288 10.2646C4.32508 10.1668 4.27014 10.0342 4.27014 9.89587C4.27014 9.75756 4.32508 9.62492 4.42288 9.52712C4.52068 9.42932 4.65332 9.37438 4.79163 9.37438C4.92994 9.37438 5.06258 9.42932 5.16038 9.52712L8.43747 12.8052L15.3604 5.88129C15.4088 5.83278 15.4662 5.7943 15.5295 5.76804C15.5928 5.74179 15.6606 5.72827 15.7291 5.72827C15.7976 5.72827 15.8655 5.74179 15.9288 5.76804C15.992 5.7943 16.0495 5.83278 16.0979 5.88129Z" fill="#2A2835"/>
<defs>
<linearGradient id="paint0_linear_4003_8622" x1="7.45058e-08" y1="10" x2="20" y2="10" gradientUnits="userSpaceOnUse">
<stop stop-color="#9DF4FF"/>
<stop offset="1" stop-color="#7981FF"/>
</linearGradient>
</defs>
</svg>
