<svg width="20" height="20" viewBox="0 0 20 20" fill="none" xmlns="http://www.w3.org/2000/svg">
<path fill-rule="evenodd" clip-rule="evenodd" d="M15.9417 2.39237C16.2064 2.65707 16.3337 2.96461 16.3333 3.33293V13.3333C16.3333 13.7027 16.2057 14.0107 15.9415 14.2753C15.6776 14.5397 15.3696 14.6671 14.9999 14.6667H7.49992C7.13061 14.6667 6.82299 14.5392 6.55895 14.2751C6.29498 14.0112 6.1671 13.7029 6.16658 13.3329L6.16659 3.33333C6.16659 2.96421 6.29422 2.65665 6.55875 2.39257C6.82356 2.12821 7.13142 2.00049 7.50013 2H14.9999C15.3691 2 15.677 2.12766 15.9417 2.39237ZM7.16658 3V13.6667H15.3333V3H7.16658Z" fill="white"/>
<path d="M3.83325 17H12.9999V18H4.16659C3.79728 18 3.48966 17.8725 3.22562 17.6085C2.96162 17.3445 2.83374 17.0365 2.83325 16.6665V5.33333H3.83325V17Z" fill="white"/>
</svg>
