<svg width="20" height="20" viewBox="0 0 20 20" fill="none" xmlns="http://www.w3.org/2000/svg">
<path d="M15.518 4.48203C15.05 4.01411 14.4155 3.75086 13.7537 3.74998C13.0919 3.7491 12.4568 4.01067 11.9875 4.47734L11.0773 5.43125C10.9609 5.54005 10.8074 5.60028 10.648 5.59964C10.4887 5.59899 10.3356 5.53752 10.2201 5.42778C10.1046 5.31805 10.0354 5.16834 10.0265 5.00925C10.0177 4.85016 10.07 4.69371 10.1727 4.57188L11.0883 3.61172C11.0915 3.60818 11.0949 3.60479 11.0984 3.60156C11.8036 2.90776 12.7544 2.52072 13.7437 2.52475C14.7329 2.52878 15.6805 2.92355 16.3801 3.62307C17.0796 4.32259 17.4743 5.27019 17.4784 6.25945C17.4824 7.24871 17.0954 8.19949 16.4016 8.90469C16.3983 8.90823 16.3949 8.91162 16.3914 8.91484L15.4313 9.83047C15.3094 9.93315 15.153 9.98542 14.9939 9.97659C14.8348 9.96777 14.6851 9.89852 14.5753 9.783C14.4656 9.66748 14.4041 9.51441 14.4035 9.35508C14.4028 9.19575 14.4631 9.04219 14.5719 8.92578L15.5258 8.01562C15.993 7.54583 16.2546 6.90978 16.2531 6.24721C16.2517 5.58464 15.9873 4.94976 15.518 4.48203ZM8.92266 14.5687L8.0125 15.5227C7.5414 15.9802 6.90918 16.234 6.25249 16.2292C5.59579 16.2244 4.96736 15.9614 4.50299 15.497C4.03863 15.0326 3.77563 14.4042 3.77083 13.7475C3.76603 13.0908 4.01981 12.4586 4.47734 11.9875L5.43125 11.0773C5.54005 10.9609 5.60028 10.8074 5.59964 10.648C5.59899 10.4887 5.53752 10.3356 5.42778 10.2201C5.31805 10.1046 5.16834 10.0354 5.00925 10.0265C4.85016 10.0177 4.69371 10.07 4.57188 10.1727L3.60859 11.0883C3.60505 11.0915 3.60167 11.0949 3.59844 11.0984C2.90464 11.8036 2.5176 12.7544 2.52163 13.7437C2.52565 14.7329 2.92042 15.6805 3.61994 16.3801C4.31946 17.0796 5.26706 17.4743 6.25632 17.4784C7.24559 17.4824 8.19637 17.0954 8.90156 16.4016C8.9051 16.3983 8.90849 16.3949 8.91172 16.3914L9.82734 15.4313C9.88959 15.3731 9.93929 15.3028 9.97337 15.2247C10.0075 15.1466 10.0252 15.0624 10.0256 14.9772C10.0259 14.892 10.0088 14.8076 9.97538 14.7292C9.94192 14.6509 9.8928 14.5802 9.83102 14.5215C9.76925 14.4628 9.69613 14.4174 9.61615 14.388C9.53618 14.3586 9.45104 14.3459 9.36596 14.3506C9.28089 14.3553 9.19768 14.3774 9.12145 14.4154C9.04521 14.4535 8.97756 14.5067 8.92266 14.5719V14.5687ZM16.875 11.875H15C14.8342 11.875 14.6753 11.9408 14.5581 12.0581C14.4408 12.1753 14.375 12.3342 14.375 12.5C14.375 12.6658 14.4408 12.8247 14.5581 12.9419C14.6753 13.0592 14.8342 13.125 15 13.125H16.875C17.0408 13.125 17.1997 13.0592 17.3169 12.9419C17.4342 12.8247 17.5 12.6658 17.5 12.5C17.5 12.3342 17.4342 12.1753 17.3169 12.0581C17.1997 11.9408 17.0408 11.875 16.875 11.875ZM3.125 8.125H5C5.16576 8.125 5.32473 8.05915 5.44194 7.94194C5.55915 7.82473 5.625 7.66576 5.625 7.5C5.625 7.33424 5.55915 7.17527 5.44194 7.05806C5.32473 6.94085 5.16576 6.875 5 6.875H3.125C2.95924 6.875 2.80027 6.94085 2.68306 7.05806C2.56585 7.17527 2.5 7.33424 2.5 7.5C2.5 7.66576 2.56585 7.82473 2.68306 7.94194C2.80027 8.05915 2.95924 8.125 3.125 8.125ZM12.5 14.375C12.3342 14.375 12.1753 14.4408 12.0581 14.5581C11.9408 14.6753 11.875 14.8342 11.875 15V16.875C11.875 17.0408 11.9408 17.1997 12.0581 17.3169C12.1753 17.4342 12.3342 17.5 12.5 17.5C12.6658 17.5 12.8247 17.4342 12.9419 17.3169C13.0592 17.1997 13.125 17.0408 13.125 16.875V15C13.125 14.8342 13.0592 14.6753 12.9419 14.5581C12.8247 14.4408 12.6658 14.375 12.5 14.375ZM7.5 5.625C7.66576 5.625 7.82473 5.55915 7.94194 5.44194C8.05915 5.32473 8.125 5.16576 8.125 5V3.125C8.125 2.95924 8.05915 2.80027 7.94194 2.68306C7.82473 2.56585 7.66576 2.5 7.5 2.5C7.33424 2.5 7.17527 2.56585 7.05806 2.68306C6.94085 2.80027 6.875 2.95924 6.875 3.125V5C6.875 5.16576 6.94085 5.32473 7.05806 5.44194C7.17527 5.55915 7.33424 5.625 7.5 5.625Z" fill="white"/>
</svg>
