      <svg
        xmlns="http://www.w3.org/2000/svg"
        width="68"
        height="28"
        viewBox="0 0 68 28"
        fill="none"
      >
        <path
          d="M67.9998 0.666992H56.6665V9.75282H67.9998V0.666992Z"
          fill="#314C99"
          fill-opacity="0.12"
        />
        <path
          d="M11.3333 0.666992H0V9.75282H11.3333V0.666992Z"
          fill="#314C99"
          fill-opacity="0.12"
        />
        <path
          d="M67.9999 18.8388V9.75293H56.6666V18.8388H67.9999Z"
          fill="#314C99"
          fill-opacity="0.12"
        />
        <path
          d="M67.9999 27.9247V18.8389H56.6666V27.9247H67.9999Z"
          fill="#314C99"
          fill-opacity="0.12"
        />
        <path
          d="M11.3333 18.8388V9.75293H-1.90735e-06V18.8388H11.3333Z"
          fill="#314C99"
          fill-opacity="0.12"
        />
        <path
          d="M11.3333 27.9247V18.8389H-1.90735e-06V27.9247H11.3333Z"
          fill="#314C99"
          fill-opacity="0.12"
        />
        <path
          d="M56.6665 9.75282V0.666992L45.3332 0.666992V9.75282H56.6665Z"
          fill="#314C99"
          fill-opacity="0.12"
        />
        <path
          d="M22.6666 9.75293H11.3333V18.8388H22.6666V9.75293Z"
          fill="#314C99"
          fill-opacity="0.12"
        />
        <path
          d="M45.3333 18.8388V9.75293H34V18.8388H45.3333Z"
          fill="#314C99"
          fill-opacity="0.12"
        />
        <path
          d="M34 27.9247V18.8389H22.6667V27.9247H34Z"
          fill="#314C99"
          fill-opacity="0.12"
        />
      </svg>