<svg width="32" height="31" viewBox="0 0 32 31" fill="none" xmlns="http://www.w3.org/2000/svg">
<path d="M5.26399 13.0732H7.89598V10.5586H5.26399V13.0732Z" fill="#FED955"/>
<path d="M5.26399 18.1025H7.89598V15.5879H5.26399V18.1025Z" fill="#FED955"/>
<path d="M5.26399 15.5879H7.89598V13.0733H5.26399V15.5879Z" fill="#FED955"/>
<path d="M5.26399 20.6172H7.89598V18.1026H5.26399V20.6172Z" fill="#FED955"/>
<path d="M15.792 8.04395H18.424V5.52933H15.792V8.04395Z" fill="#FED955"/>
<path d="M15.792 23.1318L18.424 23.1318L18.424 25.6464L15.792 25.6465L15.792 23.1318Z" fill="#FED955"/>
<path d="M18.424 8.04395H21.0559V5.52933H18.424V8.04395Z" fill="#FED955"/>
<path d="M21.056 8.04395H23.6879V5.52933H21.056V8.04395Z" fill="#9695F8"/>
<path d="M10.528 8.04395L7.89598 8.04395L7.89598 5.52933L10.528 5.52933L10.528 8.04395Z" fill="#9695F8"/>
<path d="M26.3199 23.1318L23.6879 23.1318L23.6879 20.6172L26.3199 20.6172L26.3199 23.1318Z" fill="#9695F8"/>
<path d="M5.26399 23.1318H7.89598V20.6172H5.26399V23.1318Z" fill="#9695F8"/>
<path d="M18.424 5.5293H21.0559V3.01468L18.424 3.01468V5.5293Z" fill="#9695F8"/>
<path d="M18.424 3.01465L21.0559 3.01465V0.500031L18.424 0.500031V3.01465Z" fill="#5552FD"/>
<path d="M18.424 30.6758H21.0559V28.1612H18.424V30.6758Z" fill="#5552FD"/>
<path d="M18.424 28.1611H21.0559V25.6465H18.424V28.1611Z" fill="#9695F8"/>
<path d="M13.16 5.5293H15.792V3.01468L13.16 3.01468V5.5293Z" fill="#9695F8"/>
<path d="M13.16 3.01465L15.792 3.01465V0.500031L13.16 0.500031V3.01465Z" fill="#5552FD"/>
<path d="M13.16 30.6758H15.792V28.1612H13.16V30.6758Z" fill="#5552FD"/>
<path d="M13.16 28.1611H15.792V25.6465H13.16V28.1611Z" fill="#9695F8"/>
<path d="M15.792 5.5293H18.424V3.01468L15.792 3.01468V5.5293Z" fill="#9695F8"/>
<path d="M15.792 3.01465L18.424 3.01465V0.500031L15.792 0.500031V3.01465Z" fill="#5552FD"/>
<path d="M15.792 30.6758H18.424V28.1612H15.792V30.6758Z" fill="#5552FD"/>
<path d="M15.792 28.1611H18.424V25.6465H15.792V28.1611Z" fill="#9695F8"/>
<path d="M10.528 5.5293H13.16V3.01468L10.528 3.01468V5.5293Z" fill="#9695F8"/>
<path d="M10.528 3.01465L13.16 3.01465V0.500031L10.528 0.500031V3.01465Z" fill="#5552FD"/>
<path d="M10.528 30.6758H13.16V28.1612H10.528V30.6758Z" fill="#5552FD"/>
<path d="M10.528 28.1611H13.16V25.6465H10.528V28.1611Z" fill="#9695F8"/>
<path d="M23.6879 10.5586H26.3199V8.04398H23.6879V10.5586Z" fill="#9695F8"/>
<path d="M7.89597 10.5586L5.26398 10.5586L5.26398 8.04398L7.89597 8.04398L7.89597 10.5586Z" fill="#9695F8"/>
<path d="M23.6879 25.6465L21.0559 25.6465L21.0559 23.1319L23.6879 23.1319L23.6879 25.6465Z" fill="#9695F8"/>
<path d="M7.89599 25.6465H10.528V23.1319H7.89599V25.6465Z" fill="#9695F8"/>
<path d="M26.3199 13.0732H28.9519V10.5586H26.3199V13.0732Z" fill="#9695F8"/>
<path d="M2.63198 13.0732H5.26398V10.5586H2.63198L2.63198 13.0732Z" fill="#9695F8"/>
<path d="M-5.00679e-06 13.0732H2.63199L2.63199 10.5586H-5.00679e-06L-5.00679e-06 13.0732Z" fill="#5552FD"/>
<path d="M2.63198 10.5586H5.26398V8.04398H2.63198L2.63198 10.5586Z" fill="#5552FD"/>
<path d="M28.9519 10.5586L26.3199 10.5586L26.3199 8.04398L28.9519 8.04398L28.9519 10.5586Z" fill="#5552FD"/>
<path d="M21.056 28.1611H23.6879V25.6465H21.056V28.1611Z" fill="#5552FD"/>
<path d="M2.63199 20.6172V23.1318H5.26398V20.6172H2.63199Z" fill="#5552FD"/>
<path d="M5.26399 8.04395H7.89598V5.52933H5.26399V8.04395Z" fill="#5552FD"/>
<path d="M26.3199 8.04395L23.6879 8.04395L23.6879 5.52933L26.3199 5.52933L26.3199 8.04395Z" fill="#5552FD"/>
<path d="M23.6879 25.6465H26.3199V23.1319H23.6879V25.6465Z" fill="#5552FD"/>
<path d="M5.26398 23.1319V25.6465H7.89597V23.1319H5.26398Z" fill="#5552FD"/>
<path d="M7.89599 5.5293H10.528V3.01468L7.89599 3.01468V5.5293Z" fill="#5552FD"/>
<path d="M23.6879 5.5293L21.0559 5.5293L21.0559 3.01468L23.6879 3.01468L23.6879 5.5293Z" fill="#5552FD"/>
<path d="M26.3199 23.1318H28.9519V20.6172H26.3199V23.1318Z" fill="#5552FD"/>
<path d="M7.89598 25.6465V28.1611H10.528V25.6465H7.89598Z" fill="#5552FD"/>
<path d="M28.9519 13.0732H31.5839V10.5586H28.9519V13.0732Z" fill="#5552FD"/>
<path d="M26.3199 15.5879H28.9519V13.0733H26.3199V15.5879Z" fill="#9695F8"/>
<path d="M2.63198 15.5879H5.26398V13.0733H2.63198L2.63198 15.5879Z" fill="#9695F8"/>
<path d="M-5.00679e-06 15.5879H2.63199L2.63199 13.0733H-5.00679e-06L-5.00679e-06 15.5879Z" fill="#5552FD"/>
<path d="M28.9519 15.5879H31.5839V13.0733H28.9519V15.5879Z" fill="#5552FD"/>
<path d="M26.3199 18.1025H28.9519V15.5879H26.3199V18.1025Z" fill="#9695F8"/>
<path d="M2.63198 18.1025H5.26398V15.5879H2.63198L2.63198 18.1025Z" fill="#9695F8"/>
<path d="M-5.00679e-06 18.1025H2.63199L2.63199 15.5879H-5.00679e-06L-5.00679e-06 18.1025Z" fill="#5552FD"/>
<path d="M28.9519 18.1025H31.5839V15.5879H28.9519V18.1025Z" fill="#5552FD"/>
<path d="M26.3199 20.6172H28.9519V18.1026H26.3199V20.6172Z" fill="#9695F8"/>
<path d="M2.63198 20.6172H5.26398V18.1026H2.63198L2.63198 20.6172Z" fill="#9695F8"/>
<path d="M-5.00679e-06 20.6172H2.63199L2.63199 18.1026H-5.00679e-06L-5.00679e-06 20.6172Z" fill="#5552FD"/>
<path d="M28.9519 20.6172H31.5839V18.1026H28.9519V20.6172Z" fill="#5552FD"/>
<path d="M18.424 23.1318L21.0559 23.1318L21.0559 25.6464L18.424 25.6465L18.424 23.1318Z" fill="#FED955"/>
<path d="M15.792 13.0732H18.424V10.5586H15.792V13.0732Z" fill="#FED955"/>
<path d="M15.792 18.1025H18.424V15.5879H15.792V18.1025Z" fill="#FED955"/>
<path d="M15.792 20.6172H18.424V18.1026H15.792V20.6172Z" fill="#FED955"/>
<path d="M15.792 10.5586H18.424V8.04398H15.792V10.5586Z" fill="#FED955"/>
<path d="M15.792 20.6172L18.424 20.6172L18.424 23.1318L15.792 23.1318L15.792 20.6172Z" fill="#FED955"/>
<path d="M10.528 18.1025H13.16V15.5879H10.528V18.1025Z" fill="#FED955"/>
<path d="M10.528 15.5879H13.16V13.0733H10.528V15.5879Z" fill="#FED955"/>
<path d="M10.528 20.6172H13.16V18.1026H10.528V20.6172Z" fill="#FED955"/>
<path d="M10.528 10.5586H13.16V8.04398H10.528V10.5586Z" fill="#FED955"/>
<path d="M10.528 20.6172L13.16 20.6172L13.16 23.1318L10.528 23.1318L10.528 20.6172Z" fill="#FED955"/>
<path d="M18.424 18.1025H21.0559V15.5879H18.424V18.1025Z" fill="#FED955"/>
<path d="M18.424 15.5879H21.0559V13.0733H18.424V15.5879Z" fill="#FED955"/>
<path d="M18.424 20.6172H21.0559V18.1026H18.424V20.6172Z" fill="#FED955"/>
<path d="M18.424 10.5586H21.0559V8.04398H18.424V10.5586Z" fill="#FED955"/>
<path d="M18.424 20.6172L21.0559 20.6172L21.0559 23.1318L18.424 23.1318L18.424 20.6172Z" fill="#FED955"/>
<path d="M13.16 8.04395H15.792V5.52933H13.16V8.04395Z" fill="#FED955"/>
<path d="M13.16 23.1318L15.792 23.1318L15.792 25.6464L13.16 25.6465L13.16 23.1318Z" fill="#FED955"/>
<path d="M10.528 8.04395H13.16V5.52933H10.528V8.04395Z" fill="#FED955"/>
<path d="M10.528 23.1318L13.16 23.1318L13.16 25.6464L10.528 25.6465L10.528 23.1318Z" fill="#FED955"/>
<path d="M13.16 13.0732H15.792V10.5586H13.16V13.0732Z" fill="#FED955"/>
<path d="M13.16 18.1025H15.792V15.5879H13.16V18.1025Z" fill="#FED955"/>
<path d="M10.528 13.0732H13.16V10.5586H10.528V13.0732Z" fill="#5552FD"/>
<path d="M15.792 15.5879H18.424V13.0733H15.792V15.5879Z" fill="#5552FD"/>
<path d="M21.056 13.0732H23.6879V10.5586H21.056V13.0732Z" fill="#5552FD"/>
<path d="M21.056 18.1025H23.6879V15.5879H21.056V18.1025Z" fill="#5552FD"/>
<path d="M21.056 15.5879H23.6879V13.0733H21.056V15.5879Z" fill="#5552FD"/>
<path d="M21.056 20.6172H23.6879V18.1026H21.056V20.6172Z" fill="#5552FD"/>
<path d="M21.056 10.5586H23.6879V8.04398H21.056V10.5586Z" fill="#5552FD"/>
<path d="M21.056 20.6172L23.6879 20.6172L23.6879 23.1318L21.056 23.1318L21.056 20.6172Z" fill="#5552FD"/>
<path d="M7.89599 13.0732H10.528V10.5586H7.89599V13.0732Z" fill="#5552FD"/>
<path d="M7.89599 18.1025H10.528V15.5879H7.89599V18.1025Z" fill="#5552FD"/>
<path d="M7.89599 15.5879H10.528V13.0733H7.89599V15.5879Z" fill="#5552FD"/>
<path d="M7.89599 20.6172H10.528V18.1026H7.89599V20.6172Z" fill="#5552FD"/>
<path d="M7.89599 10.5586H10.528V8.04398H7.89599V10.5586Z" fill="#5552FD"/>
<path d="M7.89599 20.6172L10.528 20.6172L10.528 23.1318L7.89599 23.1318L7.89599 20.6172Z" fill="#5552FD"/>
<path d="M18.424 13.0732H21.0559V10.5586H18.424V13.0732Z" fill="#5552FD"/>
<path d="M13.16 15.5879H15.792V13.0733H13.16V15.5879Z" fill="#5552FD"/>
<path d="M13.16 20.6172H15.792V18.1026H13.16V20.6172Z" fill="#FED955"/>
<path d="M13.16 10.5586H15.792V8.04398H13.16V10.5586Z" fill="#FED955"/>
<path d="M13.16 20.6172L15.792 20.6172L15.792 23.1318L13.16 23.1318L13.16 20.6172Z" fill="#FED955"/>
<path d="M23.6879 13.0732H26.3199V10.5586H23.6879V13.0732Z" fill="#FED955"/>
<path d="M23.6879 18.1025H26.3199V15.5879H23.6879V18.1025Z" fill="#FED955"/>
<path d="M23.6879 15.5879H26.3199V13.0733H23.6879V15.5879Z" fill="#FED955"/>
<path d="M23.6879 20.6172H26.3199V18.1026H23.6879V20.6172Z" fill="#FED955"/>
</svg>
