<svg width="684" height="291" viewBox="0 0 684 291" fill="none" xmlns="http://www.w3.org/2000/svg">
<rect y="268" width="24" height="23" rx="11.5" fill="url(#paint0_linear_17012_111697)"/>
<rect x="44" y="261" width="24" height="30" rx="12" fill="url(#paint1_linear_17012_111697)"/>
<rect x="88" y="247" width="24" height="44" rx="12" fill="url(#paint2_linear_17012_111697)"/>
<rect x="132" y="222" width="24" height="69" rx="12" fill="url(#paint3_linear_17012_111697)"/>
<rect x="176" y="204" width="24" height="87" rx="12" fill="url(#paint4_linear_17012_111697)"/>
<rect x="220" y="183" width="24" height="108" rx="12" fill="url(#paint5_linear_17012_111697)"/>
<rect x="264" y="163" width="24" height="128" rx="12" fill="url(#paint6_linear_17012_111697)"/>
<rect x="308" width="24" height="291" rx="12" fill="url(#paint7_linear_17012_111697)"/>
<rect x="352" width="24" height="291" rx="12" fill="url(#paint8_linear_17012_111697)"/>
<rect x="396" y="163" width="24" height="128" rx="12" fill="url(#paint9_linear_17012_111697)"/>
<rect x="440" y="183" width="24" height="108" rx="12" fill="url(#paint10_linear_17012_111697)"/>
<rect x="484" y="204" width="24" height="87" rx="12" fill="url(#paint11_linear_17012_111697)"/>
<rect x="528" y="222" width="24" height="69" rx="12" fill="url(#paint12_linear_17012_111697)"/>
<rect x="572" y="247" width="24" height="44" rx="12" fill="url(#paint13_linear_17012_111697)"/>
<rect x="616" y="261" width="24" height="30" rx="12" fill="url(#paint14_linear_17012_111697)"/>
<rect x="660" y="268" width="24" height="23" rx="11.5" fill="url(#paint15_linear_17012_111697)"/>
<defs>
<linearGradient id="paint0_linear_17012_111697" x1="12" y1="268" x2="12" y2="291" gradientUnits="userSpaceOnUse">
<stop stop-color="#216CB5"/>
<stop offset="0.967708" stop-color="#2881D6" stop-opacity="0"/>
</linearGradient>
<linearGradient id="paint1_linear_17012_111697" x1="56" y1="261" x2="56" y2="291" gradientUnits="userSpaceOnUse">
<stop stop-color="#216CB5"/>
<stop offset="0.967708" stop-color="#2881D6" stop-opacity="0"/>
</linearGradient>
<linearGradient id="paint2_linear_17012_111697" x1="100" y1="247" x2="100" y2="291" gradientUnits="userSpaceOnUse">
<stop stop-color="#216CB5"/>
<stop offset="0.967708" stop-color="#2881D6" stop-opacity="0"/>
</linearGradient>
<linearGradient id="paint3_linear_17012_111697" x1="144" y1="222" x2="144" y2="291" gradientUnits="userSpaceOnUse">
<stop stop-color="#216CB5"/>
<stop offset="0.967708" stop-color="#2881D6" stop-opacity="0"/>
</linearGradient>
<linearGradient id="paint4_linear_17012_111697" x1="188" y1="204" x2="188" y2="291" gradientUnits="userSpaceOnUse">
<stop stop-color="#216CB5"/>
<stop offset="0.967708" stop-color="#2881D6" stop-opacity="0"/>
</linearGradient>
<linearGradient id="paint5_linear_17012_111697" x1="232" y1="183" x2="232" y2="291" gradientUnits="userSpaceOnUse">
<stop stop-color="#216CB5"/>
<stop offset="0.967708" stop-color="#2881D6" stop-opacity="0"/>
</linearGradient>
<linearGradient id="paint6_linear_17012_111697" x1="276" y1="163" x2="276" y2="291" gradientUnits="userSpaceOnUse">
<stop stop-color="#216CB5"/>
<stop offset="0.967708" stop-color="#2881D6" stop-opacity="0"/>
</linearGradient>
<linearGradient id="paint7_linear_17012_111697" x1="320" y1="0" x2="320" y2="291" gradientUnits="userSpaceOnUse">
<stop stop-color="#216CB5"/>
<stop offset="0.967708" stop-color="#2881D6" stop-opacity="0"/>
</linearGradient>
<linearGradient id="paint8_linear_17012_111697" x1="364" y1="0" x2="364" y2="291" gradientUnits="userSpaceOnUse">
<stop stop-color="#216CB5"/>
<stop offset="0.967708" stop-color="#2881D6" stop-opacity="0"/>
</linearGradient>
<linearGradient id="paint9_linear_17012_111697" x1="408" y1="163" x2="408" y2="291" gradientUnits="userSpaceOnUse">
<stop stop-color="#216CB5"/>
<stop offset="0.967708" stop-color="#2881D6" stop-opacity="0"/>
</linearGradient>
<linearGradient id="paint10_linear_17012_111697" x1="452" y1="183" x2="452" y2="291" gradientUnits="userSpaceOnUse">
<stop stop-color="#216CB5"/>
<stop offset="0.967708" stop-color="#2881D6" stop-opacity="0"/>
</linearGradient>
<linearGradient id="paint11_linear_17012_111697" x1="496" y1="204" x2="496" y2="291" gradientUnits="userSpaceOnUse">
<stop stop-color="#216CB5"/>
<stop offset="0.967708" stop-color="#2881D6" stop-opacity="0"/>
</linearGradient>
<linearGradient id="paint12_linear_17012_111697" x1="540" y1="222" x2="540" y2="291" gradientUnits="userSpaceOnUse">
<stop stop-color="#216CB5"/>
<stop offset="0.967708" stop-color="#2881D6" stop-opacity="0"/>
</linearGradient>
<linearGradient id="paint13_linear_17012_111697" x1="584" y1="247" x2="584" y2="291" gradientUnits="userSpaceOnUse">
<stop stop-color="#216CB5"/>
<stop offset="0.967708" stop-color="#2881D6" stop-opacity="0"/>
</linearGradient>
<linearGradient id="paint14_linear_17012_111697" x1="628" y1="261" x2="628" y2="291" gradientUnits="userSpaceOnUse">
<stop stop-color="#216CB5"/>
<stop offset="0.967708" stop-color="#2881D6" stop-opacity="0"/>
</linearGradient>
<linearGradient id="paint15_linear_17012_111697" x1="672" y1="268" x2="672" y2="291" gradientUnits="userSpaceOnUse">
<stop stop-color="#216CB5"/>
<stop offset="0.967708" stop-color="#2881D6" stop-opacity="0"/>
</linearGradient>
</defs>
</svg>
