<svg width="20" height="20" viewBox="0 0 20 20" fill="none" xmlns="http://www.w3.org/2000/svg">
<rect width="20" height="20" rx="10" fill="url(#paint0_radial_2667_117586)"/>
<rect x="0.5" y="0.5" width="19" height="19" rx="9.5" stroke="white" stroke-opacity="0.2"/>
<path d="M11.5061 9.42528L12.5526 7.71183L15.3733 11.9511L15.3747 12.7647L15.3655 7.16633C15.3588 7.02948 15.2835 6.9043 15.1633 6.83047L10.085 4.01178C9.96623 3.95542 9.81551 3.95607 9.69694 4.01356C9.68091 4.02127 9.66582 4.02971 9.6515 4.03891L9.63377 4.04964L4.70445 6.80594L4.68534 6.81432C4.66075 6.82523 4.63586 6.83911 4.61255 6.85522C4.51907 6.91988 4.45702 7.01552 4.43695 7.1228C4.43392 7.13906 4.43169 7.1556 4.43066 7.17233L4.43841 11.7344L7.06577 7.80498C7.39658 7.28395 8.11727 7.11612 8.78632 7.12524L9.57155 7.14523L4.94481 14.3049L5.49021 14.6079L10.1723 7.15251L12.2419 7.14526L7.57181 14.7888L9.51795 15.8689L9.75047 15.9979C9.84883 16.0365 9.96479 16.0385 10.064 16.0039L15.2137 13.1242L14.2291 13.6747L11.5061 9.42528ZM11.9053 14.9742L9.93973 11.9974L11.1396 10.0327L13.7211 13.9588L11.9053 14.9742Z" fill="#2D374B"/>
<path d="M9.94043 11.9972L11.906 14.974L13.7218 13.9586L11.1403 10.0325L9.94043 11.9972Z" fill="#28A0F0"/>
<path d="M15.3754 12.7645L15.374 11.9509L12.5533 7.71167L11.5068 9.42512L14.2298 13.6745L15.2144 13.124C15.311 13.0483 15.3694 12.9373 15.3755 12.8175L15.3754 12.7645Z" fill="#28A0F0"/>
<path d="M3.55469 13.5317L4.94501 14.3048L9.57173 7.1451L8.7865 7.12511C8.11745 7.11599 7.39673 7.28382 7.06595 7.80485L4.43859 11.7343L3.55469 13.0448V13.5317Z" fill="white"/>
<path d="M12.2419 7.14526L10.1724 7.15251L5.49023 14.6079L7.12679 15.5171L7.57184 14.7888L12.2419 7.14526Z" fill="white"/>
<path d="M16.247 7.13487C16.2297 6.71724 15.9953 6.33493 15.6283 6.11235L10.4833 3.25741C10.1202 3.081 9.66665 3.08077 9.3029 3.2573C9.2599 3.27823 4.29959 6.05409 4.29959 6.05409C4.23093 6.08587 4.16481 6.12371 4.10261 6.16667C3.77494 6.39327 3.5752 6.74542 3.55469 7.13229V13.0448L4.43859 11.7344L4.43087 7.17225C4.4319 7.15557 4.43407 7.13914 4.43715 7.12294C4.45714 7.0156 4.51925 6.91985 4.61276 6.85514C4.6361 6.83902 9.68115 4.02118 9.69717 4.01345C9.81575 3.95599 9.96647 3.95531 10.0852 4.01167L15.1636 6.8303C15.2837 6.90413 15.359 7.02931 15.3657 7.16616V12.8175C15.3596 12.9373 15.3105 13.0484 15.2139 13.1241L14.2293 13.6746L13.7213 13.9587L11.9056 14.974L10.0642 16.0037C9.965 16.0383 9.84904 16.0363 9.75068 15.9978L7.57202 14.7886L7.12697 15.517L9.08485 16.6047C9.1496 16.6402 9.20728 16.6717 9.25462 16.6974C9.32791 16.737 9.37787 16.7636 9.3955 16.7718C9.53466 16.837 9.73489 16.875 9.91531 16.875C10.0807 16.875 10.242 16.8457 10.3947 16.788L15.7432 13.7992C16.0501 13.5697 16.2307 13.2236 16.247 12.8486V7.13487Z" fill="#96BEDC"/>
<defs>
<radialGradient id="paint0_radial_2667_117586" cx="0" cy="0" r="1" gradientUnits="userSpaceOnUse" gradientTransform="translate(10 10) rotate(90) scale(10)">
<stop stop-color="#464352"/>
<stop offset="1" stop-color="#212936"/>
</radialGradient>
</defs>
</svg>
