<svg width="20" height="20" viewBox="0 0 20 20" fill="none" xmlns="http://www.w3.org/2000/svg">
<rect width="20" height="20" rx="10" fill="url(#paint0_radial_2667_117594)"/>
<rect x="0.5" y="0.5" width="19" height="19" rx="9.5" stroke="white" stroke-opacity="0.2"/>
<path d="M9.33927 2.64369C9.70636 2.4521 10.2649 2.4521 10.632 2.64369L14.3779 4.59864C14.599 4.71402 14.7204 4.88595 14.7422 5.06345H14.7457V14.89C14.7409 15.0836 14.6183 15.2759 14.3779 15.4014L10.632 17.3563C10.2649 17.5479 9.70636 17.5479 9.33927 17.3563L5.5934 15.4014C5.35401 15.2764 5.23912 15.0828 5.23343 14.89C5.23285 14.8702 5.2328 14.8539 5.23342 14.8405L5.23343 5.1296C5.23288 5.11595 5.23287 5.10234 5.23342 5.0888L5.23343 5.06345H5.23511C5.25175 4.88399 5.36766 4.71644 5.5934 4.59864L9.33927 2.64369ZM14.1499 10.5267L10.6309 12.3692C10.2643 12.5612 9.70656 12.5612 9.34 12.3692L5.82885 10.5308V14.8596L9.34 16.6883C9.5475 16.7982 9.76324 16.9053 9.97332 16.91L9.98544 16.9101C10.1951 16.9108 10.3987 16.8052 10.6051 16.7053L14.1499 14.8438V10.5267ZM4.64612 14.677C4.64612 15.0537 4.68995 15.3013 4.77698 15.4757C4.84912 15.6203 4.95735 15.7307 5.15498 15.8652L5.16626 15.8728C5.20964 15.902 5.25741 15.9326 5.31557 15.9686L5.38416 16.0105L5.59476 16.1375L5.2927 16.6362L5.05698 16.494L5.01736 16.4697C4.9492 16.4277 4.89271 16.3916 4.84002 16.3561C4.27677 15.9769 4.06671 15.5634 4.06256 14.7032L4.0625 14.677H4.64612ZM9.70206 7.91433C9.67481 7.9236 9.64926 7.93436 9.62597 7.94657L5.88581 9.90781C5.88189 9.90985 5.87815 9.9119 5.87458 9.91391L5.87142 9.91572L5.87729 9.91907L5.88581 9.92365L9.62597 11.8849C9.64926 11.8971 9.67481 11.9079 9.70206 11.9171V7.91433ZM10.2979 7.91433V11.9171C10.3252 11.9079 10.3508 11.8971 10.3741 11.8849L14.1142 9.92365C14.1181 9.92161 14.1218 9.91956 14.1254 9.91755L14.1286 9.91572L14.1227 9.91239L14.1142 9.90781L10.3741 7.94657C10.3508 7.93436 10.3252 7.9236 10.2979 7.91433ZM14.1499 5.76545L10.7874 7.51405L14.1499 9.26264V5.76545ZM5.82885 5.76545V9.26264L9.19131 7.51405L5.82885 5.76545ZM10.3708 3.1663C10.1761 3.06442 9.8239 3.06442 9.62923 3.1663L5.88583 5.1255C5.8819 5.12756 5.87815 5.12959 5.87459 5.13161L5.87142 5.13342L5.87729 5.13675L5.88583 5.14135L9.62923 7.10054C9.8239 7.20244 10.1761 7.20244 10.3708 7.10054L14.1142 5.14135C14.1181 5.13929 14.1218 5.13726 14.1254 5.13526L14.1286 5.13342L14.1227 5.1301L14.1142 5.1255L10.3708 3.1663ZM14.7073 3.36376L14.943 3.50595L14.9826 3.53025C15.0508 3.57227 15.1073 3.60837 15.16 3.64385C15.7232 4.02312 15.9333 4.43663 15.9374 5.29683L15.9375 5.32303H15.3539C15.3539 4.94632 15.3101 4.69874 15.223 4.5243C15.1509 4.37974 15.0427 4.26925 14.845 4.13481L14.8337 4.12718C14.7904 4.09798 14.7426 4.06738 14.6844 4.03142L14.6159 3.98947L14.4052 3.86253L14.7073 3.36376Z" fill="white"/>
<defs>
<radialGradient id="paint0_radial_2667_117594" cx="0" cy="0" r="1" gradientUnits="userSpaceOnUse" gradientTransform="translate(10 10) rotate(90) scale(10)">
<stop stop-color="#8AB3FF"/>
<stop offset="1" stop-color="#1969FF"/>
</radialGradient>
</defs>
</svg>
