<svg width="26" height="20" viewBox="0 0 26 20" fill="none" xmlns="http://www.w3.org/2000/svg">
<rect x="3" width="20" height="20" rx="10" fill="url(#paint0_radial_2667_117610)"/>
<rect x="3.5" y="0.5" width="19" height="19" rx="9.5" stroke="white" stroke-opacity="0.2"/>
<mask id="mask0_2667_117610" style="mask-type:luminance" maskUnits="userSpaceOnUse" x="4" y="1" width="18" height="18">
<path d="M21.2907 1.42456H4.70801V18.5733H21.2907V1.42456Z" fill="white"/>
</mask>
<g mask="url(#mask0_2667_117610)">
<path d="M12.8886 1.72412C9.58308 1.72412 6.90553 4.49536 6.90332 7.91367C6.90332 8.30466 6.9387 8.69565 7.00945 9.07979L7.78331 8.53331C9.14308 7.56841 11.3475 7.56841 12.705 8.53331L13.5165 9.10951L13.9565 9.42276C15.1814 10.2916 17.1669 10.2916 18.3896 9.42276L18.75 9.16896C19.4133 5.81924 17.3261 2.54726 14.0869 1.85902C13.6934 1.77442 13.2932 1.73327 12.8908 1.73327L12.8886 1.72412Z" fill="#F2B705"/>
</g>
<mask id="mask1_2667_117610" style="mask-type:luminance" maskUnits="userSpaceOnUse" x="4" y="1" width="18" height="18">
<path d="M21.2907 1.42456H4.70801V18.5733H21.2907V1.42456Z" fill="white"/>
</mask>
<g mask="url(#mask1_2667_117610)">
<path d="M16.2517 11.6315C15.3961 11.6475 14.5559 11.4005 13.8395 10.9227L12.5903 10.0378C11.204 9.15749 9.45504 9.15749 8.06652 10.0378L7.2595 10.6094C7.10031 10.7237 6.88142 10.6803 6.77086 10.5157C6.66031 10.351 6.70232 10.1247 6.86152 10.0104L7.66854 9.43873C9.29585 8.3938 11.3565 8.3938 12.9838 9.43873L14.2331 10.3236C15.469 11.1079 17.0278 11.1079 18.2637 10.3236L18.7369 9.98749C18.8961 9.87316 19.115 9.9166 19.2255 10.0812C19.3361 10.2459 19.2941 10.4722 19.1349 10.5865L18.6617 10.9227C17.9454 11.3983 17.1052 11.6452 16.2517 11.6315Z" fill="#53CBC8"/>
</g>
<mask id="mask2_2667_117610" style="mask-type:luminance" maskUnits="userSpaceOnUse" x="4" y="1" width="18" height="18">
<path d="M21.2907 1.42456H4.70801V18.5733H21.2907V1.42456Z" fill="white"/>
</mask>
<g mask="url(#mask2_2667_117610)">
<path d="M10.3016 14.2313V10.7329C10.2994 10.6597 10.3016 10.5866 10.3104 10.5134C10.3325 10.3145 10.4961 10.1636 10.6907 10.1636C10.8787 10.1704 11.0312 10.3191 11.0489 10.5134C11.0644 10.6346 11.0666 10.7581 11.0622 10.8792V17.8531C11.071 18.0794 10.9008 18.2669 10.6819 18.2761C10.6797 18.2761 10.6775 18.2761 10.6752 18.2761C10.4608 18.2646 10.2972 18.0749 10.3082 17.8531C10.3082 17.8462 10.3082 17.8393 10.3104 17.8348V15.5071L10.3016 14.2313Z" fill="#53CBC8"/>
</g>
<mask id="mask3_2667_117610" style="mask-type:luminance" maskUnits="userSpaceOnUse" x="4" y="1" width="18" height="18">
<path d="M21.2907 1.42456H4.70801V18.5733H21.2907V1.42456Z" fill="white"/>
</mask>
<g mask="url(#mask3_2667_117610)">
<path d="M9.59211 12.4707V14.2085C9.59211 14.5057 9.43512 14.6978 9.22065 14.6978C9.0084 14.6978 8.83815 14.4897 8.83594 14.2085V10.7307C8.83594 10.4266 9.0084 10.2208 9.23171 10.2414C9.45502 10.262 9.58768 10.4358 9.5899 10.7421C9.59211 11.3115 9.59211 11.89 9.59211 12.4707Z" fill="#53CBC8"/>
</g>
<mask id="mask4_2667_117610" style="mask-type:luminance" maskUnits="userSpaceOnUse" x="4" y="1" width="18" height="18">
<path d="M21.2907 1.42456H4.70801V18.5733H21.2907V1.42456Z" fill="white"/>
</mask>
<g mask="url(#mask4_2667_117610)">
<path d="M11.7744 12.4684V11.2496C11.7744 10.9661 11.9203 10.7832 12.137 10.7832C12.3603 10.7946 12.535 10.9913 12.5239 11.2222C12.5239 11.2268 12.5239 11.2336 12.5239 11.2382C12.5306 12.0682 12.5306 12.8982 12.5239 13.7305C12.5239 14.014 12.367 14.1855 12.1392 14.1809C11.9137 14.1787 11.7766 14.0049 11.7744 13.7145V12.4684Z" fill="#53CBC8"/>
</g>
<mask id="mask5_2667_117610" style="mask-type:luminance" maskUnits="userSpaceOnUse" x="4" y="1" width="18" height="18">
<path d="M21.2907 1.42456H4.70801V18.5733H21.2907V1.42456Z" fill="white"/>
</mask>
<g mask="url(#mask5_2667_117610)">
<path d="M7.37207 12.7199V11.4989C7.37207 11.2154 7.518 11.0325 7.73468 11.0325C7.95799 11.0439 8.13266 11.2405 8.12161 11.4715C8.12161 11.4761 8.12161 11.4829 8.12161 11.4875C8.12824 12.3198 8.12824 13.1498 8.12161 13.9821C8.12161 14.2656 7.96462 14.4348 7.7391 14.4325C7.51579 14.4302 7.37428 14.2564 7.37207 13.966V12.7199Z" fill="#53CBC8"/>
</g>
<mask id="mask6_2667_117610" style="mask-type:luminance" maskUnits="userSpaceOnUse" x="4" y="1" width="18" height="18">
<path d="M21.2907 1.42456H4.70801V18.5733H21.2907V1.42456Z" fill="white"/>
</mask>
<g mask="url(#mask6_2667_117610)">
<path d="M13.6078 11.6819C13.8134 11.6819 13.9792 11.8534 13.9792 12.066V12.7291C13.9792 12.9417 13.8134 13.1132 13.6078 13.1132C13.4022 13.1132 13.2363 12.9417 13.2363 12.7291V12.066C13.2385 11.8557 13.4044 11.6819 13.6078 11.6819Z" fill="#53CBC8"/>
</g>
<mask id="mask7_2667_117610" style="mask-type:luminance" maskUnits="userSpaceOnUse" x="4" y="1" width="18" height="18">
<path d="M21.2907 1.42456H4.70801V18.5733H21.2907V1.42456Z" fill="white"/>
</mask>
<g mask="url(#mask7_2667_117610)">
<path d="M15.0775 12.2649C15.2831 12.2649 15.449 12.4364 15.449 12.649V16.3737C15.449 16.5864 15.2831 16.7579 15.0775 16.7579C14.8719 16.7579 14.7061 16.5864 14.7061 16.3737V12.649C14.7061 12.4364 14.8719 12.2649 15.0775 12.2649Z" fill="#53CBC8"/>
</g>
<mask id="mask8_2667_117610" style="mask-type:luminance" maskUnits="userSpaceOnUse" x="4" y="1" width="18" height="18">
<path d="M21.2907 1.42456H4.70801V18.5733H21.2907V1.42456Z" fill="white"/>
</mask>
<g mask="url(#mask8_2667_117610)">
<path d="M16.5394 12.4089C16.745 12.4089 16.9109 12.5804 16.9109 12.7931V15.9576C16.9109 16.1702 16.745 16.3417 16.5394 16.3417C16.3338 16.3417 16.168 16.1702 16.168 15.9576V12.7931C16.168 12.5804 16.3338 12.4089 16.5394 12.4089Z" fill="#53CBC8"/>
</g>
<mask id="mask9_2667_117610" style="mask-type:luminance" maskUnits="userSpaceOnUse" x="4" y="1" width="18" height="18">
<path d="M21.2907 1.42456H4.70801V18.5733H21.2907V1.42456Z" fill="white"/>
</mask>
<g mask="url(#mask9_2667_117610)">
<path d="M18.0179 12.0476C18.2236 12.0476 18.3894 12.2191 18.3894 12.4317V13.7968C18.3894 14.0094 18.2236 14.1809 18.0179 14.1809C17.8123 14.1809 17.6465 14.0094 17.6465 13.7968V12.4317C17.6465 12.2191 17.8145 12.0476 18.0179 12.0476Z" fill="#53CBC8"/>
</g>
<defs>
<radialGradient id="paint0_radial_2667_117610" cx="0" cy="0" r="1" gradientUnits="userSpaceOnUse" gradientTransform="translate(13 10) rotate(90) scale(10)">
<stop stop-color="#1C2F2F"/>
<stop offset="1" stop-color="#222934"/>
</radialGradient>
</defs>
</svg>
