<svg width="20" height="20" viewBox="0 0 20 20" fill="none" xmlns="http://www.w3.org/2000/svg">
<rect width="20" height="20" rx="10" fill="#FF0420"/>
<path d="M7.08766 12.656C6.48766 12.656 5.99966 12.512 5.62366 12.232C5.24766 11.944 5.05566 11.536 5.05566 11.016C5.05566 10.904 5.07166 10.768 5.09566 10.608C5.15966 10.248 5.25566 9.81599 5.37566 9.30399C5.71966 7.92799 6.59966 7.23999 8.01566 7.23999C8.39966 7.23999 8.75166 7.30399 9.05566 7.43999C9.35966 7.56799 9.59966 7.75999 9.77566 8.01599C9.95166 8.27199 10.0397 8.56799 10.0397 8.91999C10.0397 9.02399 10.0237 9.15999 9.99966 9.31999C9.91966 9.76799 9.83166 10.2 9.72766 10.624C9.55166 11.312 9.24766 11.824 8.81566 12.168C8.38366 12.504 7.80766 12.672 7.08766 12.672V12.656ZM7.19966 11.576C7.47966 11.576 7.71966 11.488 7.91166 11.328C8.11166 11.16 8.25566 10.912 8.34366 10.568C8.46366 10.096 8.55166 9.68799 8.60766 9.33599C8.63166 9.23199 8.63966 9.11999 8.63966 9.00799C8.63966 8.55199 8.39966 8.31999 7.92766 8.31999C7.64766 8.31999 7.40766 8.40799 7.20766 8.56799C7.00766 8.73599 6.87166 8.98399 6.78366 9.32799C6.68766 9.66399 6.59966 10.072 6.51166 10.56C6.48766 10.664 6.47966 10.768 6.47966 10.88C6.47166 11.344 6.71966 11.576 7.19966 11.576Z" fill="white"/>
<path d="M10.3757 12.5841C10.3197 12.5841 10.2797 12.5681 10.2477 12.5281C10.2237 12.4881 10.2157 12.4401 10.2237 12.3921L11.2637 7.51207C11.2717 7.45607 11.3037 7.40807 11.3517 7.37607C11.3997 7.33607 11.4477 7.32007 11.4957 7.32007H13.4957C14.0557 7.32007 14.4957 7.44007 14.8317 7.66407C15.1757 7.89607 15.3437 8.23207 15.3437 8.66407C15.3437 8.79207 15.3277 8.92007 15.2957 9.05607C15.1677 9.63207 14.9197 10.0561 14.5357 10.3361C14.1597 10.6161 13.6397 10.7521 12.9837 10.7521H11.9677L11.6237 12.4001C11.6077 12.4561 11.5837 12.5041 11.5357 12.5361C11.4877 12.5761 11.4397 12.5921 11.3917 12.5921H10.3677L10.3757 12.5841ZM13.0317 9.71207C13.2477 9.71207 13.4237 9.65607 13.5837 9.53607C13.7437 9.41607 13.8477 9.25607 13.9037 9.04007C13.9197 8.95207 13.9277 8.88007 13.9277 8.81607C13.9277 8.67207 13.8797 8.56007 13.7997 8.48007C13.7117 8.40007 13.5677 8.36007 13.3597 8.36007H12.4557L12.1677 9.70407H13.0317V9.71207Z" fill="white"/>
</svg>
