<svg width="20" height="20" viewBox="0 0 20 20" fill="none" xmlns="http://www.w3.org/2000/svg">
<rect width="20" height="20" rx="10" fill="url(#paint0_radial_2667_117602)"/>
<rect x="0.5" y="0.5" width="19" height="19" rx="9.5" stroke="white" stroke-opacity="0.2"/>
<g clip-path="url(#clip0_2667_117602)">
<path d="M13.3496 7.80026C13.1104 7.66594 12.8027 7.66594 12.5293 7.80026L10.6152 8.90847L9.31641 9.6137L7.43652 10.7219C7.19727 10.8562 6.88965 10.8562 6.61621 10.7219L5.14648 9.84877C4.90723 9.71444 4.73633 9.44579 4.73633 9.14355V7.46444C4.73633 7.19579 4.87305 6.92713 5.14648 6.75922L6.61621 5.91967C6.85547 5.78534 7.16309 5.78534 7.43652 5.91967L8.90625 6.7928C9.14551 6.92713 9.31641 7.19579 9.31641 7.49803V8.60623L10.6152 7.86743V6.72564C10.6152 6.45698 10.4785 6.18832 10.2051 6.02041L7.4707 4.44205C7.23145 4.30773 6.92383 4.30773 6.65039 4.44205L3.84766 6.054C3.57422 6.18832 3.4375 6.45698 3.4375 6.72564V9.88235C3.4375 10.151 3.57422 10.4197 3.84766 10.5876L6.61621 12.1659C6.85547 12.3003 7.16309 12.3003 7.43652 12.1659L9.31641 11.0913L10.6152 10.3525L12.4951 9.27788C12.7344 9.14355 13.042 9.14355 13.3154 9.27788L14.7852 10.1174C15.0244 10.2518 15.1953 10.5204 15.1953 10.8227V12.5018C15.1953 12.7704 15.0586 13.0391 14.7852 13.207L13.3496 14.0465C13.1104 14.1809 12.8027 14.1809 12.5293 14.0465L11.0596 13.207C10.8203 13.0727 10.6494 12.804 10.6494 12.5018V11.4271L9.35058 12.1659V13.2741C9.35058 13.5428 9.4873 13.8115 9.76074 13.9794L12.5293 15.5577C12.7686 15.6921 13.0762 15.6921 13.3496 15.5577L16.1182 13.9794C16.3574 13.845 16.5283 13.5764 16.5283 13.2741V10.0838C16.5283 9.81519 16.3916 9.54653 16.1182 9.37862L13.3496 7.80026Z" fill="white"/>
</g>
<defs>
<radialGradient id="paint0_radial_2667_117602" cx="0" cy="0" r="1" gradientUnits="userSpaceOnUse" gradientTransform="translate(10 10) rotate(90) scale(10)">
<stop stop-color="#D1AFFF"/>
<stop offset="1" stop-color="#8949E2"/>
</radialGradient>
<clipPath id="clip0_2667_117602">
<rect width="13.125" height="11.25" fill="white" transform="translate(3.4375 4.375)"/>
</clipPath>
</defs>
</svg>
