<svg width="272" height="254" viewBox="0 0 272 254" fill="none" xmlns="http://www.w3.org/2000/svg">
<path d="M8 7H142C207.17 7 260 59.8304 260 125V129C260 194.17 207.17 247 142 247H8V7Z" stroke="url(#paint0_linear_396_256)" stroke-opacity="0.6" stroke-width="4"/>
<path d="M7.5 1.5H152C217.446 1.5 270.5 54.5543 270.5 120V134C270.5 199.446 217.446 252.5 152 252.5H7.5V1.5Z" stroke="url(#paint1_linear_396_256)" stroke-opacity="0.3" stroke-width="3"/>
<path d="M0 9H134.5C199.393 9 252 61.6065 252 126.5V126.5C252 191.393 199.393 244 134.5 244H0V9Z" fill="url(#paint2_linear_396_256)"/>
<defs>
<linearGradient id="paint0_linear_396_256" x1="6" y1="127" x2="262" y2="127" gradientUnits="userSpaceOnUse">
<stop stop-color="#2D4A96"/>
<stop offset="1" stop-color="#745CD2"/>
</linearGradient>
<linearGradient id="paint1_linear_396_256" x1="6" y1="127" x2="272" y2="127" gradientUnits="userSpaceOnUse">
<stop stop-color="#2D4A96"/>
<stop offset="1" stop-color="#745CD2"/>
</linearGradient>
<linearGradient id="paint2_linear_396_256" x1="0" y1="126.5" x2="252" y2="126.5" gradientUnits="userSpaceOnUse">
<stop stop-color="#2D4A96"/>
<stop offset="1" stop-color="#745CD2"/>
</linearGradient>
</defs>
</svg>
