<svg width="62" height="61" viewBox="0 0 62 61" fill="none" xmlns="http://www.w3.org/2000/svg">
<g id="ion:timer-outline">
<path id="Vector" d="M19.4065 22C14.0701 27.96 11.0824 35.6568 11.0001 43.6563C10.7973 61.9352 25.7212 76.9656 44.0001 77C62.2532 77.0344 77.0001 62.248 77.0001 44C77.0001 26.0322 62.6399 11.4108 44.7735 11C44.673 10.9968 44.5728 11.0138 44.479 11.0502C44.3851 11.0865 44.2996 11.1413 44.2274 11.2114C44.1552 11.2815 44.0979 11.3654 44.0588 11.4581C44.0198 11.5509 43.9998 11.6505 44.0001 11.7511V26.125" stroke="url(#paint0_linear_12554_157662)" stroke-opacity="0.24" stroke-width="4" stroke-linecap="round" stroke-linejoin="round"/>
<path id="Vector_2" d="M40.1122 47.8896L26.534 28.4677C26.3462 28.1986 26.259 27.872 26.2879 27.5451C26.3167 27.2182 26.4597 26.9118 26.6917 26.6798C26.9238 26.4477 27.2301 26.3048 27.557 26.2759C27.8839 26.2471 28.2106 26.3342 28.4797 26.5221L47.9015 40.1002C49.0928 40.9582 49.8984 42.2506 50.1441 43.698C50.3898 45.1454 50.0559 46.6313 49.2145 47.8344C48.373 49.0374 47.0919 49.8609 45.648 50.1266C44.2042 50.3923 42.7138 50.0789 41.4992 49.2543C40.9621 48.8821 40.493 48.4205 40.1122 47.8896Z" fill="url(#paint1_linear_12554_157662)" fill-opacity="0.24"/>
</g>
<defs>
<linearGradient id="paint0_linear_12554_157662" x1="10.998" y1="43.9998" x2="77.0001" y2="43.9998" gradientUnits="userSpaceOnUse">
<stop stop-color="#2D4A96"/>
<stop offset="1" stop-color="#745CD2"/>
</linearGradient>
<linearGradient id="paint1_linear_12554_157662" x1="26.2825" y1="38.2447" x2="50.2229" y2="38.2447" gradientUnits="userSpaceOnUse">
<stop stop-color="#2D4A96"/>
<stop offset="1" stop-color="#745CD2"/>
</linearGradient>
</defs>
</svg>
