<svg width="524" height="172" viewBox="0 0 524 172" fill="none" xmlns="http://www.w3.org/2000/svg">
<path fill-rule="evenodd" clip-rule="evenodd" d="M67.7504 13.6016C96.3876 14.2651 119.4 37.7004 119.4 66.4983C119.4 95.7415 95.7631 119.451 66.4967 119.396C37.2011 119.341 13.2802 95.2625 13.6048 65.9464C13.7371 53.1234 18.5264 40.7857 27.0806 31.2319C28.1941 29.9882 30.1051 29.8827 31.3488 30.9963C32.5926 32.1099 32.6981 34.0209 31.5845 35.2646C24.0084 43.726 19.7668 54.653 19.6499 66.0098L19.6499 66.0123C19.3622 91.9478 40.5519 113.302 66.5081 113.351C92.4158 113.399 113.355 92.4137 113.355 66.4983C113.355 41.6357 93.9883 21.2862 69.5251 19.7285V39.4826C69.5251 41.152 68.1718 42.5054 66.5024 42.5054C64.833 42.5054 63.4797 41.152 63.4797 39.4826V17.7616" fill="url(#paint0_linear_239_271)" fill-opacity="0.24"/>
<path d="M60.6204 72.3774L40.0989 43.0239C39.815 42.6172 39.6833 42.1235 39.7269 41.6294C39.7705 41.1354 39.9866 40.6724 40.3373 40.3217C40.688 39.971 41.151 39.7549 41.6451 39.7113C42.1391 39.6677 42.6328 39.7994 43.0395 40.0833L72.393 60.6048C74.1935 61.9015 75.4111 63.8549 75.7824 66.0424C76.1537 68.23 75.649 70.4757 74.3773 72.294C73.1056 74.1122 71.1693 75.3567 68.9871 75.7583C66.805 76.1599 64.5524 75.6863 62.7167 74.4399C61.905 73.8775 61.196 73.1798 60.6204 72.3774Z" fill="url(#paint1_linear_239_271)" fill-opacity="0.24"/>
<path fill-rule="evenodd" clip-rule="evenodd" d="M458.75 52.6016C487.388 53.2651 510.4 76.7004 510.4 105.498C510.4 134.741 486.763 158.451 457.497 158.396C428.201 158.341 404.28 134.262 404.605 104.946C404.737 92.1234 409.526 79.7857 418.081 70.2319C419.194 68.9882 421.105 68.8827 422.349 69.9963C423.593 71.1099 423.698 73.0209 422.584 74.2646C415.008 82.726 410.767 93.653 410.65 105.01L410.65 105.012C410.362 130.948 431.552 152.302 457.508 152.351C483.416 152.399 504.355 131.414 504.355 105.498C504.355 80.6357 484.988 60.2862 460.525 58.7285V78.4826C460.525 80.152 459.172 81.5054 457.502 81.5054C455.833 81.5054 454.48 80.152 454.48 78.4826V56.7616" fill="url(#paint2_linear_239_271)" fill-opacity="0.24"/>
<path d="M451.62 111.377L431.099 82.0239C430.815 81.6172 430.683 81.1235 430.727 80.6294C430.771 80.1354 430.987 79.6724 431.337 79.3217C431.688 78.971 432.151 78.7549 432.645 78.7113C433.139 78.6677 433.633 78.7994 434.039 79.0833L463.393 99.6048C465.193 100.902 466.411 102.855 466.782 105.042C467.154 107.23 466.649 109.476 465.377 111.294C464.106 113.112 462.169 114.357 459.987 114.758C457.805 115.16 455.552 114.686 453.717 113.44C452.905 112.877 452.196 112.18 451.62 111.377Z" fill="url(#paint3_linear_239_271)" fill-opacity="0.24"/>
<defs>
<linearGradient id="paint0_linear_239_271" x1="16.6243" y1="66.498" x2="116.377" y2="66.498" gradientUnits="userSpaceOnUse">
<stop stop-color="#2D4A96"/>
<stop offset="1" stop-color="#745CD2"/>
</linearGradient>
<linearGradient id="paint1_linear_239_271" x1="39.7188" y1="57.8005" x2="75.9015" y2="57.8005" gradientUnits="userSpaceOnUse">
<stop stop-color="#2D4A96"/>
<stop offset="1" stop-color="#745CD2"/>
</linearGradient>
<linearGradient id="paint2_linear_239_271" x1="407.624" y1="105.498" x2="507.377" y2="105.498" gradientUnits="userSpaceOnUse">
<stop stop-color="#2D4A96"/>
<stop offset="1" stop-color="#745CD2"/>
</linearGradient>
<linearGradient id="paint3_linear_239_271" x1="430.719" y1="96.8005" x2="466.902" y2="96.8005" gradientUnits="userSpaceOnUse">
<stop stop-color="#2D4A96"/>
<stop offset="1" stop-color="#745CD2"/>
</linearGradient>
</defs>
</svg>
