<svg width="20" height="20" viewBox="0 0 20 20" fill="none" xmlns="http://www.w3.org/2000/svg">
<g id="ph:wallet">
<path id="Subtract" fill-rule="evenodd" clip-rule="evenodd" d="M9.16658 4.5835L15.8333 4.5835C15.999 4.5835 16.158 4.51765 16.2752 4.40044C16.3924 4.28323 16.4583 4.12426 16.4583 3.9585C16.4583 3.79274 16.3924 3.63376 16.2752 3.51655C16.158 3.39934 15.999 3.3335 15.8333 3.3335H9.02164C9.11643 3.73476 9.16658 4.15327 9.16658 4.5835ZM8.55641 7.0835C8.76025 6.6924 8.91775 6.2733 9.02164 5.8335H17.7083C18.0398 5.8335 18.3577 5.96519 18.5921 6.19961C18.8266 6.43403 18.9583 6.75198 18.9583 7.0835V15.8335C18.9583 16.165 18.8266 16.483 18.5921 16.7174C18.3577 16.9518 18.0398 17.0835 17.7083 17.0835H5.20825C4.71097 17.0835 4.23406 16.886 3.88243 16.5343C3.5308 16.1827 3.33325 15.7058 3.33325 15.2085V9.98438C3.47077 9.99484 3.60972 10.0002 3.74992 10.0002C4.03331 10.0002 4.31161 9.9784 4.58325 9.93646V15.2085C4.58325 15.3743 4.6491 15.5332 4.76631 15.6504C4.88352 15.7676 5.04249 15.8335 5.20825 15.8335H17.7083V7.0835H8.55641ZM14.1163 10.6251C14.0132 10.7793 13.9583 10.9606 13.9583 11.146C13.9583 11.3946 14.057 11.6331 14.2328 11.8089C14.4087 11.9847 14.6471 12.0835 14.8958 12.0835C15.0812 12.0835 15.2624 12.0285 15.4166 11.9255C15.5708 11.8225 15.6909 11.6761 15.7619 11.5048C15.8328 11.3335 15.8514 11.145 15.8152 10.9631C15.7791 10.7812 15.6898 10.6142 15.5587 10.4831C15.4276 10.352 15.2605 10.2627 15.0786 10.2265C14.8968 10.1903 14.7083 10.2089 14.537 10.2799C14.3657 10.3508 14.2193 10.471 14.1163 10.6251Z" fill="white"/>
<path id="Vector" d="M7.5 4.5835C7.5 4.70284 7.45259 4.8173 7.3682 4.90169C7.28381 4.98609 7.16935 5.0335 7.05 5.0335H4.2V7.8835C4.2 8.00284 4.15259 8.1173 4.0682 8.20169C3.98381 8.28609 3.86935 8.3335 3.75 8.3335C3.63065 8.3335 3.51619 8.28609 3.4318 8.20169C3.34741 8.1173 3.3 8.00284 3.3 7.8835V5.0335H0.45C0.330653 5.0335 0.216193 4.98609 0.131802 4.90169C0.0474106 4.8173 0 4.70284 0 4.5835C0 4.46415 0.0474106 4.34969 0.131802 4.2653C0.216193 4.18091 0.330653 4.1335 0.45 4.1335H3.3V1.2835C3.3 1.16415 3.34741 1.04969 3.4318 0.965298C3.51619 0.880907 3.63065 0.833496 3.75 0.833496C3.86935 0.833496 3.98381 0.880907 4.0682 0.965298C4.15259 1.04969 4.2 1.16415 4.2 1.2835V4.1335H7.05C7.16935 4.1335 7.28381 4.18091 7.3682 4.2653C7.45259 4.34969 7.5 4.46415 7.5 4.5835Z" fill="white"/>
</g>
</svg>
