<svg width="40" height="40" viewBox="0 0 40 40" fill="none" xmlns="http://www.w3.org/2000/svg">
<rect width="40" height="40" rx="20" fill="url(#paint0_linear_14860_373710)" fill-opacity="0.2"/>
<path d="M16 15L14 10L18 12L20 10L22 12L26 10L24 15H16ZM24 30H16C10 30 11 26 11 26C11 26 12 19 16 17H24C28 19 29 26 29 26C29 26 30 30 24 30ZM15.5 20.5C15.5 20.8978 15.658 21.2794 15.9393 21.5607C16.2206 21.842 16.6022 22 17 22C17.3978 22 17.7794 21.842 18.0607 21.5607C18.342 21.2794 18.5 20.8978 18.5 20.5C18.5 20.1022 18.342 19.7206 18.0607 19.4393C17.7794 19.158 17.3978 19 17 19C16.6022 19 16.2206 19.158 15.9393 19.4393C15.658 19.7206 15.5 20.1022 15.5 20.5ZM24.5 26.5C24.5 26.1022 24.342 25.7206 24.0607 25.4393C23.7794 25.158 23.3978 25 23 25C22.6022 25 22.2206 25.158 21.9393 25.4393C21.658 25.7206 21.5 26.1022 21.5 26.5C21.5 26.8978 21.658 27.2794 21.9393 27.5607C22.2206 27.842 22.6022 28 23 28C23.3978 28 23.7794 27.842 24.0607 27.5607C24.342 27.2794 24.5 26.8978 24.5 26.5ZM24.5 20.35L23.15 19L15.5 26.65L16.87 28L24.5 20.35Z" fill="#7088CC"/>
<defs>
<linearGradient id="paint0_linear_14860_373710" x1="0" y1="20" x2="40" y2="20" gradientUnits="userSpaceOnUse">
<stop stop-color="#2D4A96"/>
<stop offset="1" stop-color="#745CD2"/>
</linearGradient>
</defs>
</svg>
