          <svg
            xmlns="http://www.w3.org/2000/svg"
            width="24"
            height="24"
            viewBox="0 0 24 24"
            fill="none"
          >
            <g clip-path="url(#clip0_10606_110702)">
              <path
                d="M11.989 23.9749C18.6087 23.9749 23.9751 18.6086 23.9751 11.9889C23.9751 5.36914 18.6087 0.00279236 11.989 0.00279236C5.36927 0.00279236 0.00292969 5.36914 0.00292969 11.9889C0.00292969 18.6086 5.36927 23.9749 11.989 23.9749Z"
                fill="#FCFC06"
              />
              <path
                d="M12.7014 7.32574C14.1759 7.4109 15.6481 7.49381 17.1225 7.57896C15.117 8.77106 13.1093 9.96317 11.1037 11.1575C9.78391 10.8774 8.46632 10.5951 7.14648 10.315C8.99739 9.31782 10.8505 8.3229 12.7014 7.32574Z"
                stroke="black"
                stroke-miterlimit="10"
                stroke-linecap="round"
                stroke-linejoin="round"
              />
              <path
                d="M7.14437 10.315C6.61106 11.7894 6.07775 13.2616 5.54443 14.7361C7.50962 15.5069 9.47481 16.28 11.4377 17.0508C14.0057 15.1148 16.5737 13.1787 19.1416 11.2404C18.4672 10.0192 17.7949 8.79796 17.1204 7.57672"
                stroke="black"
                stroke-miterlimit="10"
                stroke-linecap="round"
                stroke-linejoin="round"
              />
              <path
                d="M11.104 11.1575C11.216 13.051 11.3281 14.9467 11.4401 16.8402"
                stroke="black"
                stroke-miterlimit="10"
                stroke-linecap="round"
                stroke-linejoin="round"
              />
            </g>
            <defs>
              <clipPath id="clip0_10606_110702">
                <rect width="24" height="24" fill="white" />
              </clipPath>
            </defs>
          </svg>