<svg width="14" height="14" viewBox="0 0 14 14" fill="none" xmlns="http://www.w3.org/2000/svg">
<path d="M5.29255 12.1442C5.23454 12.2447 5.13898 12.318 5.0269 12.3481C4.91482 12.3781 4.7954 12.3624 4.69492 12.3044L3.17937 11.4294C3.07889 11.3713 3.00556 11.2758 2.97553 11.1637C2.9455 11.0516 2.96122 10.9322 3.01924 10.8317C3.07725 10.7312 3.17281 10.6579 3.28489 10.6279C3.39697 10.5978 3.51639 10.6136 3.61687 10.6716L5.13242 11.5466C5.2329 11.6046 5.30623 11.7002 5.33626 11.8122C5.36629 11.9243 5.35057 12.0437 5.29255 12.1442ZM7.2184 6.18357C7.3308 6.24846 7.45993 6.27857 7.58944 6.27008C7.71896 6.26159 7.84305 6.21489 7.94602 6.13588C8.04899 6.05686 8.12622 5.94909 8.16794 5.82618C8.20966 5.70328 8.214 5.57076 8.18041 5.44539C8.14682 5.32002 8.0768 5.20742 7.97922 5.12184C7.88163 5.03626 7.76086 4.98154 7.63218 4.9646C7.50349 4.94766 7.37268 4.96926 7.25627 5.02667C7.13986 5.08407 7.04309 5.17471 6.97819 5.28711C6.89117 5.43784 6.86759 5.61697 6.91263 5.78509C6.95768 5.95321 7.06767 6.09654 7.2184 6.18357ZM10.5486 10.874L8.44204 13.1707C8.34204 13.2798 8.216 13.3617 8.07572 13.4088C7.93544 13.456 7.78549 13.4667 7.63991 13.4402C7.49434 13.4136 7.35788 13.3505 7.2433 13.2569C7.12872 13.1632 7.03977 13.042 6.98477 12.9046L6.25712 11.1856L3.36812 9.5176L1.5146 9.74642C1.36812 9.76748 1.21869 9.75104 1.08029 9.69864C0.941895 9.64625 0.819046 9.55961 0.723236 9.44682C0.627427 9.33404 0.561788 9.1988 0.532458 9.05375C0.503128 8.9087 0.511066 8.75858 0.555529 8.61743L1.49128 5.64478C1.53173 5.51738 1.60067 5.40087 1.69287 5.30409C1.78507 5.20731 1.89811 5.13281 2.0234 5.08624L4.31282 4.2446C4.7025 3.67451 5.17758 3.16779 5.7214 2.74222C7.21665 1.56331 8.86549 1.234 9.50668 1.14826C9.69893 1.12203 9.89445 1.16044 10.0625 1.25746C10.2305 1.35447 10.3615 1.50459 10.435 1.6842C10.6799 2.28154 11.2205 3.87495 10.9472 5.75933C10.8505 6.44307 10.6492 7.10787 10.3504 7.73038L10.7662 10.1339C10.7885 10.2657 10.7805 10.4008 10.7428 10.5291C10.7051 10.6573 10.6387 10.7753 10.5486 10.874ZM3.89655 8.81233L6.60274 10.3748C8.62949 9.17433 9.7993 7.58019 10.0813 5.63385C10.3304 3.91609 9.7953 2.43008 9.62465 2.01582C9.17961 2.07462 7.62514 2.35422 6.26209 3.42885C4.71843 4.64675 3.92277 6.45691 3.89655 8.81233ZM3.02618 8.67924C3.05128 7.45814 3.26768 6.36875 3.67537 5.41106L2.32594 5.90755L1.38991 8.88067L1.40199 8.87943L3.02618 8.67924ZM9.90366 10.2825L9.65892 8.86566C9.03542 9.69623 8.20081 10.4287 7.15509 11.0631L7.79245 12.5677L7.79742 12.5788L9.90366 10.2825Z" fill="#FCFD02"/>
</svg>
