<svg width="10" height="16" viewBox="0 0 10 16" fill="none" xmlns="http://www.w3.org/2000/svg">
<path d="M9.19253 10.4744C9.25065 10.5324 9.29674 10.6014 9.3282 10.6773C9.35965 10.7531 9.37584 10.8345 9.37584 10.9166C9.37584 10.9987 9.35965 11.0801 9.3282 11.1559C9.29674 11.2318 9.25065 11.3007 9.19253 11.3588L5.44253 15.1088C5.38449 15.1669 5.31556 15.213 5.23969 15.2444C5.16381 15.2759 5.08248 15.2921 5.00035 15.2921C4.91821 15.2921 4.83688 15.2759 4.76101 15.2444C4.68514 15.213 4.61621 15.1669 4.55816 15.1088L0.80816 11.3588C0.690884 11.2415 0.625 11.0824 0.625 10.9166C0.625 10.7507 0.690884 10.5917 0.80816 10.4744C0.925435 10.3571 1.0845 10.2912 1.25035 10.2912C1.4162 10.2912 1.57526 10.3571 1.69254 10.4744L5.00035 13.783L8.30816 10.4744C8.3662 10.4163 8.43514 10.3702 8.51101 10.3387C8.58688 10.3073 8.66821 10.2911 8.75035 10.2911C8.83248 10.2911 8.91381 10.3073 8.98969 10.3387C9.06556 10.3702 9.13449 10.4163 9.19253 10.4744ZM1.69254 5.52544L5.00035 2.21685L8.30816 5.52544C8.42543 5.64272 8.58449 5.7086 8.75035 5.7086C8.9162 5.7086 9.07526 5.64272 9.19253 5.52544C9.30981 5.40817 9.3757 5.24911 9.3757 5.08326C9.3757 4.9174 9.30981 4.75834 9.19253 4.64107L5.44253 0.891068C5.38449 0.832958 5.31556 0.786858 5.23969 0.755405C5.16381 0.723953 5.08248 0.707764 5.00035 0.707764C4.91821 0.707764 4.83688 0.723953 4.76101 0.755405C4.68514 0.786858 4.61621 0.832958 4.55816 0.891068L0.80816 4.64107C0.690884 4.75834 0.625 4.9174 0.625 5.08326C0.625 5.24911 0.690885 5.40817 0.80816 5.52544C0.925436 5.64272 1.0845 5.7086 1.25035 5.7086C1.4162 5.7086 1.57526 5.64272 1.69254 5.52544Z" fill="#878B93"/>
</svg>
