<svg width="18" height="18" viewBox="0 0 18 18" fill="none" xmlns="http://www.w3.org/2000/svg">
<path d="M9 17.125C10.607 17.125 12.1779 16.6485 13.514 15.7557C14.8502 14.8629 15.8916 13.594 16.5065 12.1093C17.1215 10.6247 17.2824 8.99099 16.9689 7.41489C16.6554 5.8388 15.8815 4.39106 14.7452 3.25476C13.6089 2.11846 12.1612 1.34463 10.5851 1.03112C9.00901 0.717618 7.37535 0.878521 5.8907 1.49348C4.40605 2.10845 3.1371 3.14985 2.24431 4.486C1.35152 5.82215 0.875 7.39303 0.875 9C0.877275 11.1542 1.73403 13.2195 3.25727 14.7427C4.78051 16.266 6.84581 17.1227 9 17.125ZM9 2.125C10.3597 2.125 11.689 2.52821 12.8195 3.28365C13.9501 4.03908 14.8313 5.11281 15.3517 6.36905C15.872 7.6253 16.0082 9.00763 15.7429 10.3412C15.4776 11.6749 14.8228 12.8999 13.8614 13.8614C12.8999 14.8228 11.6749 15.4776 10.3412 15.7429C9.00763 16.0082 7.62529 15.872 6.36905 15.3517C5.11281 14.8313 4.03908 13.9501 3.28365 12.8195C2.52821 11.689 2.125 10.3598 2.125 9C2.12707 7.17727 2.85206 5.42979 4.14092 4.14093C5.42979 2.85206 7.17727 2.12707 9 2.125ZM9.625 8.375V12.75C9.625 12.9158 9.55915 13.0747 9.44194 13.1919C9.32473 13.3092 9.16576 13.375 9 13.375C8.83424 13.375 8.67527 13.3092 8.55806 13.1919C8.44085 13.0747 8.375 12.9158 8.375 12.75V8.375C8.375 8.20924 8.44085 8.05027 8.55806 7.93306C8.67527 7.81585 8.83424 7.75 9 7.75C9.16576 7.75 9.32473 7.81585 9.44194 7.93306C9.55915 8.05027 9.625 8.20924 9.625 8.375ZM8.0625 5.5625C8.0625 5.37708 8.11748 5.19583 8.2205 5.04166C8.32351 4.88749 8.46993 4.76732 8.64123 4.69637C8.81254 4.62541 9.00104 4.60684 9.1829 4.64302C9.36475 4.67919 9.5318 4.76848 9.66291 4.89959C9.79402 5.0307 9.88331 5.19775 9.91949 5.37961C9.95566 5.56146 9.93709 5.74996 9.86614 5.92127C9.79518 6.09257 9.67502 6.23899 9.52085 6.34201C9.36667 6.44502 9.18542 6.5 9 6.5C8.75136 6.5 8.5129 6.40123 8.33709 6.22542C8.16127 6.0496 8.0625 5.81114 8.0625 5.5625Z" fill="#878B93"/>
</svg>
