<svg width="25" height="14" viewBox="0 0 25 14" fill="none" xmlns="http://www.w3.org/2000/svg">
<path d="M13.7876 6.81535C13.7876 10.5793 10.757 13.6305 7.0189 13.6305C3.28076 13.6305 0.25 10.5793 0.25 6.81535C0.25 3.05146 3.28053 0 7.0189 0C10.7573 0 13.7876 3.05146 13.7876 6.81535Z" fill="white"/>
<path d="M21.2127 6.81522C21.2127 10.3581 19.6975 13.2313 17.8283 13.2313C15.9591 13.2313 14.4438 10.3581 14.4438 6.81522C14.4438 3.27232 15.9589 0.399094 17.8281 0.399094C19.6973 0.399094 21.2125 3.2714 21.2125 6.81522" fill="white"/>
<path d="M24.25 6.81505C24.25 9.98862 23.7172 12.5629 23.0597 12.5629C22.4022 12.5629 21.8696 9.98931 21.8696 6.81505C21.8696 3.64079 22.4025 1.06721 23.0597 1.06721C23.717 1.06721 24.25 3.64056 24.25 6.81505Z" fill="white"/>
</svg>
