<svg width="100" height="100" viewBox="0 0 100 100" fill="none" xmlns="http://www.w3.org/2000/svg">
<circle cx="50" cy="50" r="50" fill="#FCFC06"/>
<path d="M50.2541 18.8967C47.7381 18.9209 45.1561 19.6437 43.8137 21.037L44.3989 24.3297L41.9463 24.3466L42.4353 25.9143L44.1072 31.2743C44.2981 35.3558 42.9843 38.6246 41.0046 41.6906C38.5496 45.4924 35.0167 48.8708 32.1944 52.6225C30.6892 54.6234 30.1414 56.9554 30.4646 59.2071C30.7875 61.4584 31.9388 63.6199 33.6931 65.4906C37.2016 69.2323 43.1494 71.8765 50.4047 71.8258C57.2817 71.7781 63.1729 69.0462 66.7198 65.2746C68.4933 63.3886 69.6912 61.2258 70.0535 58.9681C70.4155 56.7103 69.8871 54.3607 68.3413 52.3694H68.3417C65.4599 48.6567 61.8672 45.3282 59.3459 41.5608C57.2755 38.467 55.8936 35.1538 56.0767 30.9652L58.0595 24.236L55.7679 24.2517L56.3004 20.95C55.221 19.5476 52.7705 18.8729 50.2542 18.8971L50.2541 18.8967ZM54.799 26.6914L53.942 29.5997C51.012 30.989 48.5672 30.8838 46.1588 29.6801L45.2473 26.7573L54.799 26.6914ZM53.6577 32.3541C53.8231 36.4527 55.3133 39.9099 57.3233 42.9135C58.283 44.3475 59.3551 45.6911 60.4582 46.983C57.7554 46.2416 54.0275 45.765 49.9309 45.765C46.2625 45.765 42.8914 46.1478 40.2854 46.7597C41.2598 45.5644 42.2008 44.3239 43.0489 43.0107C44.9959 39.9956 46.4213 36.5396 46.5343 32.469C48.7637 33.2054 51.177 33.2143 53.658 32.3541H53.6577ZM63.4989 50.4213C64.0555 51.0444 64.6034 51.6639 65.1285 52.2814C64.1819 52.8972 62.9879 53.3894 61.5748 53.809C58.5214 54.7152 54.4404 55.2482 49.9308 55.2482C45.4211 55.2482 41.34 54.7151 38.2867 53.809C37.1405 53.4687 36.1412 53.0795 35.2985 52.6165C35.8183 51.9824 36.3629 51.3457 36.9162 50.7061C37.4854 50.9743 38.1796 51.2392 38.9791 51.4764C41.7088 52.2863 45.6164 52.815 49.9309 52.815C54.2455 52.815 58.153 52.2863 60.8827 51.4764C61.9647 51.1553 62.8563 50.7845 63.499 50.4215L63.4989 50.4213ZM29.9533 64.0929C23.4228 65.8674 19.2046 68.4957 19.2046 71.4112C19.2046 76.7519 33.0746 81.0922 50.1546 81.0922C67.2344 81.0922 81.1047 76.7519 81.1047 71.4112C81.1047 68.5062 76.9224 65.8672 70.4322 64.0929C72.6757 65.2492 74.0153 66.5995 74.0153 68.057C74.0153 72.2406 63.2978 75.6801 50.1548 75.6801C37.0116 75.6801 26.3706 72.2402 26.3706 68.057C26.3706 66.5915 27.687 65.253 29.9537 64.0929H29.9533Z" fill="black"/>
</svg>
